<?xml version="1.0" encoding="UTF-8"?>
<svg width="250px" height="200px" viewBox="0 0 250 200" version="1.1" xmlns="http://www.w3.org/2000/svg" xmlns:xlink="http://www.w3.org/1999/xlink">
    <title>title</title>
    <g id="title" stroke="none" stroke-width="1" fill="none" fill-rule="evenodd">
        <g id="tit">
            <circle id="Oval" fill="#FF404E" cx="220" cy="34" r="6"></circle>
            <path d="M15.8203125,38 L15.8203125,15.5976562 L23.59375,15.5976562 L23.59375,9.81640625 L0.8984375,9.81640625 L0.8984375,15.5976562 L8.671875,15.5976562 L8.671875,38 L15.8203125,38 Z M40.6734035,38 L40.6734035,27.4921875 L51.5913723,27.4921875 L51.5913723,22.0039062 L40.6734035,22.0039062 L40.6734035,15.5976562 L52.6851223,15.5976562 L52.6851223,9.81640625 L33.5054348,9.81640625 L33.5054348,38 L40.6734035,38 Z M59.2034647,38 L61.0003397,31.8085938 L70.2190897,31.8085938 L71.9964334,38 L79.6136209,38 L70.1409647,9.81640625 L61.3714334,9.81640625 L51.8987772,38 L59.2034647,38 Z M68.8128397,26.6523438 L62.3870584,26.6523438 L65.5315897,15.7929688 L65.6878397,15.7929688 L68.8128397,26.6523438 Z M93.1046196,38.4882812 C100.370245,38.4882812 105.565557,34.0742188 105.897588,27.375 L99.0030571,27.375 C98.5538383,30.6757812 96.2686821,32.7460938 93.1241508,32.7460938 C89.1788383,32.7460938 86.7179008,29.40625 86.7179008,23.8789062 C86.7179008,18.4101562 89.1983696,15.0703125 93.1046196,15.0703125 C96.2491508,15.0703125 98.6124321,17.2578125 98.9639946,20.578125 L105.858526,20.578125 C105.643682,13.9179688 100.233526,9.328125 93.1046196,9.328125 C84.7061821,9.328125 79.4132133,14.6992188 79.4132133,23.8984375 C79.4132133,33.1171875 84.6671196,38.4882812 93.1046196,38.4882812 Z M121.888587,38 L121.888587,15.5976562 L129.662024,15.5976562 L129.662024,9.81640625 L106.966712,9.81640625 L106.966712,15.5976562 L114.740149,15.5976562 L114.740149,38 L121.888587,38 Z M143.934273,38.4882812 C152.469429,38.4882812 157.840523,32.9023438 157.840523,23.9179688 C157.840523,14.9335938 152.469429,9.328125 143.934273,9.328125 C135.399117,9.328125 130.008492,14.9335938 130.008492,23.9179688 C130.008492,32.9023438 135.379586,38.4882812 143.934273,38.4882812 Z M143.934273,32.6679688 C139.910836,32.6679688 137.313179,29.2695312 137.313179,23.9179688 C137.313179,18.546875 139.930367,15.1484375 143.934273,15.1484375 C147.938179,15.1484375 150.555367,18.546875 150.555367,23.9179688 C150.555367,29.2695312 147.938179,32.6679688 143.934273,32.6679688 Z M168.069803,38 L168.069803,28.1367188 L171.722147,28.1367188 L176.565897,38 L184.612772,38 L178.96824,27.0820312 C182.054178,25.734375 183.792459,22.5703125 183.792459,19.1132812 C183.792459,13.2929688 180.003397,9.81640625 172.972147,9.81640625 L160.901834,9.81640625 L160.901834,38 L168.069803,38 Z M172.269022,23.234375 L168.069803,23.234375 L168.069803,15.2265625 L172.24949,15.2265625 C174.808084,15.2265625 176.46824,16.8476562 176.46824,19.25 C176.46824,21.6914062 174.90574,23.234375 172.269022,23.234375 Z M201.345958,38 L201.345958,28.3125 L211.052989,9.81640625 L203.494395,9.81640625 L197.908458,21.5351562 L197.771739,21.5351562 L192.16627,9.81640625 L184.470958,9.81640625 L194.177989,28.3125 L194.177989,38 L201.345958,38 Z" id="TFACTORY" fill="#3617CE" fill-rule="nonzero"></path>
        </g>
        <g id="tit" transform="translate(0.000000, 50.000000)">
            <circle id="Oval" fill="#FF404E" cx="211" cy="33" r="6"></circle>
            <path d="M9.296875,38 L9.296875,29.7382812 L13.90625,29.7382812 C20.1757812,29.7382812 24.4921875,25.8125 24.4921875,19.796875 C24.4921875,13.7421875 20.390625,9.81640625 14.3359375,9.81640625 L2.12890625,9.81640625 L2.12890625,38 L9.296875,38 Z M12.4023438,24.3476562 L9.296875,24.3476562 L9.296875,15.3046875 L12.4414062,15.3046875 C15.4492188,15.3046875 17.2460938,16.8867188 17.2460938,19.8164062 C17.2460938,22.765625 15.4492188,24.3476562 12.4023438,24.3476562 Z M34.4089674,38 L34.4089674,28.1367188 L38.0613111,28.1367188 L42.9050611,38 L50.9519361,38 L45.3074049,27.0820312 C48.3933424,25.734375 50.1316236,22.5703125 50.1316236,19.1132812 C50.1316236,13.2929688 46.3425611,9.81640625 39.3113111,9.81640625 L27.2409986,9.81640625 L27.2409986,38 L34.4089674,38 Z M38.6081861,23.234375 L34.4089674,23.234375 L34.4089674,15.2265625 L38.5886549,15.2265625 C41.1472486,15.2265625 42.8074049,16.8476562 42.8074049,19.25 C42.8074049,21.6914062 41.2449049,23.234375 38.6081861,23.234375 Z M66.415591,38.4882812 C74.9507473,38.4882812 80.321841,32.9023438 80.321841,23.9179688 C80.321841,14.9335938 74.9507473,9.328125 66.415591,9.328125 C57.8804348,9.328125 52.4898098,14.9335938 52.4898098,23.9179688 C52.4898098,32.9023438 57.8609035,38.4882812 66.415591,38.4882812 Z M66.415591,32.6679688 C62.3921535,32.6679688 59.7944973,29.2695312 59.7944973,23.9179688 C59.7944973,18.546875 62.4116848,15.1484375 66.415591,15.1484375 C70.4194973,15.1484375 73.0366848,18.546875 73.0366848,23.9179688 C73.0366848,29.2695312 70.4194973,32.6679688 66.415591,32.6679688 Z M96.5276834,38.4882812 C104.555027,38.4882812 109.320652,33.78125 109.320652,26.0859375 L109.320652,22.6289062 L97.2503397,22.6289062 L97.2503397,27.5507812 L102.40659,27.5507812 L102.387058,27.9804688 C102.191746,30.8125 99.9261209,32.7265625 96.6839334,32.7265625 C92.5628397,32.7265625 89.9065897,29.3476562 89.9065897,23.7617188 C89.9065897,18.2734375 92.3089334,15.0898438 96.3714334,15.0898438 C99.1253397,15.0898438 101.234715,16.6132812 101.93784,19.1132812 L109.027683,19.1132812 C108.305027,13.3710938 103.18784,9.328125 96.3519022,9.328125 C87.8362772,9.328125 82.6019022,14.71875 82.6019022,23.859375 C82.6019022,33.1171875 87.8362772,38.4882812 96.5276834,38.4882812 Z M119.608526,38 L119.608526,28.1367188 L123.26087,28.1367188 L128.10462,38 L136.151495,38 L130.506963,27.0820312 C133.592901,25.734375 135.331182,22.5703125 135.331182,19.1132812 C135.331182,13.2929688 131.54212,9.81640625 124.51087,9.81640625 L112.440557,9.81640625 L112.440557,38 L119.608526,38 Z M123.807745,23.234375 L119.608526,23.234375 L119.608526,15.2265625 L123.788213,15.2265625 C126.346807,15.2265625 128.006963,16.8476562 128.006963,19.25 C128.006963,21.6914062 126.444463,23.234375 123.807745,23.234375 Z M144.212806,38 L146.009681,31.8085938 L155.228431,31.8085938 L157.005774,38 L164.622962,38 L155.150306,9.81640625 L146.380774,9.81640625 L136.908118,38 L144.212806,38 Z M153.822181,26.6523438 L147.396399,26.6523438 L150.540931,15.7929688 L150.697181,15.7929688 L153.822181,26.6523438 Z M173.192086,38 L173.192086,20.4023438 L173.348336,20.4023438 L180.301461,38 L184.403023,38 L191.375679,20.4023438 L191.512398,20.4023438 L191.512398,38 L197.820992,38 L197.820992,9.81640625 L189.539742,9.81640625 L182.430367,28.234375 L182.274117,28.234375 L175.164742,9.81640625 L166.883492,9.81640625 L166.883492,38 L173.192086,38 Z" id="PROGRAM" fill="#3617CE" fill-rule="nonzero"></path>
        </g>
        <g id="tit" transform="translate(0.000000, 100.000000)">
            <circle id="Oval" fill="#FF404E" cx="157" cy="33" r="6"></circle>
            <path d="M8.4375,38 L8.4375,20.4023438 L8.59375,20.4023438 L15.546875,38 L19.6484375,38 L26.6210938,20.4023438 L26.7578125,20.4023438 L26.7578125,38 L33.0664062,38 L33.0664062,9.81640625 L24.7851562,9.81640625 L17.6757812,28.234375 L17.5195312,28.234375 L10.4101562,9.81640625 L2.12890625,9.81640625 L2.12890625,38 L8.4375,38 Z M52.2019361,38 L52.2019361,28.3125 L61.9089674,9.81640625 L54.3503736,9.81640625 L48.7644361,21.5351562 L48.6277174,21.5351562 L43.0222486,9.81640625 L35.3269361,9.81640625 L45.0339674,28.3125 L45.0339674,38 L52.2019361,38 Z M85.1800272,38 L85.1800272,15.5976562 L92.9534647,15.5976562 L92.9534647,9.81640625 L70.2581522,9.81640625 L70.2581522,15.5976562 L78.0315897,15.5976562 L78.0315897,38 L85.1800272,38 Z M97.5382133,38 L99.3350883,31.8085938 L108.553838,31.8085938 L110.331182,38 L117.94837,38 L108.475713,9.81640625 L99.7061821,9.81640625 L90.2335258,38 L97.5382133,38 Z M107.147588,26.6523438 L100.721807,26.6523438 L103.866338,15.7929688 L104.022588,15.7929688 L107.147588,26.6523438 Z M131.673743,38.4882812 C139.701087,38.4882812 144.466712,33.78125 144.466712,26.0859375 L144.466712,22.6289062 L132.396399,22.6289062 L132.396399,27.5507812 L137.552649,27.5507812 L137.533118,27.9804688 C137.337806,30.8125 135.072181,32.7265625 131.829993,32.7265625 C127.708899,32.7265625 125.052649,29.3476562 125.052649,23.7617188 C125.052649,18.2734375 127.454993,15.0898438 131.517493,15.0898438 C134.271399,15.0898438 136.380774,16.6132812 137.083899,19.1132812 L144.173743,19.1132812 C143.451087,13.3710938 138.333899,9.328125 131.497962,9.328125 C122.982337,9.328125 117.747962,14.71875 117.747962,23.859375 C117.747962,33.1171875 122.982337,38.4882812 131.673743,38.4882812 Z" id="MYTAG" fill="#3617CE" fill-rule="nonzero"></path>
        </g>
        <g id="tit" transform="translate(0.000000, 150.000000)">
            <circle id="Oval" fill="#FF404E" cx="126" cy="33" r="6"></circle>
            <path d="M8.4375,38 L8.4375,20.4023438 L8.59375,20.4023438 L15.546875,38 L19.6484375,38 L26.6210938,20.4023438 L26.7578125,20.4023438 L26.7578125,38 L33.0664062,38 L33.0664062,9.81640625 L24.7851562,9.81640625 L17.6757812,28.234375 L17.5195312,28.234375 L10.4101562,9.81640625 L2.12890625,9.81640625 L2.12890625,38 L8.4375,38 Z M56.2058424,38 L56.2058424,32.21875 L44.0574049,32.21875 L44.0574049,26.4765625 L55.4831861,26.4765625 L55.4831861,21.203125 L44.0574049,21.203125 L44.0574049,15.5976562 L56.2058424,15.5976562 L56.2058424,9.81640625 L36.8894361,9.81640625 L36.8894361,38 L56.2058424,38 Z M66.6109035,38 L66.6109035,21.4570312 L66.7671535,21.4570312 L78.7788723,38 L84.4429348,38 L84.4429348,9.81640625 L77.6460598,9.81640625 L77.6460598,26.203125 L77.4898098,26.203125 L65.5366848,9.81640625 L59.8140285,9.81640625 L59.8140285,38 L66.6109035,38 Z M100.414402,38.4882812 C107.738621,38.4882812 112.543308,34.328125 112.543308,28 L112.543308,9.81640625 L105.37534,9.81640625 L105.37534,27.2382812 C105.37534,30.5195312 103.597996,32.4726562 100.414402,32.4726562 C97.2112772,32.4726562 95.4339334,30.5195312 95.4339334,27.2382812 L95.4339334,9.81640625 L88.2659647,9.81640625 L88.2659647,28 C88.2659647,34.328125 93.0706522,38.4882812 100.414402,38.4882812 Z" id="MENU" fill="#3617CE" fill-rule="nonzero"></path>
        </g>
    </g>
</svg>