<?xml version="1.0" encoding="UTF-8"?>
<svg width="120px" height="120px" viewBox="0 0 120 120" version="1.1" xmlns="http://www.w3.org/2000/svg" xmlns:xlink="http://www.w3.org/1999/xlink">
    <title>checkin</title>
    <defs>
        <linearGradient x1="50%" y1="1.21146537%" x2="50%" y2="100%" id="linearGradient-1">
            <stop stop-color="#3617CE" offset="0%"></stop>
            <stop stop-color="#220D85" offset="49.0138767%"></stop>
            <stop stop-color="#3617CE" offset="100%"></stop>
        </linearGradient>
    </defs>
    <g id="Page-1" stroke="none" stroke-width="1" fill="none" fill-rule="evenodd">
        <g id="bp_my_06_01" transform="translate(-120.000000, -353.000000)">
            <g id="++CON" transform="translate(32.000000, 128.000000)">
                <g id="ICON" transform="translate(0.000000, 193.000000)">
                    <g id="checkin" transform="translate(88.000000, 32.000000)">
                        <g id="ic/face/272" transform="translate(15.000000, 15.000000)">
                            <rect id="guide" x="0" y="0" width="90" height="90"></rect>
                            <g id="Group" transform="translate(11.580882, 12.904412)">
                                <g id="face" fill="#3617CE">
                                    <path d="M62.9513743,40.9578997 C63.7709742,38.0994311 64.1911765,35.1243127 64.1911765,32.0955882 C64.1911765,14.3696843 49.8214922,0 32.0955882,0 C14.3696843,0 0,14.3696843 0,32.0955882 C0,49.8214922 14.3696843,64.1911765 32.0955882,64.1911765 C36.4040672,64.1911765 40.5978266,63.3405636 44.489821,61.7098941 L42.6997271,57.4373939 C39.3721517,58.8315829 35.786652,59.5588235 32.0955882,59.5588235 C16.9280622,59.5588235 4.63235294,47.2631143 4.63235294,32.0955882 C4.63235294,16.9280622 16.9280622,4.63235294 32.0955882,4.63235294 C47.2631143,4.63235294 59.5588235,16.9280622 59.5588235,32.0955882 C59.5588235,34.6913525 59.1993117,37.2367705 58.4984491,39.6811261 L62.9513743,40.9578997 Z" id="Path" fill-rule="nonzero"></path>
                                    <path d="M34.0808824,22.1691176 L34.0808824,29.5653114 C34.0808824,34.7426471 31.1029412,34.7426471 28.8694853,34.7426471 L28.125,34.7426471 L28.125,31.7841696 L28.8694853,31.7841696 C30.4643183,31.7841696 31.021851,31.2782932 31.0992967,29.7129693 L31.1029412,29.5653114 L31.1029412,22.1691176 L34.0808824,22.1691176 Z" id="Path"></path>
                                    <polygon id="Path" points="21.8382353 20.8455882 21.8382353 26.1397059 17.8676471 26.1397059 17.8676471 20.8455882"></polygon>
                                    <polygon id="Path" points="46.5441176 20.8455882 46.5441176 26.1397059 42.5735294 26.1397059 42.5735294 20.8455882"></polygon>
                                    <path d="M24.8925339,38.0514706 C24.8925339,39.9068747 27.8642742,41.7279412 31.7647059,41.7279412 C35.5871289,41.7279412 38.5176367,39.978989 38.6333281,38.1627393 L38.6368778,38.0514706 L41.6911765,38.0514706 C41.6911765,41.8813506 37.1419083,44.6691176 31.7647059,44.6691176 C26.4728559,44.6691176 21.9828651,41.9691488 21.841659,38.2330512 L21.8382353,38.0514706 L24.8925339,38.0514706 Z" id="Path" fill-rule="nonzero"></path>
                                </g>
                                <g id="+" transform="translate(47.977941, 44.669118)">
                                    <polygon id="Shadow" fill="#8C79DF" transform="translate(9.595588, 9.665290) rotate(-270.000000) translate(-9.595588, -9.665290) " points="7.64394317 0.0697016095 11.5472333 0.0697016095 11.5472333 19.2608781 7.64394317 19.2608781"></polygon>
                                    <polygon id="Shadow" fill="url(#linearGradient-1)" transform="translate(9.595588, 9.665290) rotate(-270.000000) translate(-9.595588, -9.665290) " points="7.64394317 0.0697016095 11.5472333 0.0697016095 11.5472333 19.2608781 7.64394317 19.2608781"></polygon>
                                    <rect id="Rectangle" fill="#3617CE" x="7.61029412" y="0.232338698" width="3.97058824" height="18.8659023"></rect>
                                </g>
                            </g>
                        </g>
                    </g>
                </g>
            </g>
        </g>
    </g>
</svg>