<?xml version="1.0" encoding="UTF-8"?>
<svg width="80px" height="80px" viewBox="0 0 80 80" version="1.1" xmlns="http://www.w3.org/2000/svg" xmlns:xlink="http://www.w3.org/1999/xlink" style="background: #F4F4F4;">
    <title>Icon</title>
    <defs>
        <rect id="path-1" x="0" y="0" width="80" height="80"></rect>
        <polygon id="path-3" points="0.0683408755 0.0261958986 30.0455028 0.0261958986 30.0455028 34.5792353 0.0683408755 34.5792353"></polygon>
        <polygon id="path-5" points="4.6633146e-05 0.0590697532 20.5783213 0.0590697532 20.5783213 34.508528 4.6633146e-05 34.508528"></polygon>
    </defs>
    <g id="Page-1" stroke="none" stroke-width="1" fill="none" fill-rule="evenodd">
        <g id="bp_my_05_01-1" transform="translate(-20.000000, -334.000000)">
            <g id="++CON" transform="translate(0.000000, 80.000000)">
                <g id="01" transform="translate(0.000000, 216.000000)">
                    <rect id="bound" x="0" y="0" width="360" height="278"></rect>
                    <g id="Icon" transform="translate(20.000000, 38.000000)">
                        <g id="Type_D">
                            <mask id="mask-2" fill="white">
                                <use xlink:href="#path-1"></use>
                            </mask>
                            <g id="Mask"></g>
                        </g>
                        <g id="Group-2" transform="translate(13.125000, 13.125000)">
                            <g id="Group-7" transform="translate(9.687500, 8.281250)">
                                <g id="Group-3" transform="translate(4.196983, 0.007694)">
                                    <mask id="mask-4" fill="white">
                                        <use xlink:href="#path-3"></use>
                                    </mask>
                                    <g id="Clip-2"></g>
                                    <path d="M14.6052915,33.356281 L14.6052915,25.2486423 C14.6052915,23.0895276 15.2082581,21.2179063 16.7919197,20.6422201 L23.5460314,18.2357166 C23.7157761,17.8122876 24.029384,16.9665955 24.0049016,15.7781498 C23.9214282,11.675832 21.6704463,8.69900508 18.5656114,7.68053717 L0.0683408755,1.89499591 L4.89370566,0.16770418 C5.15298595,0.0770027112 5.47522099,0.0261725821 5.76108217,0.0261725821 C6.06466396,0.0261725821 6.42327285,0.0865625062 6.66180139,0.164906191 L25.5358677,6.063766 C28.8207065,7.15824593 30.0455261,11.0845237 30.0455261,13.2074976 C30.0455261,14.9310587 29.4570158,16.9194961 27.625499,17.5858837 C25.9968364,18.1788242 21.1092164,19.9289661 21.1092164,19.9289661 C20.9313109,20.3505298 20.6482477,21.1451586 20.6482477,22.8899377 C20.6482477,23.8836901 20.6323924,29.2355431 20.6323924,30.1945537 C20.6323924,32.492402 19.5248552,34.5792353 17.3997828,34.5792353 C16.4801771,34.5792353 15.4311645,34.1502103 14.6052915,33.356281" id="Fill-1" fill="#EE7B11" mask="url(#mask-4)"></path>
                                </g>
                                <g id="Group-6" transform="translate(0.000000, 2.606408)">
                                    <mask id="mask-6" fill="white">
                                        <use xlink:href="#path-5"></use>
                                    </mask>
                                    <g id="Clip-5"></g>
                                    <path d="M13.9634095,12.3322287 C14.934778,13.8072351 15.4260582,15.6653328 15.4260582,17.2392015 L15.4260582,24.0397132 C15.4260582,28.2495205 17.3720594,31.6807873 20.5783213,32.6596171 L15.629845,34.367556 C14.6400565,34.7145067 13.6672891,34.3577631 13.0801778,33.9802678 C10.6736743,32.4348453 9.40338736,30.0446634 9.40338736,26.3662409 C9.40338736,24.6375501 9.39126274,22.2730165 9.39126274,19.2290379 C9.39126274,17.4900878 8.65352637,15.4655098 7.51124746,13.9662542 C6.65366391,12.8367994 5.66317588,12.130074 4.40011713,11.6791315 C1.96540057,10.8105892 4.6633146e-05,7.65026087 4.6633146e-05,4.54542601 C4.6633146e-05,1.87614473 1.35753751,0.194087154 3.16293976,0.065146505 C3.55279286,0.0373997831 3.88202287,0.108282165 4.19539761,0.204346446 C5.26679414,0.531011634 6.13230533,0.828764271 6.13230533,0.828764271 C5.53353574,3.91587854 7.33404151,8.65264034 10.9662972,9.93505186 C12.3904735,10.4396225 13.2336008,11.2232925 13.9634095,12.3322287" id="Fill-4" fill="#E30334" mask="url(#mask-6)"></path>
                                </g>
                            </g>
                        </g>
                    </g>
                </g>
            </g>
        </g>
    </g>
</svg>