<svg xmlns="http://www.w3.org/2000/svg" width="48" height="48" viewBox="0 0 48 48">
    <g fill="none" fill-rule="evenodd">
        <g>
            <g transform="translate(-203.000000, -284.000000) translate(203.000000, 284.000000)">
                <path d="M0 0H48V48H0z"/>
                <circle cx="24" cy="24" r="23.5" fill="#FFF" stroke="#E8E8E8"/>
                <g stroke="#505050" stroke-linecap="round" stroke-width="2">
                    <path d="M14.585 18.4L9.61 23.304c-2.199 2.167-5.763 2.167-7.961 0-2.199-2.167-2.199-5.68 0-7.846l4.975-4.904c2.199-2.167 5.763-2.167 7.961 0 .685.675 1.157 1.481 1.415 2.336" transform="translate(11.099910, 11.072505)"/>
                    <path d="M23.514 9.471l-4.975 4.904c-2.199 2.167-5.763 2.167-7.961 0-2.199-2.167-2.199-5.68 0-7.846l4.975-4.904c2.199-2.167 5.763-2.167 7.961 0 .685.675 1.157 1.481 1.415 2.336" transform="translate(11.099910, 11.072505) translate(16.928932, 8.000000) rotate(180.000000) translate(-16.928932, -8.000000)"/>
                </g>
            </g>
        </g>
    </g>
</svg>
