<?xml version="1.0" encoding="UTF-8"?>
<svg width="20px" height="20px" viewBox="0 0 20 20" version="1.1" xmlns="http://www.w3.org/2000/svg" xmlns:xlink="http://www.w3.org/1999/xlink">
    <!-- Generator: Sketch 64 (93537) - https://sketch.com -->
    <title>Slice</title>
    <desc>Created with Sketch.</desc>
    <g id="Page-1" stroke="none" stroke-width="1" fill="none" fill-rule="evenodd">
        <g id="ic/24//map/bk_selected">
            <rect id="Rectangle" fill="#FFFFFF" opacity="0" x="0" y="0" width="20" height="20"></rect>
            <g id="Group" transform="translate(2.500000, 2.500000)">
                <path d="M7.49474808,0.624977934 C5.60288915,0.625 3.88420854,1.39531173 2.63976013,2.63976013 C1.39531173,3.88420854 0.625,5.60288915 0.625,7.5 C0.625,9.39711085 1.39531173,11.1157915 2.63976013,12.3602399 C3.88394962,13.6044294 5.6022863,14.3728405 7.56248644,14.3749955 C9.46165614,14.3242193 11.1660565,13.5365901 12.3953438,12.2897416 C13.6220234,11.045538 14.375,9.34415557 14.375,7.46462264 C14.375,5.59168075 13.6134064,3.88263607 12.366551,2.64166212 C11.1299616,1.41090568 9.41636483,0.641125973 7.49474808,0.624977934 Z" id="Path" stroke="#000000" stroke-width="1.25" fill-rule="nonzero"></path>
                <g id="Group-5" transform="translate(6.875000, 0.833333)" fill="#000000">
                    <rect id="Rectangle" x="0" y="0" width="1.25" height="4.16666667"></rect>
                    <rect id="Rectangle-Copy" x="0" y="9.16666667" width="1.25" height="4.16666667"></rect>
                </g>
                <g id="Group-5" transform="translate(0.208333, 0.833333)" fill="#000000">
                    <path d="M7.91666667,9.16666667 L7.91666667,13.3333333 L6.66666667,13.3333333 L6.66666667,9.16666667 L7.91666667,9.16666667 Z M4.79166667,6.04166667 L4.79166667,7.29166667 L0.625,7.29166667 L0.625,6.04166667 L4.79166667,6.04166667 Z M13.9583333,6.04166667 L13.9583333,7.29166667 L9.79166667,7.29166667 L9.79166667,6.04166667 L13.9583333,6.04166667 Z M7.91666667,0 L7.91666667,4.16666667 L6.66666667,4.16666667 L6.66666667,0 L7.91666667,0 Z" id="Combined-Shape"></path>
                </g>
            </g>
        </g>
    </g>
</svg>