<svg xmlns="http://www.w3.org/2000/svg" width="48" height="48" viewBox="0 0 48 48">
    <g fill="none" fill-rule="evenodd">
        <g>
            <g transform="translate(-110.000000, -284.000000) translate(110.000000, 284.000000)">
                <circle cx="24" cy="24" r="24" fill="#F9E000"/>
                <g fill-rule="nonzero">
                    <path fill="#3C1E1E" d="M15.5 0C6.94 0 0 5.536 0 12.365c0 4.233 2.666 7.968 6.731 10.197l-1.12 6.028c-.055.3.274.52.528.351l6.658-4.4s1.781.19 2.702.19C24.061 24.73 31 19.193 31 12.364 31.002 5.536 24.062 0 15.5 0z" transform="translate(9.000000, 10.000000)"/>
                    <g fill="#F9E000">
                        <path d="M5.227.109H.761C.34.109 0 .453 0 .877c0 .425.34.769.76.769h1.453v5.412c0 .196.08.388.218.53.137.139.328.219.522.219h.162c.195 0 .385-.08.522-.218.14-.141.22-.333.22-.53V1.647h1.372c.42 0 .76-.344.76-.769C5.988.453 5.648.11 5.227.11zM15.681 6.36h-2.076V.835c0-.46-.37-.834-.825-.834-.454 0-.825.373-.825.834v6.224c0 .385.31.698.69.698h3.036c.383 0 .69-.313.69-.698 0-.384-.307-.697-.69-.697zM22.348 6.616L20.033 3.54l2.092-2.115c.283-.286.283-.751 0-1.037-.283-.287-.744-.287-1.027 0l-2.59 2.618V.836c0-.461-.37-.834-.825-.834-.455 0-.825.373-.825.833v6.14c0 .46.37.835.825.835.454 0 .825-.373.825-.835V5.08l.47-.476 2.19 2.907c.244.328.708.396 1.032.147.327-.247.393-.714.148-1.042zM11.463 6.814L9.236.656 9.23.649C9.086.275 8.675.002 8.185.002c-.12 0-.242.016-.357.05-.108.032-.214.078-.309.141-.09.059-.171.13-.24.215-.044.056-.084.117-.115.182-.027.056-.136.371-.173.47l-.038.102-.046.123-.052.141-.058.158-.064.174-.069.187-.073.201-.079.212-.08.221-.085.229-.087.235-.089.24-.09.244-.09.245c-.03.082-.062.164-.09.246-.031.081-.06.163-.09.245l-.09.243-.087.238c-.029.078-.056.155-.086.233l-.082.226-.08.217-.076.207c-.025.064-.048.13-.072.195l-.068.182-.06.168c-.02.05-.037.101-.057.152l-.05.133c-.013.039-.027.077-.042.116l-.035.093c-.01.025-.019.048-.026.072l-.019.05-.009.026c-.135.39.067.815.452.951.385.137.806-.067.942-.457l.38-1.093h3.046l.38 1.093c.134.39.557.594.94.457.383-.136.585-.561.45-.951zM7.126 4.82L8.15 1.867c.012 0 .021.003.033.003l1.023 2.95h-2.08z" transform="translate(9.000000, 10.000000) translate(3.996841, 8.809412)"/>
                    </g>
                </g>
            </g>
        </g>
    </g>
</svg>
