<?xml version="1.0" encoding="UTF-8"?>
<svg width="41px" height="56px" viewBox="0 0 41 56" version="1.1" xmlns="http://www.w3.org/2000/svg" xmlns:xlink="http://www.w3.org/1999/xlink">
    <!-- Generator: Sketch 64 (93537) - https://sketch.com -->
    <title>Group 6</title>
    <desc>Created with Sketch.</desc>
    <defs>
        <polygon id="path-1" points="0.37026 0.117488889 13.5913489 0.117488889 13.5913489 15.4973133 0.37026 15.4973133"></polygon>
        <polygon id="path-3" points="0.000113333333 0.15631428 9.07622444 0.15631428 9.07622444 15.4888889 0.000113333333 15.4888889"></polygon>
    </defs>
    <g id="Page-1" stroke="none" stroke-width="1" fill="none" fill-rule="evenodd">
        <g id="Group-2" transform="translate(-3.000000, -1.000000)">
            <g id="Group-6" transform="translate(3.000000, 1.000000)">
                <g id="Group-8">
                    <path d="M20.5,0.55 C14.9872913,0.55 9.99525715,2.66077278 6.38219604,6.07725083 C2.78058435,9.48290241 0.55,14.1869361 0.55,19.3846154 C0.55,26.3874435 7.2466501,38.289122 20.499767,55.1121253 C33.7525236,38.2905906 40.45,26.3878756 40.45,19.3846154 C40.45,14.1869361 38.2194157,9.48290241 34.617804,6.07725083 C31.0047429,2.66077278 26.0127087,0.55 20.5,0.55 Z" id="Oval" stroke="#B0191A" stroke-width="1.1" fill="#E42122"></path>
                    <circle id="Oval" fill="#FFFFFF" cx="20.5" cy="20.5" r="15.5"></circle>
                    <g id="Group-7" transform="translate(13.000000, 12.000000)">
                        <g id="Group-3" transform="translate(1.511111, 0.260176)">
                            <mask id="mask-2" fill="white">
                                <use xlink:href="#path-1"></use>
                            </mask>
                            <g id="Clip-2"></g>
                            <path d="M7.28586,15.3122022 C7.10830444,15.2238022 6.93603778,15.1032911 6.78152667,14.9525578 L6.78152667,11.34478 C6.78152667,10.3833356 7.04748222,9.55071333 7.74599333,9.29533556 L10.7251489,8.22320222 C10.7991933,8.03506889 10.9382156,7.65766889 10.9268822,7.12953556 C10.9110156,6.30938 10.7013489,5.59122444 10.3507711,5.00604667 C9.92312667,4.28902444 9.28317111,3.77486889 8.52874889,3.52553556 L0.37026,0.950602222 L2.49790444,0.181446667 C2.77897111,0.0858688889 3.02037111,0.107402222 3.27801556,0.180313333 L11.6027267,2.80511333 C12.2827267,3.03442444 12.7636378,3.54178 13.0821044,4.11260222 C13.4402378,4.75822444 13.5913489,5.48469111 13.5913489,5.98562444 C13.5913489,6.75138 13.3314378,7.63726889 12.5229933,7.93420222 C12.0443489,8.10949111 11.08706,8.45704667 9.65074889,8.97649111 C9.57179333,9.16538 9.44674889,9.51671333 9.44674889,10.2949356 C9.44674889,10.7376911 9.43957111,13.1192022 9.43957111,13.5464689 C9.43957111,14.0576022 9.31792667,14.5456911 9.07803778,14.9060911 C8.83890444,15.26498 8.48303778,15.4973133 8.01346,15.4973133 C7.77999333,15.4973133 7.52763778,15.4338467 7.28586,15.3122022" id="Fill-1" fill="#EB682F" mask="url(#mask-2)"></path>
                        </g>
                        <g id="Group-6" transform="translate(0.000000, 1.393509)">
                            <mask id="mask-4" fill="white">
                                <use xlink:href="#path-3"></use>
                            </mask>
                            <g id="Clip-5"></g>
                            <path d="M6.15789111,5.61819778 C6.58629111,6.27628667 6.80426889,7.10210889 6.80426889,7.80288667 L6.80426889,10.8296422 C6.80426889,12.7030422 7.66220222,14.2303978 9.07622444,14.6663533 L6.89304667,15.4264422 C6.69698,15.4967089 6.50242444,15.5012422 6.32298,15.4717756 C6.10424667,15.4351311 5.91044667,15.3463533 5.76953556,15.2553089 C5.27880222,14.9368422 4.89611333,14.5371533 4.62411333,14.03962 C4.30904667,13.4601089 4.14735778,12.7453533 4.14735778,11.8647533 C4.14735778,11.0955978 4.14282444,10.0434867 4.14282444,8.68877556 C4.14282444,7.91584222 3.81718,7.01257556 3.31284667,6.34655333 C2.93469111,5.84373111 2.49798,5.52866444 1.94075778,5.32844222 C1.49082444,5.16599778 1.07640222,4.82486444 0.748113333,4.38135333 C0.292513333,3.76633111 0.000113333333,2.95486444 0.000113333333,2.15246444 C0.000113333333,1.50646444 0.177291111,0.990042222 0.467046667,0.645508889 C0.709957778,0.354997778 1.03220222,0.185375556 1.39411333,0.158931111 C1.56789111,0.146842222 1.71144667,0.178197778 1.85084667,0.220886667 C2.16629111,0.318353333 2.45075778,0.410153333 2.70386889,0.498175556 C2.44055778,1.87290889 3.23464667,3.98128667 4.83642444,4.55248667 C5.46542444,4.77688667 5.83715778,5.12557556 6.15789111,5.61819778" id="Fill-4" fill="#E42122" mask="url(#mask-4)"></path>
                        </g>
                    </g>
                </g>
            </g>
        </g>
    </g>
</svg>