<?xml version="1.0" encoding="UTF-8"?>
<svg width="177px" height="120px" viewBox="0 0 177 120" version="1.1" xmlns="http://www.w3.org/2000/svg" xmlns:xlink="http://www.w3.org/1999/xlink">
    <title>Group 2</title>
    <g id="Page-1" stroke="none" stroke-width="1" fill="none" fill-rule="evenodd">
        <g id="bp_main_01_13_01" transform="translate(-92.000000, -334.000000)">
            <g id="con" transform="translate(20.000000, 128.000000)">
                <g id="coupon" transform="translate(70.000000, 176.000000)">
                    <g id="Group-2" transform="translate(2.000000, 30.000000)">
                        <path d="M156.667158,0.5 C162.051934,0.5 166.926934,2.68261184 170.45574,6.21141777 C173.984546,9.74022369 176.167158,14.6152237 176.167158,20 L176.167158,20 L176.167158,48.6774984 C173.236427,48.8047275 170.594416,50.0449876 168.653281,51.9861231 C166.602351,54.0370531 165.333824,56.8703864 165.333824,60 C165.333824,63.1296136 166.602351,65.9629469 168.653281,68.0138769 C170.594416,69.9550124 173.236427,71.1952725 176.167158,71.3225016 L176.167158,71.3225016 L176.167158,100 C176.167158,105.384776 173.984546,110.259776 170.45574,113.788582 C166.926934,117.317388 162.051934,119.5 156.667158,119.5 L156.667158,119.5 L20.0004912,119.5 C14.6157149,119.5 9.74071485,117.317388 6.21190893,113.788582 C2.68310301,110.259776 0.500491165,105.384776 0.500491165,99.9999916 L0.500491165,99.9999916 L0.500007995,71.3031818 C3.35952726,71.0954314 5.92481892,69.826856 7.80398065,67.8890267 C9.78252878,65.8487081 11.0004912,63.0665923 11.0004912,60 C11.0004912,56.9334077 9.78252878,54.1512919 7.80398065,52.1109733 C5.92481892,50.173144 3.35952726,48.9045686 0.500007995,48.6968182 L0.500007995,48.6968182 L0.500491165,20 C0.500491165,14.6152237 2.68310301,9.74022369 6.21190893,6.21141777 C9.74071485,2.68261184 14.6157149,0.5 20.0004912,0.5 L20.0004912,0.5 Z" id="Combined-Shape" stroke="#3617CE" fill="#FFFFFF"></path>
                        <g id="LOGO-b" transform="translate(69.000000, 40.000000)">
                            <polygon id="Fill-1" fill="#3B15D6" points="0 8.12545727 33.997228 8.12545727 33.997228 0 0 0"></polygon>
                            <g id="Group-6" transform="translate(12.086481, 10.663508)">
                                <path d="M21.6405547,14.3477541 C17.9369845,14.3477541 14.9238759,17.3198681 14.9238759,20.9730495 C14.9238759,24.6262309 17.9369845,27.5983448 21.6405547,27.5983448 C25.3441248,27.5983448 28.3574036,24.6262309 28.3574036,20.9730495 C28.3574036,17.3198681 25.3441248,14.3477541 21.6405547,14.3477541" id="Fill-2" fill="#FF003C"></path>
                                <polygon id="Fill-4" fill="#3B15D6" points="0.0465074166 0.00889955022 0.0465074166 27.7061469 9.48162296 27.7061469 9.48162296 4.66235682"></polygon>
                            </g>
                        </g>
                        <line x1="-13.5" y1="60" x2="92.5" y2="60" id="Path-3" stroke="#E8E8E8" stroke-linecap="round" stroke-linejoin="round" stroke-dasharray="2,6" transform="translate(39.500000, 60.000000) rotate(90.000000) translate(-39.500000, -60.000000) "></line>
                    </g>
                </g>
            </g>
        </g>
    </g>
</svg>