<?xml version="1.0" encoding="UTF-8"?>
<svg width="56px" height="56px" viewBox="0 0 56 56" version="1.1" xmlns="http://www.w3.org/2000/svg" xmlns:xlink="http://www.w3.org/1999/xlink">
    <!-- Generator: Sketch 63.1 (92452) - https://sketch.com -->
    <title>Group 13</title>
    <desc>Created with Sketch.</desc>
    <g id="Page-1" stroke="none" stroke-width="1" fill="none" fill-rule="evenodd">
        <g id="전체메뉴_01_default" transform="translate(-20.000000, -56.000000)">
            <g id="01_Con">
                <g id="top">
                    <g id="Group" transform="translate(20.000000, 53.000000)">
                        <g id="icon/avatar" transform="translate(0.000000, 2.000000)">
                            <g id="Group-13" transform="translate(0.000000, 1.000000)">
                                <rect id="Rectangle" fill="#F4F4F4" x="0" y="0" width="56" height="56" rx="28"></rect>
                                <g id="single" transform="translate(14.000000, 14.000000)" stroke-width="2">
                                    <path d="M28.9241172,29.0074403 C28.1769515,21.7005346 22.0041914,17 14.5,17 C6.97379482,17 0.786843882,21.7340291 0.0694475033,29.0717869" id="Path" stroke="#000000"></path>
                                    <path d="M14.5,13.3333333 L14.5,13.3333333 C10.77265,13.3333333 7.75,10.6193939 7.75,7.27272727 L7.75,6.06060606 C7.75,2.71393939 10.77265,0 14.5,0 L14.5,0 C18.22735,0 21.25,2.71393939 21.25,6.06060606 L21.25,7.27272727 C21.25,10.6193939 18.22735,13.3333333 14.5,13.3333333 Z" id="Path" stroke="#111111" stroke-linecap="square"></path>
                                </g>
                            </g>
                        </g>
                    </g>
                </g>
            </g>
        </g>
    </g>
</svg>