<?xml version="1.0" encoding="UTF-8"?>
<svg width="240px" height="240px" viewBox="0 0 240 240" version="1.1" xmlns="http://www.w3.org/2000/svg" xmlns:xlink="http://www.w3.org/1999/xlink" style="background: #FFFFFF;">
    <!-- Generator: Sketch 63.1 (92452) - https://sketch.com -->
    <title>240</title>
    <desc>Created with Sketch.</desc>
    <g id="no-image" stroke="none" stroke-width="1" fill="none" fill-rule="evenodd">
        <g id="240">
            <g id="no-image">
                <rect id="bound" x="0" y="0" width="240" height="240"></rect>
                <g id="img" transform="translate(66.000000, 66.000000)">
                    <rect id="bound" x="0" y="0" width="108" height="108"></rect>
                    <g id="shape" transform="translate(5.400000, 13.500000)" fill="#E8E8E8" fill-rule="nonzero">
                        <circle id="Oval" cx="48.6" cy="44.6764992" r="20.2500633"></circle>
                        <path d="M89.0999367,12.2766258 L76.255868,12.2766258 C74.6323242,12.2766258 73.1076891,11.6438766 71.9587547,10.4968406 L64.5548484,3.09293438 C62.6425523,1.18063828 60.0994055,0.126625781 57.394132,0.126625781 L39.805868,0.126625781 C37.1005945,0.126625781 34.5574477,1.18063828 32.6451516,3.09293438 L25.2412453,10.4968406 C24.0923109,11.6438766 22.5676758,12.2766258 20.944132,12.2766258 L8.10006328,12.2766258 C3.63266016,12.2766258 0,15.9092859 0,20.3764992 L0,73.0264359 C0,77.4936492 3.63266016,81.1264992 8.10006328,81.1264992 L89.1001266,81.1264992 C93.5673398,81.1264992 97.2001898,77.4938391 97.2001898,73.0264359 L97.2001898,20.3764992 C97.2001898,15.9092859 93.5673398,12.2766258 89.0999367,12.2766258 Z M48.6,68.9764992 C35.2002586,68.9764992 24.3,58.0762406 24.3,44.6764992 C24.3,31.2767578 35.2002586,20.3764992 48.6,20.3764992 C61.9997414,20.3764992 72.9,31.2767578 72.9,44.6764992 C72.9,58.0762406 61.9997414,68.9764992 48.6,68.9764992 Z M81.0000633,32.5264992 C78.7675008,32.5264992 76.9501266,30.709125 76.9501266,28.4765625 C76.9501266,26.244 78.7675008,24.4266258 81.0000633,24.4266258 C83.2326258,24.4266258 85.05,26.244 85.05,28.4765625 C85.05,30.709125 83.2326258,32.5264992 81.0000633,32.5264992 Z" id="Shape"></path>
                    </g>
                </g>
            </g>
        </g>
    </g>
</svg>