<?xml version="1.0" encoding="UTF-8"?>
<svg width="200px" height="305px" viewBox="0 0 200 305" version="1.1" xmlns="http://www.w3.org/2000/svg" xmlns:xlink="http://www.w3.org/1999/xlink">
    <title>ico_logo</title>
    <defs>
        <polygon id="path-1" points="0.3267 0.103666667 11.9923667 0.103666667 11.9923667 13.6741 0.3267 13.6741"></polygon>
        <polygon id="path-3" points="0.0001 0.137924365 8.00843333 0.137924365 8.00843333 13.6666667 0.0001 13.6666667"></polygon>
        <polygon id="path-5" points="0.0903962415 -0.00154791667 21.7887347 -0.00154791667 21.7887347 12.6666667 0.0903962415 12.6666667"></polygon>
        <polygon id="path-7" points="0 0.644 5.1897327 0.644 5.1897327 13.3304 0 13.3304"></polygon>
        <polygon id="path-9" points="0.0551929825 0.288098246 9.7545614 0.288098246 9.7545614 12.7719298 0.0551929825 12.7719298"></polygon>
        <polygon id="path-11" points="0 0.61122807 7.85373333 0.61122807 7.85373333 11.9893754 0 11.9893754"></polygon>
        <rect id="path-13" x="0" y="0" width="48" height="48"></rect>
        <polygon id="path-15" points="0.646866 0.20526 23.744886 0.20526 23.744886 27.074718 0.646866 27.074718"></polygon>
        <polygon id="path-17" points="-2.26485497e-14 0.273090243 15.8565 0.273090243 15.8565 27.06 -2.26485497e-14 27.06"></polygon>
        <rect id="path-19" x="0" y="0" width="112" height="32"></rect>
        <rect id="path-21" x="0" y="0" width="196" height="56"></rect>
    </defs>
    <g id="ico_logo" stroke="none" stroke-width="1" fill="none" fill-rule="evenodd">
        <g id="ic/logo_T">
            <rect id="guide" x="0" y="0" width="16" height="16"></rect>
            <g id="Group-7" transform="translate(1.333333, 0.666667)">
                <g id="Group-3" transform="translate(1.333333, 0.229567)">
                    <mask id="mask-2" fill="white">
                        <use xlink:href="#path-1"></use>
                    </mask>
                    <g id="Clip-2"></g>
                    <path d="M6.4287,13.5107667 C6.27203333,13.4327667 6.12003333,13.3264333 5.9837,13.1934333 L5.9837,10.0101 C5.9837,9.16176667 6.21836667,8.4271 6.8347,8.20176667 L9.46336667,7.25576667 C9.5287,7.08976667 9.65136667,6.75676667 9.64136667,6.29076667 C9.62736667,5.5671 9.44236667,4.93343333 9.13303333,4.4171 C8.7557,3.78443333 8.19103333,3.33076667 7.52536667,3.11076667 L0.3267,0.838766667 L2.20403333,0.1601 C2.45203333,0.0757666667 2.66503333,0.0947666667 2.89236667,0.1591 L10.2377,2.4751 C10.8377,2.67743333 11.2620333,3.1251 11.5430333,3.62876667 C11.8590333,4.19843333 11.9923667,4.83943333 11.9923667,5.28143333 C11.9923667,5.9571 11.7630333,6.73876667 11.0497,7.00076667 C10.6273667,7.15543333 9.7827,7.4621 8.51536667,7.92043333 C8.4457,8.0871 8.33536667,8.3971 8.33536667,9.08376667 C8.33536667,9.47443333 8.32903333,11.5757667 8.32903333,11.9527667 C8.32903333,12.4037667 8.2217,12.8344333 8.01003333,13.1524333 C7.79903333,13.4691 7.48503333,13.6741 7.0707,13.6741 C6.8647,13.6741 6.64203333,13.6181 6.4287,13.5107667" id="Fill-1" fill="#F86454" mask="url(#mask-2)"></path>
                </g>
                <g id="Group-6" transform="translate(0.000000, 1.229567)">
                    <mask id="mask-4" fill="white">
                        <use xlink:href="#path-3"></use>
                    </mask>
                    <g id="Clip-5"></g>
                    <path d="M5.43343333,4.95723333 C5.81143333,5.5379 6.00376667,6.26656667 6.00376667,6.8849 L6.00376667,9.55556667 C6.00376667,11.2085667 6.76076667,12.5562333 8.00843333,12.9409 L6.0821,13.6115667 C5.9091,13.6735667 5.73743333,13.6775667 5.5791,13.6515667 C5.3861,13.6192333 5.2151,13.5409 5.09076667,13.4605667 C4.65776667,13.1795667 4.3201,12.8269 4.0801,12.3879 C3.8021,11.8765667 3.65943333,11.2459 3.65943333,10.4689 C3.65943333,9.79023333 3.65543333,8.8619 3.65543333,7.66656667 C3.65543333,6.98456667 3.3681,6.18756667 2.9231,5.5999 C2.58943333,5.15623333 2.2041,4.87823333 1.71243333,4.70156667 C1.31543333,4.55823333 0.949766667,4.25723333 0.6601,3.8659 C0.2581,3.32323333 0.0001,2.60723333 0.0001,1.89923333 C0.0001,1.32923333 0.156433333,0.873566667 0.4121,0.569566667 C0.626433333,0.313233333 0.910766667,0.163566667 1.2301,0.140233333 C1.38343333,0.129566667 1.5101,0.157233333 1.6331,0.1949 C1.91143333,0.2809 2.16243333,0.3619 2.38576667,0.439566667 C2.15343333,1.65256667 2.8541,3.5129 4.26743333,4.0169 C4.82243333,4.2149 5.15043333,4.52256667 5.43343333,4.95723333" id="Fill-4" fill="#F86454" mask="url(#mask-4)"></path>
                </g>
            </g>
        </g>
        <g id="ic/logo11st_16" transform="translate(20.000000, 0.000000)">
            <rect id="guide" x="0" y="0" width="32" height="16"></rect>
            <g id="Group-3" transform="translate(8.489796, 2.022867)">
                <mask id="mask-6" fill="white">
                    <use xlink:href="#path-5"></use>
                </mask>
                <g id="Clip-2"></g>
                <path d="M21.7889306,6.41206667 C21.6393796,6.52473333 21.4800327,6.61873333 21.3566041,6.74473333 C19.4927673,8.63873333 17.6308898,10.5340667 15.777502,12.4360667 C15.6181551,12.5987333 15.4601143,12.6680667 15.2341551,12.6667522 C11.4189714,12.6600667 7.60378776,12.6634 3.78925714,12.6634 C3.30403265,12.6634 3.22109388,12.5780667 3.22109388,12.0820667 L3.22109388,3.3654 L3.22109388,2.93006667 C3.09766531,3.0014 3.02844082,3.03206667 2.96901224,3.07606667 C2.80313469,3.2034 2.64117551,3.3374 2.47921633,3.46673333 C1.54272653,4.22006667 1.54272653,4.21673333 0.361338776,4.17406667 C0.176522449,4.1654 0.0772571429,4.11473333 0.100114286,3.9134 C0.101420408,3.90273333 0.100114286,3.89206667 0.100114286,3.88206667 C0.0668081633,2.70273333 0.0681142857,2.70406667 0.985665306,1.97606667 C1.7504,1.3694 2.51056327,0.7574 3.27333878,0.148066667 C3.30403265,0.122733333 3.33472653,0.0774 3.36672653,0.0760666667 C3.93946122,0.0627333333 4.51480816,0.0414 5.08754286,0.0654 C5.15350204,0.0667333333 5.2586449,0.324733333 5.26321633,0.466066667 C5.27758367,1.37273333 5.26974694,2.28073333 5.26974694,3.18806667 L5.26974694,10.1214 C5.26974694,10.5787333 5.27105306,10.5820667 5.70599184,10.5820667 C8.59252245,10.5820667 11.4790531,10.5860667 14.3642776,10.5720667 C14.5373388,10.5720667 14.7521959,10.4814 14.8769306,10.3574 C16.1334204,9.0994 17.3690122,7.82206667 18.6202776,6.5594 C18.7939918,6.38406667 18.8005224,6.2774 18.6241959,6.0994 C17.355298,4.82806667 16.1001143,3.54073333 14.827298,2.2734 C14.7110531,2.15606667 14.4994612,2.0874 14.3309714,2.0874 C12.5899102,2.07473333 10.8514612,2.0794 9.11301224,2.0794 C8.46125714,2.0794 8.43709388,2.05473333 8.4384,1.4034 C8.4384,1.08073333 8.43448163,0.7574 8.4384,0.434733333 C8.44427755,0.122733333 8.56705306,0.000733333333 8.8746449,-0.00126666667 C11.0297469,-0.00126666667 13.1841959,-0.00326666667 15.3386449,0.0034 C15.4535837,0.0054 15.5985633,0.0580666667 15.6782367,0.138066667 C17.6674612,2.15873333 19.6527673,4.18473333 21.6374204,6.21006667 C21.665502,6.23806667 21.6844408,6.27273333 21.7889306,6.41206667" id="Fill-1" fill="#F86454" mask="url(#mask-6)"></path>
            </g>
            <g id="Group-6" transform="translate(1.306122, 1.356200)">
                <mask id="mask-8" fill="white">
                    <use xlink:href="#path-7"></use>
                </mask>
                <g id="Clip-5"></g>
                <path d="M3.02360816,3.62173333 C2.6036898,3.95173333 2.17658776,4.2744 1.76581224,4.61706667 C1.57054694,4.7824 1.36809796,4.85173333 1.11666939,4.8404 C0.755526531,4.8244 0.39242449,4.83706667 0.00189387755,4.83706667 C0.00189387755,4.34506667 -0.00594285714,3.90373333 0.00973061224,3.46306667 C0.0123428571,3.3804 0.087444898,3.27906667 0.156016327,3.22306667 C1.17283265,2.40706667 2.19226122,1.59373333 3.21103673,0.781733333 C3.36777143,0.655066667 4.83585306,0.577066667 4.96777143,0.7224 C5.08205714,0.847066667 5.1754449,1.0444 5.17805714,1.2124 C5.19699592,2.3524 5.1872,3.4904 5.1872,4.6304 L5.1872,12.7377333 C5.1872,13.2490667 5.10752653,13.3304 4.60140408,13.3304 L3.6512,13.3304 C3.20581224,13.3284 3.10915918,13.2330667 3.10915918,12.7857333 L3.10915918,4.0124 L3.10915918,3.66106667 C3.08107755,3.64773333 3.0516898,3.63573333 3.02360816,3.62173333" id="Fill-4" fill="#F86454" mask="url(#mask-8)"></path>
            </g>
        </g>
        <g id="SK-Pay-Logo" transform="translate(0.000000, 20.000000)">
            <g id="Group-3" transform="translate(41.964912, 3.038168)">
                <mask id="mask-10" fill="white">
                    <use xlink:href="#path-9"></use>
                </mask>
                <g id="Clip-2"></g>
                <path d="M9.7545614,0.288098246 L4.28087719,12.1906246 C4.11757895,12.5455018 3.76361404,12.7726596 3.37315789,12.7726596 L1.89161404,12.7726596 L4.00263158,8.15104561 L0.0551929825,0.288098246 L2.33133333,0.288098246 L5.05905263,6.0810807 L7.64719298,0.288098246 L9.7545614,0.288098246 Z" id="Fill-1" fill="#F37725" mask="url(#mask-10)"></path>
            </g>
            <path d="M19.2462035,9.59372632 L20.2342035,10.9612351 C20.2342035,10.9612351 20.9986947,10.4886737 22.1390456,10.4403228 L22.1390456,15.810007 L23.235607,15.810007 C23.7200281,15.810007 24.1123088,15.4177263 24.1123088,14.9333053 L24.1123088,11.2230596 C24.1123088,11.2230596 25.3247298,12.1992 27.0097123,12.1992 C29.4263439,12.1992 31.2764491,10.3107789 31.2764491,7.78467368 C31.2764491,4.80151579 29.0094316,3.2269193 27.0215719,3.19134035 C25.6266947,3.16762105 24.6542035,3.61190175 24.0812912,4.19393684 L24.0812912,3.32635789 L22.1390456,3.32635789 L22.1390456,7.97807719 C23.1571509,7.90053333 23.9973614,8.28551579 23.9973614,8.28551579 C23.9189053,6.06593684 24.9497825,5.00130526 26.6995368,5.00130526 C28.2805193,5.00130526 29.3615719,6.17905965 29.3679579,7.70621754 L29.3679579,7.70986667 L29.3679579,7.71716491 L29.3670456,7.71716491 C29.3615719,9.24523509 28.3817825,10.4074807 26.7588351,10.3636912 C26.0107649,10.3427088 25.247186,9.85190175 24.6824842,9.46965614 C24.6824842,9.46965614 22.5778526,7.74635789 19.2462035,9.59372632" id="Fill-4" fill="#F37725"></path>
            <path d="M36.6498737,10.3678877 C35.1665053,10.3678877 33.9650316,9.16641404 33.9650316,7.68304561 C33.9650316,6.20058947 35.1665053,4.99820351 36.6498737,4.99820351 C38.1323298,4.99820351 39.3338035,6.20058947 39.3338035,7.68304561 C39.3338035,9.16641404 38.1323298,10.3678877 36.6498737,10.3678877 L36.6498737,10.3678877 Z M39.2763298,3.32599298 L39.2763298,4.19357193 C38.7025053,3.61244912 37.7309263,3.16725614 36.3351368,3.19188772 C34.3481895,3.22655439 32.0802596,4.80115088 32.0802596,7.78430877 C32.0802596,10.3113263 33.9312772,12.1997474 36.3469965,12.1997474 C38.0328912,12.1997474 39.2444,11.2226947 39.2444,11.2226947 L39.2444,12.0647298 L41.2185754,12.0647298 L41.2185754,3.32599298 L39.2763298,3.32599298 Z" id="Fill-6" fill="#F37725"></path>
            <g id="Group-10" transform="translate(0.000000, 0.301326)">
                <mask id="mask-12" fill="white">
                    <use xlink:href="#path-11"></use>
                </mask>
                <g id="Clip-9"></g>
                <path d="M4.87148772,5.09983158 C3.95099649,4.66832281 3.19380351,4.31983158 3.19380351,3.61737544 C3.19380351,3.07912982 3.6244,2.6877614 4.47190877,2.6877614 C4.78664561,2.6877614 5.04299649,2.72425263 5.30755789,2.77351579 C5.4444,2.79905965 5.59218947,2.81821754 5.71352281,2.81821754 C6.45520702,2.81821754 6.87485614,2.37667368 7.15492632,1.5346386 L7.26987368,1.19253333 C7.14945263,1.14327018 5.93703158,0.610498246 4.35604912,0.610498246 C1.84089123,0.610498246 0.513522807,2.22523509 0.513522807,3.89927018 C0.513522807,4.74312982 0.776259649,5.35527018 1.19225965,5.83604211 C1.72503158,6.45730526 2.4849614,6.86235789 3.19654035,7.20811228 C4.23380351,7.71716491 5.16797895,8.09211228 5.16797895,8.84656842 C5.16797895,9.51709474 4.47555789,9.89751579 3.55324211,9.89751579 C2.28699649,9.89751579 1.17766316,9.17316491 1.03899649,9.08649825 L-9.12280702e-05,11.0351298 C0.183277193,11.1382175 1.52250526,11.9893754 3.72748772,11.9893754 C6.07569825,11.9866386 7.85373333,10.6401123 7.85373333,8.57105965 C7.85373333,6.5074807 6.20524211,5.74572632 4.87148772,5.09983158" id="Fill-8" fill="#E51837" mask="url(#mask-12)"></path>
            </g>
            <path d="M18.3156772,1.14181053 L15.2786947,1.14181053 L11.8840982,5.64574035 L11.831186,5.64574035 L11.831186,1.14181053 L9.33153684,1.14181053 L9.33153684,12.2013895 L9.47750175,12.2013895 C10.5603789,12.2013895 11.847607,11.7014596 11.847607,9.89423158 L11.847607,7.35626667 L11.899607,7.35626667 L15.3617123,12.0654596 L18.5446596,12.0654596 L14.0562386,6.3618807 L18.3156772,1.14181053 Z" id="Fill-11" fill="#E51837"></path>
        </g>
        <g id="ic/40/logo_Tworld/Bk" transform="translate(0.000000, 40.000000)">
            <g>
                <mask id="mask-14" fill="white">
                    <use xlink:href="#path-13"></use>
                </mask>
                <g id="Rectangle"></g>
                <g id="Group-3" mask="url(#mask-14)">
                    <g transform="translate(7.000000, 12.000000)" id="Group-2">
                        <g id="Group-18" transform="translate(0.500000, 0.000000)">
                            <g id="Group-3" transform="translate(2.639802, 0.000000)">
                                <mask id="mask-16" fill="white">
                                    <use xlink:href="#path-15"></use>
                                </mask>
                                <g id="Clip-2"></g>
                                <path d="M12.728826,26.751318 C12.418626,26.596878 12.117666,26.386338 11.847726,26.122998 L11.847726,19.819998 C11.847726,18.140298 12.312366,16.685658 13.532706,16.239498 L18.737466,14.366418 C18.866826,14.037738 19.109706,13.378398 19.089906,12.455718 C19.062186,11.022858 18.695886,9.768198 18.083406,8.745858 C17.336286,7.493178 16.218246,6.594918 14.900226,6.159318 L0.646866,1.660758 L4.363986,0.316998 C4.855026,0.150018 5.276766,0.187638 5.726886,0.315018 L20.270646,4.900698 C21.458646,5.301318 22.298826,6.187698 22.855206,7.184958 C23.480886,8.312898 23.744886,9.582078 23.744886,10.457238 C23.744886,11.795058 23.290806,13.342758 21.878406,13.861518 C21.042186,14.167758 19.369746,14.774958 16.860426,15.682458 C16.722486,16.012458 16.504026,16.626258 16.504026,17.985858 C16.504026,18.759378 16.491486,22.920018 16.491486,23.666478 C16.491486,24.559458 16.278966,25.412178 15.859866,26.041818 C15.442086,26.668818 14.820366,27.074718 13.999986,27.074718 C13.592106,27.074718 13.151226,26.963838 12.728826,26.751318" id="Fill-1" fill="#000000" mask="url(#mask-16)"></path>
                            </g>
                            <g id="Group-6" transform="translate(0.000000, 1.980000)">
                                <mask id="mask-18" fill="white">
                                    <use xlink:href="#path-17"></use>
                                </mask>
                                <g id="Clip-5"></g>
                                <path d="M10.758,9.815322 C11.50644,10.965042 11.88726,12.407802 11.88726,13.632102 L11.88726,18.920022 C11.88726,22.192962 13.38612,24.861342 15.8565,25.622982 L12.04236,26.950902 C11.69982,27.073662 11.35992,27.081582 11.04642,27.030102 C10.66428,26.966082 10.3257,26.810982 10.07952,26.651922 C9.22218,26.095542 8.5536,25.397262 8.0784,24.528042 C7.52796,23.515602 7.24548,22.266882 7.24548,20.728422 C7.24548,19.384662 7.23756,17.546562 7.23756,15.179802 C7.23756,13.829442 6.66864,12.251382 5.78754,11.087802 C5.12688,10.209342 4.36392,9.658902 3.39042,9.309102 C2.60436,9.025302 1.88034,8.429322 1.3068,7.654482 C0.51084,6.580002 -2.26485497e-14,5.162322 -2.26485497e-14,3.760482 C-2.26485497e-14,2.631882 0.30954,1.729662 0.81576,1.127742 C1.24014,0.620202 1.80312,0.323862 2.4354,0.277662 C2.739,0.256542 2.9898,0.311322 3.23334,0.385902 C3.78444,0.556182 4.28142,0.716562 4.72362,0.870342 C4.2636,3.272082 5.65092,6.955542 8.44932,7.953462 C9.54822,8.345502 10.19766,8.954682 10.758,9.815322" id="Fill-4" fill="#000000" mask="url(#mask-18)"></path>
                            </g>
                        </g>
                    </g>
                </g>
            </g>
            <path d="M32.67,18 L33.948,18 L34.452,13.968 L36.936,13.968 L36.45,18 L37.746,18 L38.232,13.968 L40.104,13.968 L40.104,12.582 L38.394,12.582 L38.736,9.828 L40.518,9.828 L40.518,8.442 L38.898,8.442 L39.348,4.842 L38.07,4.842 L37.602,8.442 L35.118,8.442 L35.55,4.842 L34.29,4.842 L33.822,8.442 L31.986,8.442 L31.986,9.828 L33.66,9.828 L33.318,12.582 L31.59,12.582 L31.59,13.968 L33.156,13.968 L32.67,18 Z M34.596,12.582 L34.938,9.828 L37.44,9.828 L37.098,12.582 L34.596,12.582 Z" id="#" fill="#000000" fill-rule="nonzero"></path>
        </g>
        <g id="Group" transform="translate(0.000000, 100.000000)" style="mix-blend-mode: luminosity;">
            <polygon id="Path" points="0 0 16 0 16 16 0 16"></polygon>
            <path d="M2.966,2.091 C3.245,2.177 3.496,2.258 3.719,2.336 C3.487,3.549 4.187,5.409 5.601,5.913 C6.156,6.111 6.484,6.419 6.767,6.853 C7.145,7.434 7.337,8.163 7.337,8.781 L7.337,11.451 C7.337,13.105 8.094,14.452 9.342,14.837 L7.415,15.507 C7.242,15.57 7.071,15.574 6.912,15.547 C6.719,15.515 6.548,15.437 6.424,15.357 C5.991,15.076 5.654,14.723 5.414,14.284 C5.135,13.773 4.993,13.142 4.993,12.365 C4.993,11.686 4.989,10.758 4.989,9.563 C4.989,8.881 4.701,8.083 4.256,7.496 C3.923,7.052 3.537,6.774 3.046,6.598 C2.649,6.454 2.283,6.153 1.993,5.762 C1.591,5.219 1.333,4.503 1.333,3.795 C1.333,3.225 1.49,2.77 1.745,2.465 C1.96,2.209 2.245,2.06 2.563,2.036 C2.717,2.026 2.843,2.053 2.966,2.091 Z M5.56,1.055 L12.905,3.371 C13.505,3.574 13.93,4.021 14.211,4.525 C14.527,5.095 14.66,5.735 14.66,6.178 C14.66,6.853 14.43,7.635 13.717,7.897 C13.295,8.052 12.45,8.358 11.183,8.817 C11.113,8.983 11.003,9.293 11.003,9.98 L11.003,10.358 L10.997,12.849 C10.997,13.3 10.889,13.731 10.677,14.049 C10.467,14.365 10.153,14.57 9.738,14.57 C9.532,14.57 9.31,14.514 9.096,14.407 C8.94,14.329 8.788,14.223 8.651,14.09 L8.651,10.906 C8.651,10.058 8.886,9.323 9.502,9.098 L12.131,8.152 C12.196,7.986 12.319,7.653 12.309,7.187 C12.295,6.463 12.11,5.83 11.801,5.313 C11.423,4.681 10.859,4.227 10.193,4.007 L2.993,1.735 L4.871,1.056 C5.119,0.972 5.331,0.991 5.559,1.056 L5.56,1.055 Z" id="Shape" fill="#949494" fill-rule="nonzero"></path>
        </g>
        <g id="Group" transform="translate(20.000000, 100.000000)" style="mix-blend-mode: luminosity;">
            <polygon id="Path" points="0 0 16 0 16 16 0 16"></polygon>
            <path d="M2.966,2.091 C3.245,2.177 3.496,2.258 3.719,2.336 C3.487,3.549 4.187,5.409 5.601,5.913 C6.156,6.111 6.484,6.419 6.767,6.853 C7.145,7.434 7.337,8.163 7.337,8.781 L7.337,11.451 C7.337,13.105 8.094,14.452 9.342,14.837 L7.415,15.507 C7.242,15.57 7.071,15.574 6.912,15.547 C6.719,15.515 6.548,15.437 6.424,15.357 C5.991,15.076 5.654,14.723 5.414,14.284 C5.135,13.773 4.993,13.142 4.993,12.365 C4.993,11.686 4.989,10.758 4.989,9.563 C4.989,8.881 4.701,8.083 4.256,7.496 C3.923,7.052 3.537,6.774 3.046,6.598 C2.649,6.454 2.283,6.153 1.993,5.762 C1.591,5.219 1.333,4.503 1.333,3.795 C1.333,3.225 1.49,2.77 1.745,2.465 C1.96,2.209 2.245,2.06 2.563,2.036 C2.717,2.026 2.843,2.053 2.966,2.091 Z M5.56,1.055 L12.905,3.371 C13.505,3.574 13.93,4.021 14.211,4.525 C14.527,5.095 14.66,5.735 14.66,6.178 C14.66,6.853 14.43,7.635 13.717,7.897 C13.295,8.052 12.45,8.358 11.183,8.817 C11.113,8.983 11.003,9.293 11.003,9.98 L11.003,10.358 L10.997,12.849 C10.997,13.3 10.889,13.731 10.677,14.049 C10.467,14.365 10.153,14.57 9.738,14.57 C9.532,14.57 9.31,14.514 9.096,14.407 C8.94,14.329 8.788,14.223 8.651,14.09 L8.651,10.906 C8.651,10.058 8.886,9.323 9.502,9.098 L12.131,8.152 C12.196,7.986 12.319,7.653 12.309,7.187 C12.295,6.463 12.11,5.83 11.801,5.313 C11.423,4.681 10.859,4.227 10.193,4.007 L2.993,1.735 L4.871,1.056 C5.119,0.972 5.331,0.991 5.559,1.056 L5.56,1.055 Z" id="Shape" fill="#000000" fill-rule="nonzero"></path>
        </g>
        <g id="ic/32/logo/Bk" transform="translate(0.000000, 120.000000)">
            <mask id="mask-20" fill="white">
                <use xlink:href="#path-19"></use>
            </mask>
            <g id="Rectangle"></g>
            <g id="Group" mask="url(#mask-20)">
                <g transform="translate(8.000000, 7.000000)" id="LOGO_Full">
                    <g id="Group-23" transform="translate(0.000000, 0.068259)" fill="#000000">
                        <path d="M83.8566439,3.99345392 L83.8659602,4.02785666 L86.3161693,12.6283345 L88.7648713,3.99345392 L92.1930266,3.99345392 L92.1721333,4.05495563 L88.1860909,15.8415768 C87.2039659,18.799256 85.7309496,19.8989829 82.7513508,19.8989829 C82.6831905,19.8989829 81.6609913,19.8892901 81.5431665,19.8657406 L81.5431665,19.8657406 L81.5054899,19.8582321 L81.5054899,17.3306553 L81.5614567,17.3417816 C81.6619504,17.3616451 82.2163437,17.3730444 82.3517738,17.3730444 C83.4822074,17.3730444 84.029271,17.0135904 84.2388896,16.13243 C84.2493706,16.0832833 84.3498642,15.6182321 84.3472611,15.5865597 L84.3472611,15.5865597 L80.2982646,3.99345392 L83.8566439,3.99345392 Z M46.7050479,3.74582935 C49.7323932,3.74582935 51.8652972,5.58903754 52.0125782,8.33245051 L52.0125782,8.33245051 L52.0151814,8.38152901 L48.9981114,8.38152901 L48.9920832,8.34187031 C48.7993847,7.06582935 47.9605677,6.30405461 46.7482047,6.30405461 C45.1947661,6.30405461 44.2673064,7.61053925 44.2673064,9.79886689 C44.2673064,12.0005734 45.1988078,13.3151126 46.7589596,13.3151126 C47.9845436,13.3151126 48.7984942,12.5958635 48.9920832,11.341802 L48.9920832,11.341802 L48.9982484,11.3022116 L52.0262788,11.3022116 L52.0233332,11.3516314 C51.8598855,14.0984573 49.7808932,15.8733379 46.7266948,15.8733379 C43.1796185,15.8733379 40.9761566,13.5456928 40.9761566,9.79886689 C40.9761566,7.97429352 41.5133558,6.44453242 42.5296637,5.37504437 C43.542478,4.30924232 44.986312,3.74582935 46.7050479,3.74582935 Z M65.8071222,3.74586348 C67.534558,3.74586348 68.9876399,4.30354266 70.0092225,5.35855973 C71.0434097,6.42661433 71.5899937,7.96204096 71.5899937,9.79883276 C71.5899937,13.545727 69.3741328,15.8733038 65.8071222,15.8733038 C62.2401802,15.8733038 60.0243878,13.545727 60.0243878,9.79883276 C60.0243878,7.96606826 60.5709033,6.43207509 61.6050905,5.36258703 C62.6279061,4.30490785 64.0809196,3.74586348 65.8071222,3.74586348 Z M94.3124629,10.6343823 C95.7595166,10.6343823 96.9368746,11.8074881 96.9368746,13.2493993 C96.9368746,14.6913106 95.7595166,15.8644164 94.3124629,15.8644164 C92.8654093,15.8644164 91.6881197,14.6913106 91.6881197,13.2493993 C91.6881197,11.8074881 92.8654093,10.6343823 94.3124629,10.6343823 Z M34.7887417,3.74584983 C37.7964268,3.74584983 39.7397834,5.27677133 39.7397834,7.64605461 L39.7397834,7.64605461 L39.7397834,15.6257133 L36.5998879,15.6257133 L36.5998879,13.8790239 C35.9560299,15.0529488 34.5686422,15.8087167 33.0495235,15.8087167 C30.7753667,15.8087167 29.1247227,14.3177952 29.1247227,12.2637338 C29.1247227,10.159843 30.7400878,8.90475768 33.6733102,8.72974061 L33.6733102,8.72974061 L36.5459077,8.55997952 L36.5459077,7.83977474 C36.5459077,6.80407509 35.8365609,6.18571331 34.6483109,6.18571331 C33.5335645,6.18571331 32.7754437,6.70646416 32.6202163,7.57875085 L32.6202163,7.57875085 L32.6134345,7.61724915 L29.6406859,7.61724915 L29.6432206,7.56817065 C29.7664571,5.24619113 31.7861944,3.74584983 34.7887417,3.74584983 Z M57.3236091,1.14812287 L57.3236091,3.9934471 L59.4717892,3.9934471 L59.4717892,6.45474403 L57.3422419,6.45474403 L57.3422419,11.9301024 C57.3422419,12.7868942 57.7599036,13.1859386 58.6566056,13.1859386 C58.9273972,13.1859386 59.2183972,13.165529 59.4158909,13.1326962 L59.4158909,13.1326962 L59.4704191,13.1236177 L59.4704191,15.5298976 L59.4343181,15.5382935 C59.0832412,15.62 58.5179559,15.6688055 57.9219813,15.6688055 C55.2033097,15.6688055 54.0943174,14.74157 54.0943174,12.4682594 L54.0943174,12.4682594 L54.0943174,6.45474403 L52.4632652,6.45474403 L52.4632652,3.9934471 L54.1130872,3.9934471 L54.1130872,1.14812287 L57.3236091,1.14812287 Z M28.8629391,-2.04778157e-05 L28.8629391,2.79219795 L21.935865,2.79219795 L21.935865,6.84584983 L28.1644843,6.84584983 L28.1644843,9.51185666 L21.935865,9.51185666 L21.935865,15.6257133 L18.5798431,15.6257133 L18.5798431,-2.04778157e-05 L28.8629391,-2.04778157e-05 Z M78.8601917,3.81047099 C79.3012814,3.81047099 79.6196825,3.88582935 79.7702517,3.93081229 L79.7702517,3.93081229 L79.7388089,6.78487372 C79.4721274,6.67422526 79.0402171,6.6054198 78.6118004,6.6054198 C77.0763096,6.6054198 76.1957058,7.52617065 76.1957058,9.13142662 L76.1957058,9.13142662 L76.1957058,15.6256928 L72.9477129,15.6256928 L72.9477129,3.9934744 L76.0874713,3.9934744 L76.0874713,6.01245051 C76.5175321,4.59135836 77.498972,3.81047099 78.8601917,3.81047099 Z M4.51000678,3.79494198 L7.86047994,5.46422526 L7.86047994,15.625727 L4.51000678,15.625727 L4.51000678,3.79494198 Z M36.5459077,10.5588191 L34.1542686,10.7065324 C33.0084218,10.7902867 32.3510687,11.2951331 32.3510687,12.0915154 C32.3510687,12.9132901 33.0322608,13.4442116 34.0865193,13.4442116 C35.4885666,13.4442116 36.5459077,12.5433925 36.5459077,11.3489215 L36.5459077,11.3489215 L36.5459077,10.5588191 Z M65.8071222,6.2394471 C64.2701244,6.2394471 63.3154005,7.60743345 63.3154005,9.80961775 C63.3154005,12.0450444 64.2469019,13.3795836 65.8071222,13.3795836 C67.3606978,13.3795836 68.2881576,12.0450444 68.2881576,9.80961775 C68.2881576,7.60743345 67.3374754,6.2394471 65.8071222,6.2394471 Z M12.3759258,1.72407119e-15 L12.3759258,2.91952218 L0,2.91952218 L0,1.72407119e-15 L12.3759258,1.72407119e-15 Z" id="Combined-Shape"></path>
                    </g>
                </g>
            </g>
        </g>
        <g id="ic/56/logo/Bk" transform="translate(0.000000, 160.000000)">
            <mask id="mask-22" fill="white">
                <use xlink:href="#path-21"></use>
            </mask>
            <g id="Rectangle"></g>
            <g id="Group" mask="url(#mask-22)">
                <g transform="translate(14.000000, 11.000000)" id="LOGO_Full">
                    <g id="Group-23" transform="translate(0.000000, 0.119454)">
                        <path d="M146.749127,6.98854437 L146.76543,7.04874915 L151.053296,22.0995853 L155.338525,6.98854437 L161.337797,6.98854437 L161.301233,7.09617235 L154.325659,27.7227594 C152.60694,32.898698 150.029162,34.8232201 144.814864,34.8232201 C144.695583,34.8232201 142.906735,34.8062577 142.700541,34.7650461 L142.700541,34.7650461 L142.634607,34.7519061 L142.634607,30.3286468 L142.732549,30.3481177 C142.908413,30.3828788 143.878602,30.4028276 144.115604,30.4028276 C146.093863,30.4028276 147.051224,29.7737833 147.418057,28.2317526 C147.436398,28.1457457 147.612262,27.3319061 147.607707,27.2764795 L147.607707,27.2764795 L140.521963,6.98854437 L146.749127,6.98854437 Z M81.7338338,6.55520137 C87.0316881,6.55520137 90.7642701,9.7808157 91.0220119,14.5817884 L91.0220119,14.5817884 L91.0265674,14.6676758 L85.746695,14.6676758 L85.7361456,14.598273 C85.3989233,12.3652014 83.9309934,11.0320956 81.8093582,11.0320956 C79.0908407,11.0320956 77.4677861,13.3184437 77.4677861,17.1480171 C77.4677861,21.0010034 79.0979136,23.3014471 81.8281793,23.3014471 C83.9729514,23.3014471 85.3973649,22.0427611 85.7361456,19.8481536 L85.7361456,19.8481536 L85.7469348,19.7788703 L91.0459879,19.7788703 L91.0408331,19.8653549 C90.7547995,24.6723003 87.1165631,27.7783413 81.7717159,27.7783413 C75.5643324,27.7783413 71.7082741,23.7049625 71.7082741,17.1480171 C71.7082741,13.9550137 72.6483726,11.2779317 74.4269115,9.40632765 C76.1993364,7.54117406 78.726046,6.55520137 81.7338338,6.55520137 Z M115.162464,6.55526109 C118.185476,6.55526109 120.72837,7.53119966 122.516139,9.37747952 C124.325967,11.2465751 125.282489,13.9335717 125.282489,17.1479573 C125.282489,23.7050222 121.404732,27.7782816 115.162464,27.7782816 C108.920315,27.7782816 105.042679,23.7050222 105.042679,17.1479573 C105.042679,13.9406195 105.999081,11.2561314 107.808908,9.3845273 C109.598836,7.53358874 112.141609,6.55526109 115.162464,6.55526109 Z M60.880298,6.5552372 C66.1437468,6.5552372 69.544621,9.23434983 69.544621,13.3805956 L69.544621,13.3805956 L69.544621,27.3449983 L64.0498039,27.3449983 L64.0498039,24.2882918 C62.9230523,26.3426604 60.4951238,27.6652543 57.8366662,27.6652543 C53.8568918,27.6652543 50.9682647,25.0561416 50.9682647,21.4615341 C50.9682647,17.7797253 53.7951536,15.5833259 58.9282929,15.2770461 L58.9282929,15.2770461 L63.9553385,14.9799642 L63.9553385,13.7196058 C63.9553385,11.9071314 62.7139817,10.8249983 60.6345442,10.8249983 C58.6837378,10.8249983 57.3570265,11.7363123 57.0853785,13.262814 L57.0853785,13.262814 L57.0735104,13.330186 L51.8712004,13.330186 L51.875636,13.2442986 C52.0913,9.18083447 55.6258402,6.5552372 60.880298,6.5552372 Z M100.316316,2.00921502 L100.316316,6.98853242 L104.075631,6.98853242 L104.075631,11.295802 L100.348923,11.295802 L100.348923,20.8776792 C100.348923,22.3770648 101.079831,23.0753925 102.64906,23.0753925 C103.122945,23.0753925 103.632195,23.0396758 103.977809,22.9822184 L103.977809,22.9822184 L104.073233,22.9663311 L104.073233,27.1773208 L104.010057,27.1920137 C103.395672,27.335 102.406423,27.4204096 101.363467,27.4204096 C96.6057919,27.4204096 94.6650555,25.7977474 94.6650555,21.8194539 L94.6650555,21.8194539 L94.6650555,11.295802 L91.8107141,11.295802 L91.8107141,6.98853242 L94.6979026,6.98853242 L94.6979026,2.00921502 L100.316316,2.00921502 Z M50.5101435,-3.58361775e-05 L50.5101435,4.88634642 L38.3877637,4.88634642 L38.3877637,11.9802372 L49.2878476,11.9802372 L49.2878476,16.6457491 L38.3877637,16.6457491 L38.3877637,27.3449983 L32.5147254,27.3449983 L32.5147254,-3.58361775e-05 L50.5101435,-3.58361775e-05 Z M7.89251186,6.64114846 L13.7558399,9.5623942 L13.7558399,27.3450222 L7.89251186,27.3450222 L7.89251186,6.64114846 Z M138.005335,6.66832423 C138.777242,6.66832423 139.334444,6.80020137 139.59794,6.8789215 L139.59794,6.8789215 L139.542916,11.873529 C139.076223,11.6798942 138.32038,11.5594846 137.570651,11.5594846 C134.883542,11.5594846 133.342485,13.1707986 133.342485,15.9799966 L133.342485,15.9799966 L133.342485,27.3449625 L127.658497,27.3449625 L127.658497,6.9885802 L133.153075,6.9885802 L133.153075,10.5217884 C133.905681,8.03487713 135.623201,6.66832423 138.005335,6.66832423 Z M63.9553385,18.4779334 L59.76997,18.7364317 C57.7647382,18.8830017 56.6143703,19.7664829 56.6143703,21.1601519 C56.6143703,22.5982577 57.8064564,23.5273703 59.6514087,23.5273703 C62.1049915,23.5273703 63.9553385,21.9509369 63.9553385,19.8606126 L63.9553385,19.8606126 L63.9553385,18.4779334 Z M115.162464,10.9190324 C112.472718,10.9190324 110.801951,13.3130085 110.801951,17.1668311 C110.801951,21.0788276 112.432078,23.4142713 115.162464,23.4142713 C117.881221,23.4142713 119.504276,21.0788276 119.504276,17.1668311 C119.504276,13.3130085 117.840582,10.9190324 115.162464,10.9190324 Z M21.6578702,4.16201497e-15 L21.6578702,5.10916382 L0,5.10916382 L0,4.16201497e-15 L21.6578702,4.16201497e-15 Z" id="Combined-Shape" fill="#3617CE"></path>
                        <path d="M165.04681,18.6101689 C162.514466,18.6101689 160.454209,20.6631041 160.454209,23.1864488 C160.454209,25.7097935 162.514466,27.7627287 165.04681,27.7627287 C167.579154,27.7627287 169.639531,25.7097935 169.639531,23.1864488 C169.639531,20.6631041 167.579154,18.6101689 165.04681,18.6101689" id="Fill-1" fill="#FF404E"></path>
                    </g>
                </g>
            </g>
        </g>
    </g>
</svg>