<svg xmlns="http://www.w3.org/2000/svg" viewBox="0 0 2689.93 514.34"><defs><style>.cls-1,.cls-2,.cls-4,.cls-5,.cls-6{fill:none;stroke:#fff;}.cls-1{stroke-width:3.5px;}.cls-2,.cls-6{stroke-width:2px;}.cls-3{fill:#fff;}.cls-4,.cls-6{stroke-linecap:square;}.cls-4,.cls-5{stroke-width:3px;}</style></defs><g id="Layer_2" data-name="Layer 2"><g id="tutorial_design_2_en_익스_outline" data-name="tutorial design 2 en 익스 outline"><g id="tutorial_design_2_en_익스_outline-2" data-name="tutorial design 2 en 익스 outline"><rect id="Rectangle-11-2" class="cls-1" x="43.62" y="332.38" width="137.99" height="137.99" rx="17.49"/><rect id="Rectangle-11-3" class="cls-1" x="216.67" y="332.38" width="137.99" height="137.99" rx="17.49"/><rect id="Rectangle-11-4" class="cls-1" x="387.76" y="332.38" width="137.99" height="137.99" rx="17.49"/><rect id="Rectangle-11" class="cls-1" x="216.67" y="159.55" width="137.99" height="137.99" rx="17.49"/><path id="Rectangle-18" class="cls-2" d="M273,129.49h24.87l-12.45-12.44Z"/><path id="Rectangle-18-4" class="cls-2" d="M298.86,500.49H274l12.43,12.43Z"/><g id="W"><path class="cls-3" d="M251.18,277H248l-10.53-33.73h2.76l9.35,31.64,8.84-31.64h3L270.26,275l9.45-31.69h2.61L271.79,277H268.6l-6.79-23.66L259.92,246h-.06L258,253.33Z"/></g><g id="A"><path class="cls-3" d="M87.4,439.29H71.26l-4.2,10.57h-2.7l13.49-33.72h3l13.49,33.72h-2.7Zm-.92-2.35-5.87-14.72-1.23-3.58h0l-1.23,3.48-5.92,14.82Z"/></g><g id="D"><path class="cls-3" d="M432,420.3q4.38,4.26,4.37,12.34,0,8.28-4.37,12.7t-12.44,4.42H408.91V416h10.63Q427.61,416,432,420.3Zm-1.91,23.34q3.6-3.81,3.61-11,0-6.86-3.61-10.55t-10.35-3.71h-8.27v29h8.27Q426.49,447.41,430.09,443.64Z"/></g><g id="S"><path class="cls-3" d="M263.86,423.09l-2.19,1.79a9.91,9.91,0,0,0-3.81-5.27,12.16,12.16,0,0,0-6.67-1.63,13.24,13.24,0,0,0-5.16.92,7.83,7.83,0,0,0-3.35,2.5,6.06,6.06,0,0,0-1.15,3.58,5.22,5.22,0,0,0,1,3.22,7.46,7.46,0,0,0,3.3,2.17,34.78,34.78,0,0,0,6.41,1.61q6.6,1.14,9.36,3.27a7.11,7.11,0,0,1,2.75,5.93,7.67,7.67,0,0,1-1.58,4.8,10.08,10.08,0,0,1-4.47,3.25,17.79,17.79,0,0,1-6.62,1.14,17.56,17.56,0,0,1-9-2.12,10.84,10.84,0,0,1-5-5.95l2.25-1.74a9.21,9.21,0,0,0,4.11,5.55,14.14,14.14,0,0,0,7.64,1.91,13,13,0,0,0,7.18-1.78,5.51,5.51,0,0,0,2.79-4.91,5,5,0,0,0-2.28-4.29q-2.25-1.59-7.89-2.56a34.42,34.42,0,0,1-7.51-2,8.92,8.92,0,0,1-4-2.91,7.5,7.5,0,0,1-1.21-4.35,8.43,8.43,0,0,1,1.51-4.8,10.67,10.67,0,0,1,4.29-3.5,15.42,15.42,0,0,1,6.52-1.3Q260.65,415.65,263.86,423.09Z"/></g><path id="Rectangle-18-2" class="cls-2" d="M556.41,388.39v24.87l12.44-12.43Z"/><path id="Rectangle-18-3" class="cls-2" d="M13.85,413.26V388.39L1.41,400.83Z"/></g><g id="tutorial_design_2_en_익스_outline-3" data-name="tutorial design 2 en 익스 outline"><rect id="Rectangle-11-2-2" data-name="Rectangle-11-2" class="cls-1" x="766.07" y="332.41" width="137.99" height="137.99" rx="17.49"/><rect id="Rectangle-11-3-2" data-name="Rectangle-11-3" class="cls-1" x="939.13" y="332.41" width="137.99" height="137.99" rx="17.49"/><polygon class="cls-2" points="1026.39 392.27 1008.13 410.54 989.86 392.27 1026.39 392.27"/><rect id="Rectangle-11-4-2" data-name="Rectangle-11-4" class="cls-1" x="1110.21" y="332.41" width="137.99" height="137.99" rx="17.49"/><rect id="Rectangle-11-2-3" data-name="Rectangle-11" class="cls-1" x="939.13" y="159.58" width="137.99" height="137.99" rx="17.49"/><polygon class="cls-2" points="989.86 237.71 1008.13 219.44 1026.39 237.71 989.86 237.71"/><polygon class="cls-2" points="1170.07 383.14 1188.34 401.41 1170.07 419.68 1170.07 383.14"/><polygon class="cls-2" points="844.2 418.68 825.93 400.41 844.2 382.14 844.2 418.68"/></g><path id="Rectangle-15" class="cls-1" d="M1771.71,200.76a86.7,86.7,0,0,0-86.69,86.7v98.41a86.7,86.7,0,0,0,86.69,86.7h4.69a86.7,86.7,0,0,0,86.7-86.7V287.46a86.7,86.7,0,0,0-86.7-86.7Zm0,0a86.7,86.7,0,0,0-86.69,86.7v98.41a86.7,86.7,0,0,0,86.69,86.7h4.69a86.7,86.7,0,0,0,86.7-86.7V287.46a86.7,86.7,0,0,0-86.7-86.7Zm0,0a86.7,86.7,0,0,0-86.69,86.7v98.41a86.7,86.7,0,0,0,86.69,86.7h4.69a86.7,86.7,0,0,0,86.7-86.7V287.46a86.7,86.7,0,0,0-86.7-86.7Z"/><path id="Line-2" class="cls-4" d="M1775.23,255.83V298"/><circle id="Oval-3" class="cls-5" cx="1735.4" cy="248.8" r="10.54"/><path id="Oval-8" class="cls-5" d="M1737.55,157.6c-44.1-3.07-89,30.65-92.37,78.1"/><path id="Rectangle-18-2-2" data-name="Rectangle-18" class="cls-5" d="M1666.72,243.32l-42.62-11.39,15.65,27Z"/><path class="cls-3" d="M19.74,14a4.63,4.63,0,0,1-.45,2,5,5,0,0,1-1.23,1.61,6.41,6.41,0,0,1-1.9,1.14,8.83,8.83,0,0,1-2.43.58V22.8c.75,0,1.53-.1,2.35-.18s1.61-.16,2.39-.26S20,22.15,20.73,22l2-.33c.35-.06.54,0,.56.23l.2,1.26c0,.26-.1.42-.43.46-1.48.24-3.09.46-4.85.66s-3.53.35-5.32.46c-.63,0-1.38.08-2.24.1L8,24.93,5.4,25c-.85,0-1.58,0-2.19,0a.49.49,0,0,1-.35-.13.36.36,0,0,1-.15-.29V23.36a.37.37,0,0,1,.15-.31.53.53,0,0,1,.35-.12c.48,0,1.06,0,1.73.05s1.37,0,2.11,0l2.24,0,2.17-.05V19.4A8.7,8.7,0,0,1,9,18.83a6.53,6.53,0,0,1-1.9-1.16A5.12,5.12,0,0,1,5.86,16a4.63,4.63,0,0,1-.44-2A4.68,4.68,0,0,1,6,11.76a5.1,5.1,0,0,1,1.5-1.71A7.09,7.09,0,0,1,9.72,9a10.31,10.31,0,0,1,2.86-.38,9.65,9.65,0,0,1,2.84.4,7.27,7.27,0,0,1,2.27,1.1,5.17,5.17,0,0,1,1.5,1.7A4.45,4.45,0,0,1,19.74,14Zm1.62-7.13H3.8a.43.43,0,0,1-.31-.13.43.43,0,0,1-.15-.33V5.31A.43.43,0,0,1,3.49,5a.48.48,0,0,1,.31-.13H21.36c.33,0,.49.14.49.43V6.43C21.85,6.72,21.69,6.86,21.36,6.86ZM16.7,2.74H8a.48.48,0,0,1-.31-.12.36.36,0,0,1-.15-.31V1.19A.44.44,0,0,1,7.66.86.41.41,0,0,1,8,.73H16.7c.33,0,.5.15.5.46V2.28C17.2,2.58,17,2.74,16.7,2.74ZM17.49,14a2.87,2.87,0,0,0-1.38-2.57,6.38,6.38,0,0,0-3.53-.89,7.71,7.71,0,0,0-2,.23,5,5,0,0,0-1.56.66,3.1,3.1,0,0,0-1,1.09A2.84,2.84,0,0,0,7.63,14,2.78,2.78,0,0,0,8,15.46a3.37,3.37,0,0,0,1,1.09,5.06,5.06,0,0,0,1.56.69,7.28,7.28,0,0,0,2,.25,6.3,6.3,0,0,0,3.53-.92A2.94,2.94,0,0,0,17.49,14Zm9.08,16.53H25.22a.41.41,0,0,1-.47-.46V.56A.41.41,0,0,1,25.22.1h1.35A.4.4,0,0,1,27,.56v12.9h4.56a.52.52,0,0,1,.34.12.37.37,0,0,1,.15.31V15a.4.4,0,0,1-.15.3.48.48,0,0,1-.34.13H27V30.06A.4.4,0,0,1,26.57,30.52Z"/><path class="cls-3" d="M44.69,1.12a16.64,16.64,0,0,1-.6,4.29,10.67,10.67,0,0,0,1.19,2.18A14.56,14.56,0,0,0,47,9.64a16.74,16.74,0,0,0,2.11,1.73,13,13,0,0,0,2.33,1.27.25.25,0,0,1,.2.25.62.62,0,0,1-.07.31L51,14.32a.36.36,0,0,1-.28.22,1,1,0,0,1-.38,0,14,14,0,0,1-2.12-1.17,20.25,20.25,0,0,1-2-1.59,20.19,20.19,0,0,1-1.78-1.81A11.79,11.79,0,0,1,43,8.05a16.33,16.33,0,0,1-2.76,3.71,23.57,23.57,0,0,1-4.17,3.32.9.9,0,0,1-.38.18.4.4,0,0,1-.32-.18l-.82-1c-.18-.24-.12-.46.16-.66a22.85,22.85,0,0,0,3.5-2.66,13.78,13.78,0,0,0,2.36-2.87A12,12,0,0,0,42,4.69a14.92,14.92,0,0,0,.43-3.6.54.54,0,0,1,.13-.4.36.36,0,0,1,.26-.13l1.55.1C44.56.66,44.69.81,44.69,1.12ZM58.74,30.23a.37.37,0,0,1-.14.28.53.53,0,0,1-.29.11H41.72a2.63,2.63,0,0,1-2-.57,3.12,3.12,0,0,1-.48-2V25.61a2.35,2.35,0,0,1,.58-1.87,3.29,3.29,0,0,1,2.06-.48h13.2a.88.88,0,0,0,.59-.13.94.94,0,0,0,.13-.62V20.62a1.13,1.13,0,0,0-.11-.62c-.08-.09-.27-.13-.58-.13H39.6a.6.6,0,0,1-.31-.1.32.32,0,0,1-.15-.27V18.31a.31.31,0,0,1,.15-.26.52.52,0,0,1,.31-.1H55.44a5.65,5.65,0,0,1,1.29.12,1.67,1.67,0,0,1,.79.38,1.38,1.38,0,0,1,.42.74,5.54,5.54,0,0,1,.11,1.17v2.48a2.34,2.34,0,0,1-.58,1.86,3.29,3.29,0,0,1-2.06.48H42.18c-.31,0-.5,0-.58.13a1.06,1.06,0,0,0-.12.63v2a1,1,0,0,0,.14.61c.08.1.28.15.59.15H58.28a.55.55,0,0,1,.32.1.31.31,0,0,1,.14.26ZM57.59,16.07H56.24a.41.41,0,0,1-.47-.46V.56A.41.41,0,0,1,56.24.1h1.35a.4.4,0,0,1,.46.46V7.29H62.6a.53.53,0,0,1,.35.12.37.37,0,0,1,.15.31V8.84a.4.4,0,0,1-.15.3.49.49,0,0,1-.35.13H58.05v6.34A.4.4,0,0,1,57.59,16.07Z"/><path class="cls-3" d="M89.8,15.94H85.31v7.39H93.2a.56.56,0,0,1,.33.12.37.37,0,0,1,.16.31v1.12a.41.41,0,0,1-.16.3.51.51,0,0,1-.33.13h-28a.49.49,0,0,1-.35-.13.4.4,0,0,1-.15-.3V23.76a.36.36,0,0,1,.15-.31.53.53,0,0,1,.35-.12h7.62V15.94H68.15a.47.47,0,0,1-.32-.13.45.45,0,0,1-.14-.33v-1a.45.45,0,0,1,.14-.33.52.52,0,0,1,.32-.13h4.19V4.19H68.81a.47.47,0,0,1-.32-.13.45.45,0,0,1-.14-.33v-1a.42.42,0,0,1,.14-.33.49.49,0,0,1,.32-.14H89.14c.33,0,.49.15.49.43V3.76c0,.29-.16.43-.49.43H85.77V14h4c.33,0,.49.15.49.43v1.09C90.29,15.8,90.13,15.94,89.8,15.94ZM74.58,14h9V4.19h-9ZM75,23.33h8V15.94H75Z"/><path class="cls-3" d="M107.22,10.72l2,0,2.06-.06,1.9-.07c.59,0,1.09,0,1.48-.07l.58,0,.84-.05.92-.05a6.09,6.09,0,0,0,.83-.1,18.32,18.32,0,0,0,1.19-4.85.76.76,0,0,0-.13-.67,1,1,0,0,0-.66-.19H107.71c-.26,0-.39-.14-.39-.43V3a.35.35,0,0,1,.39-.4H118.9a2.71,2.71,0,0,1,2,.58,2.54,2.54,0,0,1,.43,1.8,18.62,18.62,0,0,1-1.19,5.53,21,21,0,0,1-2.82,5.11,26.67,26.67,0,0,1-4.28,4.51,31.33,31.33,0,0,1-5.51,3.69c-.28.16-.49.12-.62-.1l-.73-1.15c-.15-.27-.11-.45.13-.56a29.57,29.57,0,0,0,6.27-4.33,21.09,21.09,0,0,0,4.29-5.34c-.37,0-.75.07-1.12.08l-.89,0-1.77.06-2,.07-2,.07-1.9,0c-.29,0-.43-.13-.43-.4V11.12C106.79,10.86,106.93,10.72,107.22,10.72ZM130,30.52h-1.35a.4.4,0,0,1-.46-.46V.56a.4.4,0,0,1,.46-.46H130a.4.4,0,0,1,.46.46v29.5A.4.4,0,0,1,130,30.52Z"/><path class="cls-3" d="M151.51,16.53v6.8h13a.56.56,0,0,1,.33.12.36.36,0,0,1,.17.31v1.12a.39.39,0,0,1-.17.3.51.51,0,0,1-.33.13H136.42a.48.48,0,0,1-.34-.13.4.4,0,0,1-.15-.3V23.76a.36.36,0,0,1,.15-.31.52.52,0,0,1,.34-.12h12.81v-6.8h-6.57a6.2,6.2,0,0,1-1.27-.1,1.28,1.28,0,0,1-.74-.38,1.37,1.37,0,0,1-.36-.72,5.18,5.18,0,0,1-.1-1.14V1.81a.37.37,0,0,1,.13-.28.46.46,0,0,1,.3-.11H142a.37.37,0,0,1,.29.13.45.45,0,0,1,.11.26V7.06H158.3V1.85a.44.44,0,0,1,.12-.3.35.35,0,0,1,.28-.13h1.42a.48.48,0,0,1,.3.11.41.41,0,0,1,.13.28V14.42A2.09,2.09,0,0,1,160,16.1a3.25,3.25,0,0,1-2,.43ZM142.43,9v4.78a.9.9,0,0,0,.17.65.93.93,0,0,0,.62.15h14.29a1,1,0,0,0,.63-.15.91.91,0,0,0,.16-.65V9Z"/><path class="cls-3" d="M195.82,23.45a.36.36,0,0,1,.17.31v1.12a.39.39,0,0,1-.17.3.51.51,0,0,1-.33.13H167.44a.48.48,0,0,1-.34-.13.4.4,0,0,1-.15-.3V23.76a.36.36,0,0,1,.15-.31.52.52,0,0,1,.34-.12h28.05A.56.56,0,0,1,195.82,23.45ZM191.9,16c0,.31-.15.47-.43.47H173.65a3,3,0,0,1-2-.48,2.51,2.51,0,0,1-.53-1.87V4.59a2.51,2.51,0,0,1,.53-1.87,3,3,0,0,1,2-.48h17.59a.39.39,0,0,1,.43.43V3.76c0,.31-.15.46-.43.46h-17a.8.8,0,0,0-.63.19,1,1,0,0,0-.16.67v8.55a1,1,0,0,0,.16.66.8.8,0,0,0,.63.2h17.26a.38.38,0,0,1,.43.43Z"/><path class="cls-3" d="M218.07,21.32c.35-.07.53,0,.56.23l.19,1.15c.05.27-.09.42-.42.47-.75.13-1.56.25-2.41.36l-2.61.31q-1.32.15-2.64.27l-2.51.18c-.61,0-1.34.08-2.18.1l-2.6.05h-2.64q-1.29,0-2.25,0a.48.48,0,0,1-.34-.13.4.4,0,0,1-.15-.3V22.87a.36.36,0,0,1,.15-.31.52.52,0,0,1,.34-.12l1.67,0,2.06,0c.73,0,1.47,0,2.23,0l2.16-.06V16.66a7.79,7.79,0,0,1-2.72-.77,7.55,7.55,0,0,1-2.15-1.57,7.24,7.24,0,0,1-1.42-2.19,6.92,6.92,0,0,1-.51-2.66,7.51,7.51,0,0,1,.6-3.07,6.51,6.51,0,0,1,1.63-2.28,7.26,7.26,0,0,1,2.48-1.41,9.34,9.34,0,0,1,3.08-.5,9.2,9.2,0,0,1,3,.5,7.45,7.45,0,0,1,2.52,1.43A6.93,6.93,0,0,1,215,6.43a7,7,0,0,1,.64,3,6.71,6.71,0,0,1-.49,2.59,7.23,7.23,0,0,1-1.37,2.15,7.66,7.66,0,0,1-2.1,1.56,8.09,8.09,0,0,1-2.67.83v5.71c.72,0,1.49-.1,2.29-.17s1.6-.13,2.39-.21,1.57-.17,2.33-.28ZM213.28,9.44a4.92,4.92,0,0,0-.46-2.2,4.81,4.81,0,0,0-1.24-1.58,5.39,5.39,0,0,0-1.8-1,6.8,6.8,0,0,0-2.11-.33,6.71,6.71,0,0,0-2.14.33,5.11,5.11,0,0,0-1.74,1,4.64,4.64,0,0,0-1.17,1.6,5.37,5.37,0,0,0-.43,2.18,5.19,5.19,0,0,0,.42,2.13,4.83,4.83,0,0,0,1.13,1.61,5,5,0,0,0,1.74,1,6.22,6.22,0,0,0,2.19.37,6.06,6.06,0,0,0,2.11-.38,5.65,5.65,0,0,0,1.8-1.08,5.23,5.23,0,0,0,1.24-1.63A4.58,4.58,0,0,0,213.28,9.44Zm8.65,21.08h-1.36a.41.41,0,0,1-.46-.46V.56a.41.41,0,0,1,.46-.46h1.36a.41.41,0,0,1,.46.46v12.9h4.55a.55.55,0,0,1,.35.12.37.37,0,0,1,.15.31V15a.4.4,0,0,1-.15.3.51.51,0,0,1-.35.13h-4.55V30.06A.41.41,0,0,1,221.93,30.52Z"/><path class="cls-3" d="M263.47,27a.41.41,0,0,1-.43.33h-2.21a.39.39,0,0,1-.43-.33L254.23,5.54q-1.57,5.39-3.13,10.71T248,27a.41.41,0,0,1-.43.33h-2.27a.39.39,0,0,1-.43-.33L238.06,3.37a.33.33,0,0,1,0-.32.32.32,0,0,1,.29-.15h1.55a.58.58,0,0,1,.6.47l5.94,21.45q1.54-5.41,3.1-10.65t3.1-10.64a.74.74,0,0,1,.3-.48.94.94,0,0,1,.53-.15h1.71a.72.72,0,0,1,.73.63l6,21.15q1.51-5.47,3-10.66t3-10.65a.6.6,0,0,1,.23-.33.56.56,0,0,1,.36-.14H270a.32.32,0,0,1,.29.15.33.33,0,0,1,0,.32Z"/><path class="cls-3" d="M277.89,25.31c.29,0,.43.05.43.15a1.28,1.28,0,0,1-.06.35l-2.18,5.9a1,1,0,0,1-.25.35.65.65,0,0,1-.35.08H274.1c-.29,0-.4-.15-.33-.46l1.55-5.81a1.27,1.27,0,0,1,.2-.38.57.57,0,0,1,.49-.18Z"/><path class="cls-3" d="M313.63,26.86c.11.31,0,.46-.29.46h-1.59a.86.86,0,0,1-.34-.06.75.75,0,0,1-.29-.4l-2.44-6.07H296.27l-1.22,3c-.39,1-.79,2-1.18,3a.8.8,0,0,1-.28.4,1,1,0,0,1-.35.06h-1.55c-.31,0-.41-.15-.3-.46l9.7-23.63a.6.6,0,0,1,.6-.39h2a.59.59,0,0,1,.59.39Zm-5.74-8.18q-1.38-3.43-2.66-6.78c-.84-2.24-1.73-4.5-2.65-6.79-.93,2.29-1.83,4.55-2.72,6.79s-1.8,4.49-2.73,6.78Z"/><path class="cls-3" d="M321.12,25.31c.29,0,.43.05.43.15a1.28,1.28,0,0,1-.06.35l-2.18,5.9a1,1,0,0,1-.25.35.65.65,0,0,1-.35.08h-1.38c-.29,0-.4-.15-.33-.46l1.55-5.81a1.27,1.27,0,0,1,.2-.38.57.57,0,0,1,.49-.18Z"/><path class="cls-3" d="M336.5,27c-.35-.11-.49-.3-.43-.59l.13-1.52a.6.6,0,0,1,.22-.36.29.29,0,0,1,.35,0,9.54,9.54,0,0,0,2.32.91,11.46,11.46,0,0,0,2.69.28,5.81,5.81,0,0,0,3.94-1.32,4.63,4.63,0,0,0,1.54-3.73,3.13,3.13,0,0,0-.74-1.91A8.37,8.37,0,0,0,344.45,17c-.77-.48-1.63-1-2.6-1.52a24.33,24.33,0,0,1-2.77-1.73,10.19,10.19,0,0,1-2.22-2.11A4.39,4.39,0,0,1,336,8.88a5.7,5.7,0,0,1,.66-2.79,6,6,0,0,1,1.77-2,8.23,8.23,0,0,1,2.52-1.24,9.91,9.91,0,0,1,2.91-.43,15.23,15.23,0,0,1,2.27.15,14.67,14.67,0,0,1,2.15.51c.33.11.46.31.4.59L348.38,5c-.06.37-.25.47-.56.3a7.09,7.09,0,0,0-1.8-.58,13.52,13.52,0,0,0-2.23-.15,8.13,8.13,0,0,0-2.06.26,5,5,0,0,0-1.68.8,4,4,0,0,0-1.14,1.32,3.81,3.81,0,0,0-.43,1.88,2.62,2.62,0,0,0,.58,1.62,7.9,7.9,0,0,0,1.42,1.41A13.58,13.58,0,0,0,342.29,13l1.77,1c.72.42,1.43.85,2.11,1.29A9.85,9.85,0,0,1,348,16.8a7.31,7.31,0,0,1,1.29,1.81,5,5,0,0,1,.5,2.28,6.25,6.25,0,0,1-.68,2.94,6.75,6.75,0,0,1-1.8,2.17,8.12,8.12,0,0,1-2.59,1.37,9.73,9.73,0,0,1-3.05.48,14.42,14.42,0,0,1-2.59-.2A18.31,18.31,0,0,1,336.5,27Z"/><path class="cls-3" d="M358.35,25.31c.28,0,.43.05.43.15a1.35,1.35,0,0,1-.07.35l-2.18,5.9a1,1,0,0,1-.25.35.61.61,0,0,1-.34.08h-1.39c-.28,0-.39-.15-.33-.46l1.55-5.81a1.54,1.54,0,0,1,.2-.38.58.58,0,0,1,.5-.18Z"/><path class="cls-3" d="M392.4,15.05a13.63,13.63,0,0,1-1,5.48,11,11,0,0,1-2.94,4,13.16,13.16,0,0,1-4.32,2.08,21.13,21.13,0,0,1-5.75.72H375c-.47,0-.74,0-.81-.11a1.5,1.5,0,0,1-.12-.81V3.83a1.5,1.5,0,0,1,.12-.81q.11-.12.81-.12h5.18q6.27,0,9.44,3.4Q392.41,9.44,392.4,15.05ZM390,14.92c0-3.5-1-6.09-2.9-7.76A10.51,10.51,0,0,0,380,5h-3.57V25.24h2Q390,25.24,390,14.92Z"/><path class="cls-3" d="M407.42,10.72l2,0,2.07-.06,1.89-.07c.6,0,1.09,0,1.49-.07l.58,0,.84-.05.92-.05a6.29,6.29,0,0,0,.83-.1,17.93,17.93,0,0,0,1.18-4.85.73.73,0,0,0-.13-.67.91.91,0,0,0-.66-.19H407.91c-.26,0-.39-.14-.39-.43V3a.35.35,0,0,1,.39-.4H419.1a2.72,2.72,0,0,1,2,.58,2.49,2.49,0,0,1,.42,1.8,18.6,18.6,0,0,1-1.18,5.53,21.42,21.42,0,0,1-2.83,5.11,26.21,26.21,0,0,1-4.27,4.51,31.71,31.71,0,0,1-5.51,3.69c-.29.16-.49.12-.63-.1l-.72-1.15c-.16-.27-.11-.45.13-.56a29.57,29.57,0,0,0,6.27-4.33,21.09,21.09,0,0,0,4.29-5.34c-.38,0-.75.07-1.12.08l-.89,0-1.77.06-2,.07-2,.07-1.89,0c-.29,0-.43-.13-.43-.4V11.12C407,10.86,407.13,10.72,407.42,10.72Zm22.8,19.8h-1.35a.4.4,0,0,1-.46-.46V.56a.4.4,0,0,1,.46-.46h1.35a.4.4,0,0,1,.46.46v29.5A.4.4,0,0,1,430.22,30.52Z"/><path class="cls-3" d="M465,14.27a.37.37,0,0,1,.17.32v1.12A.36.36,0,0,1,465,16a.53.53,0,0,1-.33.14H436.62a.48.48,0,0,1-.34-.14.36.36,0,0,1-.15-.29V14.59a.38.38,0,0,1,.15-.32.55.55,0,0,1,.34-.11h28.05A.62.62,0,0,1,465,14.27Zm-3.76,15.66a.35.35,0,0,1-.15.28.45.45,0,0,1-.28.12H443.22a2.65,2.65,0,0,1-2-.58,3.11,3.11,0,0,1-.48-2V25.84a2.38,2.38,0,0,1,.58-1.87,3.39,3.39,0,0,1,2.06-.47h14.23c.3,0,.5-.05.57-.14a1,1,0,0,0,.12-.62V21.48a1,1,0,0,0-.12-.62c-.07-.09-.27-.14-.57-.14H441.11a.52.52,0,0,1-.31-.1.29.29,0,0,1-.15-.26V19.21a.32.32,0,0,1,.15-.27.6.6,0,0,1,.31-.1h16.8a5.61,5.61,0,0,1,1.28.12,1.81,1.81,0,0,1,.8.38,1.44,1.44,0,0,1,.41.74,5,5,0,0,1,.11,1.17V23a2.38,2.38,0,0,1-.57,1.87,3.34,3.34,0,0,1-2.07.48H443.65c-.31,0-.5,0-.58.13a1.17,1.17,0,0,0-.11.63v1.51a.94.94,0,0,0,.13.61.82.82,0,0,0,.59.15h17.1a.6.6,0,0,1,.31.1.32.32,0,0,1,.15.27ZM461,11.05a.35.35,0,0,1-.15.29.53.53,0,0,1-.28.11h-17.2a2.61,2.61,0,0,1-2-.58,3.1,3.1,0,0,1-.47-2V7.13a2.38,2.38,0,0,1,.57-1.87,3.34,3.34,0,0,1,2.07-.48h14c.31,0,.5,0,.58-.11a1.15,1.15,0,0,0,.11-.64V2.67a1.11,1.11,0,0,0-.11-.62.81.81,0,0,0-.58-.14H441.31a.55.55,0,0,1-.32-.1.3.3,0,0,1-.14-.26V.36A.3.3,0,0,1,441,.1a.55.55,0,0,1,.32-.1h16.53a5.65,5.65,0,0,1,1.29.12,1.76,1.76,0,0,1,.79.37,1.44,1.44,0,0,1,.41.75,4.9,4.9,0,0,1,.12,1.17V4.32a2.35,2.35,0,0,1-.58,1.88,3.39,3.39,0,0,1-2.06.47h-14c-.31,0-.5,0-.57.13a1,1,0,0,0-.12.62V8.81a1,1,0,0,0,.13.61.83.83,0,0,0,.6.15h16.69a.55.55,0,0,1,.32.1.29.29,0,0,1,.15.26Z"/><path class="cls-3" d="M487.18,2.24c0,1.46-.06,2.85-.18,4.18a32.8,32.8,0,0,1-.58,3.84,15.4,15.4,0,0,0,1,2.79A24.44,24.44,0,0,0,489.08,16a25.23,25.23,0,0,0,2.11,2.82,19.25,19.25,0,0,0,2.49,2.46.46.46,0,0,1,.18.33.51.51,0,0,1-.08.33l-.83,1q-.3.38-.69,0a18.73,18.73,0,0,1-1.9-1.89c-.65-.74-1.27-1.52-1.88-2.33s-1.17-1.65-1.7-2.51a24.71,24.71,0,0,1-1.35-2.47,24.46,24.46,0,0,1-2.77,5.53,26.94,26.94,0,0,1-4.1,4.7c-.22.17-.4.19-.56,0l-1-1a.35.35,0,0,1-.08-.27.55.55,0,0,1,.18-.33,26.67,26.67,0,0,0,3.5-4A21.21,21.21,0,0,0,483,13.79a25.46,25.46,0,0,0,1.38-5.31,40.74,40.74,0,0,0,.45-6.3.51.51,0,0,1,.11-.35.37.37,0,0,1,.28-.11l1.55.06C487.06,1.78,487.18,1.94,487.18,2.24Zm13.16,28.28H499a.4.4,0,0,1-.46-.46V.56A.4.4,0,0,1,499,.1h1.35a.41.41,0,0,1,.47.46v12h4.55a.55.55,0,0,1,.35.12.37.37,0,0,1,.15.31v1.12a.4.4,0,0,1-.15.3.51.51,0,0,1-.35.13h-4.55V30.06A.41.41,0,0,1,500.34,30.52Z"/><path class="cls-3" d="M536.28,15.82a.37.37,0,0,1,.17.32v1.12a.39.39,0,0,1-.17.3.58.58,0,0,1-.33.13H507.9a.56.56,0,0,1-.35-.13.42.42,0,0,1-.14-.3V16.14a.4.4,0,0,1,.14-.32.61.61,0,0,1,.35-.11h7.49V10.4a8.06,8.06,0,0,1-2.65-1.75,3.78,3.78,0,0,1-1.08-2.78,3.77,3.77,0,0,1,1-2.7,7.35,7.35,0,0,1,2.58-1.72,14.27,14.27,0,0,1,3.33-.89A22.34,22.34,0,0,1,521.93.3a21.58,21.58,0,0,1,3.35.29,14.46,14.46,0,0,1,3.33,1,7.86,7.86,0,0,1,2.56,1.73,3.63,3.63,0,0,1,1,2.59,3.73,3.73,0,0,1-1.07,2.71,8,8,0,0,1-2.69,1.75v5.38H536A.62.62,0,0,1,536.28,15.82Zm-4.12,9.52a3.71,3.71,0,0,1-1.06,2.74,7.11,7.11,0,0,1-2.61,1.65,13.58,13.58,0,0,1-3.35.81,28.63,28.63,0,0,1-3.28.22c-.66,0-1.37,0-2.13-.1a22.32,22.32,0,0,1-2.28-.32,12.45,12.45,0,0,1-2.19-.61,7.33,7.33,0,0,1-1.86-1,5.11,5.11,0,0,1-1.31-1.44,3.72,3.72,0,0,1-.49-1.95,3.63,3.63,0,0,1,1-2.69A7.67,7.67,0,0,1,515.26,21a14,14,0,0,1,3.35-.82,24.77,24.77,0,0,1,3.25-.24,28.63,28.63,0,0,1,3.28.22,14,14,0,0,1,3.37.81,7.11,7.11,0,0,1,2.61,1.65A3.69,3.69,0,0,1,532.16,25.34Zm-2.41,0a2,2,0,0,0-.89-1.74,7.12,7.12,0,0,0-2.15-1,13.93,13.93,0,0,0-2.59-.48c-.89-.08-1.64-.12-2.26-.12s-1.4,0-2.29.12a13.67,13.67,0,0,0-2.58.48,6.88,6.88,0,0,0-2.11,1,2.15,2.15,0,0,0,0,3.45,6.27,6.27,0,0,0,2.11,1,14.5,14.5,0,0,0,2.58.46c.89.08,1.65.12,2.29.12s1.37,0,2.28-.12a14.45,14.45,0,0,0,2.59-.46,6.57,6.57,0,0,0,2.13-1A2,2,0,0,0,529.75,25.38Zm-7.82-23c-.71,0-1.51,0-2.41.13A11.51,11.51,0,0,0,517,3a6.24,6.24,0,0,0-2.05,1.08,2.23,2.23,0,0,0-.84,1.79,2.21,2.21,0,0,0,.84,1.78A6.45,6.45,0,0,0,517,8.78a12.1,12.1,0,0,0,2.56.53c.9.08,1.7.13,2.41.13s1.47,0,2.37-.13a12.69,12.69,0,0,0,2.58-.53,6.4,6.4,0,0,0,2.06-1.09,2.21,2.21,0,0,0,.84-1.78,2.23,2.23,0,0,0-.84-1.79A6.19,6.19,0,0,0,526.88,3a12.05,12.05,0,0,0-2.58-.53C523.4,2.42,522.61,2.38,521.93,2.38Zm0,9.1c-.64,0-1.33,0-2.07-.08a12.8,12.8,0,0,1-2.19-.35v4.66h8.48V11a13.77,13.77,0,0,1-2.18.36C523.25,11.45,522.56,11.48,521.93,11.48Z"/><path class="cls-3" d="M557.7,9.17H539.48a.45.45,0,0,1-.31-.13.43.43,0,0,1-.15-.33V7.66a.4.4,0,0,1,.15-.33.46.46,0,0,1,.31-.14H557.7c.33,0,.49.15.49.43V8.74C558.19,9,558,9.17,557.7,9.17Zm-2,8.78a5.73,5.73,0,0,1-.55,2.51,6.34,6.34,0,0,1-1.5,2,7,7,0,0,1-2.28,1.37,8.5,8.5,0,0,1-5.69,0,7.19,7.19,0,0,1-2.26-1.35,6.24,6.24,0,0,1-1.5-2A6,6,0,0,1,541.4,18a6.09,6.09,0,0,1,.54-2.56,6.24,6.24,0,0,1,1.5-2A7.19,7.19,0,0,1,545.7,12a8,8,0,0,1,2.86-.49,7.77,7.77,0,0,1,2.83.51,7.41,7.41,0,0,1,2.28,1.37,6.07,6.07,0,0,1,1.5,2A5.88,5.88,0,0,1,555.72,18ZM552.88,3.6h-9a.51.51,0,0,1-.32-.12.37.37,0,0,1-.14-.31V2.05a.42.42,0,0,1,.13-.33.4.4,0,0,1,.29-.14h9.08c.33,0,.49.16.49.47V3.13C553.37,3.44,553.21,3.6,552.88,3.6ZM553.47,18a4.39,4.39,0,0,0-.36-1.78,4.3,4.3,0,0,0-1-1.44,4.85,4.85,0,0,0-1.57-1,5.69,5.69,0,0,0-3.93,0,4.91,4.91,0,0,0-1.56,1,4.5,4.5,0,0,0-1,1.44,4.09,4.09,0,0,0-.38,1.78,4,4,0,0,0,.38,1.77,4.53,4.53,0,0,0,1,1.42,4.91,4.91,0,0,0,1.56.95,5.69,5.69,0,0,0,3.93,0,4.83,4.83,0,0,0,1.57-.94,4,4,0,0,0,1-1.42A4.39,4.39,0,0,0,553.47,18Zm8.91,12.57H561a.4.4,0,0,1-.46-.46V.56A.4.4,0,0,1,561,.1h1.35a.41.41,0,0,1,.47.46V12.74h4.55a.61.61,0,0,1,.35.11.37.37,0,0,1,.14.32v1.12a.39.39,0,0,1-.14.3.56.56,0,0,1-.35.13h-4.55V30.06A.41.41,0,0,1,562.38,30.52Z"/><path class="cls-3" d="M594.56,30.52h-1.35a.41.41,0,0,1-.47-.46V18.45h-7a11.53,11.53,0,0,1-1.09,1.91,7.17,7.17,0,0,1-1.47,1.54,6.75,6.75,0,0,1-1.9,1,7.18,7.18,0,0,1-2.34.36,6.69,6.69,0,0,1-3.68-1,7.45,7.45,0,0,1-2.41-2.49,11.34,11.34,0,0,1-1.3-3.42,17.66,17.66,0,0,1-.4-3.73,18.27,18.27,0,0,1,.4-3.84,11,11,0,0,1,1.3-3.42A7.21,7.21,0,0,1,575.27,3,6.86,6.86,0,0,1,579,2.05a7.41,7.41,0,0,1,2.33.34,6.6,6.6,0,0,1,1.88,1,6.88,6.88,0,0,1,1.47,1.48,10.46,10.46,0,0,1,1.08,1.88h7V.56a.41.41,0,0,1,.47-.46h1.35a.4.4,0,0,1,.46.46v29.5A.4.4,0,0,1,594.56,30.52Zm-10-17.88a14.72,14.72,0,0,0-.32-3,9.86,9.86,0,0,0-1-2.74,5.62,5.62,0,0,0-1.72-2,4.81,4.81,0,0,0-5.19,0,5.4,5.4,0,0,0-1.67,2,9.19,9.19,0,0,0-.89,2.74,17.07,17.07,0,0,0-.27,3,19,19,0,0,0,.25,2.94,9.44,9.44,0,0,0,.88,2.75,5.56,5.56,0,0,0,1.68,2,4.25,4.25,0,0,0,2.64.79,4.14,4.14,0,0,0,2.57-.79,6,6,0,0,0,1.72-2,10.16,10.16,0,0,0,1-2.75A14.6,14.6,0,0,0,584.53,12.64Zm2.34,0a15,15,0,0,1-.5,3.83h6.37V8.68h-6.37A16.16,16.16,0,0,1,586.87,12.67Z"/><path class="cls-3" d="M627,8.74a7.57,7.57,0,0,1-.59,3,7,7,0,0,1-1.64,2.36,7.45,7.45,0,0,1-2.47,1.55,8.92,8.92,0,0,1-6.22,0,7.21,7.21,0,0,1-2.46-1.53A7.08,7.08,0,0,1,612,11.78a7.88,7.88,0,0,1-.58-3A8.34,8.34,0,0,1,612,5.59a6.85,6.85,0,0,1,1.62-2.37,7,7,0,0,1,2.46-1.49,9,9,0,0,1,3.07-.51,8.84,8.84,0,0,1,3,.51,7.5,7.5,0,0,1,2.49,1.47,7.23,7.23,0,0,1,1.72,2.36A7.56,7.56,0,0,1,627,8.74Zm-2.31,0a5.62,5.62,0,0,0-.45-2.32,4.64,4.64,0,0,0-1.2-1.69,5.1,5.1,0,0,0-1.77-1,6.69,6.69,0,0,0-4.27,0,4.75,4.75,0,0,0-1.71,1,4.51,4.51,0,0,0-1.14,1.69,6,6,0,0,0-.42,2.32,6.1,6.1,0,0,0,.4,2.25,5,5,0,0,0,1.11,1.71A4.65,4.65,0,0,0,617,13.78a6.27,6.27,0,0,0,2.22.38,6,6,0,0,0,2.12-.38,5.27,5.27,0,0,0,3-2.82A5.38,5.38,0,0,0,624.72,8.71Zm10.89,21.55h-21a.43.43,0,0,1-.31-.13.43.43,0,0,1-.15-.33v-1a.4.4,0,0,1,.15-.33.44.44,0,0,1,.31-.14h4.62v-7h-3.63a.48.48,0,0,1-.31-.13.43.43,0,0,1-.15-.33v-1a.43.43,0,0,1,.15-.33.48.48,0,0,1,.31-.13h19c.33,0,.49.14.49.43v1.09c0,.28-.16.43-.49.43h-3.5v7h4.49c.33,0,.5.15.5.43v1.09C636.11,30.12,635.94,30.26,635.61,30.26Zm-14.16-2h7.43v-7h-7.43Zm12.21-10.89h-1.35a.4.4,0,0,1-.46-.46V.56a.4.4,0,0,1,.46-.46h1.35a.41.41,0,0,1,.47.46V8.08h4.55a.55.55,0,0,1,.35.12.4.4,0,0,1,.14.31V9.64a.38.38,0,0,1-.14.29.51.51,0,0,1-.35.13h-4.55V17A.41.41,0,0,1,633.66,17.42Z"/><path class="cls-3" d="M646.43,25.31c.29,0,.43.05.43.15a1.28,1.28,0,0,1-.06.35l-2.18,5.9a1,1,0,0,1-.25.35.65.65,0,0,1-.35.08h-1.38c-.29,0-.4-.15-.33-.46l1.55-5.81a1.27,1.27,0,0,1,.2-.38.57.57,0,0,1,.49-.18Z"/><path class="cls-3" d="M678.18,7.46a5.17,5.17,0,0,1-.43,2.11,5.54,5.54,0,0,1-1.25,1.78,6.8,6.8,0,0,1-2,1.32,8.44,8.44,0,0,1-2.67.66v3.6c1.69-.05,3.32-.12,4.88-.22s3-.22,4.23-.38a.54.54,0,0,1,.38.05.53.53,0,0,1,.11.25l.14,1.12a.46.46,0,0,1,0,.32.65.65,0,0,1-.38.15q-2.91.33-6.37.54t-6.87.21H661a.51.51,0,0,1-.35-.13.36.36,0,0,1-.15-.29V17.39a.34.34,0,0,1,.15-.3A.68.68,0,0,1,661,17h8.51V13.33a8.08,8.08,0,0,1-2.6-.66,7.16,7.16,0,0,1-2-1.3,5.36,5.36,0,0,1-1.26-1.78,5.48,5.48,0,0,1-.43-2.13A5.82,5.82,0,0,1,663.77,5a5.23,5.23,0,0,1,1.49-1.88,7.2,7.2,0,0,1,2.34-1.21,10.42,10.42,0,0,1,3.06-.43,10.12,10.12,0,0,1,3,.43A7.62,7.62,0,0,1,676,3.12,5.6,5.6,0,0,1,677.6,5,5.19,5.19,0,0,1,678.18,7.46Zm-2.24,0a3.2,3.2,0,0,0-.43-1.66,3.76,3.76,0,0,0-1.16-1.19,5.32,5.32,0,0,0-1.68-.71,8.78,8.78,0,0,0-2-.23,8.64,8.64,0,0,0-2,.23,5,5,0,0,0-1.64.71,3.64,3.64,0,0,0-1.09,1.19,3.39,3.39,0,0,0-.39,1.66A3.34,3.34,0,0,0,665.89,9,3.38,3.38,0,0,0,667,10.26a5.11,5.11,0,0,0,1.63.76,7.51,7.51,0,0,0,2.07.27,7.39,7.39,0,0,0,2-.28,5.68,5.68,0,0,0,1.68-.8A4,4,0,0,0,675.51,9,3,3,0,0,0,675.94,7.42ZM686.4,29.83a.6.6,0,0,1-.33.1H668.74a2.61,2.61,0,0,1-2-.59,3.14,3.14,0,0,1-.48-1.95V22a.41.41,0,0,1,.47-.46h1.35a.4.4,0,0,1,.46.46v5.28c0,.31,0,.5.15.58a1.16,1.16,0,0,0,.61.11h16.8a.56.56,0,0,1,.33.12.32.32,0,0,1,.16.28v1.18A.31.31,0,0,1,686.4,29.83Zm-1.32-6.7h-1.36a.41.41,0,0,1-.46-.46V.56a.41.41,0,0,1,.46-.46h1.36a.41.41,0,0,1,.46.46V22.67A.41.41,0,0,1,685.08,23.13Z"/><path class="cls-3" d="M719.86,17.29a.51.51,0,0,1-.33.13h-28a.51.51,0,0,1-.35-.13A.4.4,0,0,1,691,17V15.84a.34.34,0,0,1,.15-.3.68.68,0,0,1,.35-.1h13.16V12.67a.41.41,0,0,1,.47-.46h1.35a.4.4,0,0,1,.46.46v2.77h12.61a.56.56,0,0,1,.33.12.36.36,0,0,1,.16.31V17A.38.38,0,0,1,719.86,17.29ZM703.79,4c-.2.26-.41.52-.61.79s-.44.51-.68.76a13.22,13.22,0,0,0,2,1.65,20.5,20.5,0,0,0,2.27,1.28,16.38,16.38,0,0,0,3.07-2.31A12.74,12.74,0,0,0,712,3.53a.56.56,0,0,0,.1-.48c0-.14-.18-.21-.43-.21H706c-.27,0-.4-.16-.4-.46V1.32c0-.26.16-.4.46-.4h6.44c1.23,0,2,.25,2.26.73a2,2,0,0,1-.31,2c-.29.48-.58,1-.88,1.39a13,13,0,0,1-1,1.25,9.74,9.74,0,0,0,1.3.84c.5.28,1,.54,1.49.79a12.33,12.33,0,0,0,1.45.66c.47.19.88.34,1.24.45a.37.37,0,0,1,.28.26.59.59,0,0,1-.09.43l-.56,1c-.13.24-.38.27-.76.1s-.84-.35-1.33-.58-1-.49-1.5-.78-1-.57-1.51-.87a13.37,13.37,0,0,1-1.33-.91,18.28,18.28,0,0,1-2.66,2,38.57,38.57,0,0,1-3.58,2,.51.51,0,0,1-.73-.16l-.52-.73a.37.37,0,0,1-.09-.39A.55.55,0,0,1,704,10l.43-.2.4-.2a18.19,18.19,0,0,1-1.91-1.28,18.93,18.93,0,0,1-1.75-1.49,25.46,25.46,0,0,1-7.3,4.09,1.58,1.58,0,0,1-.41.12c-.1,0-.19-.06-.28-.22l-.49-1c-.09-.16-.11-.28,0-.38a.47.47,0,0,1,.24-.22,16.89,16.89,0,0,0,2.59-1.1,26.54,26.54,0,0,0,2.46-1.45A17.81,17.81,0,0,0,700,5.11a7.52,7.52,0,0,0,1.42-1.61.57.57,0,0,0,.12-.45c0-.14-.17-.21-.42-.21h-5.94c-.28,0-.43-.16-.43-.46V1.32a.34.34,0,0,1,.15-.3.68.68,0,0,1,.35-.1H702C704.67.92,705.26,2,703.79,4Zm11.15,26.82h-1.35a.4.4,0,0,1-.46-.46V23.5c0-.31,0-.5-.15-.58a1.07,1.07,0,0,0-.61-.12h-17a.62.62,0,0,1-.33-.11.33.33,0,0,1-.16-.28V21.22a.33.33,0,0,1,.16-.3.7.7,0,0,1,.33-.1h17.52a2.62,2.62,0,0,1,2,.58,3.05,3.05,0,0,1,.48,1.93v7.06A.4.4,0,0,1,714.94,30.85Z"/><path class="cls-3" d="M727.71,25.31c.29,0,.43.05.43.15a1,1,0,0,1-.07.35l-2.17,5.9a1,1,0,0,1-.25.35.65.65,0,0,1-.35.08h-1.38c-.29,0-.4-.15-.33-.46l1.55-5.81a1.27,1.27,0,0,1,.2-.38.56.56,0,0,1,.49-.18Z"/><path class="cls-3" d="M762.06,16.93a.45.45,0,0,1,.32.05.31.31,0,0,1,.18.21l.16,1.12c0,.31-.11.48-.39.5-1.39.2-2.9.37-4.52.53s-3.2.28-4.72.39v9.74a.55.55,0,0,1-.12.35.38.38,0,0,1-.31.14h-1.42a.42.42,0,0,1-.3-.14.56.56,0,0,1-.13-.35V19.9c-.72,0-1.51.08-2.34.1l-2.44.06c-.8,0-1.53,0-2.21.05s-1.24,0-1.65,0a.5.5,0,0,1-.35-.14.36.36,0,0,1-.15-.29V18.55a.38.38,0,0,1,.15-.32.58.58,0,0,1,.35-.11l2.29,0c.89,0,1.8,0,2.74-.07l2.7-.08c.87,0,1.6-.05,2.2-.1l2.54-.16,2.75-.22c.92-.07,1.78-.16,2.59-.26S761.49,17,762.06,16.93Zm-3.16-3.07c0,.31-.15.46-.43.46H746.59a3,3,0,0,1-2-.48,2.46,2.46,0,0,1-.53-1.86V4.59a2.47,2.47,0,0,1,.53-1.87,3,3,0,0,1,2-.48h11.65a.39.39,0,0,1,.43.43V3.76c0,.31-.15.46-.43.46H747.15a.8.8,0,0,0-.63.19,1,1,0,0,0-.16.67v6.4a1,1,0,0,0,.16.66.77.77,0,0,0,.63.2h11.32a.39.39,0,0,1,.43.43Zm7.45,16.66H765a.4.4,0,0,1-.46-.46V.56A.4.4,0,0,1,765,.1h1.35a.41.41,0,0,1,.47.46v29.5A.41.41,0,0,1,766.35,30.52Z"/><path class="cls-3" d="M778,25.31c.29,0,.43.05.43.15a1,1,0,0,1-.07.35l-2.18,5.9a1,1,0,0,1-.24.35.67.67,0,0,1-.35.08h-1.39c-.28,0-.39-.15-.33-.46l1.56-5.81a1.5,1.5,0,0,1,.19-.38.6.6,0,0,1,.5-.18Z"/><path class="cls-3" d="M820.37,23.45a.36.36,0,0,1,.17.31v1.12a.39.39,0,0,1-.17.3.51.51,0,0,1-.33.13H792a.48.48,0,0,1-.34-.13.4.4,0,0,1-.15-.3V23.76a.36.36,0,0,1,.15-.31.52.52,0,0,1,.34-.12H804.8V16.47a17.85,17.85,0,0,1-3.29-.6,10.94,10.94,0,0,1-3-1.35,7.46,7.46,0,0,1-2.23-2.21,5.71,5.71,0,0,1-.86-3.17,5.69,5.69,0,0,1,1-3.41A7.71,7.71,0,0,1,799,3.46a12.48,12.48,0,0,1,3.44-1.25,17.3,17.3,0,0,1,3.54-.4,17.71,17.71,0,0,1,3.6.4A12.12,12.12,0,0,1,813,3.46a7.8,7.8,0,0,1,2.54,2.27,5.68,5.68,0,0,1,1,3.41,5.83,5.83,0,0,1-.85,3.19,7.43,7.43,0,0,1-2.22,2.21,11.27,11.27,0,0,1-3,1.35,15.72,15.72,0,0,1-3.33.58v6.86h13A.56.56,0,0,1,820.37,23.45ZM806,3.89a16.17,16.17,0,0,0-2.55.23,9.68,9.68,0,0,0-2.64.83,6.06,6.06,0,0,0-2.08,1.62,4,4,0,0,0-.84,2.6,4,4,0,0,0,.84,2.61,5.78,5.78,0,0,0,2.08,1.6,9.65,9.65,0,0,0,2.64.81,16.17,16.17,0,0,0,2.55.23,16.24,16.24,0,0,0,2.53-.23,9.87,9.87,0,0,0,2.64-.81,6,6,0,0,0,2.09-1.6,3.88,3.88,0,0,0,.86-2.61,3.87,3.87,0,0,0-.86-2.6A6.29,6.29,0,0,0,811.12,5a9.91,9.91,0,0,0-2.64-.83A16.24,16.24,0,0,0,806,3.89Z"/><path class="cls-3" d="M851.39,17.08a.36.36,0,0,1,.17.31v1.12a.39.39,0,0,1-.17.3.51.51,0,0,1-.33.13H823a.48.48,0,0,1-.34-.13.4.4,0,0,1-.15-.3V17.39a.36.36,0,0,1,.15-.31A.52.52,0,0,1,823,17h28A.56.56,0,0,1,851.39,17.08Zm-3.82,12.75a.6.6,0,0,1-.33.1H829.58a2.46,2.46,0,0,1-2-.64,3.37,3.37,0,0,1-.48-2V22a.41.41,0,0,1,.46-.46h1.36a.41.41,0,0,1,.46.46v5.22c0,.31,0,.5.15.58a1.16,1.16,0,0,0,.61.11h17.13a.56.56,0,0,1,.33.12.32.32,0,0,1,.16.28v1.18A.31.31,0,0,1,847.57,29.83Zm0-16.33a.35.35,0,0,1-.15.28.47.47,0,0,1-.28.11H829.71a2.66,2.66,0,0,1-2-.57,3.12,3.12,0,0,1-.48-2V8.74a2.38,2.38,0,0,1,.58-1.88,3.49,3.49,0,0,1,2.06-.46h14c.31,0,.5,0,.58-.13a1.17,1.17,0,0,0,.11-.63V3.46a1.13,1.13,0,0,0-.11-.62c-.08-.09-.27-.13-.58-.13h-16.2a.63.63,0,0,1-.32-.1.32.32,0,0,1-.15-.27V1.15a.3.3,0,0,1,.15-.26.55.55,0,0,1,.32-.1h16.56a5.65,5.65,0,0,1,1.29.12,1.67,1.67,0,0,1,.79.38,1.31,1.31,0,0,1,.41.74,4.9,4.9,0,0,1,.12,1.17V5.91a2.34,2.34,0,0,1-.58,1.88,3.38,3.38,0,0,1-2.06.46H830.14c-.31,0-.5,0-.58.13a1.17,1.17,0,0,0-.11.63v2.24a1,1,0,0,0,.13.61.82.82,0,0,0,.59.15h16.9a.5.5,0,0,1,.31.1.32.32,0,0,1,.15.27Z"/><path class="cls-3" d="M882.41,17.29a.51.51,0,0,1-.33.13H854a.48.48,0,0,1-.34-.13.4.4,0,0,1-.15-.3V15.84a.34.34,0,0,1,.15-.3.65.65,0,0,1,.34-.1H867.2V12.67a.4.4,0,0,1,.46-.46H869a.41.41,0,0,1,.46.46v2.77h12.6a.56.56,0,0,1,.33.12.37.37,0,0,1,.17.31V17A.39.39,0,0,1,882.41,17.29ZM866.34,4l-.61.79c-.21.26-.43.51-.67.76a12.69,12.69,0,0,0,2,1.65,21.58,21.58,0,0,0,2.28,1.28,16.71,16.71,0,0,0,3.07-2.31,13.07,13.07,0,0,0,2.11-2.67.59.59,0,0,0,.1-.48c0-.14-.19-.21-.43-.21h-5.68c-.26,0-.39-.16-.39-.46V1.32c0-.26.15-.4.46-.4h6.43c1.24,0,2,.25,2.27.73s.16,1.14-.32,2c-.28.48-.58,1-.87,1.39a13.15,13.15,0,0,1-1,1.25,9.89,9.89,0,0,0,1.31.84c.49.28,1,.54,1.48.79a14,14,0,0,0,1.45.66c.48.19.89.34,1.24.45a.34.34,0,0,1,.28.26.58.58,0,0,1-.08.43l-.56,1c-.13.24-.39.27-.76.1s-.84-.35-1.34-.58-1-.49-1.5-.78l-1.5-.87a13.56,13.56,0,0,1-1.34-.91,18.17,18.17,0,0,1-2.65,2,39.91,39.91,0,0,1-3.58,2,.51.51,0,0,1-.73-.16l-.53-.73a.35.35,0,0,1-.08-.39.52.52,0,0,1,.28-.3l.43-.2.4-.2a19.4,19.4,0,0,1-1.92-1.28,20.35,20.35,0,0,1-1.75-1.49,25.27,25.27,0,0,1-7.29,4.09A1.69,1.69,0,0,1,856,11c-.1,0-.2-.06-.28-.22l-.5-1a.39.39,0,0,1-.05-.38.54.54,0,0,1,.25-.22A17.32,17.32,0,0,0,858,8.17a26.54,26.54,0,0,0,2.46-1.45,18.69,18.69,0,0,0,2.08-1.61A7.81,7.81,0,0,0,864,3.5a.56.56,0,0,0,.11-.45c0-.14-.17-.21-.41-.21h-5.94c-.29,0-.43-.16-.43-.46V1.32a.34.34,0,0,1,.15-.3.65.65,0,0,1,.35-.1h6.76C867.22.92,867.82,2,866.34,4ZM877.5,30.85h-1.36a.41.41,0,0,1-.46-.46V23.5c0-.31,0-.5-.15-.58a1,1,0,0,0-.61-.12h-17a.62.62,0,0,1-.33-.11.35.35,0,0,1-.17-.28V21.22a.34.34,0,0,1,.17-.3.7.7,0,0,1,.33-.1h17.52a2.65,2.65,0,0,1,2,.58,3.05,3.05,0,0,1,.48,1.93v7.06A.41.41,0,0,1,877.5,30.85Z"/><path class="cls-3" d="M913.43,23.45a.36.36,0,0,1,.17.31v1.12a.39.39,0,0,1-.17.3.51.51,0,0,1-.33.13H885.05a.48.48,0,0,1-.34-.13.4.4,0,0,1-.15-.3V23.76a.36.36,0,0,1,.15-.31.52.52,0,0,1,.34-.12H913.1A.56.56,0,0,1,913.43,23.45ZM899,16.93a15.86,15.86,0,0,1-3.61-.43A12.19,12.19,0,0,1,892,15.16a7.94,7.94,0,0,1-2.54-2.31,5.7,5.7,0,0,1-1-3.38,5.7,5.7,0,0,1,1-3.38A7.94,7.94,0,0,1,892,3.78a11.58,11.58,0,0,1,3.42-1.32,16.27,16.27,0,0,1,7.26,0,11.36,11.36,0,0,1,3.4,1.32,8,8,0,0,1,2.52,2.31,5.7,5.7,0,0,1,1,3.38,5.7,5.7,0,0,1-1,3.38,8,8,0,0,1-2.52,2.31,12,12,0,0,1-3.4,1.34A16,16,0,0,1,899,16.93Zm0-12.77a14.87,14.87,0,0,0-2.61.25,9.72,9.72,0,0,0-2.64.85,6.09,6.09,0,0,0-2,1.65,4.06,4.06,0,0,0-.83,2.59,4,4,0,0,0,.83,2.58,6.16,6.16,0,0,0,2,1.63,9.73,9.73,0,0,0,2.64.86,15.9,15.9,0,0,0,2.61.25,15.43,15.43,0,0,0,2.56-.25,10,10,0,0,0,2.64-.86,6.31,6.31,0,0,0,2.08-1.63,3.92,3.92,0,0,0,.84-2.58,4,4,0,0,0-.84-2.59,6.24,6.24,0,0,0-2.08-1.65,9.94,9.94,0,0,0-2.64-.85A14.43,14.43,0,0,0,899,4.16Z"/><path class="cls-3" d="M928.88,23.33V17.59h-6.6a2.6,2.6,0,0,1-2-.58,3.09,3.09,0,0,1-.48-2V10.92A2.34,2.34,0,0,1,920.35,9a3.38,3.38,0,0,1,2.06-.46h14.88c.31,0,.5,0,.58-.13a1.08,1.08,0,0,0,.11-.63V4.39a1.08,1.08,0,0,0-.11-.63c-.08-.09-.27-.13-.58-.13H920.23a.52.52,0,0,1-.31-.1.3.3,0,0,1-.15-.26V2a.29.29,0,0,1,.15-.26.52.52,0,0,1,.31-.1h17.42a5.65,5.65,0,0,1,1.29.12,1.63,1.63,0,0,1,.79.38,1.38,1.38,0,0,1,.42.74,5.54,5.54,0,0,1,.11,1.17V8.18a2.32,2.32,0,0,1-.58,1.88,3.37,3.37,0,0,1-2.06.47H922.74c-.31,0-.5,0-.58.13a1.08,1.08,0,0,0-.11.63v3.56a1,1,0,0,0,.13.61.8.8,0,0,0,.59.15h17.72a.55.55,0,0,1,.32.1A.3.3,0,0,1,941,16v1.22a.35.35,0,0,1-.14.28.48.48,0,0,1-.28.12h-9.38v5.74h13a.56.56,0,0,1,.33.12.36.36,0,0,1,.17.31v1.12a.39.39,0,0,1-.17.3.51.51,0,0,1-.33.13h-28a.47.47,0,0,1-.34-.13.4.4,0,0,1-.15-.3V23.76a.36.36,0,0,1,.15-.31.5.5,0,0,1,.34-.12Z"/><path class="cls-3" d="M960.39,22.74a2.51,2.51,0,0,1,.53-1.87,3,3,0,0,1,2-.48h6.27v-4H956.33a.51.51,0,0,1-.34-.13.4.4,0,0,1-.15-.3V14.82a.38.38,0,0,1,.15-.32.55.55,0,0,1,.34-.11h28a.62.62,0,0,1,.33.11.37.37,0,0,1,.17.32v1.12a.39.39,0,0,1-.17.3.58.58,0,0,1-.33.13H971.45v4h6.3a7,7,0,0,1,1.27.1,1.55,1.55,0,0,1,.76.37,1.32,1.32,0,0,1,.38.72,6.1,6.1,0,0,1,.1,1.16v5.18a2.5,2.5,0,0,1-.53,1.86,3,3,0,0,1-2,.48H962.9a6.2,6.2,0,0,1-1.27-.1,1.41,1.41,0,0,1-.76-.38,1.43,1.43,0,0,1-.38-.72,5.18,5.18,0,0,1-.1-1.14Zm10-11.22a27.45,27.45,0,0,1-3.39-.23,13.45,13.45,0,0,1-3.33-.86,7,7,0,0,1-2.54-1.72,4,4,0,0,1-1-2.8,3.94,3.94,0,0,1,1-2.78,6.82,6.82,0,0,1,2.54-1.69A13.9,13.9,0,0,1,967,.58a24.19,24.19,0,0,1,3.39-.25,22.09,22.09,0,0,1,3.43.28,13.58,13.58,0,0,1,3.33.94,7.41,7.41,0,0,1,2.51,1.72,3.7,3.7,0,0,1,1,2.64,3.73,3.73,0,0,1-1,2.65,7.45,7.45,0,0,1-2.52,1.74,13.62,13.62,0,0,1-3.32.94A23,23,0,0,1,970.36,11.52Zm0-9.11c-.73,0-1.55,0-2.46.13a12.62,12.62,0,0,0-2.56.5,5.65,5.65,0,0,0-2,1,2.26,2.26,0,0,0-.83,1.82,2.26,2.26,0,0,0,.83,1.81,5.84,5.84,0,0,0,2,1.07,12,12,0,0,0,2.56.52c.91.08,1.73.13,2.46.13s1.54,0,2.44-.13a12.36,12.36,0,0,0,2.56-.52,5.85,5.85,0,0,0,2-1.07,2.25,2.25,0,0,0,.82-1.81,2.26,2.26,0,0,0-.82-1.82,5.66,5.66,0,0,0-2-1,13,13,0,0,0-2.58-.5C971.87,2.45,971.06,2.41,970.36,2.41Zm-6.9,20a.8.8,0,0,0-.63.19,1,1,0,0,0-.16.67v4.19a1,1,0,0,0,.16.68.85.85,0,0,0,.63.18h13.73a.86.86,0,0,0,.63-.18,1.11,1.11,0,0,0,.16-.68V23.23a1.07,1.07,0,0,0-.16-.67.82.82,0,0,0-.63-.19Z"/><path class="cls-3" d="M1003,4.42A13.93,13.93,0,0,1,1001.77,7a20,20,0,0,1-1.88,2.54,16.84,16.84,0,0,0,2.77,2.24,21.21,21.21,0,0,0,3.6,1.91c.18.07.28.16.3.29a.46.46,0,0,1-.07.34l-.66,1.19a.34.34,0,0,1-.3.18.72.72,0,0,1-.36,0c-.48-.22-1-.48-1.57-.79s-1.13-.66-1.73-1.06-1.18-.82-1.76-1.28a19.36,19.36,0,0,1-1.64-1.46,30,30,0,0,1-4.2,3.45,29.9,29.9,0,0,1-4.67,2.63l-.33.1a.25.25,0,0,1-.27-.14l-.66-1.15a.36.36,0,0,1,0-.35.45.45,0,0,1,.24-.25,31.52,31.52,0,0,0,7.26-4.68,19.34,19.34,0,0,0,4.69-6.11q.22-.45.06-.66a.78.78,0,0,0-.62-.19h-9.67c-.26,0-.4-.15-.4-.43V2.11a.35.35,0,0,1,.4-.39h10.56c1.14,0,1.88.2,2.21.61S1003.38,3.43,1003,4.42Zm-9.67,15.35a.6.6,0,0,1,.33-.1h16.23a2.6,2.6,0,0,1,2,.58,3,3,0,0,1,.48,1.93v8a.41.41,0,0,1-.46.47h-1.35a.42.42,0,0,1-.47-.47V22.34c0-.31,0-.5-.14-.58a1.19,1.19,0,0,0-.61-.11H993.69a.56.56,0,0,1-.33-.12.33.33,0,0,1-.17-.28V20.06A.31.31,0,0,1,993.36,19.77ZM1012,17.82h-1.35a.41.41,0,0,1-.47-.46V.56a.41.41,0,0,1,.47-.46H1012a.4.4,0,0,1,.46.46v16.8A.4.4,0,0,1,1012,17.82Z"/><path class="cls-3" d="M1035.73,12.67a16,16,0,0,1-.45,3.73,10.93,10.93,0,0,1-1.4,3.4,8.12,8.12,0,0,1-2.46,2.49,6.47,6.47,0,0,1-3.61,1,6.69,6.69,0,0,1-3.68-1,7.45,7.45,0,0,1-2.41-2.49,11.34,11.34,0,0,1-1.3-3.42,17.66,17.66,0,0,1-.4-3.73,18.27,18.27,0,0,1,.4-3.84,11,11,0,0,1,1.3-3.42A7.21,7.21,0,0,1,1024.13,3a6.86,6.86,0,0,1,3.68-.92,6.71,6.71,0,0,1,3.61.92,7.61,7.61,0,0,1,2.46,2.43,10.68,10.68,0,0,1,1.4,3.39A16.8,16.8,0,0,1,1035.73,12.67Zm-2.34,0a15.39,15.39,0,0,0-.32-3.07,10.32,10.32,0,0,0-1-2.79,5.9,5.9,0,0,0-1.72-2,4.71,4.71,0,0,0-5.19,0,5.67,5.67,0,0,0-1.67,2,9.61,9.61,0,0,0-.89,2.79,17.86,17.86,0,0,0-.27,3.07,19.45,19.45,0,0,0,.25,3,10,10,0,0,0,.88,2.8,5.64,5.64,0,0,0,1.68,2.08,4.19,4.19,0,0,0,2.64.81,4.09,4.09,0,0,0,2.57-.81,6.06,6.06,0,0,0,1.72-2.08,10.77,10.77,0,0,0,1-2.8A14.92,14.92,0,0,0,1033.39,12.64Zm9.6,17.88h-1.35a.41.41,0,0,1-.47-.46V.56a.41.41,0,0,1,.47-.46H1043a.4.4,0,0,1,.46.46v29.5A.4.4,0,0,1,1043,30.52Z"/><path class="cls-3" d="M1058.4,2.41c0,1.45,0,2.8-.08,4.06A32.28,32.28,0,0,1,1058,10a13.4,13.4,0,0,0,.73,2.79,25.17,25.17,0,0,0,1.28,2.9,24.25,24.25,0,0,0,1.77,2.88,23,23,0,0,0,2.19,2.62.51.51,0,0,1,.15.33.37.37,0,0,1-.15.33l-.92.89a.45.45,0,0,1-.36.15.44.44,0,0,1-.33-.18c-.53-.57-1-1.2-1.57-1.88s-1-1.4-1.47-2.13-.89-1.48-1.27-2.23a21.88,21.88,0,0,1-1-2.15,19.49,19.49,0,0,1-2.31,4.91,26.19,26.19,0,0,1-3.63,4.24c-.22.17-.41.18-.56,0l-1.06-1c-.2-.15-.17-.35.1-.6a21.06,21.06,0,0,0,3-3.49,18.27,18.27,0,0,0,2-4.16,26.45,26.45,0,0,0,1.15-5.23,55.6,55.6,0,0,0,.36-6.72.44.44,0,0,1,.12-.34.38.38,0,0,1,.28-.12L1058,2C1058.26,2,1058.4,2.1,1058.4,2.41Zm9.14,9V1.12a.4.4,0,0,1,.46-.46h1.26a.41.41,0,0,1,.46.46V28.81a.41.41,0,0,1-.46.46H1068a.4.4,0,0,1-.46-.46V13.43h-4.88c-.29,0-.43-.13-.43-.4V11.85c0-.27.14-.4.43-.4Zm8,18.61a.4.4,0,0,1-.46.46h-1.26a.41.41,0,0,1-.46-.46V.56a.41.41,0,0,1,.46-.46h1.26a.4.4,0,0,1,.46.46Z"/><path class="cls-3" d="M1101.4,17a.47.47,0,0,1,.13.34v6h6.93a.56.56,0,0,1,.33.12.36.36,0,0,1,.17.31v1.12a.39.39,0,0,1-.17.3.51.51,0,0,1-.33.13h-28a.51.51,0,0,1-.35-.13.39.39,0,0,1-.14-.3V23.76a.35.35,0,0,1,.14-.31.55.55,0,0,1,.35-.12h6.83v-6a.5.5,0,0,1,.12-.34.36.36,0,0,1,.31-.15h1.39a.36.36,0,0,1,.29.15.48.48,0,0,1,.14.34v6h9.8v-6a.5.5,0,0,1,.11-.34.38.38,0,0,1,.32-.15h1.38A.4.4,0,0,1,1101.4,17Zm-7-1a18,18,0,0,1-3.55-.38,12.7,12.7,0,0,1-3.43-1.22,7.82,7.82,0,0,1-2.57-2.18,5.26,5.26,0,0,1-1-3.29,5.25,5.25,0,0,1,1-3.28,7.7,7.7,0,0,1,2.57-2.18,12,12,0,0,1,3.43-1.2,18.79,18.79,0,0,1,3.55-.37,19.3,19.3,0,0,1,3.6.37,11.58,11.58,0,0,1,3.41,1.2,7.9,7.9,0,0,1,2.54,2.18,5.31,5.31,0,0,1,1,3.28,5.32,5.32,0,0,1-1,3.29,8,8,0,0,1-2.54,2.18,12.21,12.21,0,0,1-3.41,1.22A18.53,18.53,0,0,1,1094.37,15.91Zm0-12a18.73,18.73,0,0,0-2.56.19,10.15,10.15,0,0,0-2.64.75,5.78,5.78,0,0,0-2.08,1.52,3.66,3.66,0,0,0-.84,2.49,3.61,3.61,0,0,0,.84,2.47,5.85,5.85,0,0,0,2.08,1.5,10.15,10.15,0,0,0,2.64.75,18.73,18.73,0,0,0,2.56.19,18.62,18.62,0,0,0,2.51-.19,10,10,0,0,0,2.65-.75,5.93,5.93,0,0,0,2.1-1.5,3.57,3.57,0,0,0,.86-2.47,3.62,3.62,0,0,0-.86-2.49,5.85,5.85,0,0,0-2.1-1.52,10,10,0,0,0-2.65-.75A18.62,18.62,0,0,0,1094.37,3.93Z"/><path class="cls-3" d="M1113.51,27.22a1.65,1.65,0,1,1,2.82,1.18,1.67,1.67,0,0,1-2.34,0A1.6,1.6,0,0,1,1113.51,27.22Z"/><path class="cls-3" d="M2033.47,279.44a5.34,5.34,0,0,1-.43,2.11,5.61,5.61,0,0,1-1.26,1.79,7.3,7.3,0,0,1-2,1.32,8.44,8.44,0,0,1-2.67.66v3.59c1.69,0,3.32-.11,4.88-.21s3-.23,4.22-.38c.2,0,.33,0,.38.05a.42.42,0,0,1,.12.25l.13,1.12a.39.39,0,0,1,0,.31c0,.08-.18.13-.38.15-1.93.22-4.06.4-6.37.55s-4.59.21-6.86.21h-6.86a.49.49,0,0,1-.35-.13.4.4,0,0,1-.15-.3v-1.16a.32.32,0,0,1,.15-.29.58.58,0,0,1,.35-.1h8.51v-3.66a8.07,8.07,0,0,1-2.61-.66,7.41,7.41,0,0,1-2-1.31,5.1,5.1,0,0,1-1.25-1.78,5.3,5.3,0,0,1-.43-2.13,5.82,5.82,0,0,1,.51-2.46,5.21,5.21,0,0,1,1.49-1.88,7.08,7.08,0,0,1,2.34-1.2,10,10,0,0,1,3-.43,9.82,9.82,0,0,1,3,.43,7.55,7.55,0,0,1,2.37,1.2,5.73,5.73,0,0,1,1.59,1.88A5.31,5.31,0,0,1,2033.47,279.44Zm-2.25,0a3.15,3.15,0,0,0-.43-1.67,3.73,3.73,0,0,0-1.15-1.19,5.73,5.73,0,0,0-1.69-.71,8.65,8.65,0,0,0-2-.23,8.76,8.76,0,0,0-2,.23,5.16,5.16,0,0,0-1.63.71,3.54,3.54,0,0,0-1.09,1.19,3.44,3.44,0,0,0-.4,1.67,3.37,3.37,0,0,0,1.46,2.84,5.22,5.22,0,0,0,1.63.76,7.85,7.85,0,0,0,2.06.26,6.93,6.93,0,0,0,2-.28,5.85,5.85,0,0,0,1.69-.79,4,4,0,0,0,1.15-1.22A3,3,0,0,0,2031.22,279.41Zm10.46,22.41a.68.68,0,0,1-.33.09H2024a2.56,2.56,0,0,1-2-.59,3.12,3.12,0,0,1-.48-1.95V294a.4.4,0,0,1,.46-.46h1.35a.41.41,0,0,1,.47.46v5.28a.81.81,0,0,0,.14.58,1.11,1.11,0,0,0,.62.11h16.79a.56.56,0,0,1,.33.12.35.35,0,0,1,.17.28v1.19A.34.34,0,0,1,2041.68,301.82Zm-1.32-6.7H2039a.41.41,0,0,1-.46-.47V272.54a.41.41,0,0,1,.46-.46h1.35a.41.41,0,0,1,.46.46v22.11A.41.41,0,0,1,2040.36,295.12Z"/><path class="cls-3" d="M2075.14,289.28a.58.58,0,0,1-.33.13h-28a.53.53,0,0,1-.34-.13.4.4,0,0,1-.15-.3v-1.16a.32.32,0,0,1,.15-.29.57.57,0,0,1,.34-.1h13.17v-2.77a.41.41,0,0,1,.46-.47h1.36a.42.42,0,0,1,.46.47v2.77h12.6a.62.62,0,0,1,.33.11.37.37,0,0,1,.17.32V289A.39.39,0,0,1,2075.14,289.28ZM2059.07,276c-.19.26-.4.53-.61.79a8.09,8.09,0,0,1-.67.76,11.69,11.69,0,0,0,2,1.65,23.63,23.63,0,0,0,2.28,1.29,17.66,17.66,0,0,0,3.07-2.31,13.13,13.13,0,0,0,2.11-2.68.57.57,0,0,0,.1-.47c0-.15-.19-.22-.43-.22h-5.68c-.26,0-.39-.15-.39-.46V273.3c0-.26.15-.39.46-.39h6.43c1.24,0,2,.24,2.27.72a2,2,0,0,1-.32,2c-.28.49-.58.95-.87,1.39a10.79,10.79,0,0,1-1,1.25,11,11,0,0,0,1.31.85l1.48.79c.5.25,1,.47,1.45.66s.89.33,1.24.44a.35.35,0,0,1,.28.27.54.54,0,0,1-.08.43l-.56.95c-.13.25-.39.28-.76.1s-.84-.34-1.34-.58-1-.49-1.5-.77l-1.5-.88a13,13,0,0,1-1.34-.9,18.14,18.14,0,0,1-2.65,2,39.78,39.78,0,0,1-3.58,2,.52.52,0,0,1-.73-.17l-.53-.72a.39.39,0,0,1-.08-.4.63.63,0,0,1,.28-.3l.43-.2.4-.19a21.5,21.5,0,0,1-1.92-1.29,18.71,18.71,0,0,1-1.75-1.49,25.52,25.52,0,0,1-7.29,4.1,2.13,2.13,0,0,1-.41.11c-.1,0-.2-.06-.28-.21l-.5-1a.39.39,0,0,1,0-.38.47.47,0,0,1,.25-.21,18.51,18.51,0,0,0,2.59-1.11,24.49,24.49,0,0,0,2.46-1.45,19.92,19.92,0,0,0,2.08-1.6,7.84,7.84,0,0,0,1.42-1.62.5.5,0,0,0,.11-.44c0-.15-.17-.22-.41-.22h-5.94c-.29,0-.43-.15-.43-.46V273.3a.32.32,0,0,1,.15-.29.58.58,0,0,1,.35-.1h6.76C2060,272.91,2060.55,273.94,2059.07,276Zm11.16,26.83h-1.36a.41.41,0,0,1-.46-.46v-6.9c0-.31,0-.5-.15-.58a1.16,1.16,0,0,0-.61-.11h-17a.56.56,0,0,1-.33-.12.35.35,0,0,1-.17-.28V293.2a.31.31,0,0,1,.17-.29.6.6,0,0,1,.33-.1h17.52a2.64,2.64,0,0,1,2,.57,3.05,3.05,0,0,1,.48,1.93v7.07A.41.41,0,0,1,2070.23,302.84Z"/><path class="cls-3" d="M2082.11,293.86a6.13,6.13,0,0,1-1.27-.1,1.34,1.34,0,0,1-.75-.38,1.53,1.53,0,0,1-.36-.72,5.18,5.18,0,0,1-.1-1.14V274.16a.39.39,0,0,1,.13-.28.43.43,0,0,1,.3-.11h1.42a.35.35,0,0,1,.28.13.39.39,0,0,1,.12.26v7.66h9.9v-7.63a.41.41,0,0,1,.11-.29.35.35,0,0,1,.28-.13h1.42a.43.43,0,0,1,.3.11.35.35,0,0,1,.13.28v8.68h6.57v-10.3a.41.41,0,0,1,.46-.46h1.35a.41.41,0,0,1,.46.46v29.51a.41.41,0,0,1-.46.46h-1.35a.41.41,0,0,1-.46-.46V284.82H2094v6.93a2.09,2.09,0,0,1-.53,1.68,3.25,3.25,0,0,1-2,.43Zm-.23-10.1v7.36a.91.91,0,0,0,.16.65,1,1,0,0,0,.63.15H2091a1,1,0,0,0,.63-.15.9.9,0,0,0,.17-.65v-7.36Z"/><path class="cls-3" d="M2137.18,289.23a.36.36,0,0,1,.17.31v1.12a.39.39,0,0,1-.17.3.51.51,0,0,1-.33.13h-28a.48.48,0,0,1-.34-.13.4.4,0,0,1-.15-.3v-1.12a.36.36,0,0,1,.15-.31.52.52,0,0,1,.34-.12h28A.56.56,0,0,1,2137.18,289.23Zm-3.82,12.59a.71.71,0,0,1-.33.09h-17.66a2.46,2.46,0,0,1-2-.64,3.35,3.35,0,0,1-.48-2v-5.14a.42.42,0,0,1,.46-.47h1.36a.42.42,0,0,1,.46.47v5.11c0,.31.05.5.15.58a1.07,1.07,0,0,0,.61.11H2133a.58.58,0,0,1,.33.12.33.33,0,0,1,.16.28v1.19A.33.33,0,0,1,2133.36,301.82Zm-1.52-21.49h-16.67v2.84a1,1,0,0,0,.17.66.79.79,0,0,0,.62.2h16.54a.38.38,0,0,1,.43.43v1c0,.31-.15.46-.43.46h-17.1a3,3,0,0,1-2-.48,2.51,2.51,0,0,1-.52-1.86v-8.32a2.51,2.51,0,0,1,.52-1.86,3,3,0,0,1,2-.48h16.87a.37.37,0,0,1,.42.43v1c0,.31-.14.46-.42.46H2116a.83.83,0,0,0-.62.18,1,1,0,0,0-.17.68v2.77h16.63c.31,0,.47.12.47.36v1.09A.38.38,0,0,1,2131.84,280.33Z"/><path class="cls-3" d="M2177.44,295.43a.37.37,0,0,1,.17.31v1.13a.36.36,0,0,1-.17.29.51.51,0,0,1-.33.13h-28.05a.48.48,0,0,1-.34-.13.36.36,0,0,1-.15-.29v-1.13a.37.37,0,0,1,.15-.31.52.52,0,0,1,.34-.12h28.05A.56.56,0,0,1,2177.44,295.43Zm-3.92-7.44c0,.31-.15.46-.43.46h-17.82a3,3,0,0,1-2-.48,2.5,2.5,0,0,1-.53-1.86v-9.54a2.5,2.5,0,0,1,.53-1.86,3,3,0,0,1,2-.48h17.59a.37.37,0,0,1,.42.43v1.09c0,.3-.14.46-.42.46h-17a.85.85,0,0,0-.63.18,1,1,0,0,0-.16.68v8.54a1,1,0,0,0,.16.66.8.8,0,0,0,.63.2h17.26a.38.38,0,0,1,.43.43Z"/><path class="cls-3" d="M2183.61,294.75a2.85,2.85,0,0,1-2-.61,2.81,2.81,0,0,1-.51-1.93v-6.3a2.36,2.36,0,0,1,.57-1.86,3.34,3.34,0,0,1,2.07-.48h6.33a.9.9,0,0,0,.6-.14,1,1,0,0,0,.13-.62v-5.28a1.06,1.06,0,0,0-.12-.63c-.08-.09-.27-.13-.58-.13h-8.41a.5.5,0,0,1-.31-.1.3.3,0,0,1-.15-.26v-1.26a.29.29,0,0,1,.15-.26.5.5,0,0,1,.31-.1h8.78a6.27,6.27,0,0,1,1.28.11,1.92,1.92,0,0,1,.8.38,1.51,1.51,0,0,1,.41.75,5,5,0,0,1,.11,1.17v6a2.38,2.38,0,0,1-.57,1.87,3.34,3.34,0,0,1-2.07.48h-6.36c-.31,0-.51,0-.58.13a1.06,1.06,0,0,0-.12.63v5.74c0,.5.24.76.73.76a40.73,40.73,0,0,0,5.44-.25,50.09,50.09,0,0,0,5.71-1c.31-.07.5,0,.56.33l.2,1.08c.05.29-.1.48-.43.57a47.43,47.43,0,0,1-5.86,1A44.39,44.39,0,0,1,2183.61,294.75Zm16.27-10.19h4.19v-12a.42.42,0,0,1,.47-.46h1.25a.41.41,0,0,1,.46.46v29.51a.41.41,0,0,1-.46.46h-1.25a.42.42,0,0,1-.47-.46V286.54h-4.19v14.25a.4.4,0,0,1-.46.46h-1.25a.41.41,0,0,1-.47-.46V273.11a.42.42,0,0,1,.47-.47h1.25a.41.41,0,0,1,.46.47Z"/><path class="cls-3" d="M2214.83,274.72a.7.7,0,0,1,.33-.1h17.69a4,4,0,0,1,1.27.17,1.59,1.59,0,0,1,.74.48,1.79,1.79,0,0,1,.37.81,10.6,10.6,0,0,1,.13,1.18c0,.6,0,1.35,0,2.26s-.08,1.92-.15,3-.15,2.22-.25,3.4-.21,2.33-.33,3.46-.24,2.21-.38,3.23-.26,1.92-.39,2.69h5.31a.56.56,0,0,1,.33.12.37.37,0,0,1,.17.31v1.13a.36.36,0,0,1-.17.29.51.51,0,0,1-.33.13H2211.1a.47.47,0,0,1-.34-.13.36.36,0,0,1-.15-.29v-1.13a.37.37,0,0,1,.15-.31.5.5,0,0,1,.34-.12h20.5c.13-.57.26-1.33.41-2.27s.28-2,.41-3.1.25-2.3.35-3.54.18-2.42.24-3.56.11-2.2.14-3.17,0-1.76,0-2.37a.91.91,0,0,0-.16-.58,1,1,0,0,0-.6-.12h-17.19a.54.54,0,0,1-.33-.11.33.33,0,0,1-.16-.28V275A.33.33,0,0,1,2214.83,274.72Z"/><path class="cls-3" d="M2254.93,295.31v-5.74h-6.6a2.63,2.63,0,0,1-2-.57,3.12,3.12,0,0,1-.48-2v-4.12a2.32,2.32,0,0,1,.58-1.88,3.37,3.37,0,0,1,2.06-.47h14.88c.31,0,.5,0,.58-.13a1.17,1.17,0,0,0,.11-.63v-3.43a1.11,1.11,0,0,0-.11-.62.81.81,0,0,0-.58-.14h-17.06a.52.52,0,0,1-.31-.1.29.29,0,0,1-.15-.26V274a.32.32,0,0,1,.15-.27.6.6,0,0,1,.31-.1h17.42a5.65,5.65,0,0,1,1.29.12,1.77,1.77,0,0,1,.79.38,1.34,1.34,0,0,1,.41.74,4.9,4.9,0,0,1,.12,1.17v4.13a2.34,2.34,0,0,1-.58,1.88,3.38,3.38,0,0,1-2.06.46h-14.88a.88.88,0,0,0-.58.13,1.06,1.06,0,0,0-.12.63v3.56a.93.93,0,0,0,.14.61c.08.1.28.15.59.15h17.72a.63.63,0,0,1,.32.1.33.33,0,0,1,.14.27v1.22a.37.37,0,0,1-.14.28.53.53,0,0,1-.29.11h-9.37v5.74h13a.56.56,0,0,1,.33.12.37.37,0,0,1,.17.31v1.13a.36.36,0,0,1-.17.29.51.51,0,0,1-.33.13h-28.05a.47.47,0,0,1-.34-.13.36.36,0,0,1-.15-.29v-1.13a.37.37,0,0,1,.15-.31.5.5,0,0,1,.34-.12Z"/><path class="cls-3" d="M2295.61,302.31a.36.36,0,0,1-.29-.15.48.48,0,0,1-.13-.34v-10.7h-12.81a.51.51,0,0,1-.35-.13.41.41,0,0,1-.14-.3v-1.12a.4.4,0,0,1,.14-.31.55.55,0,0,1,.35-.12h28a.56.56,0,0,1,.33.12.37.37,0,0,1,.17.31v1.12a.38.38,0,0,1-.17.3.51.51,0,0,1-.33.13h-13v10.7a.58.58,0,0,1-.11.34.38.38,0,0,1-.32.15Zm12.51-17.56c-.09.22-.3.28-.63.17a45.8,45.8,0,0,1-5.31-1.6,55.68,55.68,0,0,1-5.31-2.26,53.75,53.75,0,0,1-5.15,2.29,59.36,59.36,0,0,1-5.91,1.93.43.43,0,0,1-.62-.26l-.4-1.06c-.13-.33,0-.53.26-.59q2.38-.63,4.71-1.5c1.55-.59,3-1.21,4.45-1.88s2.76-1.38,4-2.12a29.14,29.14,0,0,0,3.33-2.22c.27-.2.38-.38.35-.53s-.22-.23-.58-.23h-14.19a.39.39,0,0,1-.43-.43V273.3c0-.26.15-.39.43-.39h15.08a5.82,5.82,0,0,1,2,.28,1.59,1.59,0,0,1,1,.74,1.21,1.21,0,0,1-.08,1.07,4.43,4.43,0,0,1-1,1.27,31.47,31.47,0,0,1-5.15,3.67c1.38.61,2.9,1.2,4.53,1.75s3.24,1,4.81,1.38c.19.05.3.1.33.17a.41.41,0,0,1-.07.29Z"/><path class="cls-3" d="M2318.05,289.24a6.26,6.26,0,0,1-1.27-.1,1.31,1.31,0,0,1-.74-.38,1.41,1.41,0,0,1-.36-.72,5.18,5.18,0,0,1-.1-1.14V273.7a.35.35,0,0,1,.13-.28.44.44,0,0,1,.3-.12h1.42a.37.37,0,0,1,.28.14.4.4,0,0,1,.11.26v5.81h9.64v-5.78a.44.44,0,0,1,.11-.29.37.37,0,0,1,.29-.14h1.41a.44.44,0,0,1,.3.12.35.35,0,0,1,.13.28v3.93h6.5v-5.09a.42.42,0,0,1,.47-.46H2338a.41.41,0,0,1,.46.46V293.6a.4.4,0,0,1-.46.46h-1.35a.41.41,0,0,1-.47-.46v-7.76h-6.5v1.29a2.06,2.06,0,0,1-.53,1.68,3.25,3.25,0,0,1-2,.43Zm-.23-7.79v5.05a.9.9,0,0,0,.17.65,1,1,0,0,0,.62.15h8.06a1,1,0,0,0,.62-.15.9.9,0,0,0,.17-.65v-5.05Zm22,20.37a.68.68,0,0,1-.33.09h-17a2.64,2.64,0,0,1-2-.57,3.05,3.05,0,0,1-.48-1.93v-6.47a.4.4,0,0,1,.46-.46h1.36a.41.41,0,0,1,.46.46v6.3c0,.31,0,.5.15.58a1.07,1.07,0,0,0,.61.11h16.43a.56.56,0,0,1,.33.12.35.35,0,0,1,.17.28v1.19A.34.34,0,0,1,2339.8,301.82Zm-10.1-17.92h6.5v-4.33h-6.5Z"/><path class="cls-3" d="M2372.8,285.2a.37.37,0,0,1,.17.31v1.13a.36.36,0,0,1-.17.29.51.51,0,0,1-.33.13h-28a.51.51,0,0,1-.35-.13.38.38,0,0,1-.14-.29v-1.13a.4.4,0,0,1,.14-.31.55.55,0,0,1,.35-.12h28A.56.56,0,0,1,2372.8,285.2Zm-14.39-2.13a26.78,26.78,0,0,1-3.33-.23,12.31,12.31,0,0,1-3.3-.87,7.05,7.05,0,0,1-2.51-1.74,4.51,4.51,0,0,1,0-5.64,6.88,6.88,0,0,1,2.51-1.72,14,14,0,0,1,3.3-.87,23.59,23.59,0,0,1,3.33-.25,27.22,27.22,0,0,1,3.4.23,13,13,0,0,1,3.29.86,6.75,6.75,0,0,1,2.47,1.73,4.12,4.12,0,0,1,1,2.83,4,4,0,0,1-1,2.83,7.06,7.06,0,0,1-2.49,1.74,12.07,12.07,0,0,1-3.28.87A27,27,0,0,1,2358.41,283.07Zm10.6,18.84a.36.36,0,0,1-.15.29.53.53,0,0,1-.28.11H2351a2.61,2.61,0,0,1-2-.58,3.09,3.09,0,0,1-.48-2v-2.38a2.34,2.34,0,0,1,.58-1.86,3.29,3.29,0,0,1,2.06-.48h14.19a.91.91,0,0,0,.6-.13,1,1,0,0,0,.13-.63v-1.85a1,1,0,0,0-.12-.62c-.07-.09-.27-.14-.57-.14h-16.47a.56.56,0,0,1-.31-.09.32.32,0,0,1-.15-.27v-1.15a.32.32,0,0,1,.15-.27.57.57,0,0,1,.31-.1h16.8a5.61,5.61,0,0,1,1.28.12,1.72,1.72,0,0,1,.79.38,1.42,1.42,0,0,1,.42.74,5.54,5.54,0,0,1,.11,1.17v2.38a2.34,2.34,0,0,1-.58,1.86,3.29,3.29,0,0,1-2.06.48h-14.22a.88.88,0,0,0-.58.13,1.08,1.08,0,0,0-.11.63v1.95a1,1,0,0,0,.13.61.8.8,0,0,0,.59.15h17.06a.55.55,0,0,1,.32.1.29.29,0,0,1,.15.26Zm-10.6-28.14a23.93,23.93,0,0,0-2.39.13,11.27,11.27,0,0,0-2.52.53,5.4,5.4,0,0,0-2,1.12,2.4,2.4,0,0,0-.81,1.88,2.35,2.35,0,0,0,.81,1.86,5.68,5.68,0,0,0,2,1.11,11.86,11.86,0,0,0,2.52.53c.89.08,1.69.13,2.39.13s1.5-.05,2.4-.13a11.86,11.86,0,0,0,2.52-.53,5.77,5.77,0,0,0,2-1.11,2.56,2.56,0,0,0,0-3.74,5.61,5.61,0,0,0-2-1.12,11.48,11.48,0,0,0-2.53-.53C2359.88,273.81,2359.09,273.77,2358.41,273.77Z"/><path class="cls-3" d="M2409.26,301.91a.35.35,0,0,1-.14.29.53.53,0,0,1-.28.11h-17.56a2.61,2.61,0,0,1-2-.58,3.09,3.09,0,0,1-.48-2v-2.11a2.35,2.35,0,0,1,.58-1.87,3.29,3.29,0,0,1,2.06-.48h14.19a.91.91,0,0,0,.6-.13,1,1,0,0,0,.13-.62V293a1.06,1.06,0,0,0-.12-.63.88.88,0,0,0-.58-.13h-16.46a.55.55,0,0,1-.32-.1.3.3,0,0,1-.14-.26v-1.16a.31.31,0,0,1,.14-.26.55.55,0,0,1,.32-.1h8.35V287.1h-12.84a.56.56,0,0,1-.35-.13.39.39,0,0,1-.14-.3v-1.12a.37.37,0,0,1,.14-.32.61.61,0,0,1,.35-.11h28.05a.62.62,0,0,1,.33.11.36.36,0,0,1,.16.32v1.12a.38.38,0,0,1-.16.3.58.58,0,0,1-.33.13h-12.94v3.23H2406a5.65,5.65,0,0,1,1.29.12,1.63,1.63,0,0,1,.79.38,1.38,1.38,0,0,1,.42.74,5.54,5.54,0,0,1,.11,1.17v2.11a2.35,2.35,0,0,1-.58,1.87,3.29,3.29,0,0,1-2.06.48h-14.22c-.31,0-.5,0-.58.13a1,1,0,0,0-.11.62v1.69a1,1,0,0,0,.13.61c.08.1.28.15.59.15h17.06a.55.55,0,0,1,.32.1.28.28,0,0,1,.14.26Zm-.39-20c0,.31-.14.46-.43.46h-17a3,3,0,0,1-2-.48,2.5,2.5,0,0,1-.53-1.86v-5.48a2.51,2.51,0,0,1,.53-1.87,3,3,0,0,1,2-.48h16.8a.39.39,0,0,1,.43.43v1.09c0,.31-.15.46-.43.46H2392a.82.82,0,0,0-.62.19,1,1,0,0,0-.17.67v4.49a1,1,0,0,0,.17.66.78.78,0,0,0,.62.2h16.47a.38.38,0,0,1,.43.43Z"/><path class="cls-3" d="M2420.15,295.05a2.9,2.9,0,0,1-2-.61,2.83,2.83,0,0,1-.51-1.93v-6.57a2.37,2.37,0,0,1,.57-1.86,3.34,3.34,0,0,1,2.07-.48h7.12a.91.91,0,0,0,.6-.13,1,1,0,0,0,.13-.63V277.3a1.17,1.17,0,0,0-.11-.63c-.08-.09-.27-.13-.58-.13h-9.21a.6.6,0,0,1-.31-.1.31.31,0,0,1-.15-.27v-1.25a.29.29,0,0,1,.15-.26.52.52,0,0,1,.31-.1h9.57a6.38,6.38,0,0,1,1.29.11,1.88,1.88,0,0,1,.79.38,1.44,1.44,0,0,1,.41.75,4.78,4.78,0,0,1,.12,1.17v6.27a2.37,2.37,0,0,1-.58,1.86,3.31,3.31,0,0,1-2.06.48h-7.16c-.31,0-.5,0-.58.13a1.06,1.06,0,0,0-.12.63v6c0,.51.24.76.73.76a56.21,56.21,0,0,0,6.15-.18,47,47,0,0,0,6.09-.91c.31-.06.5.05.56.33l.2,1.09a.46.46,0,0,1-.43.56,53.22,53.22,0,0,1-6.37.93A48.53,48.53,0,0,1,2420.15,295.05Zm18.35-11.32V272.54a.41.41,0,0,1,.46-.46h1.36a.41.41,0,0,1,.46.46v29.51a.41.41,0,0,1-.46.46H2439a.41.41,0,0,1-.46-.46V285.71h-6.07c-.29,0-.43-.13-.43-.39v-1.19c0-.27.14-.4.43-.4Z"/><path class="cls-3" d="M2461.8,288.52v6.79h13a.56.56,0,0,1,.33.12.36.36,0,0,1,.16.31v1.13a.35.35,0,0,1-.16.29.51.51,0,0,1-.33.13h-28.05a.51.51,0,0,1-.35-.13.36.36,0,0,1-.15-.29v-1.13a.37.37,0,0,1,.15-.31.55.55,0,0,1,.35-.12h12.8v-6.79H2453a6.92,6.92,0,0,1-1.27-.1,1.41,1.41,0,0,1-.75-.38,1.62,1.62,0,0,1-.36-.73,5.06,5.06,0,0,1-.1-1.14V273.8a.39.39,0,0,1,.13-.28.44.44,0,0,1,.3-.12h1.42a.39.39,0,0,1,.28.13.41.41,0,0,1,.12.27v5.25h15.87v-5.22a.48.48,0,0,1,.11-.3.39.39,0,0,1,.28-.13h1.42a.44.44,0,0,1,.3.12.35.35,0,0,1,.13.28v12.6a2.09,2.09,0,0,1-.53,1.69,3.32,3.32,0,0,1-2,.43Zm-9.07-7.53v4.79a.88.88,0,0,0,.16.64,1,1,0,0,0,.63.15h14.29a1,1,0,0,0,.62-.15.88.88,0,0,0,.17-.64V281Z"/><path class="cls-3" d="M2486.75,274.39c0,1.45,0,2.81-.08,4.06a35.11,35.11,0,0,1-.35,3.57,13.74,13.74,0,0,0,.72,2.78,28.19,28.19,0,0,0,1.29,2.91,24.14,24.14,0,0,0,1.77,2.87,23,23,0,0,0,2.19,2.62.51.51,0,0,1,.15.33.37.37,0,0,1-.15.33l-.92.89a.45.45,0,0,1-.7,0c-.52-.57-1.05-1.2-1.56-1.88s-1-1.39-1.47-2.13-.89-1.48-1.27-2.23a19.65,19.65,0,0,1-1-2.14,19,19,0,0,1-2.32,4.9,25.23,25.23,0,0,1-3.63,4.24c-.22.18-.4.19-.56,0l-1-1c-.2-.15-.17-.35.1-.59a20.58,20.58,0,0,0,3-3.5,17.68,17.68,0,0,0,2-4.16,25.74,25.74,0,0,0,1.16-5.23,55.31,55.31,0,0,0,.36-6.71.46.46,0,0,1,.12-.35.36.36,0,0,1,.28-.12l1.45.07C2486.6,273.93,2486.75,274.08,2486.75,274.39Zm9.14,9V273.11a.41.41,0,0,1,.46-.47h1.26a.42.42,0,0,1,.46.47v27.68a.41.41,0,0,1-.46.46h-1.26a.4.4,0,0,1-.46-.46V285.41H2491q-.42,0-.42-.39v-1.19a.37.37,0,0,1,.42-.4Zm8,18.62a.41.41,0,0,1-.46.46h-1.26a.41.41,0,0,1-.46-.46V272.54a.41.41,0,0,1,.46-.46h1.26a.41.41,0,0,1,.46.46Z"/><path class="cls-3" d="M2529.75,288.93a.54.54,0,0,1,.13.35v6h6.93a.56.56,0,0,1,.33.12.36.36,0,0,1,.16.31v1.13a.35.35,0,0,1-.16.29.51.51,0,0,1-.33.13h-28a.51.51,0,0,1-.35-.13.36.36,0,0,1-.15-.29v-1.13a.37.37,0,0,1,.15-.31.55.55,0,0,1,.35-.12h6.83v-6a.58.58,0,0,1,.11-.35.39.39,0,0,1,.32-.15h1.38a.4.4,0,0,1,.3.15.49.49,0,0,1,.13.35v6h9.8v-6a.53.53,0,0,1,.12-.35.37.37,0,0,1,.31-.15h1.39A.4.4,0,0,1,2529.75,288.93Zm-7-1a18,18,0,0,1-3.55-.38,12.37,12.37,0,0,1-3.43-1.22,7.74,7.74,0,0,1-2.58-2.18,5.9,5.9,0,0,1,0-6.57,7.71,7.71,0,0,1,2.58-2.17,12,12,0,0,1,3.43-1.21,18.75,18.75,0,0,1,3.55-.36,19.07,19.07,0,0,1,3.59.36,11.56,11.56,0,0,1,3.42,1.21,7.87,7.87,0,0,1,2.54,2.17,5.85,5.85,0,0,1,0,6.57,7.9,7.9,0,0,1-2.54,2.18,11.86,11.86,0,0,1-3.42,1.22A18.36,18.36,0,0,1,2522.72,287.89Zm0-12a18.74,18.74,0,0,0-2.56.2,9.92,9.92,0,0,0-2.64.74,5.7,5.7,0,0,0-2.08,1.52,3.68,3.68,0,0,0-.84,2.49,3.63,3.63,0,0,0,.84,2.48,6,6,0,0,0,2.08,1.5,9.92,9.92,0,0,0,2.64.74,16.16,16.16,0,0,0,5.07,0,10,10,0,0,0,2.65-.74,6.29,6.29,0,0,0,2.1-1.5,3.6,3.6,0,0,0,.86-2.48,3.64,3.64,0,0,0-.86-2.49,5.94,5.94,0,0,0-2.1-1.52,10,10,0,0,0-2.65-.74A18.91,18.91,0,0,0,2522.72,275.91Z"/><path class="cls-3" d="M2541.86,299.21a1.59,1.59,0,0,1,.48-1.17,1.56,1.56,0,0,1,1.17-.48,1.65,1.65,0,1,1,0,3.3,1.56,1.56,0,0,1-1.17-.48A1.59,1.59,0,0,1,2541.86,299.21Z"/><path class="cls-3" d="M2017.39,330.9a2.5,2.5,0,0,1,.53-1.86,3,3,0,0,1,2-.48h9.71a6.26,6.26,0,0,1,1.27.1,1.43,1.43,0,0,1,.75.36,1.32,1.32,0,0,1,.38.73,5.28,5.28,0,0,1,.1,1.15v14.62a2.44,2.44,0,0,1-.53,1.86,3,3,0,0,1-2,.48h-9.71a6.2,6.2,0,0,1-1.27-.1,1.41,1.41,0,0,1-.76-.38,1.47,1.47,0,0,1-.38-.72,5.87,5.87,0,0,1-.1-1.14Zm3.07-.36a.82.82,0,0,0-.62.18,1,1,0,0,0-.17.68V345a1,1,0,0,0,.17.68.82.82,0,0,0,.62.18H2029a.85.85,0,0,0,.63-.18,1,1,0,0,0,.17-.68V331.4a1,1,0,0,0-.17-.68.85.85,0,0,0-.63-.18Zm18.75,26h-1.35a.42.42,0,0,1-.47-.46V326.54a.42.42,0,0,1,.47-.46h1.35a.41.41,0,0,1,.46.46v12h4.55a.58.58,0,0,1,.35.11.38.38,0,0,1,.15.32v1.12a.36.36,0,0,1-.15.29.5.5,0,0,1-.35.14h-4.55v15.51A.41.41,0,0,1,2039.21,356.51Z"/><path class="cls-3" d="M2060,356.31a.4.4,0,0,1-.3-.15.48.48,0,0,1-.13-.34V345h-12.81a.48.48,0,0,1-.34-.13.36.36,0,0,1-.15-.29v-1.13a.37.37,0,0,1,.15-.31.52.52,0,0,1,.34-.12h28a.56.56,0,0,1,.33.12.37.37,0,0,1,.17.31v1.13a.36.36,0,0,1-.17.29.51.51,0,0,1-.33.13h-13v10.8a.52.52,0,0,1-.12.34.37.37,0,0,1-.31.15Zm.72-16.73a18.65,18.65,0,0,1-3.54-.36,13.77,13.77,0,0,1-3.44-1.14,7.53,7.53,0,0,1-2.57-2,5.07,5.07,0,0,1,0-6.07,7.41,7.41,0,0,1,2.57-2,13,13,0,0,1,3.44-1.12,18.61,18.61,0,0,1,3.54-.35,19.06,19.06,0,0,1,3.6.35,12.6,12.6,0,0,1,3.42,1.12,7.49,7.49,0,0,1,2.54,2,5.11,5.11,0,0,1,0,6.07,7.61,7.61,0,0,1-2.54,2,13.35,13.35,0,0,1-3.42,1.14A19.1,19.1,0,0,1,2060.72,339.58Zm0-11a20.06,20.06,0,0,0-2.55.18,10.66,10.66,0,0,0-2.64.68,5.72,5.72,0,0,0-2.08,1.37,3.11,3.11,0,0,0-.84,2.26,3.06,3.06,0,0,0,.84,2.24,6,6,0,0,0,2.08,1.35,10.66,10.66,0,0,0,2.64.68,18,18,0,0,0,5.08,0,10.89,10.89,0,0,0,2.64-.68,6.18,6.18,0,0,0,2.09-1.35,3,3,0,0,0,.86-2.24,3,3,0,0,0-.86-2.26,5.94,5.94,0,0,0-2.09-1.37,10.89,10.89,0,0,0-2.64-.68A20.14,20.14,0,0,0,2060.72,328.56Z"/><path class="cls-3" d="M2106.16,349.43a.37.37,0,0,1,.17.31v1.13a.36.36,0,0,1-.17.29.51.51,0,0,1-.33.13h-28a.48.48,0,0,1-.34-.13.36.36,0,0,1-.15-.29v-1.13a.37.37,0,0,1,.15-.31.52.52,0,0,1,.34-.12h28A.56.56,0,0,1,2106.16,349.43Zm-13.2-21.3a9.68,9.68,0,0,1-.33,1.75,5.45,5.45,0,0,0,.17.67,2.53,2.53,0,0,0,.23.55,17.18,17.18,0,0,0,2,3.07,19.93,19.93,0,0,0,2.55,2.64,18,18,0,0,0,3,2.06,14.86,14.86,0,0,0,3.21,1.34.39.39,0,0,1,.27.26.55.55,0,0,1,0,.36l-.53,1.09a1.59,1.59,0,0,1-.21.27c-.08.06-.23.05-.45,0a19.46,19.46,0,0,1-3.48-1.58,21.4,21.4,0,0,1-3.1-2.16,20.5,20.5,0,0,1-2.63-2.64,19.29,19.29,0,0,1-2-3,18.6,18.6,0,0,1-1.88,3.07,21.13,21.13,0,0,1-2.51,2.76,22.42,22.42,0,0,1-3,2.29,18.53,18.53,0,0,1-3.4,1.68c-.36.13-.58.09-.66-.13l-.6-1.15a.52.52,0,0,1,0-.35.42.42,0,0,1,.24-.28,17.82,17.82,0,0,0,4.1-2.16,18,18,0,0,0,3.31-3,15.65,15.65,0,0,0,2.35-3.61,13.8,13.8,0,0,0,1.17-4,.38.38,0,0,1,.43-.4l1.48.17A.38.38,0,0,1,2093,328.13Z"/><path class="cls-3" d="M2138.24,339.68c.35-.05.54.06.56.33l.17.92c0,.31-.11.48-.4.5-1.37.22-2.82.39-4.36.51s-3.07.23-4.58.31v2.81a.5.5,0,0,1-.12.34.37.37,0,0,1-.31.15h-1.42a.4.4,0,0,1-.3-.15.47.47,0,0,1-.13-.34v-2.74l-2.26.11-2.39.09-2.23.05c-.69,0-1.27,0-1.73,0a.49.49,0,0,1-.35-.13.4.4,0,0,1-.15-.3v-.89a.36.36,0,0,1,.15-.31.53.53,0,0,1,.35-.12c.59,0,1.31,0,2.16,0s1.72,0,2.64,0,1.8,0,2.65-.08l2.22-.08c.72,0,1.51-.07,2.37-.13l2.61-.23,2.57-.27C2136.8,339.85,2137.56,339.77,2138.24,339.68ZM2137,330.9h-16.9a.45.45,0,0,1-.31-.13.43.43,0,0,1-.15-.33v-.83a.43.43,0,0,1,.15-.33.5.5,0,0,1,.31-.13H2137c.33,0,.49.14.49.43v.89C2137.51,330.76,2137.35,330.9,2137,330.9Zm-1.35,4.59a2.38,2.38,0,0,1-.6,1.61,4.21,4.21,0,0,1-1.58,1.14,9.44,9.44,0,0,1-2.3.68,15.9,15.9,0,0,1-5.39,0,9,9,0,0,1-2.28-.69,4.7,4.7,0,0,1-1.58-1.14,2.34,2.34,0,0,1-.6-1.6,2.39,2.39,0,0,1,.6-1.62,4.44,4.44,0,0,1,1.58-1.14,9.89,9.89,0,0,1,2.28-.66,16.79,16.79,0,0,1,2.7-.21,15.75,15.75,0,0,1,2.69.23,9.44,9.44,0,0,1,2.3.68,4.4,4.4,0,0,1,1.58,1.12A2.32,2.32,0,0,1,2135.67,335.49Zm8.18,20.92a.35.35,0,0,1-.15.28.45.45,0,0,1-.28.12H2125.9a2.64,2.64,0,0,1-2-.57,3,3,0,0,1-.48-1.94V353a2.28,2.28,0,0,1,.58-1.85,3.38,3.38,0,0,1,2.06-.46h14.16a.85.85,0,0,0,.57-.13,1.06,1.06,0,0,0,.12-.63V349a1,1,0,0,0-.12-.62c-.07-.09-.27-.13-.57-.13h-16.4a.63.63,0,0,1-.32-.1.32.32,0,0,1-.15-.27v-1.05a.32.32,0,0,1,.15-.27.63.63,0,0,1,.32-.1h16.76a5.65,5.65,0,0,1,1.29.12,1.77,1.77,0,0,1,.79.38,1.41,1.41,0,0,1,.41.74,4.9,4.9,0,0,1,.12,1.17v1.26a2.37,2.37,0,0,1-.58,1.86,3.31,3.31,0,0,1-2.06.48h-14.16c-.31,0-.5,0-.58.13a1.08,1.08,0,0,0-.11.63v1a1,1,0,0,0,.13.61.8.8,0,0,0,.59.15h17a.52.52,0,0,1,.31.1.3.3,0,0,1,.15.26Zm-10.4-20.89a1,1,0,0,0-.41-.84,3.1,3.1,0,0,0-1.09-.56,9.65,9.65,0,0,0-1.56-.33,14.3,14.3,0,0,0-1.89-.12,14.15,14.15,0,0,0-1.88.12,9.65,9.65,0,0,0-1.56.33,3.1,3.1,0,0,0-1.09.56,1.05,1.05,0,0,0-.42.84,1,1,0,0,0,.42.81,3.48,3.48,0,0,0,1.09.58,7.9,7.9,0,0,0,1.56.33,18.73,18.73,0,0,0,1.88.1c.66,0,1.29,0,1.89-.1a7.9,7.9,0,0,0,1.56-.33,3.48,3.48,0,0,0,1.09-.58A1,1,0,0,0,2133.45,335.52Zm-1.15-7.66h-7.72a.5.5,0,0,1-.32-.11.37.37,0,0,1-.14-.31v-.86a.44.44,0,0,1,.13-.33.39.39,0,0,1,.29-.13h7.76c.33,0,.49.15.49.46v.82C2132.79,327.71,2132.63,327.86,2132.3,327.86Zm10.36,16.8h-1.35a.4.4,0,0,1-.46-.46V326.54a.41.41,0,0,1,.46-.46h1.35a.41.41,0,0,1,.46.46V344.2A.4.4,0,0,1,2142.66,344.66Z"/><path class="cls-3" d="M2177.44,339.2a.37.37,0,0,1,.17.31v1.13a.36.36,0,0,1-.17.29.51.51,0,0,1-.33.13h-28.05a.48.48,0,0,1-.34-.13.36.36,0,0,1-.15-.29v-1.13a.37.37,0,0,1,.15-.31.52.52,0,0,1,.34-.12h28.05A.56.56,0,0,1,2177.44,339.2Zm-14.38-2.13a26.8,26.8,0,0,1-3.34-.23,12.31,12.31,0,0,1-3.3-.87,7.05,7.05,0,0,1-2.51-1.74,4.51,4.51,0,0,1,0-5.64,6.88,6.88,0,0,1,2.51-1.72,14,14,0,0,1,3.3-.87,23.62,23.62,0,0,1,3.34-.25,27.07,27.07,0,0,1,3.39.23,12.91,12.91,0,0,1,3.29.86,6.75,6.75,0,0,1,2.47,1.73,4.13,4.13,0,0,1,1,2.83,4,4,0,0,1-1,2.83,7,7,0,0,1-2.5,1.74,12.07,12.07,0,0,1-3.28.87A27,27,0,0,1,2163.06,337.07Zm10.59,18.84a.36.36,0,0,1-.15.29.5.5,0,0,1-.28.11h-17.56a2.61,2.61,0,0,1-2-.58,3.09,3.09,0,0,1-.48-2v-2.38a2.37,2.37,0,0,1,.58-1.86,3.33,3.33,0,0,1,2.06-.48H2170a.91.91,0,0,0,.6-.13,1,1,0,0,0,.13-.63v-1.85a1.11,1.11,0,0,0-.11-.62.81.81,0,0,0-.58-.14h-16.47a.59.59,0,0,1-.31-.09.32.32,0,0,1-.15-.27v-1.15a.32.32,0,0,1,.15-.27.6.6,0,0,1,.31-.1h16.8a5.65,5.65,0,0,1,1.29.12,1.77,1.77,0,0,1,.79.38,1.48,1.48,0,0,1,.41.74,5,5,0,0,1,.11,1.17v2.38a2.37,2.37,0,0,1-.57,1.86,3.31,3.31,0,0,1-2.06.48h-14.23a.88.88,0,0,0-.58.13,1.17,1.17,0,0,0-.11.63v1.95a1,1,0,0,0,.13.61.82.82,0,0,0,.59.15h17.07a.52.52,0,0,1,.31.1.29.29,0,0,1,.15.26Zm-10.59-28.14a24,24,0,0,0-2.4.13,11.27,11.27,0,0,0-2.52.53,5.48,5.48,0,0,0-2,1.12,2.4,2.4,0,0,0-.81,1.88,2.35,2.35,0,0,0,.81,1.86,5.77,5.77,0,0,0,2,1.11,11.86,11.86,0,0,0,2.52.53c.89.08,1.69.13,2.4.13s1.5-.05,2.39-.13a11.86,11.86,0,0,0,2.52-.53,5.77,5.77,0,0,0,2-1.11,2.35,2.35,0,0,0,.81-1.86,2.39,2.39,0,0,0-.83-1.88,5.61,5.61,0,0,0-2-1.12,11.24,11.24,0,0,0-2.53-.53A23.5,23.5,0,0,0,2163.06,327.77Z"/><path class="cls-3" d="M2199.62,328.23q0,2.17-.18,4.17a33.3,33.3,0,0,1-.58,3.85,15.4,15.4,0,0,0,1,2.79,25.24,25.24,0,0,0,1.64,2.92,27.21,27.21,0,0,0,2.11,2.82,20.63,20.63,0,0,0,2.49,2.46.43.43,0,0,1,.18.33.51.51,0,0,1-.08.33l-.83,1q-.3.36-.69,0a18.89,18.89,0,0,1-1.9-1.9c-.65-.74-1.27-1.51-1.88-2.33s-1.17-1.65-1.7-2.5a24.81,24.81,0,0,1-1.35-2.48,24.26,24.26,0,0,1-2.77,5.53,27.3,27.3,0,0,1-4.09,4.7c-.23.18-.41.19-.57,0l-1-1a.32.32,0,0,1-.08-.26.55.55,0,0,1,.18-.33,26.66,26.66,0,0,0,3.5-4,21.14,21.14,0,0,0,2.43-4.55,25.73,25.73,0,0,0,1.38-5.32,40.74,40.74,0,0,0,.45-6.3.52.52,0,0,1,.11-.35.41.41,0,0,1,.28-.11l1.56.07C2199.5,327.77,2199.62,327.92,2199.62,328.23Zm13.17,28.28h-1.36a.41.41,0,0,1-.46-.46V326.54a.41.41,0,0,1,.46-.46h1.36a.41.41,0,0,1,.46.46v12h4.55a.61.61,0,0,1,.35.11.38.38,0,0,1,.15.32v1.12a.36.36,0,0,1-.15.29.52.52,0,0,1-.35.14h-4.55v15.51A.41.41,0,0,1,2212.79,356.51Z"/><path class="cls-3" d="M2248.72,341.81a.36.36,0,0,1,.17.31v1.12a.39.39,0,0,1-.17.3.51.51,0,0,1-.33.13h-28a.47.47,0,0,1-.34-.13.4.4,0,0,1-.15-.3v-1.12a.36.36,0,0,1,.15-.31.5.5,0,0,1,.34-.12h7.49v-5.31a7.9,7.9,0,0,1-2.65-1.75,4.07,4.07,0,0,1,0-5.48,7.32,7.32,0,0,1,2.58-1.71,14.28,14.28,0,0,1,3.33-.9,23.88,23.88,0,0,1,3.32-.26,20.49,20.49,0,0,1,3.35.3,14.45,14.45,0,0,1,3.33.95,7.88,7.88,0,0,1,2.56,1.74,3.62,3.62,0,0,1,1,2.59,3.69,3.69,0,0,1-1.07,2.7,7.89,7.89,0,0,1-2.69,1.75v5.38h7.52A.56.56,0,0,1,2248.72,341.81Zm-4.12,9.52a3.74,3.74,0,0,1-1.06,2.74,7.38,7.38,0,0,1-2.61,1.65,14.53,14.53,0,0,1-3.35.81,28.33,28.33,0,0,1-3.28.21c-.66,0-1.37,0-2.13-.1s-1.52-.17-2.27-.31a14.26,14.26,0,0,1-2.2-.61,7.52,7.52,0,0,1-1.86-1,5.11,5.11,0,0,1-1.31-1.44,3.68,3.68,0,0,1-.49-1.94,3.62,3.62,0,0,1,1.05-2.69,7.69,7.69,0,0,1,2.61-1.64,14.54,14.54,0,0,1,3.35-.82,26.47,26.47,0,0,1,3.25-.23,28.33,28.33,0,0,1,3.28.21,15,15,0,0,1,3.37.81,7.38,7.38,0,0,1,2.61,1.65A3.73,3.73,0,0,1,2244.6,351.33Zm-2.41,0a2,2,0,0,0-.89-1.73,6.9,6.9,0,0,0-2.15-1,13.78,13.78,0,0,0-2.59-.48c-.89-.07-1.64-.11-2.26-.11s-1.4,0-2.29.11a13.67,13.67,0,0,0-2.58.48,6.67,6.67,0,0,0-2.11,1,2,2,0,0,0-.87,1.73,2.07,2.07,0,0,0,.87,1.72,6.26,6.26,0,0,0,2.11,1,14.51,14.51,0,0,0,2.58.47c.89.07,1.65.11,2.29.11s1.38,0,2.28-.11a14.46,14.46,0,0,0,2.59-.47,6.55,6.55,0,0,0,2.13-1A2.06,2.06,0,0,0,2242.19,351.36Zm-7.82-23c-.71,0-1.51,0-2.41.13a12.23,12.23,0,0,0-2.56.53,6.36,6.36,0,0,0-2.05,1.09,2.31,2.31,0,0,0,0,3.56,6.36,6.36,0,0,0,2.05,1.09,11.62,11.62,0,0,0,2.56.53c.9.09,1.7.13,2.41.13s1.47,0,2.37-.13a12.05,12.05,0,0,0,2.58-.53,6.21,6.21,0,0,0,2.06-1.09,2.31,2.31,0,0,0,0-3.56,6.21,6.21,0,0,0-2.06-1.09,12.69,12.69,0,0,0-2.58-.53C2235.84,328.4,2235.05,328.36,2234.37,328.36Zm0,9.11c-.64,0-1.33,0-2.07-.08a15.11,15.11,0,0,1-2.19-.35v4.65h8.48V337a16.51,16.51,0,0,1-2.18.36C2235.69,337.43,2235,337.47,2234.37,337.47Z"/><path class="cls-3" d="M2270.14,335.16h-18.22a.5.5,0,0,1-.31-.13.43.43,0,0,1-.15-.33v-1.06a.43.43,0,0,1,.15-.33.45.45,0,0,1,.31-.13h18.22c.33,0,.49.14.49.43v1.12C2270.63,335,2270.47,335.16,2270.14,335.16Zm-2,8.78a5.68,5.68,0,0,1-.55,2.5,6.34,6.34,0,0,1-1.5,2,6.82,6.82,0,0,1-2.27,1.37,8.37,8.37,0,0,1-5.7,0,7.19,7.19,0,0,1-2.26-1.35,6.13,6.13,0,0,1-1.5-2,5.94,5.94,0,0,1-.54-2.52,6,6,0,0,1,.54-2.56,6.13,6.13,0,0,1,1.5-2,7.19,7.19,0,0,1,2.26-1.35,8,8,0,0,1,2.86-.5,7.82,7.82,0,0,1,2.84.51,7.36,7.36,0,0,1,2.27,1.37,6.11,6.11,0,0,1,1.5,2.05A5.85,5.85,0,0,1,2268.16,343.94Zm-2.84-14.36h-9a.51.51,0,0,1-.31-.11.39.39,0,0,1-.15-.32V328a.44.44,0,0,1,.13-.33.41.41,0,0,1,.3-.13h9.07c.33,0,.5.15.5.46v1.09C2265.82,329.43,2265.65,329.58,2265.32,329.58Zm.59,14.36a4.44,4.44,0,0,0-.36-1.79,4.26,4.26,0,0,0-1-1.43,4.7,4.7,0,0,0-1.57-1,5.69,5.69,0,0,0-3.93,0,4.76,4.76,0,0,0-1.56,1,4.46,4.46,0,0,0-1,1.43,4.14,4.14,0,0,0-.38,1.79,4,4,0,0,0,.38,1.76,4.53,4.53,0,0,0,1,1.42,4.76,4.76,0,0,0,1.56,1,5.51,5.51,0,0,0,2,.34,5.46,5.46,0,0,0,2-.34,5,5,0,0,0,1.57-.94,4.12,4.12,0,0,0,1-1.42A4.42,4.42,0,0,0,2265.91,343.94Zm8.91,12.57h-1.35a.41.41,0,0,1-.46-.46V326.54a.41.41,0,0,1,.46-.46h1.35a.42.42,0,0,1,.47.46v12.18h4.55a.55.55,0,0,1,.35.12.36.36,0,0,1,.15.31v1.12a.4.4,0,0,1-.15.3.51.51,0,0,1-.35.13h-4.55v15.35A.42.42,0,0,1,2274.82,356.51Z"/><path class="cls-3" d="M2307,356.51h-1.35a.42.42,0,0,1-.47-.46V344.43h-7a11.53,11.53,0,0,1-1.09,1.91,7,7,0,0,1-1.47,1.54,6.77,6.77,0,0,1-1.9,1,7.18,7.18,0,0,1-2.34.36,6.7,6.7,0,0,1-3.68-1,7.45,7.45,0,0,1-2.41-2.49,11.14,11.14,0,0,1-1.3-3.42,17.57,17.57,0,0,1-.4-3.72,18.44,18.44,0,0,1,.4-3.85,11,11,0,0,1,1.3-3.41,7.15,7.15,0,0,1,2.41-2.45,7,7,0,0,1,3.68-.92,7.4,7.4,0,0,1,2.33.35,6.57,6.57,0,0,1,1.88,1,7.11,7.11,0,0,1,1.47,1.48,10.55,10.55,0,0,1,1.08,1.89h7v-6.18a.42.42,0,0,1,.47-.46H2307a.41.41,0,0,1,.46.46v29.51A.41.41,0,0,1,2307,356.51Zm-10-17.89a14.72,14.72,0,0,0-.32-3,10,10,0,0,0-1-2.74,5.8,5.8,0,0,0-1.72-2,4.81,4.81,0,0,0-5.19,0,5.56,5.56,0,0,0-1.67,2,9.58,9.58,0,0,0-.89,2.74,17.07,17.07,0,0,0-.27,3,18.83,18.83,0,0,0,.25,2.94,9.44,9.44,0,0,0,.88,2.75,5.57,5.57,0,0,0,1.68,2,4.25,4.25,0,0,0,2.64.8,4.14,4.14,0,0,0,2.57-.8,5.88,5.88,0,0,0,1.72-2,10.16,10.16,0,0,0,1-2.75A14.44,14.44,0,0,0,2297,338.62Zm2.34,0a14.94,14.94,0,0,1-.49,3.82h6.36v-7.82h-6.36A16.17,16.17,0,0,1,2299.31,338.66Z"/><path class="cls-3" d="M2342.28,342.88c.19,0,.32,0,.37.05a.42.42,0,0,1,.12.25l.13,1.05a.36.36,0,0,1-.05.3.64.64,0,0,1-.38.16q-2.67.38-5.95.6t-6.59.23h-6.86a.51.51,0,0,1-.35-.13.4.4,0,0,1-.15-.3v-1a.34.34,0,0,1,.15-.3.68.68,0,0,1,.35-.1h7.11c.47,0,.94,0,1.4,0v-2.24a11,11,0,0,1-2.45-.45,7.41,7.41,0,0,1-1.92-.89,4.08,4.08,0,0,1-1.25-1.27,3,3,0,0,1,.1-3.32,4.63,4.63,0,0,1,1.5-1.32,8.44,8.44,0,0,1,2.26-.84,12.74,12.74,0,0,1,2.85-.29,12.24,12.24,0,0,1,2.84.31,8.47,8.47,0,0,1,2.28.86,4.41,4.41,0,0,1,1.5,1.32,2.89,2.89,0,0,1,.54,1.7,2.92,2.92,0,0,1-.44,1.58,4.27,4.27,0,0,1-1.24,1.27,7.12,7.12,0,0,1-1.9.89,10.9,10.9,0,0,1-2.39.45v2.18c1.41-.07,2.8-.16,4.17-.28S2340.82,343.06,2342.28,342.88Zm-1.09-11h-16.9a.45.45,0,0,1-.31-.13.43.43,0,0,1-.15-.33v-1a.43.43,0,0,1,.15-.33.5.5,0,0,1,.31-.13h16.9c.33,0,.49.15.49.43v1C2341.68,331.78,2341.52,331.92,2341.19,331.92Zm-14.33,15.94a.7.7,0,0,1,.33-.1h16.87a2.65,2.65,0,0,1,2,.58,3.05,3.05,0,0,1,.48,1.93v6.11a.42.42,0,0,1-.47.46h-1.35a.41.41,0,0,1-.46-.46v-5.94c0-.31-.05-.5-.15-.58a1,1,0,0,0-.61-.12h-16.34a.54.54,0,0,1-.33-.11.33.33,0,0,1-.16-.28v-1.19A.33.33,0,0,1,2326.86,347.86Zm10.73-10.62a1.94,1.94,0,0,0-1.39-1.77,8.74,8.74,0,0,0-3.53-.61,12,12,0,0,0-2,.15,6.68,6.68,0,0,0-1.57.44,3,3,0,0,0-1,.75,1.55,1.55,0,0,0-.38,1,1.5,1.5,0,0,0,.38,1,3.12,3.12,0,0,0,1,.76,6.19,6.19,0,0,0,1.57.48,10.92,10.92,0,0,0,2,.17,8.37,8.37,0,0,0,3.53-.65A2,2,0,0,0,2337.59,337.24Zm-1.22-8.75h-7.72a.56.56,0,0,1-.32-.11.39.39,0,0,1-.15-.32v-1a.45.45,0,0,1,.14-.33.37.37,0,0,1,.29-.13h7.76c.33,0,.49.15.49.46v1C2336.86,328.34,2336.7,328.49,2336.37,328.49Zm9.73,17.62h-1.35a.4.4,0,0,1-.46-.46V326.54a.41.41,0,0,1,.46-.46h1.35a.42.42,0,0,1,.47.46v10.2h4.55a.55.55,0,0,1,.35.12.35.35,0,0,1,.14.31v1.12a.39.39,0,0,1-.14.3.51.51,0,0,1-.35.13h-4.55v6.93A.41.41,0,0,1,2346.1,346.11Z"/><path class="cls-3" d="M2369.7,346.31a.46.46,0,0,1-.43.56,33.47,33.47,0,0,1-5.31.81,56.63,56.63,0,0,1-6.14.18,2.6,2.6,0,0,1-2-.69,3.2,3.2,0,0,1-.55-2.05v-14a2.42,2.42,0,0,1,.53-1.84,3.07,3.07,0,0,1,2-.47h9c.29,0,.43.14.43.4v1.19c0,.26-.14.39-.43.39h-8.61c-.31,0-.49,0-.56.12a1.09,1.09,0,0,0-.1.61V345a1,1,0,0,0,.17.66,1,1,0,0,0,.62.2,51.15,51.15,0,0,0,5.45-.1,38.32,38.32,0,0,0,5.15-.76c.35-.07.56.05.62.36Zm3.76-7.75h4.19v-12a.41.41,0,0,1,.46-.46h1.26a.41.41,0,0,1,.46.46v29.51a.41.41,0,0,1-.46.46h-1.26a.41.41,0,0,1-.46-.46V340.54h-4.19v14.25a.4.4,0,0,1-.46.46h-1.26a.41.41,0,0,1-.46-.46V327.11a.42.42,0,0,1,.46-.47H2373a.41.41,0,0,1,.46.47Z"/><path class="cls-3" d="M2415.34,352.71c.17.18.25.28.23.3a1.24,1.24,0,0,1-.4,0h-2.46a1,1,0,0,1-.31-.28l-2.31-2.48a9.62,9.62,0,0,1-7.49,3.27,9,9,0,0,1-5.54-1.65,6.19,6.19,0,0,1-2.45-5.18q0-4.92,5.81-7.13c-.57-.64-1-1.17-1.39-1.6a12.19,12.19,0,0,1-.79-1.07,6.46,6.46,0,0,1-1-3.37,4.73,4.73,0,0,1,2.11-4,7.1,7.1,0,0,1,2-1,8,8,0,0,1,2.4-.36,6.47,6.47,0,0,1,4,1.22,4.74,4.74,0,0,1,1.78,3.83,5.25,5.25,0,0,1-1.88,4.22v0a11.36,11.36,0,0,1-1.55,1.1c-.66.41-1.5.87-2.51,1.37q1.68,1.85,3.25,3.6c1,1.17,2.12,2.36,3.22,3.6a10.87,10.87,0,0,0,1.56-3.19,14.14,14.14,0,0,0,.58-3.78c0-.24,0-.38.07-.43s.18-.06.43-.06h1.05a.92.92,0,0,1,.46.06c.05.05.07.19.07.43a16.06,16.06,0,0,1-.72,4.29,15.29,15.29,0,0,1-2,4.1Zm-13.73-11.78a8.17,8.17,0,0,0-3.2,2.15,5,5,0,0,0-1.45,3.53,4.73,4.73,0,0,0,1.74,3.76,6.35,6.35,0,0,0,4,1.29,6.65,6.65,0,0,0,1.69-.22,8.7,8.7,0,0,0,3.15-1.5,7.58,7.58,0,0,0,1.24-1.15Zm5.51-7.29a3.57,3.57,0,0,0-1-2.64,3.44,3.44,0,0,0-2.54-.89,5,5,0,0,0-1.53.23,3.93,3.93,0,0,0-1.27.66,3.41,3.41,0,0,0-1.26,2.67,4.73,4.73,0,0,0,.8,2.3,19.26,19.26,0,0,0,2,2.72c.8-.38,1.47-.72,2-1a6.4,6.4,0,0,0,1.21-.8A4.16,4.16,0,0,0,2407.12,333.64Z"/><path class="cls-3" d="M2430.71,347.43a.7.7,0,0,1,.33-.1H2440V343.7h-12.84a.51.51,0,0,1-.35-.13.37.37,0,0,1-.14-.29v-1.13a.37.37,0,0,1,.14-.31.55.55,0,0,1,.35-.12h28a.56.56,0,0,1,.33.12.36.36,0,0,1,.16.31v1.13a.36.36,0,0,1-.16.29.51.51,0,0,1-.33.13h-12.94v3.63h6.31a2.65,2.65,0,0,1,2,.58,3.05,3.05,0,0,1,.48,1.93v6.54a.42.42,0,0,1-.47.46h-1.35a.41.41,0,0,1-.46-.46V350c0-.31-.05-.5-.15-.58a1,1,0,0,0-.61-.12h-17a.54.54,0,0,1-.33-.11.33.33,0,0,1-.16-.28v-1.19A.33.33,0,0,1,2430.71,347.43Zm17.66-14.15a16.07,16.07,0,0,1-1.93,1.25c-.72.4-1.49.78-2.33,1.16,1.23.35,2.57.67,4,1s2.79.53,4.09.71a.31.31,0,0,1,.29.49l-.29,1.13c-.07.24-.25.33-.53.26-.7-.11-1.49-.25-2.36-.41s-1.77-.36-2.69-.58l-2.77-.68c-.93-.23-1.81-.46-2.64-.71a45.57,45.57,0,0,1-4.9,1.54q-2.62.68-5.5,1.17c-.33.07-.54,0-.62-.23l-.4-1.12a.36.36,0,0,1,0-.32.55.55,0,0,1,.3-.21c1.61-.31,3.1-.64,4.49-1s2.7-.73,3.94-1.12,2.43-.82,3.55-1.27,2.23-.94,3.33-1.47c.38-.18.55-.34.51-.5s-.22-.23-.57-.23h-13.14a.38.38,0,0,1-.43-.43v-1.15c0-.27.15-.4.43-.4h14.26c1.71,0,2.76.3,3.13.91S2449.58,332.4,2448.37,333.28Zm-2.54-6.74v1.06a.44.44,0,0,1-.5.5h-8.68a.44.44,0,0,1-.49-.5v-1.06c0-.3.16-.46.49-.46h8.68C2445.66,326.08,2445.83,326.24,2445.83,326.54Z"/><path class="cls-3" d="M2473.09,341.15a.53.53,0,0,1,.13.34v7.82h13a.56.56,0,0,1,.33.12.36.36,0,0,1,.16.31v1.13a.35.35,0,0,1-.16.29.51.51,0,0,1-.33.13h-28a.51.51,0,0,1-.35-.13.35.35,0,0,1-.14-.29v-1.13a.37.37,0,0,1,.14-.31.55.55,0,0,1,.35-.12h12.77v-7.82a.52.52,0,0,1,.12-.34.36.36,0,0,1,.31-.15h1.42A.4.4,0,0,1,2473.09,341.15Zm.26-13c0,.29-.09.57-.13.86a6.53,6.53,0,0,1-.2.85,4.78,4.78,0,0,0,.17.7,2.42,2.42,0,0,0,.23.56,15,15,0,0,0,1.93,2.95,17.44,17.44,0,0,0,2.52,2.49,18.07,18.07,0,0,0,6.27,3.3.41.41,0,0,1,.26.27.45.45,0,0,1,0,.36l-.52,1.12a1.23,1.23,0,0,1-.22.27c-.07.06-.22.05-.44,0a22.68,22.68,0,0,1-6.62-3.66,18.84,18.84,0,0,1-4.67-5.44,19,19,0,0,1-4.36,5.62,19.83,19.83,0,0,1-6.4,3.88c-.35.13-.57.09-.66-.13l-.59-1.16a.5.5,0,0,1,0-.34.46.46,0,0,1,.25-.28,18.9,18.9,0,0,0,7.44-5,14.16,14.16,0,0,0,3.48-7.41.39.39,0,0,1,.43-.4l1.49.17A.38.38,0,0,1,2473.35,328.13Z"/><path class="cls-3" d="M2504.44,330.93a20.66,20.66,0,0,1-1.13,5.58,22,22,0,0,1-2.65,5.23,25.67,25.67,0,0,1-4.09,4.62,28.09,28.09,0,0,1-5.43,3.75c-.29.15-.5.12-.63-.1l-.73-1.16c-.15-.26-.11-.45.14-.56a26,26,0,0,0,5-3.31,22.62,22.62,0,0,0,3.7-4.05,20,20,0,0,0,2.42-4.58,19.32,19.32,0,0,0,1.13-5c0-.33,0-.56-.14-.68a1,1,0,0,0-.66-.18H2491.1c-.26,0-.39-.14-.39-.43V329a.34.34,0,0,1,.39-.39H2502a2.68,2.68,0,0,1,2.05.58A2.5,2.5,0,0,1,2504.44,330.93Zm8.21,25.58h-1.35a.41.41,0,0,1-.46-.46V326.54a.41.41,0,0,1,.46-.46h1.35a.41.41,0,0,1,.46.46v11.69h4.56a.61.61,0,0,1,.35.11.4.4,0,0,1,.14.32v1.12a.38.38,0,0,1-.14.29.52.52,0,0,1-.35.14h-4.56v15.84A.41.41,0,0,1,2512.65,356.51Z"/><path class="cls-3" d="M2544.69,330.93a20.27,20.27,0,0,1-1.12,5.58,22,22,0,0,1-2.65,5.23,25.36,25.36,0,0,1-4.1,4.62,27.71,27.71,0,0,1-5.42,3.75c-.29.15-.5.12-.63-.1l-.73-1.16c-.15-.26-.11-.45.14-.56a26,26,0,0,0,5-3.31,22.62,22.62,0,0,0,3.7-4.05,20,20,0,0,0,2.42-4.58,19.32,19.32,0,0,0,1.13-5c0-.33,0-.56-.14-.68a1,1,0,0,0-.66-.18h-10.23c-.26,0-.39-.14-.39-.43V329a.34.34,0,0,1,.39-.39h10.86a2.68,2.68,0,0,1,2.05.58A2.45,2.45,0,0,1,2544.69,330.93Zm8.22,25.58h-1.35a.41.41,0,0,1-.46-.46V326.54a.41.41,0,0,1,.46-.46h1.35a.41.41,0,0,1,.46.46v11.69h4.56a.61.61,0,0,1,.35.11.4.4,0,0,1,.14.32v1.12a.38.38,0,0,1-.14.29.52.52,0,0,1-.35.14h-4.56v15.84A.41.41,0,0,1,2552.91,356.51Z"/><path class="cls-3" d="M2588.85,341a.35.35,0,0,1,.16.31v1.12a.38.38,0,0,1-.16.3.51.51,0,0,1-.33.13h-28.05a.51.51,0,0,1-.35-.13.4.4,0,0,1-.15-.3v-1.12a.36.36,0,0,1,.15-.31.55.55,0,0,1,.35-.12h28.05A.56.56,0,0,1,2588.85,341Zm-4.13,10a3.82,3.82,0,0,1-.49,2,5.27,5.27,0,0,1-1.32,1.48,7.44,7.44,0,0,1-1.9,1.07,12.85,12.85,0,0,1-2.21.68,18,18,0,0,1-2.28.36,18.09,18.09,0,0,1-4.16,0,18.13,18.13,0,0,1-2.27-.36,12.85,12.85,0,0,1-2.21-.68,7.44,7.44,0,0,1-1.9-1.07,5.27,5.27,0,0,1-1.32-1.48,3.82,3.82,0,0,1-.5-2,3.75,3.75,0,0,1,.5-1.93,5.11,5.11,0,0,1,1.32-1.47,8.42,8.42,0,0,1,1.9-1.05,13.83,13.83,0,0,1,2.21-.69,16.41,16.41,0,0,1,2.26-.38,19.66,19.66,0,0,1,2.08-.12,20,20,0,0,1,2.09.12,18.59,18.59,0,0,1,2.3.36,12.59,12.59,0,0,1,2.21.68,7.94,7.94,0,0,1,1.88,1.05,4.93,4.93,0,0,1,1.32,1.49A3.81,3.81,0,0,1,2584.72,351.06Zm.07-13.72a.68.68,0,0,1-.33.09h-17.13a2.46,2.46,0,0,1-2-.64,3.35,3.35,0,0,1-.48-2v-7.88a.41.41,0,0,1,.47-.46h1.35a.4.4,0,0,1,.46.46v7.82a.8.8,0,0,0,.15.59,1,1,0,0,0,.61.13h16.6a.56.56,0,0,1,.33.12.33.33,0,0,1,.16.28V337A.33.33,0,0,1,2584.79,337.34Zm-2.47,13.76a2.27,2.27,0,0,0-.9-1.85,6.71,6.71,0,0,0-2.16-1.14,13.47,13.47,0,0,0-2.61-.56,16.8,16.8,0,0,0-4.48,0,13,13,0,0,0-2.58.56,7,7,0,0,0-2.13,1.14,2.29,2.29,0,0,0-.89,1.85,2.26,2.26,0,0,0,.89,1.83,6.71,6.71,0,0,0,2.13,1.1,13,13,0,0,0,2.58.55,16.8,16.8,0,0,0,4.48,0,13.46,13.46,0,0,0,2.61-.55,6.46,6.46,0,0,0,2.16-1.1A2.24,2.24,0,0,0,2582.32,351.1Z"/><path class="cls-3" d="M2610.27,332.12h-18.22a.43.43,0,0,1-.31-.13.43.43,0,0,1-.15-.33V330.6a.43.43,0,0,1,.15-.33.48.48,0,0,1,.31-.13h18.22c.33,0,.49.15.49.43v1.12C2610.76,332,2610.6,332.12,2610.27,332.12Zm-2.05,6.5a4.07,4.07,0,0,1-.55,2.08,5.16,5.16,0,0,1-1.48,1.65,7.06,7.06,0,0,1-2.24,1.07,9.83,9.83,0,0,1-2.83.38,9.69,9.69,0,0,1-2.83-.38,7.33,7.33,0,0,1-2.25-1.07,4.93,4.93,0,0,1-1.48-1.65,4.35,4.35,0,0,1,0-4.16,4.87,4.87,0,0,1,1.48-1.63,7.8,7.8,0,0,1,2.25-1.06,10,10,0,0,1,2.83-.38,10.19,10.19,0,0,1,2.83.38,7.07,7.07,0,0,1,2.24,1.08,5.2,5.2,0,0,1,1.48,1.63A4,4,0,0,1,2608.22,338.62Zm-2.77-10.26h-9a.48.48,0,0,1-.31-.12.36.36,0,0,1-.15-.31v-1.12a.49.49,0,0,1,.13-.33.41.41,0,0,1,.3-.13h9.08c.33,0,.49.15.49.46v1.09C2605.94,328.21,2605.78,328.36,2605.45,328.36Zm.56,10.26a2.64,2.64,0,0,0-1.39-2.39,6.65,6.65,0,0,0-3.5-.84,8.42,8.42,0,0,0-1.94.21,5.46,5.46,0,0,0-1.55.63,3.25,3.25,0,0,0-1,1,2.42,2.42,0,0,0-.38,1.38,2.46,2.46,0,0,0,.38,1.37,3.2,3.2,0,0,0,1,1,5.78,5.78,0,0,0,1.55.64,7.88,7.88,0,0,0,1.94.23,6.46,6.46,0,0,0,3.5-.87A2.71,2.71,0,0,0,2606,338.62Zm-7,17.62a7.07,7.07,0,0,1-1.27-.09,1.48,1.48,0,0,1-.75-.38,1.52,1.52,0,0,1-.36-.73,5.18,5.18,0,0,1-.1-1.14v-8.48a.29.29,0,0,1,.13-.26.47.47,0,0,1,.3-.1h1.45a.41.41,0,0,1,.28.11.35.35,0,0,1,.12.25v3h14.29v-3a.43.43,0,0,1,.11-.3.35.35,0,0,1,.28-.13H2615a.48.48,0,0,1,.3.11.35.35,0,0,1,.13.28v8.68a2.13,2.13,0,0,1-.52,1.69,3.39,3.39,0,0,1-2,.42Zm-.2-5.8v3a.91.91,0,0,0,.16.65,1,1,0,0,0,.63.14h12.7a1,1,0,0,0,.63-.14.9.9,0,0,0,.17-.65v-3Zm16.1-7.16h-1.35a.41.41,0,0,1-.46-.47V326.54a.41.41,0,0,1,.46-.46H2615a.41.41,0,0,1,.46.46v7.63H2620a.58.58,0,0,1,.34.11.38.38,0,0,1,.15.32v1.12a.4.4,0,0,1-.15.3.53.53,0,0,1-.34.13h-4.56v6.66A.41.41,0,0,1,2615,343.28Z"/><path class="cls-3" d="M2627.72,345.12a1,1,0,0,0,.63.2c1.08.05,2.23.05,3.45,0s2.44-.1,3.68-.2,2.43-.22,3.61-.38,2.27-.33,3.28-.53c.38-.08.6,0,.66.4l.17.92c.07.31-.08.51-.43.6-.75.17-1.71.34-2.89.49s-2.45.29-3.81.41-2.76.21-4.19.27-2.76.07-4,.05a2.63,2.63,0,0,1-2-.7,3.13,3.13,0,0,1-.56-2V328.39a.4.4,0,0,1,.46-.46h1.35a.41.41,0,0,1,.47.46v16.07A1,1,0,0,0,2627.72,345.12Zm19.41,11.39h-1.36a.41.41,0,0,1-.46-.46V326.54a.41.41,0,0,1,.46-.46h1.36a.41.41,0,0,1,.46.46v29.51A.41.41,0,0,1,2647.13,356.51Z"/><path class="cls-3" d="M2672.77,345.85c0,.31-.1.49-.43.56a31.2,31.2,0,0,1-3.09.56c-1.24.18-2.55.33-3.93.46s-2.73.23-4.07.3-2.51.09-3.5.07a2.64,2.64,0,0,1-2-.7,3.19,3.19,0,0,1-.54-2V330.87a2.4,2.4,0,0,1,.53-1.85,3.08,3.08,0,0,1,2-.46H2669c.28,0,.43.13.43.39v1.19c0,.27-.15.4-.43.4h-10.93a.91.91,0,0,0-.56.11,1.19,1.19,0,0,0-.1.61v13.63a1,1,0,0,0,.17.66,1,1,0,0,0,.63.2c1.05,0,2.17,0,3.35,0s2.36-.14,3.56-.26,2.38-.26,3.53-.43,2.25-.35,3.28-.54q.54-.11.63.36Zm4.22,10.66h-1.35a.41.41,0,0,1-.46-.46V326.54a.41.41,0,0,1,.46-.46H2677a.41.41,0,0,1,.46.46v12H2682a.58.58,0,0,1,.34.11.38.38,0,0,1,.15.32v1.12a.36.36,0,0,1-.15.29.49.49,0,0,1-.34.14h-4.56v15.51A.41.41,0,0,1,2677,356.51Z"/><path class="cls-3" d="M2686.63,353.21a1.59,1.59,0,0,1,.48-1.17,1.56,1.56,0,0,1,1.17-.48,1.65,1.65,0,1,1,0,3.3,1.56,1.56,0,0,1-1.17-.48A1.59,1.59,0,0,1,2686.63,353.21Z"/><g id="Layer_2-2" data-name="Layer 2"><g id="Layer_1-2" data-name="Layer 1-2"><path id="Line-18" class="cls-6" d="M1373.3,154.43l116.48,321.11"/></g></g></g></g></svg>