<svg xmlns="http://www.w3.org/2000/svg" viewBox="0 0 612 310"><defs><style>.cls-1,.cls-3{fill:none;}.cls-1{stroke:#fff;stroke-width:2px;}.cls-2{fill:#fff;}</style></defs><g id="Layer_2" data-name="Layer 2"><g id="Layer_2_copy_5" data-name="Layer 2 copy 5"><g id="Layer_1-2" data-name="Layer 1-2"><g id="Group"><path id="Oval-8" class="cls-1" d="M157.46,177.81c-24.92-1.75-50.32,17.32-52.2,44.13"/><path id="Rectangle-18" class="cls-1" d="M95.59,221.41l7.11,12.3,12.3-7.1"/></g><rect id="Rectangle-29" class="cls-1" x="75.14" y="120.76" width="103.95" height="172.81"/><rect id="Rectangle-29-2" class="cls-1" x="68.51" y="109.51" width="117.19" height="195.31" rx="5.3"/></g><g id="Layer_1-2-2" data-name="Layer 1-2"><rect id="Rectangle-29-2-2" data-name="Rectangle-29" class="cls-1" x="423.35" y="120.76" width="103.95" height="172.81"/><rect id="Rectangle-29-2-3" data-name="Rectangle-29-2" class="cls-1" x="416.73" y="109.51" width="117.19" height="195.31" rx="5.3"/></g><polyline class="cls-1" points="457.37 236.47 445.35 236.47 445.35 224.45"/><line class="cls-1" x1="451.98" y1="229.84" x2="467.13" y2="214.68"/><polyline class="cls-1" points="493.28 177.85 505.3 177.85 505.3 189.87"/><line class="cls-1" x1="498.67" y1="184.48" x2="483.52" y2="199.64"/><path class="cls-2" d="M387.74,15.27a.24.24,0,0,1-.17.09h-6.39v5.39a.21.21,0,0,1-.24.24h-1.48a.21.21,0,0,1-.24-.24V15.36h-6.46a.21.21,0,0,1-.17-.09.41.41,0,0,1-.07-.18V14a.34.34,0,0,1,.07-.18.22.22,0,0,1,.17-.07h14.81a.27.27,0,0,1,.17.08.24.24,0,0,1,.08.17v1.11A.28.28,0,0,1,387.74,15.27Zm-2.17-3.34a.2.2,0,0,1-.14.06H376a1.21,1.21,0,0,1-.95-.31,1.35,1.35,0,0,1-.27-.91V6.44a1.08,1.08,0,0,1,.28-.88,1.56,1.56,0,0,1,.94-.23h9.26c.16,0,.24.07.24.22V6.74c0,.15-.08.22-.24.22h-8.22c-.21,0-.31.1-.31.29v2.81c0,.2.1.3.31.3h8.31a.35.35,0,0,1,.2,0c.05,0,.07.08.07.17v1.15A.28.28,0,0,1,385.57,11.93Z"/><path class="cls-2" d="M408.46,14.56a.24.24,0,0,1-.17.09H393.5a.23.23,0,0,1-.17-.08.29.29,0,0,1-.07-.18V13.25a.21.21,0,0,1,.24-.24h6.43V10.79c0-.17.08-.26.24-.26h1.39a.24.24,0,0,1,.18.07.25.25,0,0,1,.07.19V13h6.48a.27.27,0,0,1,.17.08.22.22,0,0,1,.09.16v1.14A.24.24,0,0,1,408.46,14.56Zm-12.9-3c-.25.08-.4.05-.46-.1l-.46-1.07a.31.31,0,0,1,0-.19.18.18,0,0,1,.15-.13,8.61,8.61,0,0,0,3.68-1.8,4.38,4.38,0,0,0,1.44-2.89.28.28,0,0,1,.32-.28l1.35.05c.16,0,.23.08.23.24s0,.24,0,.35a2.91,2.91,0,0,1,0,.31,4.2,4.2,0,0,0,.8,1.28,7.73,7.73,0,0,0,1.28,1.12,9.45,9.45,0,0,0,1.55.89,9.54,9.54,0,0,0,1.67.59.24.24,0,0,1,.15.13.23.23,0,0,1,0,.18l-.51,1c-.05.15-.18.21-.39.17a7,7,0,0,1-1.46-.43,10,10,0,0,1-1.49-.77,9.72,9.72,0,0,1-1.34-1,6.18,6.18,0,0,1-1-1.17,7.26,7.26,0,0,1-2.2,2.18A10,10,0,0,1,395.56,11.6Zm11,9.06a.28.28,0,0,1-.17.05H397a1.51,1.51,0,0,1-1-.27,1.34,1.34,0,0,1-.26-.93V16.09a.27.27,0,0,1,.08-.17.19.19,0,0,1,.16-.08h1.46a.22.22,0,0,1,.18.08.27.27,0,0,1,.08.17v2.72a.29.29,0,0,0,.06.22.42.42,0,0,0,.26,0h8.38a.29.29,0,0,1,.17.06.17.17,0,0,1,.08.15v1.22A.15.15,0,0,1,406.54,20.66Z"/><path class="cls-2" d="M417.9,7.52a11.63,11.63,0,0,1-.63,3,11.29,11.29,0,0,1-1.41,2.71,13.27,13.27,0,0,1-2.15,2.38,16,16,0,0,1-2.83,2,.51.51,0,0,1-.29.06.27.27,0,0,1-.22-.14l-.69-.84a.3.3,0,0,1-.05-.24.39.39,0,0,1,.16-.2,12.69,12.69,0,0,0,4.09-3.42,9.29,9.29,0,0,0,1.91-4.35c0-.23,0-.38,0-.45a.56.56,0,0,0-.4-.11h-4.8c-.15,0-.22-.08-.22-.24V6.45c0-.13.07-.2.22-.2h6.14a1.24,1.24,0,0,1,1,.31A1.41,1.41,0,0,1,417.9,7.52Zm6.8,5.22a.23.23,0,0,1-.17.07h-2.3v8.07c0,.15-.07.23-.22.23H420.5c-.15,0-.22-.08-.22-.23V5.19A.2.2,0,0,1,420.5,5H422a.2.2,0,0,1,.22.22v6h2.3a.27.27,0,0,1,.17.06.16.16,0,0,1,.08.14v1.19A.19.19,0,0,1,424.7,12.74Z"/><path class="cls-2" d="M435.44,13.28a.3.3,0,0,1-.15.09c-.54.1-1.12.19-1.75.27s-1.29.14-2,.19-1.34.08-2,.09-1.32,0-1.92,0a1.42,1.42,0,0,1-.9-.28,1.07,1.07,0,0,1-.24-.78V10a1,1,0,0,1,.23-.75,1.15,1.15,0,0,1,.78-.22h3.92a.5.5,0,0,0,.23,0,.45.45,0,0,0,0-.22V7.51c0-.13,0-.2,0-.22s-.1,0-.23,0h-4.62a.21.21,0,0,1-.16-.07.19.19,0,0,1-.08-.15V5.92a.19.19,0,0,1,.08-.14.25.25,0,0,1,.16-.06h5.68a1.22,1.22,0,0,1,.9.26,1.28,1.28,0,0,1,.24.86V9.39a1.13,1.13,0,0,1-.27.87,1.14,1.14,0,0,1-.8.24h-3.88a.32.32,0,0,0-.19,0,.28.28,0,0,0-.05.2v1.34c0,.19.1.29.31.29,1,0,2.1,0,3.21-.08a28.75,28.75,0,0,0,3.06-.35.37.37,0,0,1,.18,0,.15.15,0,0,1,.11.13l.17,1A.2.2,0,0,1,435.44,13.28ZM438.1,21a.21.21,0,0,1-.16.07h-1.46a.24.24,0,0,1-.18-.07.27.27,0,0,1-.08-.17v-3.5a.26.26,0,0,0-.07-.22.41.41,0,0,0-.23-.05h-7.69a.25.25,0,0,1-.17-.07.17.17,0,0,1-.08-.15V15.63a.15.15,0,0,1,.08-.15.28.28,0,0,1,.17-.05h8.82a1.2,1.2,0,0,1,.89.26,1.36,1.36,0,0,1,.24.91v4.23A.27.27,0,0,1,438.1,21Zm2.57-10.33a.28.28,0,0,1-.16.07h-2.32v3.62a.2.2,0,0,1-.22.22h-1.51c-.15,0-.22-.08-.22-.24V5.19a.2.2,0,0,1,.22-.22H438a.2.2,0,0,1,.22.22V9.1h2.32a.28.28,0,0,1,.16.07.21.21,0,0,1,.07.15v1.2A.21.21,0,0,1,440.67,10.67Z"/><path class="cls-2" d="M456.42,18.15a.29.29,0,0,1-.17.08H441.44a.23.23,0,0,1-.17-.08.27.27,0,0,1-.07-.17V16.86a.24.24,0,0,1,.07-.18.23.23,0,0,1,.17-.08h14.81a.26.26,0,0,1,.17.09.25.25,0,0,1,.08.17V18A.29.29,0,0,1,456.42,18.15Zm-7.57-4.35a8.21,8.21,0,0,1-2.21-.28,5.73,5.73,0,0,1-1.77-.78,4,4,0,0,1-1.17-1.22,3.26,3.26,0,0,1,0-3.2,4,4,0,0,1,1.17-1.22,5.73,5.73,0,0,1,1.77-.78,8.86,8.86,0,0,1,4.42,0,5.73,5.73,0,0,1,1.77.78A3.73,3.73,0,0,1,454,8.32a3.26,3.26,0,0,1,0,3.2,3.73,3.73,0,0,1-1.16,1.22,5.73,5.73,0,0,1-1.77.78A8.16,8.16,0,0,1,448.85,13.8Zm0-6.14a5.51,5.51,0,0,0-1.36.16,4,4,0,0,0-1.13.46,2.64,2.64,0,0,0-.77.71,1.64,1.64,0,0,0,0,1.86,2.45,2.45,0,0,0,.77.73,4,4,0,0,0,1.13.46,6,6,0,0,0,1.36.16,6,6,0,0,0,1.36-.16,4,4,0,0,0,1.13-.46,2.35,2.35,0,0,0,.77-.73,1.68,1.68,0,0,0,0-1.86,2.52,2.52,0,0,0-.77-.71,4,4,0,0,0-1.13-.46A5.45,5.45,0,0,0,448.85,7.66Z"/><path class="cls-2" d="M472.4,18.27a.29.29,0,0,1-.17.08H457.42a.21.21,0,0,1-.17-.08.27.27,0,0,1-.07-.17V17a.28.28,0,0,1,.07-.19.2.2,0,0,1,.17-.09h6.44V14.22h-3a3.32,3.32,0,0,1-.61-.05.72.72,0,0,1-.38-.19.65.65,0,0,1-.18-.35,2.1,2.1,0,0,1,0-.55V10.34a2.15,2.15,0,0,1,0-.55.66.66,0,0,1,.18-.34.79.79,0,0,1,.38-.17,3.44,3.44,0,0,1,.61,0h7.07c.11,0,.19,0,.21,0a.37.37,0,0,0,0-.23V7.64c0-.12,0-.19,0-.21a.43.43,0,0,0-.21,0h-8a.21.21,0,0,1-.15-.07.28.28,0,0,1-.07-.16V6a.26.26,0,0,1,.07-.16.24.24,0,0,1,.15-.06h8.95a1.43,1.43,0,0,1,1,.23,1.14,1.14,0,0,1,.26.89V9.68a1.14,1.14,0,0,1-.26.89,1.43,1.43,0,0,1-1,.23h-7.09a.39.39,0,0,0-.21,0,.38.38,0,0,0,0,.2v1.34c0,.13,0,.21,0,.23a.32.32,0,0,0,.21.05h8.44a.24.24,0,0,1,.15.06.19.19,0,0,1,.07.14V14a.19.19,0,0,1-.08.15.21.21,0,0,1-.14.07h-4.37v2.53h6.41a.28.28,0,0,1,.17.1.29.29,0,0,1,.08.18V18.1A.29.29,0,0,1,472.4,18.27Z"/><path class="cls-2" d="M488,12.57a.37.37,0,0,1-.18.1,12.27,12.27,0,0,1-1.6.29c-.62.08-1.27.15-1.95.2s-1.34.08-2,.1-1.28,0-1.84,0a1.57,1.57,0,0,1-.89-.29,1,1,0,0,1-.33-.85V6.79a1.11,1.11,0,0,1,.25-.83,1.26,1.26,0,0,1,.89-.24h6c.16,0,.24.07.24.22V7.11a.21.21,0,0,1-.24.23h-4.86a.27.27,0,0,0-.31.3v3.5a.5.5,0,0,0,.1.36.68.68,0,0,0,.41.1c.37,0,.79,0,1.26,0s1,0,1.51-.07,1.05-.08,1.58-.14,1-.14,1.49-.23a.44.44,0,0,1,.23,0,.21.21,0,0,1,.14.17l.19,1A.25.25,0,0,1,488,12.57Zm3,5.29a2.41,2.41,0,0,1-.38,1.32,3.34,3.34,0,0,1-1.05,1,5.77,5.77,0,0,1-1.61.66,8.11,8.11,0,0,1-2,.24,8.42,8.42,0,0,1-2.1-.24,5.33,5.33,0,0,1-1.58-.66,3.27,3.27,0,0,1-1-1,2.61,2.61,0,0,1-.34-1.33,2.56,2.56,0,0,1,.34-1.31,3.07,3.07,0,0,1,1-1,5.33,5.33,0,0,1,1.58-.66,8.42,8.42,0,0,1,2.1-.24,8.61,8.61,0,0,1,2,.23,5.48,5.48,0,0,1,1.61.65,3.42,3.42,0,0,1,1.05,1A2.37,2.37,0,0,1,491,17.86Zm-2,.05a1.19,1.19,0,0,0-.25-.75,2,2,0,0,0-.66-.54,3.32,3.32,0,0,0-1-.33,5.53,5.53,0,0,0-1.17-.11,4.6,4.6,0,0,0-2.2.44,1.39,1.39,0,0,0-.83,1.29,1.22,1.22,0,0,0,.22.71,1.61,1.61,0,0,0,.63.51,3.86,3.86,0,0,0,1,.32,6.59,6.59,0,0,0,1.22.11,6.28,6.28,0,0,0,1.17-.11,4,4,0,0,0,1-.32,1.72,1.72,0,0,0,.66-.51A1.06,1.06,0,0,0,489,17.91Zm4.33-7.29a.31.31,0,0,1-.17.07h-2.31v3.45a.23.23,0,0,1-.07.16.18.18,0,0,1-.15.07h-1.51a.21.21,0,0,1-.16-.07.28.28,0,0,1-.06-.18V5.19a.2.2,0,0,1,.22-.22h1.51a.2.2,0,0,1,.22.22V9.05h2.31a.31.31,0,0,1,.17.07.21.21,0,0,1,.07.15v1.19A.21.21,0,0,1,493.37,10.62Z"/><path class="cls-2" d="M503,7.52a12,12,0,0,1-.69,3.11,11.33,11.33,0,0,1-1.47,2.72,13.07,13.07,0,0,1-2.15,2.33,18.42,18.42,0,0,1-2.73,2,.51.51,0,0,1-.3.06.36.36,0,0,1-.25-.16l-.58-.84a.3.3,0,0,1-.05-.24.31.31,0,0,1,.16-.18A14.21,14.21,0,0,0,499,12.76a10.23,10.23,0,0,0,2-4.32q.07-.34,0-.45a.62.62,0,0,0-.43-.11h-4.79a.21.21,0,0,1-.24-.24V6.45c0-.13.08-.2.24-.2h6.08c.52,0,.85.1,1,.31A1.41,1.41,0,0,1,503,7.52Zm4.58,13.36c0,.15-.07.23-.22.23h-1.51c-.15,0-.22-.08-.22-.23V5.19a.2.2,0,0,1,.22-.22h1.51a.2.2,0,0,1,.22.22Z"/><path class="cls-2" d="M518.55,7.52a11.57,11.57,0,0,1-2.07,5.83,15.19,15.19,0,0,1-4.8,4.29.51.51,0,0,1-.3.06.34.34,0,0,1-.24-.16l-.6-.84a.3.3,0,0,1-.05-.24.27.27,0,0,1,.17-.18,13.42,13.42,0,0,0,4-3.52,10.55,10.55,0,0,0,1.89-4.32c.06-.23.05-.38,0-.45a.62.62,0,0,0-.42-.11h-4.72a.21.21,0,0,1-.23-.24V6.45c0-.13.08-.2.23-.2h6a1.24,1.24,0,0,1,1,.31A1.35,1.35,0,0,1,518.55,7.52Zm4.9,13.59H522a.21.21,0,0,1-.24-.23V12.5h-3.13a.27.27,0,0,1-.16-.06.16.16,0,0,1-.07-.14V11.09a.17.17,0,0,1,.07-.14.27.27,0,0,1,.16-.06h3.13V5.19c0-.14.08-.22.24-.22h1.5a.2.2,0,0,1,.23.22V20.88A.21.21,0,0,1,523.45,21.11Z"/><path class="cls-2" d="M536.06,15.44a.42.42,0,0,1-.24.14c-.42.11-1,.22-1.6.33s-1.32.2-2,.28-1.39.14-2.07.16a13.55,13.55,0,0,1-1.72,0,1.47,1.47,0,0,1-.95-.39,1.28,1.28,0,0,1-.29-.9V6.2a.28.28,0,0,1,.24-.24h1.46a.22.22,0,0,1,.18.08.21.21,0,0,1,.07.16v8.19c0,.11,0,.19.07.21a.59.59,0,0,0,.24.06,10.2,10.2,0,0,0,1.38,0c.52,0,1.05-.06,1.6-.12s1.1-.14,1.63-.24,1-.2,1.51-.31a.23.23,0,0,1,.26.06.52.52,0,0,1,.11.19l.19,1A.22.22,0,0,1,536.06,15.44Zm5.24-2.68a.26.26,0,0,1-.16.07h-2.31v8c0,.15-.07.23-.22.23H537.1c-.15,0-.22-.08-.22-.23V5.19A.2.2,0,0,1,537.1,5h1.51a.2.2,0,0,1,.22.22v6h2.31a.25.25,0,0,1,.16.06.19.19,0,0,1,.08.15v1.19A.23.23,0,0,1,541.3,12.76Z"/><path class="cls-2" d="M555.19,12.51a1.24,1.24,0,0,1-.91.27h-5.13a1.28,1.28,0,0,1-.89-.27,1.19,1.19,0,0,1-.28-.91V6.67a1.21,1.21,0,0,1,.26-.9,1.29,1.29,0,0,1,.91-.25h5.13a1.24,1.24,0,0,1,.91.26,1.25,1.25,0,0,1,.27.91V11.6A1.24,1.24,0,0,1,555.19,12.51ZM553.55,7.3a.26.26,0,0,0,0-.18.34.34,0,0,0-.18,0H550.1a.36.36,0,0,0-.18,0s0,.08,0,.18V11c0,.1,0,.17,0,.19a.36.36,0,0,0,.18,0h3.23a.36.36,0,0,0,.18,0s0-.09,0-.19ZM560.48,21a.21.21,0,0,1-.15.07h-9a1.25,1.25,0,0,1-.91-.25,1.1,1.1,0,0,1-.25-.8V18a1.07,1.07,0,0,1,.24-.78,1.28,1.28,0,0,1,.9-.24H558c.1,0,.16,0,.18-.05a.4.4,0,0,0,0-.2v-.6a.49.49,0,0,0,0-.23s-.09,0-.2,0h-7.63a.29.29,0,0,1-.17-.06.18.18,0,0,1-.07-.15V14.49a.23.23,0,0,1,.07-.16.27.27,0,0,1,.17-.08H559a1.33,1.33,0,0,1,.93.24,1.13,1.13,0,0,1,.24.82v2a1.1,1.1,0,0,1-.24.82,1.46,1.46,0,0,1-.93.22h-6.67c-.1,0-.16,0-.18,0a.26.26,0,0,0,0,.18v.69c0,.11,0,.17,0,.18a.38.38,0,0,0,.2,0h8a.23.23,0,0,1,.16.07.21.21,0,0,1,.08.17v1.08A.27.27,0,0,1,560.48,21Zm-.59-7.51H558.4a.21.21,0,0,1-.16-.07.19.19,0,0,1-.08-.17V5.19a.19.19,0,0,1,.08-.15A.26.26,0,0,1,558.4,5h1.49c.16,0,.24.08.24.22v8.06A.21.21,0,0,1,559.89,13.49Z"/><path class="cls-2" d="M567.73,17.21A3.66,3.66,0,0,1,566,16.8a3.83,3.83,0,0,1-1.31-1.16,5.53,5.53,0,0,1-.83-1.78,8.55,8.55,0,0,1-.29-2.27,8.82,8.82,0,0,1,.29-2.32,5.42,5.42,0,0,1,.83-1.76A3.55,3.55,0,0,1,566,6.38a3.66,3.66,0,0,1,1.74-.4,3.78,3.78,0,0,1,1.63.34,3.6,3.6,0,0,1,1.27,1,5,5,0,0,1,.86,1.5,7.4,7.4,0,0,1,.4,2h2.54V5.19a.2.2,0,0,1,.22-.22h1.51a.2.2,0,0,1,.22.22V20.88c0,.15-.07.23-.22.23h-1.51c-.15,0-.22-.08-.22-.23v-8.5h-2.54a7.46,7.46,0,0,1-.4,2,5.07,5.07,0,0,1-.86,1.52,3.62,3.62,0,0,1-1.27,1A3.78,3.78,0,0,1,567.73,17.21ZM570,11.59a6.48,6.48,0,0,0-.16-1.49,4.56,4.56,0,0,0-.44-1.23A2.5,2.5,0,0,0,568.7,8a1.6,1.6,0,0,0-1-.31,1.5,1.5,0,0,0-.94.31,2.5,2.5,0,0,0-.71.85,4.56,4.56,0,0,0-.44,1.23,7.38,7.38,0,0,0,0,3,4.76,4.76,0,0,0,.44,1.24,2.75,2.75,0,0,0,.71.86,1.51,1.51,0,0,0,.94.32,1.61,1.61,0,0,0,1-.32,2.75,2.75,0,0,0,.71-.86,4.76,4.76,0,0,0,.44-1.24A6.43,6.43,0,0,0,570,11.59Z"/><path class="cls-2" d="M394.23,48.08c.65,0,1.32,0,2,.05l2.09,0v-.85a4,4,0,0,1-2-.75,1.74,1.74,0,0,1-.74-1.41,1.64,1.64,0,0,1,.26-.88,2.44,2.44,0,0,1,.75-.71,3.71,3.71,0,0,1,1.16-.48,6.19,6.19,0,0,1,1.5-.17,6.34,6.34,0,0,1,1.51.17,3.62,3.62,0,0,1,1.16.48,2.4,2.4,0,0,1,.74.71,1.64,1.64,0,0,1,.26.88,1.75,1.75,0,0,1-.71,1.37,3.91,3.91,0,0,1-1.94.77V48c.65,0,1.27-.05,1.88-.1s1.19-.1,1.76-.17a.39.39,0,0,1,.18,0,.17.17,0,0,1,.11.15l.08,1a.23.23,0,0,1-.05.2.24.24,0,0,1-.15.09c-.78.09-1.61.17-2.48.23s-1.72.11-2.58.15l-2.51.06c-.81,0-1.57,0-2.26,0a.23.23,0,0,1-.17-.08.29.29,0,0,1-.07-.18v-1A.21.21,0,0,1,394.23,48.08Zm9.28-5.78a.23.23,0,0,1-.18.09h-8.49a.26.26,0,0,1-.17-.09.34.34,0,0,1-.08-.2v-.83a.22.22,0,0,1,.09-.17.28.28,0,0,1,.18-.09h8.47a.25.25,0,0,1,.18.08.24.24,0,0,1,.07.18v.85A.24.24,0,0,1,403.51,42.3Zm3.23,12.75a.25.25,0,0,1-.17.07h-1.46a.26.26,0,0,1-.18-.07.23.23,0,0,1-.07-.17v-2.6a.3.3,0,0,0-.07-.22.51.51,0,0,0-.26-.05h-8.24a.21.21,0,0,1-.16-.07.19.19,0,0,1-.08-.15V50.65a.16.16,0,0,1,.08-.15.24.24,0,0,1,.16,0h9.4a1.17,1.17,0,0,1,.88.26,1.36,1.36,0,0,1,.24.91v3.26A.23.23,0,0,1,406.74,55.05ZM401.4,40.33a.26.26,0,0,1-.21.09H397a.32.32,0,0,1-.17-.07.24.24,0,0,1-.1-.19V39.3a.23.23,0,0,1,.1-.19A.32.32,0,0,1,397,39h4.19a.28.28,0,0,1,.2.09.23.23,0,0,1,.08.18v.84A.26.26,0,0,1,401.4,40.33Zm-2.17,3.84a2.56,2.56,0,0,0-1.28.28.75.75,0,0,0-.47.64c0,.24.15.45.47.64a3.07,3.07,0,0,0,2.56,0c.32-.19.47-.4.47-.64a.75.75,0,0,0-.47-.64A2.56,2.56,0,0,0,399.23,44.17Zm9.95,1.74A.26.26,0,0,1,409,46H406.8v3.46a.21.21,0,0,1-.23.23h-1.51c-.15,0-.22-.08-.22-.23V39.19a.2.2,0,0,1,.22-.22h1.51a.2.2,0,0,1,.23.22v5.15H409a.25.25,0,0,1,.16.06.17.17,0,0,1,.08.15v1.21A.19.19,0,0,1,409.18,45.91Z"/><path class="cls-2" d="M418,50l-.18.1a11,11,0,0,1-1.34.26c-.51.07-1.05.13-1.61.18s-1.12.08-1.68.09a14.15,14.15,0,0,1-1.48,0,1.64,1.64,0,0,1-.92-.29,1,1,0,0,1-.32-.85v-8a1.17,1.17,0,0,1,.25-.84,1.32,1.32,0,0,1,.89-.23h4.93a.21.21,0,0,1,.24.23v1.18c0,.14-.08.22-.24.22h-3.79c-.21,0-.32.09-.32.29v6.2a.47.47,0,0,0,.09.35.86.86,0,0,0,.42.11,5.11,5.11,0,0,0,.93,0c.39,0,.8,0,1.24-.08s.86-.09,1.29-.15.79-.12,1.11-.18a.28.28,0,0,1,.22,0,.21.21,0,0,1,.14.17l.2,1A.19.19,0,0,1,418,50Zm4.19-10.77a.2.2,0,0,1,.23-.22h1.47a.2.2,0,0,1,.22.22V54.88a.2.2,0,0,1-.22.23h-1.48c-.15,0-.22-.08-.22-.23v-8h-1.58v7.4a.21.21,0,0,1-.23.24H419a.21.21,0,0,1-.24-.24V39.5c0-.15.08-.22.24-.22h1.39c.15,0,.23.07.23.22v5.71h1.58Z"/><path class="cls-2" d="M428,55.62a.51.51,0,0,1-.22.05h-1.36a.16.16,0,0,1-.13-.06.15.15,0,0,1,0-.16l.83-3.1c0-.05.06-.11.11-.18a.29.29,0,0,1,.25-.09h1.65c.15,0,.23,0,.24.11a.5.5,0,0,1,0,.21l-1.17,3.05A.27.27,0,0,1,428,55.62Z"/><path class="cls-2" d="M448.37,55.05a.23.23,0,0,1-.16.07h-1.47a.23.23,0,0,1-.17-.07.21.21,0,0,1-.08-.17V52c0-.13,0-.21-.07-.24a.47.47,0,0,0-.25,0h-8.25a.25.25,0,0,1-.16-.06.19.19,0,0,1-.08-.14V50.36a.19.19,0,0,1,.08-.16.25.25,0,0,1,.16-.06h4.34V48.82h-6.43a.21.21,0,0,1-.24-.24V47.51a.29.29,0,0,1,.07-.18.23.23,0,0,1,.17-.08h14.79a.24.24,0,0,1,.17.09.22.22,0,0,1,.09.17v1.07a.22.22,0,0,1-.09.16.27.27,0,0,1-.17.08h-6.41v1.32h3.11a1.17,1.17,0,0,1,.89.27,1.41,1.41,0,0,1,.23.92v3.55A.23.23,0,0,1,448.37,55.05Zm-10.5-8.58a.43.43,0,0,1-.25,0,.23.23,0,0,1-.17-.14l-.29-1a.21.21,0,0,1,0-.2.33.33,0,0,1,.19-.14c1.36-.26,2.62-.56,3.8-.89a21.36,21.36,0,0,0,3.18-1.17.55.55,0,0,0,.2-.11s0,0,0-.06a.19.19,0,0,0-.1,0h-6c-.16,0-.24-.07-.24-.22v-1q0-.21.24-.21h7.72a1.9,1.9,0,0,1,1.1.25.68.68,0,0,1,.36.55,1,1,0,0,1-.18.56,2.23,2.23,0,0,1-.43.49,6.24,6.24,0,0,1-1.6,1.06l1.8.36,1.87.3a.26.26,0,0,1,.19.15.31.31,0,0,1,0,.21l-.26.88a.35.35,0,0,1-.14.16.36.36,0,0,1-.27.05c-.81-.13-1.7-.3-2.65-.51s-1.86-.44-2.74-.7c-.82.29-1.71.56-2.64.81S438.79,46.31,437.87,46.47Zm7.57-6a.32.32,0,0,1-.21.08h-4.35a.25.25,0,0,1-.16-.07.21.21,0,0,1-.1-.18v-.94a.24.24,0,0,1,.1-.19.29.29,0,0,1,.16-.06h4.35a.29.29,0,0,1,.2.08.26.26,0,0,1,.09.19v.9A.29.29,0,0,1,445.44,40.49Z"/><path class="cls-2" d="M466.79,52.27a.29.29,0,0,1-.17.08H451.81a.22.22,0,0,1-.17-.07.26.26,0,0,1-.07-.18V51a.24.24,0,0,1,.07-.18.23.23,0,0,1,.17-.08h6.39V47.08a.21.21,0,0,1,.24-.24h1.48a.29.29,0,0,1,.18.07.22.22,0,0,1,.07.17v3.64h6.45a.28.28,0,0,1,.25.26V52.1A.29.29,0,0,1,466.79,52.27Zm-13.23-4.58a.21.21,0,0,1-.18,0,.29.29,0,0,1-.19-.16l-.61-1a.25.25,0,0,1,0-.25.28.28,0,0,1,.18-.14,15.55,15.55,0,0,0,2.23-1,6.76,6.76,0,0,0,1.62-1.27,5.52,5.52,0,0,0,1.06-1.63,7.24,7.24,0,0,0,.51-2.13,1,1,0,0,1,.07-.23.19.19,0,0,1,.2-.11l1.48.07c.19,0,.28.14.27.38a4.38,4.38,0,0,1-.1.83,4.75,4.75,0,0,0,.71,1.56,6.72,6.72,0,0,0,1.25,1.37,9.39,9.39,0,0,0,1.64,1.1,10,10,0,0,0,1.87.75.2.2,0,0,1,.14.14.23.23,0,0,1,0,.2l-.56,1.08a.33.33,0,0,1-.41.19,9.38,9.38,0,0,1-1.57-.58,10.52,10.52,0,0,1-1.52-.88,8.56,8.56,0,0,1-1.34-1.12,6.61,6.61,0,0,1-1-1.34A8.16,8.16,0,0,1,456.93,46,12.5,12.5,0,0,1,453.56,47.69Z"/><path class="cls-2" d="M477.37,42.43a.25.25,0,0,1-.18.08h-9a.26.26,0,0,1-.19-.09.28.28,0,0,1-.08-.2v-.88a.22.22,0,0,1,.09-.17.3.3,0,0,1,.2-.09h8.94a.27.27,0,0,1,.26.26v.9A.26.26,0,0,1,477.37,42.43Zm-4.51.61a5.49,5.49,0,0,1,1.43.18,3.71,3.71,0,0,1,1.17.54,2.5,2.5,0,0,1,.79.83,2.16,2.16,0,0,1,.28,1.07,2.12,2.12,0,0,1-.29,1.1,2.6,2.6,0,0,1-.78.84,4,4,0,0,1-1.17.55,5.59,5.59,0,0,1-1.45.19,5.43,5.43,0,0,1-1.43-.19,4,4,0,0,1-1.16-.55,2.68,2.68,0,0,1-.77-.84,2.12,2.12,0,0,1-.28-1.1,2.06,2.06,0,0,1,.28-1.07,2.57,2.57,0,0,1,.78-.83,3.93,3.93,0,0,1,1.17-.54A5.44,5.44,0,0,1,472.86,43Zm2.32-2.69a.29.29,0,0,1-.22.09h-4.4a.31.31,0,0,1-.16-.07.23.23,0,0,1-.09-.19v-.9a.23.23,0,0,1,.09-.19.31.31,0,0,1,.16-.07H475a.29.29,0,0,1,.21.09.29.29,0,0,1,.08.19v.86A.28.28,0,0,1,475.18,40.35ZM480.89,55a.22.22,0,0,1-.15.08h-9.06a1.27,1.27,0,0,1-.91-.26,1.11,1.11,0,0,1-.24-.79V52.4a1.12,1.12,0,0,1,.23-.78,1.29,1.29,0,0,1,.91-.24h6.74c.11,0,.17,0,.19,0a.35.35,0,0,0,0-.19v-.31a.38.38,0,0,0,0-.22.34.34,0,0,0-.2,0h-7.67a.25.25,0,0,1-.16-.06.17.17,0,0,1-.08-.14V49.33a.27.27,0,0,1,.08-.17.21.21,0,0,1,.16-.07h8.64a1.34,1.34,0,0,1,.94.23,1.16,1.16,0,0,1,.23.82v1.58a1.19,1.19,0,0,1-.23.83,1.39,1.39,0,0,1-.94.23h-6.7c-.1,0-.17,0-.19,0a.36.36,0,0,0,0,.18v.39c0,.11,0,.18,0,.19a.4.4,0,0,0,.21,0h8a.27.27,0,0,1,.16.06.19.19,0,0,1,.07.16v1A.21.21,0,0,1,480.89,55Zm-8-10.53a2.31,2.31,0,0,0-1.32.34,1,1,0,0,0-.52.84,1.06,1.06,0,0,0,.52.9,2.66,2.66,0,0,0,2.64,0,1.07,1.07,0,0,0,.51-.9,1,1,0,0,0-.51-.84A2.31,2.31,0,0,0,472.86,44.48ZM483,44.6a.24.24,0,0,1-.18.07h-2.29v3.5a.21.21,0,0,1-.07.16.19.19,0,0,1-.15.08h-1.51a.23.23,0,0,1-.16-.08.29.29,0,0,1-.07-.18v-9a.2.2,0,0,1,.23-.22h1.51a.2.2,0,0,1,.22.22V43h2.29a.28.28,0,0,1,.18.06.23.23,0,0,1,.08.16v1.19A.22.22,0,0,1,483,44.6Z"/><path class="cls-2" d="M503.51,49.1a.26.26,0,0,1-.17.09h-6.45v5.56a.21.21,0,0,1-.24.24h-1.47a.21.21,0,0,1-.24-.24V49.19h-6.41a.2.2,0,0,1-.17-.09.32.32,0,0,1-.07-.18V47.81a.27.27,0,0,1,.07-.18.21.21,0,0,1,.17-.07h14.81a.28.28,0,0,1,.25.25v1.11A.34.34,0,0,1,503.51,49.1ZM490.38,46a.5.5,0,0,1-.24,0,.24.24,0,0,1-.17-.09l-.57-1.09a.24.24,0,0,1,0-.23.25.25,0,0,1,.18-.15,13.33,13.33,0,0,0,2.17-.79,7.15,7.15,0,0,0,1.66-1.1,5,5,0,0,0,1.1-1.46,5.07,5.07,0,0,0,.51-1.88.41.41,0,0,1,.1-.21.24.24,0,0,1,.21-.1l1.43,0c.16,0,.24.09.24.28s-.06.65-.11.93a4.1,4.1,0,0,0,.78,1.32,7.25,7.25,0,0,0,1.25,1.14,9.89,9.89,0,0,0,1.6.9,11.52,11.52,0,0,0,1.8.6.32.32,0,0,1,.18.12.18.18,0,0,1,0,.2L502,45.59a.3.3,0,0,1-.36.17,9.91,9.91,0,0,1-1.65-.49,9.06,9.06,0,0,1-1.59-.79,9.56,9.56,0,0,1-1.36-1,5.19,5.19,0,0,1-1-1.14,7,7,0,0,1-2.27,2.23A11.32,11.32,0,0,1,490.38,46Z"/><path class="cls-2" d="M518.16,43.48a4,4,0,0,1-.3,1.56,3.44,3.44,0,0,1-.85,1.23,3.92,3.92,0,0,1-1.31.79,4.47,4.47,0,0,1-1.67.29,4.4,4.4,0,0,1-1.65-.29,3.69,3.69,0,0,1-1.28-.79,3.39,3.39,0,0,1-.83-1.23,4.16,4.16,0,0,1-.29-1.56,4,4,0,0,1,.29-1.53,3.51,3.51,0,0,1,.83-1.24,4,4,0,0,1,1.28-.84,4.4,4.4,0,0,1,1.65-.3,4.47,4.47,0,0,1,1.67.3,4.21,4.21,0,0,1,1.31.84,3.56,3.56,0,0,1,.85,1.24A3.87,3.87,0,0,1,518.16,43.48ZM512,55.09a.81.81,0,0,1-.26.11c-.09,0-.17,0-.25-.13l-.64-.92a.24.24,0,0,1-.08-.2c0-.07.07-.14.2-.2a5.38,5.38,0,0,0,2.17-2,5.57,5.57,0,0,0,.68-2.72c0-.17.08-.26.22-.26l1.35,0c.15,0,.23.06.23.19s0,.37,0,.56,0,.35,0,.52a3.43,3.43,0,0,0,.26.95,6.65,6.65,0,0,0,.44.84,3.75,3.75,0,0,0,.54.69,3.19,3.19,0,0,0,.57.5,1.22,1.22,0,0,0,.24.11c.07,0,.16,0,.26-.11a4.32,4.32,0,0,0,1.36-1.73,5.79,5.79,0,0,0,.44-2.28c0-.17.07-.26.22-.26l1.34,0a.34.34,0,0,1,.18,0,.16.16,0,0,1,.08.15,10,10,0,0,1-.09,1.12,4.84,4.84,0,0,0,.4,1.14,5.63,5.63,0,0,0,.67,1,5.31,5.31,0,0,0,1.76,1.41.29.29,0,0,1,.15.2.26.26,0,0,1,0,.19l-.68,1q-.1.15-.39,0a3.68,3.68,0,0,1-.72-.39,5.55,5.55,0,0,1-.73-.59,7.79,7.79,0,0,1-.68-.72,4.89,4.89,0,0,1-.54-.8,6.28,6.28,0,0,1-1.15,1.41A7.49,7.49,0,0,1,518,55a.69.69,0,0,1-.68,0,5.12,5.12,0,0,1-1.43-1,5.22,5.22,0,0,1-1.12-1.47A6.89,6.89,0,0,1,513.58,54,6.08,6.08,0,0,1,512,55.09Zm4.2-11.58A2,2,0,0,0,514,41.32a2.11,2.11,0,0,0-1.57.59,2.16,2.16,0,0,0-.59,1.6,2.18,2.18,0,0,0,.59,1.61,2.15,2.15,0,0,0,1.57.59,2,2,0,0,0,2.19-2.2Zm6.1,4.47h-1.51c-.15,0-.22-.08-.22-.23V39.19a.2.2,0,0,1,.22-.22h1.51a.2.2,0,0,1,.22.22v8.57A.19.19,0,0,1,522.32,48Z"/><path class="cls-2" d="M530.16,51.21a3.66,3.66,0,0,1-1.74-.41,3.93,3.93,0,0,1-1.31-1.16,5.53,5.53,0,0,1-.83-1.78,8.56,8.56,0,0,1-.28-2.27,8.83,8.83,0,0,1,.28-2.32,5.42,5.42,0,0,1,.83-1.76,3.65,3.65,0,0,1,3-1.53,3.78,3.78,0,0,1,1.63.34,3.6,3.6,0,0,1,1.27,1,4.76,4.76,0,0,1,.86,1.5,7.81,7.81,0,0,1,.41,2h2.53V39.19a.2.2,0,0,1,.22-.22h1.51a.2.2,0,0,1,.22.22V54.88c0,.15-.07.23-.22.23h-1.51c-.15,0-.22-.08-.22-.23v-8.5h-2.53a7.87,7.87,0,0,1-.41,2,4.86,4.86,0,0,1-.86,1.52,3.62,3.62,0,0,1-1.27,1A3.78,3.78,0,0,1,530.16,51.21Zm2.28-5.62a7.1,7.1,0,0,0-.15-1.49,4.56,4.56,0,0,0-.45-1.23,2.5,2.5,0,0,0-.71-.85,1.58,1.58,0,0,0-1-.31,1.5,1.5,0,0,0-.94.31,2.5,2.5,0,0,0-.71.85,4.56,4.56,0,0,0-.44,1.23,7.38,7.38,0,0,0,0,3,4.76,4.76,0,0,0,.44,1.24,2.75,2.75,0,0,0,.71.86,1.51,1.51,0,0,0,.94.32,1.59,1.59,0,0,0,1-.32,2.75,2.75,0,0,0,.71-.86,4.76,4.76,0,0,0,.45-1.24A7,7,0,0,0,532.44,45.59Z"/><path class="cls-2" d="M556.2,52.27a.25.25,0,0,1-.17.08h-14.8a.21.21,0,0,1-.17-.08.27.27,0,0,1-.07-.17V51q0-.27.24-.27h3.4V48.07c0-.16.08-.24.25-.24h1.46c.17,0,.26.08.26.24v2.65h4.06V48.07c0-.16.09-.24.26-.24h1.46a.24.24,0,0,1,.18.07.21.21,0,0,1,.07.17v2.65H556a.25.25,0,0,1,.17.08.26.26,0,0,1,.09.19V52.1A.26.26,0,0,1,556.2,52.27Zm-7.58-5A9.06,9.06,0,0,1,546.5,47a6.12,6.12,0,0,1-1.77-.7,3.77,3.77,0,0,1-1.21-1.17,3,3,0,0,1-.44-1.6,2.88,2.88,0,0,1,.44-1.57,3.74,3.74,0,0,1,1.21-1.16,5.87,5.87,0,0,1,1.77-.72,9.06,9.06,0,0,1,2.12-.24,9.26,9.26,0,0,1,2.15.24,5.66,5.66,0,0,1,1.77.72,3.81,3.81,0,0,1,1.2,1.16,2.88,2.88,0,0,1,.44,1.57,3,3,0,0,1-.44,1.6,3.84,3.84,0,0,1-1.2,1.17,5.9,5.9,0,0,1-1.77.7A9.26,9.26,0,0,1,548.62,47.27Zm0-5.78a6.43,6.43,0,0,0-1.32.14,5,5,0,0,0-1.13.41,2.46,2.46,0,0,0-.79.66,1.4,1.4,0,0,0-.3.88,1.44,1.44,0,0,0,.3.9,2.46,2.46,0,0,0,.79.66,4.56,4.56,0,0,0,1.13.4,5.81,5.81,0,0,0,1.32.15,5.7,5.7,0,0,0,1.3-.15,4.56,4.56,0,0,0,1.13-.4,2.46,2.46,0,0,0,.79-.66,1.44,1.44,0,0,0,.3-.9,1.4,1.4,0,0,0-.3-.88,2.46,2.46,0,0,0-.79-.66,5,5,0,0,0-1.13-.41A6.31,6.31,0,0,0,548.64,41.49Z"/><path class="cls-2" d="M559.33,54.39A1.31,1.31,0,0,1,558,53.08a1.2,1.2,0,0,1,.39-.91,1.3,1.3,0,0,1,1.84,0,1.21,1.21,0,0,1,.37.91,1.27,1.27,0,0,1-.37.93A1.26,1.26,0,0,1,559.33,54.39Z"/><path class="cls-2" d="M56.93,17.11a.7.7,0,0,1-.16.1,11.48,11.48,0,0,1-1.46.3c-.61.09-1.24.17-1.91.22s-1.33.08-2,.09-1.22,0-1.69-.05c-.82-.07-1.22-.48-1.22-1.23V8.2a1.17,1.17,0,0,1,.24-.84,1.34,1.34,0,0,1,.89-.23h5.63c.17,0,.26.07.26.22V8.54c0,.15-.09.22-.26.22h-4.5c-.21,0-.31.1-.31.29v2.39h2.3l1.11,0,1-.05a.31.31,0,0,1,.13,0,.13.13,0,0,1,.07.12l0,1.18a.41.41,0,0,1,0,.21S55,13,54.91,13c-.31,0-.66,0-1,.06l-1.15.05H50.46v2.6a.53.53,0,0,0,.09.37.68.68,0,0,0,.4.11c.35,0,.75,0,1.18,0s.9,0,1.37-.07L55,16c.51-.07,1-.15,1.51-.25a.23.23,0,0,1,.31.19l.17.93C57,17,57,17.06,56.93,17.11Zm2.34-11a.2.2,0,0,1,.22-.22H61a.2.2,0,0,1,.22.22V21.76A.19.19,0,0,1,61,22H59.49a.19.19,0,0,1-.22-.22v-8.9H56.65a.31.31,0,0,1-.16-.07.24.24,0,0,1-.1-.21v-1.1a.22.22,0,0,1,.1-.19.31.31,0,0,1,.16-.07h2.62Z"/><path class="cls-2" d="M64.81,18.3a.71.71,0,0,1-.28.06.29.29,0,0,1-.23-.13l-.53-.82a.38.38,0,0,1-.06-.35.35.35,0,0,1,.18-.21,18.61,18.61,0,0,0,1.8-1.12,14.91,14.91,0,0,0,1.6-1.31A10.73,10.73,0,0,0,68.57,13a7.63,7.63,0,0,0,.88-1.56,1.43,1.43,0,0,0,.12-.35c0-.07-.12-.11-.39-.11H64.81a.21.21,0,0,1-.17-.08.28.28,0,0,1-.07-.19V9.56a.21.21,0,0,1,.08-.17.23.23,0,0,1,.17-.07h5.73a1.49,1.49,0,0,1,1,.27.78.78,0,0,1,.29.58,2.84,2.84,0,0,1-.15.87c-.19.47-.41.93-.64,1.37a10.24,10.24,0,0,1-.79,1.3c.22.23.45.47.71.72s.52.48.79.7.54.45.81.65l.77.54a.22.22,0,0,1,.12.22.77.77,0,0,1-.1.26l-.65.9a.27.27,0,0,1-.2.12.44.44,0,0,1-.31-.1c-.2-.13-.44-.29-.71-.5s-.53-.42-.8-.67-.54-.49-.81-.75-.5-.51-.71-.75A15.77,15.77,0,0,1,64.81,18.3ZM70.72,8.08a.24.24,0,0,1-.2.08H66.1a.29.29,0,0,1-.16-.06.24.24,0,0,1-.1-.19v-1a.21.21,0,0,1,.1-.18.25.25,0,0,1,.16-.07h4.42a.29.29,0,0,1,.2.08.26.26,0,0,1,.09.19v1A.26.26,0,0,1,70.72,8.08ZM77,21.76c0,.15-.08.22-.24.22h-1.5a.3.3,0,0,1-.16-.05.21.21,0,0,1-.08-.17V6.07a.22.22,0,0,1,.08-.15.21.21,0,0,1,.16-.07h1.5c.16,0,.24.08.24.22Z"/><path class="cls-2" d="M99.2,19.15a.29.29,0,0,1-.17.08H84.22a.23.23,0,0,1-.17-.08A.34.34,0,0,1,84,19V17.87q0-.27.24-.27h6.44V14.9a.21.21,0,0,1,.24-.24h1.48a.21.21,0,0,1,.24.24v2.7H99a.28.28,0,0,1,.25.27V19A.29.29,0,0,1,99.2,19.15Zm-7.93-5.31a.28.28,0,0,1-.16.1,6.63,6.63,0,0,1-1,.14L89,14.16l-1.12,0a5.57,5.57,0,0,1-.87,0,1.51,1.51,0,0,1-.87-.32A1,1,0,0,1,85.8,13V8a1.07,1.07,0,0,1,.3-.85A1.43,1.43,0,0,1,87,6.94h3.79c.16,0,.24.07.24.22V8.3a.21.21,0,0,1-.24.24H88c-.21,0-.32.09-.32.29v3.35a.43.43,0,0,0,.06.26.53.53,0,0,0,.33.11,2.91,2.91,0,0,0,.5,0l.77,0,.83-.06c.28,0,.51-.05.7-.08a.48.48,0,0,1,.21,0,.19.19,0,0,1,.1.17l.14,1A.29.29,0,0,1,91.27,13.84Zm6.22.27a.25.25,0,0,1-.15.05H92.92a1.24,1.24,0,0,1-.93-.3,1.3,1.3,0,0,1-.29-.9V8a1,1,0,0,1,.3-.87,1.54,1.54,0,0,1,.92-.23h4.25c.17,0,.26.07.26.22V8.3c0,.16-.09.24-.26.24H93.91c-.22,0-.32.09-.32.29v3.45a.3.3,0,0,0,.07.24.55.55,0,0,0,.25.05h3.35a.41.41,0,0,1,.21,0,.19.19,0,0,1,.08.18v1.12A.28.28,0,0,1,97.49,14.11Z"/><path class="cls-2" d="M115.16,15.18a.24.24,0,0,1-.17.09H100.2a.23.23,0,0,1-.17-.08A.28.28,0,0,1,100,15V13.88a.21.21,0,0,1,.24-.24H115a.25.25,0,0,1,.17.07.24.24,0,0,1,.09.17V15A.3.3,0,0,1,115.16,15.18Zm-1.9,6.36a.3.3,0,0,1-.17.05h-9.35a1.49,1.49,0,0,1-1-.27,1.34,1.34,0,0,1-.26-.93V16.7a.21.21,0,0,1,.07-.16.25.25,0,0,1,.17-.08h1.46a.29.29,0,0,1,.18.08.21.21,0,0,1,.07.16v3c0,.11,0,.19.07.22a.51.51,0,0,0,.26.05h8.38a.32.32,0,0,1,.17.06.19.19,0,0,1,.08.15v1.22A.16.16,0,0,1,113.26,21.54Zm-.2-9.7a.3.3,0,0,1-.16.05h-9.11a1.5,1.5,0,0,1-1.05-.28,1.42,1.42,0,0,1-.26-.95V6.4a.24.24,0,0,1,.24-.24h1.47a.24.24,0,0,1,.18.07.27.27,0,0,1,.08.17V10c0,.12,0,.19.07.22a.39.39,0,0,0,.25.05h8.13a.25.25,0,0,1,.16.06.19.19,0,0,1,.08.15v1.21A.2.2,0,0,1,113.06,11.84Z"/><path class="cls-2" d="M135.92,17.56a.29.29,0,0,1,.08.17v1.13a.28.28,0,0,1-.25.25H120.94a.21.21,0,0,1-.17-.08.27.27,0,0,1-.07-.17V17.73a.23.23,0,0,1,.07-.17.21.21,0,0,1,.17-.08h14.81A.29.29,0,0,1,135.92,17.56Zm-2.14-3.32a.2.2,0,0,1-.14.06h-9.42a1.28,1.28,0,0,1-1-.34,1.37,1.37,0,0,1-.3-.93V8.1a1,1,0,0,1,.29-.88,1.51,1.51,0,0,1,.93-.23h9.34c.15,0,.23.07.23.22V8.4c0,.15-.08.22-.23.22h-8.3c-.2,0-.31.1-.31.29v3.47a.37.37,0,0,0,.06.23.31.31,0,0,0,.25.08h8.38a.49.49,0,0,1,.2,0s.07.08.07.17v1.16A.25.25,0,0,1,133.78,14.24Z"/><path class="cls-2" d="M145.17,17.18a.42.42,0,0,1-.21.11,13.41,13.41,0,0,1-1.32.26q-.78.12-1.65.21c-.57.06-1.14.11-1.71.13s-1.06,0-1.49,0a1.91,1.91,0,0,1-1.06-.33,1.21,1.21,0,0,1-.27-.9V12.75a1.07,1.07,0,0,1,.31-.87,1.31,1.31,0,0,1,.9-.27h3.06a.19.19,0,0,0,.24-.25V9a.32.32,0,0,0,0-.19s-.09-.05-.2-.05h-4a.21.21,0,0,1-.16-.07.19.19,0,0,1-.08-.15V7.45a.19.19,0,0,1,.08-.15.21.21,0,0,1,.16-.07h4.91a1.22,1.22,0,0,1,.95.27,1.49,1.49,0,0,1,.21.9v3.66a1.1,1.1,0,0,1-.27.87,1.36,1.36,0,0,1-.92.23H139.6a.22.22,0,0,0-.25.24V16a.3.3,0,0,0,.07.24.69.69,0,0,0,.25.07c.41,0,.81,0,1.21,0s.8,0,1.21-.08.83-.09,1.26-.16l1.39-.24c.16,0,.25,0,.29.22l.19,1A.18.18,0,0,1,145.17,17.18Zm4-11.11a.2.2,0,0,1,.23-.22h1.47a.2.2,0,0,1,.22.22V21.76a.2.2,0,0,1-.22.22H149.4a.19.19,0,0,1-.22-.22v-8h-1.47v7.4c0,.16-.07.24-.22.24H146.1a.21.21,0,0,1-.24-.24V6.38c0-.15.08-.22.24-.22h1.39a.19.19,0,0,1,.22.22v5.71h1.47Z"/><path class="cls-2" d="M167.88,19a.26.26,0,0,1-.17.09H152.9a.2.2,0,0,1-.17-.09.23.23,0,0,1-.07-.17V17.75a.24.24,0,0,1,.07-.18.21.21,0,0,1,.17-.07h10.25a36.08,36.08,0,0,0,.42-3.65c.09-1.41.14-2.92.14-4.53a.91.91,0,0,0-.07-.42c0-.08-.16-.12-.35-.12h-8.23a.23.23,0,0,1-.16-.08.27.27,0,0,1-.06-.16V7.42a.29.29,0,0,1,.06-.17.21.21,0,0,1,.16-.07h9.47c.49,0,.82.13,1,.38a2.11,2.11,0,0,1,.21,1c0,1.52,0,3-.13,4.51a38.82,38.82,0,0,1-.5,4.42h2.64a.28.28,0,0,1,.25.25v1.12A.25.25,0,0,1,167.88,19Z"/><path class="cls-2" d="M178.64,10.85a.22.22,0,0,1-.17.09h-9.22a.28.28,0,0,1-.19-.1.26.26,0,0,1-.1-.19v-1a.22.22,0,0,1,.1-.17.26.26,0,0,1,.19-.09h9.22a.25.25,0,0,1,.17.08.22.22,0,0,1,.08.18v1.05A.25.25,0,0,1,178.64,10.85Zm-4.66.92a4.72,4.72,0,0,1,1.53.24,3.6,3.6,0,0,1,1.19.7,3.23,3.23,0,0,1,.77,1.08,3.33,3.33,0,0,1,.28,1.4,3.51,3.51,0,0,1-.28,1.41,3.38,3.38,0,0,1-.78,1.11,3.74,3.74,0,0,1-1.2.74,4.17,4.17,0,0,1-1.53.27,4.37,4.37,0,0,1-1.52-.26,3.48,3.48,0,0,1-1.18-.74,3.35,3.35,0,0,1-.77-1.12,3.69,3.69,0,0,1-.27-1.41,3.47,3.47,0,0,1,.27-1.38,3,3,0,0,1,.78-1.08,3.62,3.62,0,0,1,1.19-.71A4.33,4.33,0,0,1,174,11.77Zm2.49-3.64a.24.24,0,0,1-.2.08H171.5a.35.35,0,0,1-.17-.06.23.23,0,0,1-.09-.19V6.84a.23.23,0,0,1,.09-.19.38.38,0,0,1,.17-.07h4.77a.26.26,0,0,1,.19.09.23.23,0,0,1,.08.18V7.94A.28.28,0,0,1,176.47,8.13ZM174,13.31a1.85,1.85,0,0,0-1.39.54,2.09,2.09,0,0,0,0,2.76,2.06,2.06,0,0,0,2.8,0,2.12,2.12,0,0,0,0-2.76A1.85,1.85,0,0,0,174,13.31Zm10.12.51a.24.24,0,0,1-.18.07h-2.29v7.87a.2.2,0,0,1-.22.22h-1.52a.2.2,0,0,1-.22-.22V6.07a.2.2,0,0,1,.22-.22h1.52a.2.2,0,0,1,.22.22v6.19h2.29a.28.28,0,0,1,.18.06.19.19,0,0,1,.08.14v1.21A.19.19,0,0,1,184.1,13.82Z"/><path class="cls-2" d="M189.7,18.09a3.72,3.72,0,0,1-1.74-.41,3.8,3.8,0,0,1-1.3-1.16,5.61,5.61,0,0,1-.81-1.78,8.58,8.58,0,0,1-.28-2.28,8.7,8.7,0,0,1,.28-2.31,5.55,5.55,0,0,1,.81-1.77A3.71,3.71,0,0,1,188,7.25a3.84,3.84,0,0,1,1.74-.4,3.67,3.67,0,0,1,2.05.57A3.9,3.9,0,0,1,193.14,9h3.33V6.07a.2.2,0,0,1,.22-.22h1.51a.2.2,0,0,1,.22.22V21.76a.19.19,0,0,1-.22.22h-1.51a.19.19,0,0,1-.22-.22v-6H193.2a3.87,3.87,0,0,1-1.38,1.71A3.72,3.72,0,0,1,189.7,18.09ZM192,12.46A7.07,7.07,0,0,0,191.8,11a4.75,4.75,0,0,0-.42-1.24,2.56,2.56,0,0,0-.71-.84,1.58,1.58,0,0,0-1-.31,1.52,1.52,0,0,0-.94.31,2.54,2.54,0,0,0-.7.84,4.41,4.41,0,0,0-.42,1.24,7.38,7.38,0,0,0,0,3,4.41,4.41,0,0,0,.42,1.24,2.58,2.58,0,0,0,.7.85,1.48,1.48,0,0,0,.94.33,1.54,1.54,0,0,0,1-.33,2.6,2.6,0,0,0,.71-.85,4.75,4.75,0,0,0,.42-1.24A7.14,7.14,0,0,0,192,12.46Zm1.73-1.87a8.92,8.92,0,0,1,.19,1.87,8.18,8.18,0,0,1-.16,1.72h2.76V10.59Z"/><path class="cls-2" d="M51.9,51.27a.29.29,0,0,1-.17.08H36.94a.21.21,0,0,1-.17-.08.27.27,0,0,1-.07-.17V50a.28.28,0,0,1,.07-.19.21.21,0,0,1,.17-.08h5.85V47c0-.16.07-.24.23-.24H44.5a.21.21,0,0,1,.24.24v2.7h6.92a.35.35,0,0,1,.2.09q.12.11.12.18V51.1A.29.29,0,0,1,51.9,51.27Zm-2.14,4.42A2.47,2.47,0,0,1,49.39,57a3.26,3.26,0,0,1-1,1,5.64,5.64,0,0,1-1.7.68,10.61,10.61,0,0,1-4.58,0,5.64,5.64,0,0,1-1.7-.68,3.26,3.26,0,0,1-1-1,2.39,2.39,0,0,1-.37-1.29,2.35,2.35,0,0,1,.37-1.28,3.23,3.23,0,0,1,1-1,5.91,5.91,0,0,1,1.7-.68,11,11,0,0,1,4.58,0,5.91,5.91,0,0,1,1.7.68,3.23,3.23,0,0,1,1,1A2.44,2.44,0,0,1,49.76,55.69Zm0-11.26c0,.23,0,.54,0,.93s-.05.79-.08,1.21-.07.8-.12,1.18a7.27,7.27,0,0,1-.14.83.55.55,0,0,1-.12.24.26.26,0,0,1-.23.08l-1.31-.12c-.17,0-.24-.13-.21-.35s.07-.44.11-.72.06-.59.08-.89,0-.59.06-.87,0-.51,0-.68,0-.26-.11-.3a.79.79,0,0,0-.35-.06H39.42a.29.29,0,0,1-.17-.06.18.18,0,0,1-.09-.15V43.51a.18.18,0,0,1,.09-.15.37.37,0,0,1,.17,0h9.2a1.27,1.27,0,0,1,.78.25A1,1,0,0,1,49.74,44.43Zm-5.39,9.51a6.1,6.1,0,0,0-1.5.16,4.2,4.2,0,0,0-1.08.41,2.09,2.09,0,0,0-.66.57,1.08,1.08,0,0,0-.23.62,1.06,1.06,0,0,0,.23.62,2.09,2.09,0,0,0,.66.57,4.2,4.2,0,0,0,1.08.42,6.1,6.1,0,0,0,1.5.16,6.19,6.19,0,0,0,1.49-.16,4.28,4.28,0,0,0,1.09-.42,2.21,2.21,0,0,0,.66-.57,1.06,1.06,0,0,0,.23-.62,1.08,1.08,0,0,0-.23-.62,2.21,2.21,0,0,0-.66-.57,4.29,4.29,0,0,0-1.09-.41A6.19,6.19,0,0,0,44.35,53.94Z"/><path class="cls-2" d="M54.26,52.81a.39.39,0,0,1-.56-.15l-.48-.87a.38.38,0,0,1,0-.27c0-.09.1-.16.22-.22A12.76,12.76,0,0,0,57,48.93a6.88,6.88,0,0,0,1.87-3,1.46,1.46,0,0,0,.09-.38c0-.06-.11-.1-.32-.1H54a.19.19,0,0,1-.16-.07.28.28,0,0,1-.06-.18V44.06a.21.21,0,0,1,.24-.24H59.8a1.78,1.78,0,0,1,1.06.24.94.94,0,0,1,.3.78c0,.06,0,.13,0,.22a2.74,2.74,0,0,0,0,.28c0,.1,0,.18-.06.26a1.23,1.23,0,0,1,0,.16,10,10,0,0,1-2.35,4.16A12.81,12.81,0,0,1,54.26,52.81Zm12,5.83a.27.27,0,0,1-.17.06h-9a1.49,1.49,0,0,1-1-.28,1.29,1.29,0,0,1-.27-.93V53.73a.24.24,0,0,1,.08-.16.29.29,0,0,1,.18-.08h1.44a.29.29,0,0,1,.19.08.24.24,0,0,1,.08.16v3.06c0,.11,0,.19.07.22a.37.37,0,0,0,.24.05h8a.28.28,0,0,1,.17.07.2.2,0,0,1,.09.15v1.21A.16.16,0,0,1,66.24,58.64Zm1.9-9.11a.24.24,0,0,1-.18.07H65.67v4.49c0,.15-.08.22-.24.22h-1.5a.23.23,0,0,1-.16-.07.19.19,0,0,1-.08-.15v-11a.22.22,0,0,1,.08-.15.23.23,0,0,1,.16-.07h1.5c.16,0,.24.08.24.22V48H68a.28.28,0,0,1,.18.06.19.19,0,0,1,.08.14v1.21A.19.19,0,0,1,68.14,49.53Z"/><path class="cls-2" d="M81.78,53.6a.54.54,0,0,1-.2.1q-.6.16-1.32.3c-.48.08-1,.15-1.49.19s-1,.08-1.54.09-1,0-1.42,0a1.41,1.41,0,0,1-.93-.37,1.22,1.22,0,0,1-.32-.91V44.25a.25.25,0,0,1,.07-.17.26.26,0,0,1,.18-.07h1.41a.28.28,0,0,1,.19.07.24.24,0,0,1,.09.17v8.1c0,.17.1.27.3.28a7.47,7.47,0,0,0,1,0c.37,0,.75,0,1.16-.08l1.22-.17c.41-.07.81-.15,1.18-.24a.36.36,0,0,1,.2,0,.17.17,0,0,1,.14.16l.17,1.08A.16.16,0,0,1,81.78,53.6ZM85.9,43.07a.21.21,0,0,1,.07-.15.24.24,0,0,1,.18-.07H87.6a.2.2,0,0,1,.23.22V58.76c0,.15-.08.22-.23.22H86.13a.27.27,0,0,1-.16-.06.21.21,0,0,1-.07-.16v-8H84.28v7.4a.2.2,0,0,1-.08.17.26.26,0,0,1-.16.07H82.67a.29.29,0,0,1-.18-.07.23.23,0,0,1-.08-.17V43.38a.19.19,0,0,1,.08-.15.24.24,0,0,1,.18-.07H84a.21.21,0,0,1,.16.07.17.17,0,0,1,.08.15v5.71H85.9Z"/><path class="cls-2" d="M104.61,53.36a.25.25,0,0,1-.17.08H98v5.19a.21.21,0,0,1-.24.24H96.3a.21.21,0,0,1-.24-.24V53.44H89.64a.21.21,0,0,1-.17-.08.27.27,0,0,1-.07-.17V52.07a.24.24,0,0,1,.07-.18.21.21,0,0,1,.17-.08h14.8a.33.33,0,0,1,.26.26v1.12A.26.26,0,0,1,104.61,53.36Zm-2.5-3.74a1.36,1.36,0,0,1-1,.29H93a1.51,1.51,0,0,1-1-.26,1.3,1.3,0,0,1-.27-.95V43.11a.2.2,0,0,1,.06-.15.25.25,0,0,1,.16-.06h1.49a.25.25,0,0,1,.16.06.19.19,0,0,1,.08.15V45h6.8V43.12a.21.21,0,0,1,.07-.15.23.23,0,0,1,.15-.07h1.51a.24.24,0,0,1,.23.22v5.65A1.21,1.21,0,0,1,102.11,49.62Zm-1.68-3h-6.8V48q0,.16.06.21a.37.37,0,0,0,.21,0h6.26a.37.37,0,0,0,.21,0s.06-.1.06-.21Z"/><path class="cls-2" d="M120.58,51.47a.26.26,0,0,1-.18.09H105.61a.25.25,0,0,1-.17-.08.28.28,0,0,1-.06-.18v-1a.21.21,0,0,1,.23-.23H120.4a.27.27,0,0,1,.18.07.24.24,0,0,1,.08.16v1A.27.27,0,0,1,120.58,51.47Zm-2.09,7.3a.23.23,0,0,1-.14.08H109a1.28,1.28,0,0,1-.9-.24,1.07,1.07,0,0,1-.24-.78V56a1.12,1.12,0,0,1,.23-.78A1.25,1.25,0,0,1,109,55h7.14a.29.29,0,0,0,.17,0s0-.07,0-.17v-.48c0-.12,0-.2,0-.22a.29.29,0,0,0-.18,0h-8a.28.28,0,0,1-.17,0,.18.18,0,0,1-.07-.15V52.76a.21.21,0,0,1,.07-.15.25.25,0,0,1,.17-.07h9a1.42,1.42,0,0,1,.92.21,1.05,1.05,0,0,1,.23.79v1.84a1,1,0,0,1-.23.8,1.43,1.43,0,0,1-.92.2H110c-.09,0-.15,0-.17,0s0,.09,0,.19v.51c0,.12,0,.18,0,.2a.64.64,0,0,0,.2,0h8.33a.25.25,0,0,1,.16.06.21.21,0,0,1,.08.16v1A.23.23,0,0,1,118.49,58.77Zm-.1-9.82a.21.21,0,0,1-.14.07H109a1.28,1.28,0,0,1-.9-.24,1,1,0,0,1-.24-.78V46.25a1.12,1.12,0,0,1,.23-.78,1.26,1.26,0,0,1,.9-.24h7.07c.09,0,.14,0,.17,0a.45.45,0,0,0,0-.21v-.51c0-.11,0-.16,0-.18a.38.38,0,0,0-.19,0H108.2a.25.25,0,0,1-.16-.06.17.17,0,0,1-.08-.14V43a.23.23,0,0,1,.08-.16.25.25,0,0,1,.16-.06H117A1.47,1.47,0,0,1,118,43a1.07,1.07,0,0,1,.22.79v1.85a1.06,1.06,0,0,1-.22.8,1.47,1.47,0,0,1-.93.21h-7c-.11,0-.17,0-.19,0a.34.34,0,0,0,0,.18v.46c0,.1,0,.16,0,.17a.38.38,0,0,0,.2,0h8.18a.25.25,0,0,1,.16.06.19.19,0,0,1,.08.16v1.05A.25.25,0,0,1,118.39,49Z"/><path class="cls-2" d="M141.33,50.88a.22.22,0,0,1-.17.08h-6.42v1.31h3.12a1.43,1.43,0,0,1,.93.21,1.08,1.08,0,0,1,.23.79v2a1.09,1.09,0,0,1-.23.8,1.51,1.51,0,0,1-.93.2h-7.15a.27.27,0,0,0-.17,0,.26.26,0,0,0,0,.18V57c0,.1,0,.16,0,.17a.31.31,0,0,0,.18,0h8.45a.27.27,0,0,1,.17.06.2.2,0,0,1,.09.18v1.1a.32.32,0,0,1-.24.24h-9.47a1.28,1.28,0,0,1-.9-.24,1.07,1.07,0,0,1-.24-.78V55.82a1.12,1.12,0,0,1,.23-.78,1.23,1.23,0,0,1,.89-.24h7.21a.49.49,0,0,0,.17,0,.32.32,0,0,0,0-.2v-.47a.43.43,0,0,0,0-.23s-.08-.05-.19-.05h-8.12a.25.25,0,0,1-.16-.06.17.17,0,0,1-.08-.14V52.49a.19.19,0,0,1,.08-.15.21.21,0,0,1,.16-.07h4V51h-6.43a.21.21,0,0,1-.23-.24v-1c0-.18.08-.27.23-.27h14.81a.27.27,0,0,1,.17.08.26.26,0,0,1,.09.19v1A.21.21,0,0,1,141.33,50.88Zm-2.28-2.75a.2.2,0,0,1-.15.06h-9.09a1.22,1.22,0,0,1-1-.31,1.31,1.31,0,0,1-.27-.9v-2.9a1.08,1.08,0,0,1,.29-.88,1.52,1.52,0,0,1,.94-.23h8.94c.16,0,.24.07.24.22v1.12a.21.21,0,0,1-.24.24h-7.87c-.22,0-.33.1-.33.29v1.48a.33.33,0,0,0,.07.21.35.35,0,0,0,.26.08h8a.58.58,0,0,1,.21,0,.19.19,0,0,1,.06.17v1.13A.31.31,0,0,1,139.05,48.13Z"/><path class="cls-2" d="M151.75,54.47a.45.45,0,0,1-.22.13,13.36,13.36,0,0,1-1.59.25c-.6.07-1.22.13-1.85.17s-1.25.08-1.85.09h-1.56a1.59,1.59,0,0,1-1-.31,1.22,1.22,0,0,1-.28-.92V49.77a1.13,1.13,0,0,1,.3-.88,1.28,1.28,0,0,1,.89-.28H148a.19.19,0,0,0,.24-.25V45.93a.32.32,0,0,0,0-.19s-.09-.05-.2-.05h-4.28a.21.21,0,0,1-.16-.07.17.17,0,0,1-.08-.15V44.3a.17.17,0,0,1,.08-.15.25.25,0,0,1,.16-.06H149c.49,0,.81.09,1,.27a1.42,1.42,0,0,1,.22.89v3.82a1.17,1.17,0,0,1-.27.89,1.4,1.4,0,0,1-.93.24h-3.39a.2.2,0,0,0-.23.23v2.74a.26.26,0,0,0,.3.29q1.29,0,2.7-.09c.95-.08,1.95-.19,3-.35a.23.23,0,0,1,.2.06.42.42,0,0,1,.11.21l.17,1A.2.2,0,0,1,151.75,54.47ZM155.68,59h-1.51c-.15,0-.23-.07-.23-.22V50.3h-2.77a.24.24,0,0,1-.15-.06.21.21,0,0,1-.07-.15v-1.2a.26.26,0,0,1,.07-.16.24.24,0,0,1,.15-.06h2.77v-5.6a.2.2,0,0,1,.23-.22h1.51a.2.2,0,0,1,.22.22V58.76A.19.19,0,0,1,155.68,59Z"/><path class="cls-2" d="M173.29,56.15a.27.27,0,0,1-.17.08H158.31a.25.25,0,0,1-.17-.08.32.32,0,0,1-.06-.17V54.87a.33.33,0,0,1,.06-.19.25.25,0,0,1,.17-.08h6.43V51.49h-3.11a1.51,1.51,0,0,1-1-.26,1.28,1.28,0,0,1-.27-.95V43.79a.2.2,0,0,1,.06-.15.25.25,0,0,1,.16-.06h1.49a.29.29,0,0,1,.17.06.18.18,0,0,1,.07.15v2.39h6.84V43.77a.2.2,0,0,1,.06-.15.21.21,0,0,1,.16-.07h1.51a.24.24,0,0,1,.22.22v6.58a1.2,1.2,0,0,1-.27.85,1.37,1.37,0,0,1-1,.29h-3.12V54.6h6.43a.24.24,0,0,1,.17.09.26.26,0,0,1,.09.18V56A.26.26,0,0,1,173.29,56.15Zm-4.16-8.39h-6.84V49.6c0,.19.1.29.31.29h6.22c.2,0,.31-.1.31-.29Z"/><path class="cls-2" d="M175.65,55.13a.34.34,0,0,1-.54,0l-.77-.75c-.17-.16-.16-.33,0-.51A8.68,8.68,0,0,0,175.89,52a10.25,10.25,0,0,0,1-2.26,14.75,14.75,0,0,0,.53-2.63,26.17,26.17,0,0,0,.16-3c0-.17.08-.25.23-.25l1.41.05a.26.26,0,0,1,.25.25c0,.85,0,1.64-.08,2.36a15.6,15.6,0,0,1-.26,2,7.72,7.72,0,0,0,.51,1.46,11.37,11.37,0,0,0,.77,1.42,10.75,10.75,0,0,0,.88,1.23,7.17,7.17,0,0,0,.88.92c.17.15.19.3.06.44l-.79.8a.31.31,0,0,1-.51,0,5.22,5.22,0,0,1-.72-.65,10.29,10.29,0,0,1-.71-.85,8.2,8.2,0,0,1-.65-1,8.33,8.33,0,0,1-.5-1,10.54,10.54,0,0,1-1.12,2A15.36,15.36,0,0,1,175.65,55.13Zm9.3,3.31h-1.39c-.17,0-.26-.08-.26-.24V49.8h-2.55a.27.27,0,0,1-.16-.06.23.23,0,0,1-.07-.17V48.41a.16.16,0,0,1,.07-.14.27.27,0,0,1,.16-.06h2.55V43.34c0-.14.09-.22.26-.22H185a.2.2,0,0,1,.22.22V58.2C185.17,58.36,185.1,58.44,185,58.44Zm3.3.58h-1.48a.2.2,0,0,1-.22-.22V43.07c0-.14.08-.22.24-.22h1.46a.2.2,0,0,1,.22.22V58.8A.2.2,0,0,1,188.25,59Z"/><path class="cls-2" d="M205.25,56.15a.27.27,0,0,1-.17.08H190.27a.23.23,0,0,1-.17-.08A.34.34,0,0,1,190,56V54.87q0-.27.24-.27h3.4V52c0-.16.09-.24.26-.24h1.46c.17,0,.25.08.25.24V54.6h4.07V52c0-.16.08-.24.25-.24h1.46a.24.24,0,0,1,.18.07.21.21,0,0,1,.08.17V54.6h3.4a.27.27,0,0,1,.17.08.25.25,0,0,1,.08.19V56A.24.24,0,0,1,205.25,56.15Zm-7.58-5a9.15,9.15,0,0,1-2.13-.24,5.86,5.86,0,0,1-1.77-.71,3.61,3.61,0,0,1-1.2-1.16,2.87,2.87,0,0,1-.44-1.6,2.8,2.8,0,0,1,.44-1.57,3.73,3.73,0,0,1,1.2-1.17,6.13,6.13,0,0,1,1.77-.71,9.15,9.15,0,0,1,2.13-.24,9.32,9.32,0,0,1,2.15.24,6.13,6.13,0,0,1,1.77.71,3.8,3.8,0,0,1,1.19,1.17,2.8,2.8,0,0,1,.45,1.57,2.88,2.88,0,0,1-.45,1.6,3.67,3.67,0,0,1-1.19,1.16,5.86,5.86,0,0,1-1.77.71A9.32,9.32,0,0,1,197.67,51.15Zm0-5.78a6.26,6.26,0,0,0-1.31.14,4.28,4.28,0,0,0-1.13.41,2.34,2.34,0,0,0-.79.65,1.49,1.49,0,0,0,0,1.79,2.23,2.23,0,0,0,.79.65,4,4,0,0,0,1.13.41,5.66,5.66,0,0,0,1.31.15,5.57,5.57,0,0,0,1.3-.15,4.14,4.14,0,0,0,1.14-.41,2.42,2.42,0,0,0,.79-.65,1.53,1.53,0,0,0,0-1.79,2.55,2.55,0,0,0-.79-.65,4.5,4.5,0,0,0-1.14-.41A6.16,6.16,0,0,0,197.68,45.37Z"/><path class="cls-2" d="M208.38,58.27a1.28,1.28,0,0,1-.93-.38,1.3,1.3,0,0,1-.38-.93,1.26,1.26,0,0,1,.38-.92,1.27,1.27,0,0,1,.93-.37,1.21,1.21,0,0,1,.91.37,1.26,1.26,0,0,1,.38.92,1.3,1.3,0,0,1-.38.93A1.22,1.22,0,0,1,208.38,58.27Z"/><rect class="cls-3" width="612" height="310"/></g></g></svg>