<svg xmlns="http://www.w3.org/2000/svg" viewBox="0 0 612 347"><defs><style>.cls-1,.cls-2,.cls-3,.cls-5{fill:none;}.cls-1,.cls-2,.cls-3{stroke:#fff;}.cls-1,.cls-2{stroke-width:2px;}.cls-2{stroke-linecap:square;}.cls-3{stroke-width:1.5px;}.cls-4{fill:#fff;}</style></defs><g id="Layer_2" data-name="Layer 2"><g id="Layer_2_copy_2" data-name="Layer 2 copy 2"><g id="Layer_1-2" data-name="Layer 1-2"><g id="Group-4"><circle id="Oval-10" class="cls-1" cx="477.22" cy="216.6" r="50.22"/><circle id="Oval-10-2" class="cls-1" cx="477.22" cy="216.6" r="36.16"/></g><path id="Line-29" class="cls-2" d="M477.72,279.88v46.21"/></g><g id="Layer_1-2-2" data-name="Layer 1-2"><g id="Group-5"><circle id="Oval-10-2-2" data-name="Oval-10" class="cls-3" cx="129" cy="245.56" r="19.86"/><circle id="Oval-10-2-3" data-name="Oval-10-2" class="cls-4" cx="129" cy="245.56" r="14"/></g><rect id="Rectangle-29" class="cls-1" x="77.03" y="159.16" width="103.95" height="172.81"/><rect id="Rectangle-29-2" class="cls-1" x="70.41" y="147.91" width="117.19" height="195.31" rx="5.3"/></g><path class="cls-4" d="M5.3,11.67a4.91,4.91,0,0,1,1.46.21A3.9,3.9,0,0,1,8,12.47a2.68,2.68,0,0,1,.8.91A2.43,2.43,0,0,1,9,14.54a2.48,2.48,0,0,1-.21,1,2.52,2.52,0,0,1-.6.82,3.13,3.13,0,0,1-.91.6,4.25,4.25,0,0,1-1.13.35v1.43a36.4,36.4,0,0,0,3.92-.41.41.41,0,0,1,.19,0,.16.16,0,0,1,.12.16l.1,1.06a.25.25,0,0,1,0,.2.37.37,0,0,1-.15.08,39,39,0,0,1-4.93.51c-1.7.08-3.37.11-5,.09a.21.21,0,0,1-.17-.08.24.24,0,0,1-.07-.18V19.1c0-.17.08-.26.24-.26,1.29,0,2.59,0,3.91,0V17.31A4.3,4.3,0,0,1,3.2,17a3.94,3.94,0,0,1-.87-.6,2.62,2.62,0,0,1-.56-.81,2.43,2.43,0,0,1,.09-2.16,2.82,2.82,0,0,1,.81-.91,3.9,3.9,0,0,1,1.19-.59A4.82,4.82,0,0,1,5.3,11.67ZM9.85,11a.24.24,0,0,1-.18.07h-9A.29.29,0,0,1,.52,11a.24.24,0,0,1-.1-.19v-1a.26.26,0,0,1,.1-.17.3.3,0,0,1,.19-.09h9a.27.27,0,0,1,.26.26v1A.27.27,0,0,1,9.85,11ZM7.69,8.83a.25.25,0,0,1-.2.09H2.94a.31.31,0,0,1-.16-.07.23.23,0,0,1-.1-.21v-1a.22.22,0,0,1,.1-.19.31.31,0,0,1,.16-.07H7.49a.31.31,0,0,1,.28.28v1A.3.3,0,0,1,7.69,8.83ZM5.3,13.18a2.28,2.28,0,0,0-1.36.39,1.14,1.14,0,0,0-.54,1,1.19,1.19,0,0,0,.53,1,2.29,2.29,0,0,0,1.37.39,2.27,2.27,0,0,0,1.37-.39,1.18,1.18,0,0,0,.54-1,1.14,1.14,0,0,0-.54-1A2.27,2.27,0,0,0,5.3,13.18Zm10.23,2.18a.28.28,0,0,1-.16.07H13.14V23a.2.2,0,0,1-.22.22H11.4a.2.2,0,0,1-.22-.22V7.34a.2.2,0,0,1,.22-.23h1.52a.2.2,0,0,1,.22.23V13.8h2.23a.27.27,0,0,1,.16.06.21.21,0,0,1,.07.16v1.19A.21.21,0,0,1,15.53,15.36Z"/><path class="cls-4" d="M24.64,16a1.3,1.3,0,0,1-.91.26H18.68a1.47,1.47,0,0,1-1-.26,1.22,1.22,0,0,1-.27-.91V9.17a1.17,1.17,0,0,1,.27-.89A1.27,1.27,0,0,1,18.6,8h5.13a1.42,1.42,0,0,1,.91.23,1.24,1.24,0,0,1,.26.91v.65h2.89V7.34A.2.2,0,0,1,28,7.11h1.52a.2.2,0,0,1,.22.23V18.52a.2.2,0,0,1-.22.22H28a.2.2,0,0,1-.22-.22V14.71H24.9V15A1.27,1.27,0,0,1,24.64,16ZM23,9.82a.17.17,0,0,0-.22-.22h-3.2a.29.29,0,0,0-.17,0s-.05.08-.05.17v4.62c0,.12,0,.19.05.21a.29.29,0,0,0,.17,0h3.2a.36.36,0,0,0,.18,0s0-.09,0-.21Zm7.18,13.09A.3.3,0,0,1,30,23H21.16a1.51,1.51,0,0,1-1-.27,1.34,1.34,0,0,1-.27-.94v-3.5a.24.24,0,0,1,.09-.17.22.22,0,0,1,.17-.09h1.44a.25.25,0,0,1,.2.09.27.27,0,0,1,.08.17v2.8a.32.32,0,0,0,.06.23.48.48,0,0,0,.24,0H30a.25.25,0,0,1,.16.06.23.23,0,0,1,.08.16v1.2A.19.19,0,0,1,30.16,22.91Zm-2.37-9.76V11.38H24.9v1.77Z"/><path class="cls-4" d="M42.94,22.7h-1.4a.21.21,0,0,1-.23-.23v-8H39.76a6.8,6.8,0,0,1-.4,1.85,4.86,4.86,0,0,1-.8,1.38,3.3,3.3,0,0,1-1.11.87,3.11,3.11,0,0,1-1.36.3,2.93,2.93,0,0,1-1.48-.37,3.22,3.22,0,0,1-1.13-1.05,5.39,5.39,0,0,1-.72-1.68,8.84,8.84,0,0,1-.26-2.22,9.09,9.09,0,0,1,.27-2.35,5,5,0,0,1,.75-1.66,3,3,0,0,1,1.13-1,3.17,3.17,0,0,1,1.44-.32,3.39,3.39,0,0,1,1.39.28,3.1,3.1,0,0,1,1.14.85,4.37,4.37,0,0,1,.8,1.43,7.43,7.43,0,0,1,.37,2h1.52V7.62a.2.2,0,0,1,.23-.22h1.4a.2.2,0,0,1,.22.22V22.47C43.16,22.62,43.09,22.7,42.94,22.7Zm-5-9.13a8,8,0,0,0-.1-1.29,5,5,0,0,0-.32-1.17,2.54,2.54,0,0,0-.57-.85,1.15,1.15,0,0,0-.83-.32,1,1,0,0,0-.76.33,2.51,2.51,0,0,0-.53.86,6.24,6.24,0,0,0-.3,1.17,7.94,7.94,0,0,0-.1,1.27,7.82,7.82,0,0,0,.1,1.26,6.35,6.35,0,0,0,.3,1.18,2.61,2.61,0,0,0,.53.88,1,1,0,0,0,.76.34,1.11,1.11,0,0,0,.82-.34,2.72,2.72,0,0,0,.56-.87,5,5,0,0,0,.33-1.17A7,7,0,0,0,37.92,13.57Zm8.3,9.69H44.74a.19.19,0,0,1-.22-.22V7.34a.21.21,0,0,1,.24-.23h1.46c.15,0,.22.08.22.23V23A.19.19,0,0,1,46.22,23.26Z"/><path class="cls-4" d="M68,18.83a.21.21,0,0,1,.08.17v1.12a.28.28,0,0,1-.25.25H53a.21.21,0,0,1-.17-.08.29.29,0,0,1-.06-.17V19a.28.28,0,0,1,.06-.18.25.25,0,0,1,.17-.08H67.81A.24.24,0,0,1,68,18.83ZM60.05,15.1a.31.31,0,0,1-.16.11,8.77,8.77,0,0,1-1,.13c-.38,0-.76.06-1.14.08l-1.12,0a7.57,7.57,0,0,1-.87,0,1.52,1.52,0,0,1-.87-.33,1,1,0,0,1-.36-.83v-5a1.06,1.06,0,0,1,.3-.85,1.43,1.43,0,0,1,.94-.26h3.8a.2.2,0,0,1,.23.22V9.58c0,.15-.08.22-.23.22H56.79c-.21,0-.32.1-.32.29v3.35a.43.43,0,0,0,.06.26.53.53,0,0,0,.33.11,2,2,0,0,0,.5,0l.77,0,.83-.07c.28,0,.51-.06.71-.09a.33.33,0,0,1,.2,0c.06,0,.09.08.1.17l.14,1A.28.28,0,0,1,60.05,15.1Zm6.22.27a.2.2,0,0,1-.14.06H61.71a1.22,1.22,0,0,1-.94-.31,1.26,1.26,0,0,1-.29-.9V9.31a1.06,1.06,0,0,1,.3-.88,1.55,1.55,0,0,1,.93-.23H66c.17,0,.25.08.25.22V9.58c0,.15-.08.22-.25.22H62.69c-.21,0-.32.1-.32.29v3.45a.28.28,0,0,0,.08.24.48.48,0,0,0,.24.05H66c.19,0,.29.07.29.22v1.12A.28.28,0,0,1,66.27,15.37Z"/><path class="cls-4" d="M83.94,16.44a.22.22,0,0,1-.17.09H69a.25.25,0,0,1-.17-.08.33.33,0,0,1-.06-.19V15.14c0-.16.07-.24.23-.24H83.77a.25.25,0,0,1,.17.08.21.21,0,0,1,.09.16v1.12A.26.26,0,0,1,83.94,16.44ZM82,22.81a.37.37,0,0,1-.17.05H72.52a1.45,1.45,0,0,1-1-.28,1.34,1.34,0,0,1-.26-.93V18a.28.28,0,0,1,.24-.24h1.46a.25.25,0,0,1,.18.08.23.23,0,0,1,.08.16v3c0,.12,0,.19.06.22a.42.42,0,0,0,.26,0h8.38a.29.29,0,0,1,.17.06.17.17,0,0,1,.08.15v1.22A.17.17,0,0,1,82,22.81Zm-.2-9.71a.3.3,0,0,1-.16.05H72.57a1.45,1.45,0,0,1-1-.28,1.39,1.39,0,0,1-.26-.94V7.66a.28.28,0,0,1,.24-.24H73a.25.25,0,0,1,.18.08.21.21,0,0,1,.07.16v3.59a.3.3,0,0,0,.07.22.51.51,0,0,0,.26,0h8.12a.25.25,0,0,1,.16.06.19.19,0,0,1,.08.14v1.21A.2.2,0,0,1,81.84,13.1Z"/><path class="cls-4" d="M100.58,15.37a.51.51,0,0,1-.16.11c-.32.06-.67.1-1.06.14l-1.19.11-1.21.1-1.13.06v2.44a.27.27,0,0,1-.26.26H94.16a.27.27,0,0,1-.26-.26V16l-1,0-1,0-1,0-.79,0a.19.19,0,0,1-.17-.08.28.28,0,0,1-.07-.19V14.75a.24.24,0,0,1,.07-.18.21.21,0,0,1,.17-.08l2.55,0c.93,0,1.85-.05,2.77-.09s1.8-.09,2.65-.15,1.58-.14,2.21-.23a.3.3,0,0,1,.18,0,.23.23,0,0,1,.11.16l.12,1A.24.24,0,0,1,100.58,15.37ZM95,7.35a5,5,0,0,1,1.59.25,4,4,0,0,1,1.24.66,3.29,3.29,0,0,1,.81,1,2.58,2.58,0,0,1,.29,1.19,2.76,2.76,0,0,1-.29,1.24,3.13,3.13,0,0,1-.81,1,4.43,4.43,0,0,1-1.24.66,5,5,0,0,1-1.59.24,4.9,4.9,0,0,1-1.58-.24,4.23,4.23,0,0,1-1.23-.66,2.84,2.84,0,0,1-1.08-2.24,2.57,2.57,0,0,1,.28-1.19,2.86,2.86,0,0,1,.8-1,3.81,3.81,0,0,1,1.23-.66A4.89,4.89,0,0,1,95,7.35Zm8.51,15.56a.33.33,0,0,1-.16.05H93.67a1.51,1.51,0,0,1-1-.27,1.39,1.39,0,0,1-.26-.94V19.32a.21.21,0,0,1,.07-.16.27.27,0,0,1,.17-.08h1.46a.25.25,0,0,1,.18.08.21.21,0,0,1,.07.16v1.73c0,.12,0,.19.07.23a.51.51,0,0,0,.26,0h8.67a.27.27,0,0,1,.16.06.21.21,0,0,1,.07.16v1.2A.19.19,0,0,1,103.47,22.91ZM95,8.85a2.28,2.28,0,0,0-.78.13,1.91,1.91,0,0,0-.65.34,1.5,1.5,0,0,0-.43.51,1.26,1.26,0,0,0-.16.63,1.34,1.34,0,0,0,.16.66,1.5,1.5,0,0,0,.43.51,2.35,2.35,0,0,0,.65.34,2.55,2.55,0,0,0,.78.13,2.52,2.52,0,0,0,.79-.13,2.67,2.67,0,0,0,.65-.34,1.66,1.66,0,0,0,.44-.51,1.46,1.46,0,0,0,.16-.66,1.37,1.37,0,0,0-.16-.63,1.66,1.66,0,0,0-.44-.51A2.12,2.12,0,0,0,95.75,9,2.26,2.26,0,0,0,95,8.85Zm8,11h-1.51a.21.21,0,0,1-.23-.23V18h-2.9a.21.21,0,0,1-.16-.07.21.21,0,0,1-.08-.15V16.74a.19.19,0,0,1,.08-.15.25.25,0,0,1,.16-.06h2.9V7.34a.21.21,0,0,1,.23-.23H103c.15,0,.22.08.22.23V19.58C103.17,19.73,103.1,19.81,103,19.81Z"/><path class="cls-4" d="M118.19,15.37a1.38,1.38,0,0,1-.93.26H114.1v3.23h6.41a.24.24,0,0,1,.17.09.23.23,0,0,1,.08.18v1.11a.28.28,0,0,1-.25.25H105.7a.2.2,0,0,1-.17-.08.31.31,0,0,1-.07-.17V19.13q0-.27.24-.27h6.45V15.63H109a1.52,1.52,0,0,1-1-.26,1.34,1.34,0,0,1-.26-.93V9.38a1.18,1.18,0,0,1,.28-.91,1.31,1.31,0,0,1,.93-.27h8.26a1.52,1.52,0,0,1,1,.26,1.31,1.31,0,0,1,.26.93v5.07A1.21,1.21,0,0,1,118.19,15.37Zm-1.68-5.31c0-.1,0-.15,0-.18a.26.26,0,0,0-.18-.05H109.9a.34.34,0,0,0-.18,0s0,.08,0,.17v3.74c0,.11,0,.18,0,.2a.26.26,0,0,0,.18,0h6.39a.26.26,0,0,0,.18,0s0-.09,0-.2Z"/><path class="cls-4" d="M130.59,11.62a3.86,3.86,0,0,1-.31,1.57,3.61,3.61,0,0,1-.85,1.24,3.85,3.85,0,0,1-1.32.81,4.78,4.78,0,0,1-1.68.29,4.64,4.64,0,0,1-1.67-.29,3.69,3.69,0,0,1-2.12-2.05,4,4,0,0,1-.29-1.57,4,4,0,0,1,.29-1.54,3.87,3.87,0,0,1,.84-1.26A4,4,0,0,1,124.76,8a4.44,4.44,0,0,1,1.67-.3,4.56,4.56,0,0,1,1.68.3,4.26,4.26,0,0,1,1.32.84,3.89,3.89,0,0,1,.85,1.26A3.82,3.82,0,0,1,130.59,11.62Zm-1.94,0A2.16,2.16,0,0,0,128,10a2.21,2.21,0,0,0-1.61-.6,2.08,2.08,0,0,0-2.2,2.22,2.26,2.26,0,0,0,.61,1.64,2.19,2.19,0,0,0,1.59.61,2.1,2.1,0,0,0,2.22-2.25ZM134.59,20a2.37,2.37,0,0,1-.39,1.32,3.37,3.37,0,0,1-1.06,1,5.77,5.77,0,0,1-1.61.66,8.19,8.19,0,0,1-2,.24,8.42,8.42,0,0,1-2.1-.24,5.57,5.57,0,0,1-1.58-.66,3.23,3.23,0,0,1-1-1,2.62,2.62,0,0,1-.35-1.33,2.57,2.57,0,0,1,.35-1.31,3.13,3.13,0,0,1,1-1A5.57,5.57,0,0,1,127.4,17a8.42,8.42,0,0,1,2.1-.24,8.7,8.7,0,0,1,2,.23,5.48,5.48,0,0,1,1.61.65,3.46,3.46,0,0,1,1.06,1A2.38,2.38,0,0,1,134.59,20Zm-2,.05a1.24,1.24,0,0,0-.24-.75,2.15,2.15,0,0,0-.67-.54,3.25,3.25,0,0,0-1-.33,5.5,5.5,0,0,0-1.18-.11,4.61,4.61,0,0,0-2.19.44,1.38,1.38,0,0,0-.83,1.29,1.2,1.2,0,0,0,.22.72,1.64,1.64,0,0,0,.63.51,3.87,3.87,0,0,0,1,.31,6.47,6.47,0,0,0,1.21.11,6.23,6.23,0,0,0,1.18-.11,4,4,0,0,0,1-.31,2.08,2.08,0,0,0,.67-.51A1.16,1.16,0,0,0,132.56,20.05Zm4.33-6.94a.17.17,0,0,1,.08.14v1.19a.19.19,0,0,1-.08.15.23.23,0,0,1-.16.07h-2.31v1.63a.31.31,0,0,1-.07.17.21.21,0,0,1-.16.07h-1.51a.18.18,0,0,1-.15-.07.26.26,0,0,1-.07-.18V7.34c0-.15.07-.23.22-.23h1.51a.21.21,0,0,1,.23.23V9.72h2.31a.33.33,0,0,1,.16,0,.19.19,0,0,1,.08.15v1.19a.23.23,0,0,1-.08.16.24.24,0,0,1-.16.08h-2.31v1.7h2.31A.27.27,0,0,1,136.89,13.11Z"/><path class="cls-4" d="M157.38,17.91a.21.21,0,0,1-.17.08H142.42a.2.2,0,0,1-.17-.08.31.31,0,0,1-.07-.17v-1a.34.34,0,0,1,.07-.19.21.21,0,0,1,.17-.09h6.39v-.9a5.18,5.18,0,0,1-2.66-.79,1.77,1.77,0,0,1-.87-1.42,1.47,1.47,0,0,1,.28-.86,2.44,2.44,0,0,1,.84-.73,5.24,5.24,0,0,1,1.41-.5,11.31,11.31,0,0,1,4,0,5.32,5.32,0,0,1,1.42.5,2.27,2.27,0,0,1,.84.73,1.47,1.47,0,0,1,.28.86,1.75,1.75,0,0,1-.89,1.43,5.53,5.53,0,0,1-2.71.78v.9h6.37a.4.4,0,0,1,.21.1.24.24,0,0,1,.12.18v1A.24.24,0,0,1,157.38,17.91Zm-1.5-7.4a.23.23,0,0,1-.18.09H144a.26.26,0,0,1-.17-.09.34.34,0,0,1-.08-.2v-.9a.24.24,0,0,1,.09-.17.26.26,0,0,1,.18-.09H155.7a.25.25,0,0,1,.18.08.24.24,0,0,1,.07.18v.92A.24.24,0,0,1,155.88,10.51ZM155,23.36a.23.23,0,0,1-.16.07h-1.43a.24.24,0,0,1-.18-.07.24.24,0,0,1-.08-.16V20.61a.26.26,0,0,0-.07-.22.47.47,0,0,0-.25-.05H144.5a.29.29,0,0,1-.17-.06.17.17,0,0,1-.07-.14V19a.18.18,0,0,1,.07-.15.37.37,0,0,1,.17-.05h9.43a1.21,1.21,0,0,1,.89.26,1.42,1.42,0,0,1,.23.91V23.2A.23.23,0,0,1,155,23.36ZM152.49,8.49a.23.23,0,0,1-.19.09h-5a.35.35,0,0,1-.16-.07.23.23,0,0,1-.09-.19v-1a.2.2,0,0,1,.09-.18.27.27,0,0,1,.16-.07h5a.27.27,0,0,1,.27.27V8.3A.24.24,0,0,1,152.49,8.49Zm-2.67,3.89a5.37,5.37,0,0,0-2,.29c-.46.18-.69.41-.69.68s.23.49.69.67a6.94,6.94,0,0,0,4,0c.46-.18.69-.41.69-.67s-.23-.5-.69-.68A5.36,5.36,0,0,0,149.82,12.38Z"/><path class="cls-4" d="M158.23,16.46a.29.29,0,0,1-.07-.18V15.17a.29.29,0,0,1,.07-.18.22.22,0,0,1,.17-.07h14.81a.27.27,0,0,1,.17.08.24.24,0,0,1,.08.17v1.11a.28.28,0,0,1-.08.18.24.24,0,0,1-.17.09H158.4A.21.21,0,0,1,158.23,16.46Zm7.62-2.9a10.64,10.64,0,0,1-2.19-.21,6.49,6.49,0,0,1-1.7-.61,3.14,3.14,0,0,1-1.12-1,2.28,2.28,0,0,1-.4-1.31,2.33,2.33,0,0,1,.4-1.31,3.07,3.07,0,0,1,1.12-1,6.49,6.49,0,0,1,1.7-.61,10.64,10.64,0,0,1,2.19-.21,10.38,10.38,0,0,1,2.17.21,6.49,6.49,0,0,1,1.7.61,3.07,3.07,0,0,1,1.12,1,2.33,2.33,0,0,1,.4,1.31,2.28,2.28,0,0,1-.4,1.31,3.14,3.14,0,0,1-1.12,1,6.49,6.49,0,0,1-1.7.61A10.38,10.38,0,0,1,165.85,13.56Zm5.68,9.16a.34.34,0,0,1-.17.05h-9.47a1.45,1.45,0,0,1-1-.27,1.33,1.33,0,0,1-.26-.95V17.86a.21.21,0,0,1,.07-.16.24.24,0,0,1,.16-.08h1.47a.25.25,0,0,1,.17.08.23.23,0,0,1,.08.16v3a.26.26,0,0,0,.07.22.47.47,0,0,0,.25.05h8.49a.32.32,0,0,1,.17.06.19.19,0,0,1,.08.14v1.23A.15.15,0,0,1,171.53,22.72Zm-5.68-13.8a7.13,7.13,0,0,0-1.36.11,4.6,4.6,0,0,0-1.06.31,2,2,0,0,0-.7.49,1,1,0,0,0-.25.63.88.88,0,0,0,.25.62,2,2,0,0,0,.7.49,4.6,4.6,0,0,0,1.06.31,7.13,7.13,0,0,0,1.36.11,7,7,0,0,0,1.34-.11,4.6,4.6,0,0,0,1.06-.31,2,2,0,0,0,.7-.49.92.92,0,0,0,.25-.62,1,1,0,0,0-.25-.63,2,2,0,0,0-.7-.49A4.6,4.6,0,0,0,167.19,9,7,7,0,0,0,165.85,8.92Z"/><path class="cls-4" d="M187.39,15.1a1.43,1.43,0,0,1-1,.28h-4.91a1.51,1.51,0,0,1-1-.26,1.26,1.26,0,0,1-.27-.93V7.88a.19.19,0,0,1,.22-.22h1.48a.21.21,0,0,1,.16.07.19.19,0,0,1,.08.15v2.31h3.6V7.86a.22.22,0,0,1,.07-.17.23.23,0,0,1,.15-.07h1.5a.23.23,0,0,1,.15.07.22.22,0,0,1,.07.17v6.38A1.22,1.22,0,0,1,187.39,15.1ZM192,20a2.44,2.44,0,0,1-.38,1.31,3.57,3.57,0,0,1-1.06,1A5.65,5.65,0,0,1,189,23a8,8,0,0,1-2,.24,8.94,8.94,0,0,1-2.1-.23,5,5,0,0,1-1.58-.66,3,3,0,0,1-1-1,2.65,2.65,0,0,1,0-2.63,3,3,0,0,1,1-1,5.45,5.45,0,0,1,1.58-.66,8.42,8.42,0,0,1,2.1-.24,8.55,8.55,0,0,1,2,.23,5.65,5.65,0,0,1,1.61.66,3.43,3.43,0,0,1,1.06,1A2.4,2.4,0,0,1,192,20Zm-6.31-8.25h-3.6v1.72a.26.26,0,0,0,.3.29h3a.26.26,0,0,0,.3-.29Zm4.3,8.3a1.19,1.19,0,0,0-.24-.74,2.15,2.15,0,0,0-.67-.54,4.09,4.09,0,0,0-1-.33,6.31,6.31,0,0,0-1.18-.11,4.73,4.73,0,0,0-2.19.44,1.35,1.35,0,0,0-.83,1.28,1.3,1.3,0,0,0,.85,1.21,4.88,4.88,0,0,0,2.17.42,6.33,6.33,0,0,0,1.18-.1,3.68,3.68,0,0,0,1-.31,1.84,1.84,0,0,0,.67-.51A1.11,1.11,0,0,0,190,20.07Zm4.33-7.23a.23.23,0,0,1-.16.07h-2.31v3.42a.26.26,0,0,1-.07.16.23.23,0,0,1-.16.08h-1.51a.19.19,0,0,1-.15-.08.24.24,0,0,1-.07-.18v-9c0-.15.07-.23.22-.23h1.51a.21.21,0,0,1,.23.23v4h2.31a.27.27,0,0,1,.16.06.17.17,0,0,1,.08.14v1.19A.19.19,0,0,1,194.35,12.84Z"/><path class="cls-4" d="M204.79,10.81a.25.25,0,0,1-.18.08H195.5a.26.26,0,0,1-.19-.09.24.24,0,0,1-.09-.18v-1a.24.24,0,0,1,.1-.17.24.24,0,0,1,.19-.1h9.1a.23.23,0,0,1,.18.09.26.26,0,0,1,.07.18v1A.24.24,0,0,1,204.79,10.81Zm-4.6.57a4.84,4.84,0,0,1,1.45.21,3.74,3.74,0,0,1,1.17.56,2.89,2.89,0,0,1,.77.9,2.36,2.36,0,0,1,.28,1.15,2.45,2.45,0,0,1-.28,1.18,2.66,2.66,0,0,1-.78.89,4.17,4.17,0,0,1-1.18.57,5.28,5.28,0,0,1-2.88,0,4,4,0,0,1-1.15-.57,2.66,2.66,0,0,1-.78-.89,2.57,2.57,0,0,1-.28-1.18,2.47,2.47,0,0,1,.28-1.15,2.79,2.79,0,0,1,.78-.9,3.68,3.68,0,0,1,1.16-.56A4.82,4.82,0,0,1,200.19,11.38Zm2.39-2.69a.28.28,0,0,1-.22.09h-4.53a.29.29,0,0,1-.17-.07.23.23,0,0,1-.09-.2v-1a.23.23,0,0,1,.09-.19.38.38,0,0,1,.17-.07h4.53a.29.29,0,0,1,.21.09.29.29,0,0,1,.08.19v.93A.32.32,0,0,1,202.58,8.69ZM208,20.36a1.87,1.87,0,0,1-.38,1.15,3,3,0,0,1-1,.9A5.74,5.74,0,0,1,205,23a9.27,9.27,0,0,1-2,.21,9.54,9.54,0,0,1-2.09-.21,5.49,5.49,0,0,1-1.59-.58,2.83,2.83,0,0,1-1-.9,2,2,0,0,1-.35-1.15,2,2,0,0,1,.35-1.14,3,3,0,0,1,1-.89,5.8,5.8,0,0,1,1.59-.57,9.54,9.54,0,0,1,2.09-.21,9.27,9.27,0,0,1,2,.21,6.07,6.07,0,0,1,1.61.57,3.22,3.22,0,0,1,1,.89A1.82,1.82,0,0,1,208,20.36Zm-7.83-7.5a2.16,2.16,0,0,0-1.29.37,1.11,1.11,0,0,0-.53,1,1.15,1.15,0,0,0,.53,1,2.51,2.51,0,0,0,2.59,0,1.19,1.19,0,0,0,.52-1,1.15,1.15,0,0,0-.52-1A2.17,2.17,0,0,0,200.19,12.86ZM206,20.41a.82.82,0,0,0-.25-.6,1.88,1.88,0,0,0-.67-.45,4.23,4.23,0,0,0-1-.26,7.34,7.34,0,0,0-1.18-.09,5.74,5.74,0,0,0-2.18.35,1.14,1.14,0,0,0-.83,1.05c0,.44.28.77.84,1a6.08,6.08,0,0,0,2.17.33,8.76,8.76,0,0,0,1.18-.08,3.79,3.79,0,0,0,1-.25,2,2,0,0,0,.67-.4A.76.76,0,0,0,206,20.41Zm4.33-6.83a.18.18,0,0,1,.07.15v1.2a.21.21,0,0,1-.07.16.34.34,0,0,1-.18.07h-2.3v1.9a.19.19,0,0,1-.22.22h-1.51c-.15,0-.22-.08-.22-.24V7.34c0-.15.07-.23.22-.23h1.51c.15,0,.22.08.22.23v3.07h2.3a.32.32,0,0,1,.18.06.18.18,0,0,1,.07.15v1.19a.21.21,0,0,1-.07.15.34.34,0,0,1-.18.07h-2.3v1.49h2.3A.32.32,0,0,1,210.35,13.58Z"/><path class="cls-4" d="M224.37,15.83a.24.24,0,0,1-.18.07h-2.11v3h3.83a.24.24,0,0,1,.17.09.21.21,0,0,1,.08.17v1.12a.28.28,0,0,1-.25.25H211.1a.2.2,0,0,1-.17-.08.31.31,0,0,1-.07-.17V19.12a.29.29,0,0,1,.07-.18.23.23,0,0,1,.17-.08h3.83v-3h-2.11a.24.24,0,0,1-.18-.08.29.29,0,0,1-.09-.21v-1a.26.26,0,0,1,.09-.17.29.29,0,0,1,.18-.08h1.94V9.82h-1.62a.26.26,0,0,1-.18-.09.24.24,0,0,1-.11-.2v-1c0-.06,0-.11.11-.17a.26.26,0,0,1,.18-.09h10.73a.25.25,0,0,1,.18.08.24.24,0,0,1,.07.18v1a.26.26,0,0,1-.07.19.25.25,0,0,1-.18.08h-1.62v4.52h1.94a.25.25,0,0,1,.18.08.25.25,0,0,1,.08.17v1A.28.28,0,0,1,224.37,15.83Zm-7.71-6v4.52h3.69V9.82Zm3.47,9v-3h-3.25v3Z"/><path class="cls-4" d="M228.78,19.49a.4.4,0,0,1-.59,0l-.79-.74c-.18-.16-.16-.34.06-.53A11.36,11.36,0,0,0,229.33,16a11.76,11.76,0,0,0,1.27-2.62c.14-.4.25-.81.35-1.21s.17-.81.24-1.23a12.85,12.85,0,0,0,.12-1.29c0-.45,0-.92,0-1.42a.27.27,0,0,1,.08-.18.21.21,0,0,1,.16-.07l1.51,0a.19.19,0,0,1,.16.08.27.27,0,0,1,.06.17c0,.68,0,1.32-.07,1.91s-.12,1.15-.21,1.7a7.31,7.31,0,0,0,.51,1.61,11.68,11.68,0,0,0,.85,1.56,13.37,13.37,0,0,0,1.05,1.37,9.93,9.93,0,0,0,1.1,1.07c.19.13.2.31,0,.52l-.72.87a.3.3,0,0,1-.23.14.4.4,0,0,1-.29-.1,8.9,8.9,0,0,1-.89-.8c-.3-.32-.6-.67-.89-1a12.36,12.36,0,0,1-.79-1.15,8.1,8.1,0,0,1-.58-1.13,11.43,11.43,0,0,1-.7,1.4,14.28,14.28,0,0,1-.84,1.29c-.3.41-.61.78-.92,1.13A9.55,9.55,0,0,1,228.78,19.49ZM240.55,23c0,.14-.08.22-.24.22h-1.5a.27.27,0,0,1-.16-.06.21.21,0,0,1-.08-.16V7.34a.23.23,0,0,1,.08-.16.28.28,0,0,1,.16-.07h1.5a.21.21,0,0,1,.24.23Z"/><path class="cls-4" d="M242.82,15.12V14a.34.34,0,0,1,.07-.18.22.22,0,0,1,.17-.07h14.81a.27.27,0,0,1,.17.08.24.24,0,0,1,.08.17v1.09a.19.19,0,0,1-.08.16.27.27,0,0,1-.17.08H243.06A.21.21,0,0,1,242.82,15.12Zm13-5.23a2.06,2.06,0,0,1-.35,1.14,2.74,2.74,0,0,1-1,.92,5.72,5.72,0,0,1-1.67.6,11.52,11.52,0,0,1-4.58,0,5.72,5.72,0,0,1-1.67-.6,2.82,2.82,0,0,1-1-.92,2.06,2.06,0,0,1-.35-1.14,2.13,2.13,0,0,1,.35-1.16,3,3,0,0,1,1-.94,6.34,6.34,0,0,1,1.67-.62,11.52,11.52,0,0,1,4.58,0,6.34,6.34,0,0,1,1.67.62,3,3,0,0,1,1,.94A2.13,2.13,0,0,1,255.83,9.89ZM256,23a.21.21,0,0,1-.15.07h-9.48a1.32,1.32,0,0,1-.9-.23,1.08,1.08,0,0,1-.24-.79V20a1.07,1.07,0,0,1,.23-.78,1.23,1.23,0,0,1,.89-.24h7.21c.09,0,.15,0,.17,0s0-.08,0-.2v-.51a.53.53,0,0,0,0-.23.33.33,0,0,0-.19,0h-8.11a.27.27,0,0,1-.16-.06.19.19,0,0,1-.08-.14V16.67a.19.19,0,0,1,.08-.15.23.23,0,0,1,.16-.07h9.1a1.42,1.42,0,0,1,.92.21,1,1,0,0,1,.23.79v2a1,1,0,0,1-.23.8,1.5,1.5,0,0,1-.92.2h-7.18a.3.3,0,0,0-.17,0,.43.43,0,0,0,0,.2v.58a.31.31,0,0,0,0,.18.66.66,0,0,0,.19,0h8.47a.23.23,0,0,1,.16.07.22.22,0,0,1,.07.17v1.11A.23.23,0,0,1,256,23ZM250.49,8.42a8.05,8.05,0,0,0-1.36.11,4.58,4.58,0,0,0-1.06.32,2.09,2.09,0,0,0-.7.47.91.91,0,0,0-.25.58.8.8,0,0,0,.25.56,2.23,2.23,0,0,0,.7.45,4.61,4.61,0,0,0,1.06.3,8.11,8.11,0,0,0,1.36.1,8.07,8.07,0,0,0,1.35-.1,4.56,4.56,0,0,0,1.07-.3,2.12,2.12,0,0,0,.7-.45.86.86,0,0,0,.25-.57.82.82,0,0,0-.25-.57,2,2,0,0,0-.7-.47,4.52,4.52,0,0,0-1.07-.32A8,8,0,0,0,250.49,8.42Z"/><path class="cls-4" d="M49.42,52.16a.25.25,0,0,1-.17.08H42.83v1.29H46a1.35,1.35,0,0,1,.92.22,1,1,0,0,1,.23.79v2a1,1,0,0,1-.23.8,1.43,1.43,0,0,1-.92.2H38.8c-.09,0-.15,0-.17,0a.36.36,0,0,0,0,.19v.53a.31.31,0,0,0,0,.18.56.56,0,0,0,.19,0h8.45a.27.27,0,0,1,.17.07.23.23,0,0,1,.08.17v1.11a.24.24,0,0,1-.08.16.25.25,0,0,1-.16.07H37.81a1.34,1.34,0,0,1-.9-.23,1.08,1.08,0,0,1-.24-.79V57.09a1.13,1.13,0,0,1,.23-.79,1.32,1.32,0,0,1,.9-.23H45a.29.29,0,0,0,.17,0s0-.08,0-.2v-.47c0-.13,0-.2,0-.22s-.08,0-.18,0H36.86a.25.25,0,0,1-.16-.06.23.23,0,0,1-.08-.16V53.75a.22.22,0,0,1,.08-.15.26.26,0,0,1,.16-.07h4V52.24H34.45a.21.21,0,0,1-.24-.24V51a.28.28,0,0,1,.07-.19.21.21,0,0,1,.17-.08h14.8a.22.22,0,0,1,.17.09.26.26,0,0,1,.09.18v1A.21.21,0,0,1,49.42,52.16Zm-2.11-2.69a.33.33,0,0,1-.16.05h-9.1a1.46,1.46,0,0,1-1-.27,1.3,1.3,0,0,1-.27-.94V44.25A.28.28,0,0,1,37,44h1.48a.25.25,0,0,1,.18.08.21.21,0,0,1,.07.16v3.4a.29.29,0,0,0,.07.22.42.42,0,0,0,.26.05h8.11a.28.28,0,0,1,.16.07.21.21,0,0,1,.07.15v1.18A.17.17,0,0,1,47.31,49.47Z"/><path class="cls-4" d="M59.85,55.73a.41.41,0,0,1-.23.13,15.54,15.54,0,0,1-1.59.26l-1.85.17c-.63,0-1.24.07-1.84.08s-1.12,0-1.57,0a1.59,1.59,0,0,1-1-.3,1.3,1.3,0,0,1-.28-.92V51a1.14,1.14,0,0,1,.3-.88,1.3,1.3,0,0,1,.89-.27h3.4a.27.27,0,0,0,.19-.05s0-.09,0-.21V47.19a.44.44,0,0,0,0-.19s-.09,0-.21,0H51.77a.25.25,0,0,1-.16-.06.23.23,0,0,1-.08-.16V45.56a.17.17,0,0,1,.08-.14.25.25,0,0,1,.16-.06h5.3a1.25,1.25,0,0,1,1,.27,1.43,1.43,0,0,1,.22.88v3.83a1.14,1.14,0,0,1-.27.88,1.45,1.45,0,0,1-.94.24H53.66a.21.21,0,0,0-.24.24v2.73c0,.2.1.29.31.29q1.29,0,2.7-.09c.94-.07,1.94-.19,3-.35a.21.21,0,0,1,.19.06.42.42,0,0,1,.11.21l.17,1A.21.21,0,0,1,59.85,55.73Zm3.92,4.52H62.26A.2.2,0,0,1,62,60V51.56H59.27a.25.25,0,0,1-.16-.06.2.2,0,0,1-.06-.14V50.15a.2.2,0,0,1,.06-.15.21.21,0,0,1,.16-.07H62V44.34c0-.15.07-.23.22-.23h1.51c.15,0,.22.08.22.23V60A.2.2,0,0,1,63.77,60.25Z"/><path class="cls-4" d="M86.13,52.53a.24.24,0,0,1-.17.08H71.17a.19.19,0,0,1-.17-.08.25.25,0,0,1-.07-.17V51.25a.26.26,0,0,1,.07-.18.2.2,0,0,1,.17-.09H77v-2.7c0-.16.07-.24.23-.24h1.48a.21.21,0,0,1,.24.24V51h6.92a.31.31,0,0,1,.2.1c.08.06.12.12.12.17v1.11A.27.27,0,0,1,86.13,52.53ZM84,57a2.46,2.46,0,0,1-.36,1.29,3.36,3.36,0,0,1-1.05,1,5.91,5.91,0,0,1-1.7.69,11,11,0,0,1-4.58,0,5.91,5.91,0,0,1-1.7-.69,3.26,3.26,0,0,1-1-1,2.42,2.42,0,0,1,0-2.57,3.21,3.21,0,0,1,1-1,5.64,5.64,0,0,1,1.7-.68,10.61,10.61,0,0,1,4.58,0,5.64,5.64,0,0,1,1.7.68,3.31,3.31,0,0,1,1.05,1A2.46,2.46,0,0,1,84,57ZM84,45.7c0,.22,0,.53,0,.92s-.05.8-.08,1.21-.08.81-.12,1.18a7.27,7.27,0,0,1-.14.83.55.55,0,0,1-.12.24.26.26,0,0,1-.23.09l-1.31-.12q-.25,0-.21-.36c0-.19.07-.43.11-.72s.06-.59.08-.89l.06-.87c0-.28,0-.51,0-.68s0-.26-.11-.3a.79.79,0,0,0-.35-.06H73.65a.29.29,0,0,1-.17-.06.17.17,0,0,1-.09-.14V44.78a.18.18,0,0,1,.09-.16.37.37,0,0,1,.17,0h9.2a1.34,1.34,0,0,1,.78.25A1,1,0,0,1,84,45.7Zm-5.39,9.5a6.1,6.1,0,0,0-1.5.16,4.2,4.2,0,0,0-1.08.42,2.09,2.09,0,0,0-.66.57,1.06,1.06,0,0,0-.23.62,1.08,1.08,0,0,0,.23.62,2.09,2.09,0,0,0,.66.57,3.87,3.87,0,0,0,1.08.41,6.1,6.1,0,0,0,1.5.16,6.19,6.19,0,0,0,1.49-.16,3.75,3.75,0,0,0,1.08-.41,2.26,2.26,0,0,0,.67-.57,1.08,1.08,0,0,0,.23-.62,1.06,1.06,0,0,0-.23-.62,2.26,2.26,0,0,0-.67-.57,4.06,4.06,0,0,0-1.08-.42A6.19,6.19,0,0,0,78.58,55.2Z"/><path class="cls-4" d="M88.49,54.08c-.26.1-.45.05-.56-.16l-.48-.86a.39.39,0,0,1,0-.28c0-.09.1-.16.22-.22a12.76,12.76,0,0,0,3.62-2.37,6.88,6.88,0,0,0,1.87-3,1.42,1.42,0,0,0,.09-.37c0-.07-.11-.1-.32-.1H88.25a.19.19,0,0,1-.16-.08.28.28,0,0,1-.06-.18V45.32a.21.21,0,0,1,.24-.24H94a1.78,1.78,0,0,1,1.06.24.94.94,0,0,1,.3.78c0,.06,0,.13,0,.22s0,.19-.05.28,0,.19-.06.26a.91.91,0,0,1,0,.16,10.11,10.11,0,0,1-2.35,4.17A13,13,0,0,1,88.49,54.08Zm12,5.83a.41.41,0,0,1-.17.05h-9a1.49,1.49,0,0,1-1-.27,1.34,1.34,0,0,1-.27-.94V55a.24.24,0,0,1,.08-.16.27.27,0,0,1,.17-.07h1.45a.28.28,0,0,1,.19.07A.24.24,0,0,1,92,55v3.06c0,.12,0,.19.07.23a.43.43,0,0,0,.24,0h8a.32.32,0,0,1,.17.06.23.23,0,0,1,.08.16v1.2A.19.19,0,0,1,100.48,59.91Zm1.89-9.11a.28.28,0,0,1-.18.06H99.9v4.49c0,.15-.08.22-.24.22h-1.5A.23.23,0,0,1,98,55.5a.19.19,0,0,1-.08-.15v-11a.23.23,0,0,1,.08-.16.28.28,0,0,1,.16-.07h1.5a.21.21,0,0,1,.24.23v4.89h2.29a.28.28,0,0,1,.18.06.19.19,0,0,1,.08.15v1.2A.23.23,0,0,1,102.37,50.8Z"/><path class="cls-4" d="M102.89,52.12V51a.27.27,0,0,1,.07-.18.21.21,0,0,1,.17-.07h14.8a.25.25,0,0,1,.17.08.26.26,0,0,1,.09.17v1.09a.21.21,0,0,1-.09.16.25.25,0,0,1-.17.08h-14.8A.21.21,0,0,1,102.89,52.12Zm13-5.23a2.05,2.05,0,0,1-.34,1.14,2.9,2.9,0,0,1-1,.92,5.79,5.79,0,0,1-1.68.6,11.47,11.47,0,0,1-4.57,0,5.9,5.9,0,0,1-1.68-.6,2.78,2.78,0,0,1-1-.92,2,2,0,0,1-.35-1.14,2,2,0,0,1,.35-1.16,3,3,0,0,1,1-.94,6.56,6.56,0,0,1,1.68-.62,11.47,11.47,0,0,1,4.57,0,6.42,6.42,0,0,1,1.68.62,3.15,3.15,0,0,1,1,.94A2.12,2.12,0,0,1,115.89,46.89ZM116.07,60a.21.21,0,0,1-.14.07h-9.49a1.34,1.34,0,0,1-.9-.23,1.08,1.08,0,0,1-.24-.79V57a1.12,1.12,0,0,1,.23-.78,1.25,1.25,0,0,1,.89-.24h7.21c.09,0,.15,0,.17,0s0-.08,0-.2v-.51a.38.38,0,0,0,0-.23.29.29,0,0,0-.18,0h-8.11a.25.25,0,0,1-.16-.06.16.16,0,0,1-.08-.14V53.67a.17.17,0,0,1,.08-.15.21.21,0,0,1,.16-.07h9.09a1.43,1.43,0,0,1,.93.21,1.08,1.08,0,0,1,.23.79v2a1.07,1.07,0,0,1-.23.8,1.51,1.51,0,0,1-.93.2h-7.17a.27.27,0,0,0-.17,0,.31.31,0,0,0,0,.2v.58c0,.1,0,.16,0,.18a.53.53,0,0,0,.18,0h8.47a.21.21,0,0,1,.16.07.23.23,0,0,1,.08.17v1.11A.24.24,0,0,1,116.07,60Zm-5.51-14.55a8,8,0,0,0-1.36.11,4.67,4.67,0,0,0-1.07.32,1.94,1.94,0,0,0-.69.47.86.86,0,0,0-.25.58.76.76,0,0,0,.25.56,2.06,2.06,0,0,0,.69.45,4.71,4.71,0,0,0,1.07.3,8,8,0,0,0,1.36.1,8.23,8.23,0,0,0,1.35-.1,4.71,4.71,0,0,0,1.07-.3,2.23,2.23,0,0,0,.7-.45.85.85,0,0,0,.24-.57.81.81,0,0,0-.24-.57,2.09,2.09,0,0,0-.7-.47,4.67,4.67,0,0,0-1.07-.32A8.2,8.2,0,0,0,110.56,45.42Z"/><path class="cls-4" d="M128.92,56.34a3.8,3.8,0,0,1-1.76-.41,3.7,3.7,0,0,1-1.31-1.15A5.58,5.58,0,0,1,125,53a9.23,9.23,0,0,1,0-4.59,5.32,5.32,0,0,1,.83-1.76,3.65,3.65,0,0,1,1.31-1.13,4.07,4.07,0,0,1,3.52,0,3.7,3.7,0,0,1,1.3,1.13,5.13,5.13,0,0,1,.83,1.76,9.35,9.35,0,0,1,0,4.62,5.37,5.37,0,0,1-.83,1.77,3.8,3.8,0,0,1-1.3,1.13A3.9,3.9,0,0,1,128.92,56.34Zm2.26-5.61a6.54,6.54,0,0,0-.16-1.49,4.56,4.56,0,0,0-.44-1.23,2.66,2.66,0,0,0-.7-.84,1.61,1.61,0,0,0-1-.3,1.57,1.57,0,0,0-1,.3,2.56,2.56,0,0,0-.71.84,4.56,4.56,0,0,0-.44,1.23,7.16,7.16,0,0,0-.16,1.49,7,7,0,0,0,.16,1.47,4.76,4.76,0,0,0,.44,1.24,2.5,2.5,0,0,0,.71.85,1.51,1.51,0,0,0,1,.31,1.55,1.55,0,0,0,1-.31,2.6,2.6,0,0,0,.7-.85A4.76,4.76,0,0,0,131,52.2,6.43,6.43,0,0,0,131.18,50.73Zm6.13,9.3a.2.2,0,0,1-.22.22h-1.51a.2.2,0,0,1-.22-.22V44.34c0-.15.07-.23.22-.23h1.51c.15,0,.22.08.22.23Z"/><path class="cls-4" d="M152.54,50a.2.2,0,0,1-.15.06h-4.16V51.8h6.41a.28.28,0,0,1,.25.25v1.13a.28.28,0,0,1-.25.25H139.85a.21.21,0,0,1-.17-.08.23.23,0,0,1-.07-.17V52.05a.23.23,0,0,1,.07-.17.19.19,0,0,1,.17-.08h6.42V50.05h-3a1.19,1.19,0,0,1-1-.31,1.26,1.26,0,0,1-.28-.9V45.51a1.1,1.1,0,0,1,.29-.88,1.56,1.56,0,0,1,.94-.23h8.94c.16,0,.24.08.24.22v1.16a.21.21,0,0,1-.24.24h-7.87c-.22,0-.32.09-.32.29v1.83a.36.36,0,0,0,.06.22.31.31,0,0,0,.26.09h7.95a.55.55,0,0,1,.21,0,.2.2,0,0,1,.07.17v1.14A.28.28,0,0,1,152.54,50Zm.06,7.35a2.38,2.38,0,0,1-1.39,2.16,10.75,10.75,0,0,1-7.94,0,2.37,2.37,0,0,1,0-4.31,10.62,10.62,0,0,1,7.94,0A2.39,2.39,0,0,1,152.6,57.34Zm-5.36-1.43a6.08,6.08,0,0,0-2.56.42c-.57.28-.86.62-.86,1s.29.73.86,1a6.08,6.08,0,0,0,2.56.42,6,6,0,0,0,2.56-.42c.57-.28.86-.62.86-1s-.29-.75-.86-1A6,6,0,0,0,147.24,55.91Z"/><path class="cls-4" d="M163.93,49.05a.25.25,0,0,1-.18.08h-7.6A.26.26,0,0,1,156,49a.23.23,0,0,1-.09-.18v-1a.24.24,0,0,1,.09-.17.24.24,0,0,1,.18-.08h7.6a.24.24,0,0,1,.25.25v1A.24.24,0,0,1,163.93,49.05Zm-3.79,1a3.62,3.62,0,0,1,1.41.27,3.31,3.31,0,0,1,1.09.73,3.27,3.27,0,0,1,.71,1.08,3.66,3.66,0,0,1,.25,1.33,3.77,3.77,0,0,1-.25,1.35,3.21,3.21,0,0,1-.71,1.09,3,3,0,0,1-1.09.73,3.62,3.62,0,0,1-1.41.27,3.57,3.57,0,0,1-1.4-.27,3,3,0,0,1-1.09-.73,3.16,3.16,0,0,1-.69-1.09,3.56,3.56,0,0,1-.25-1.35,3.46,3.46,0,0,1,.25-1.33,3.22,3.22,0,0,1,.69-1.08,3.31,3.31,0,0,1,1.09-.73A3.57,3.57,0,0,1,160.14,50Zm2.1-3.5a.22.22,0,0,1-.19.1H158a.27.27,0,0,1-.16-.08.23.23,0,0,1-.1-.2v-1a.22.22,0,0,1,.1-.19A.31.31,0,0,1,158,45h4.08a.26.26,0,0,1,.19.09.27.27,0,0,1,.08.18v1A.29.29,0,0,1,162.24,46.5Zm-2.1,5a1.67,1.67,0,0,0-.71.15,1.49,1.49,0,0,0-.54.42,1.82,1.82,0,0,0-.34.61,2.18,2.18,0,0,0-.12.72,2.25,2.25,0,0,0,.12.74,1.86,1.86,0,0,0,.34.62,1.41,1.41,0,0,0,.54.43,1.67,1.67,0,0,0,.71.15,1.75,1.75,0,0,0,.74-.15,1.49,1.49,0,0,0,.54-.43,1.86,1.86,0,0,0,.34-.62,2.25,2.25,0,0,0,.12-.74,2.18,2.18,0,0,0-.12-.72,1.82,1.82,0,0,0-.34-.61,1.58,1.58,0,0,0-.54-.42A1.75,1.75,0,0,0,160.14,51.51Zm7.94-7.17a.21.21,0,0,1,.24-.23h1.46c.15,0,.22.08.22.23V60a.2.2,0,0,1-.22.22H168.3a.2.2,0,0,1-.22-.22V52h-1.44v7.38c0,.16-.08.24-.22.24H165c-.16,0-.23-.08-.23-.24V44.64c0-.15.07-.22.23-.22h1.4a.2.2,0,0,1,.22.22v5.73h1.44Z"/><path class="cls-4" d="M186.78,57.41a.21.21,0,0,1-.17.08h-14.8a.19.19,0,0,1-.17-.08.25.25,0,0,1-.07-.17V56.13a.26.26,0,0,1,.07-.18.2.2,0,0,1,.17-.09h6.42V52.75h-3.11a1.52,1.52,0,0,1-1-.25,1.31,1.31,0,0,1-.27-1V45.05a.18.18,0,0,1,.07-.15.25.25,0,0,1,.15,0h1.5a.33.33,0,0,1,.16,0,.18.18,0,0,1,.07.15v2.4h6.84V45a.19.19,0,0,1,.07-.15.18.18,0,0,1,.15-.07h1.51a.21.21,0,0,1,.16.07.22.22,0,0,1,.06.15v6.58a1.19,1.19,0,0,1-.27.85,1.36,1.36,0,0,1-1,.29h-3.11v3.11h6.42a.21.21,0,0,1,.17.1.26.26,0,0,1,.09.17v1.11A.24.24,0,0,1,186.78,57.41ZM182.62,49h-6.84v1.83c0,.2.11.29.31.29h6.22c.21,0,.31-.09.31-.29Z"/><path class="cls-4" d="M189.15,56.39a.35.35,0,0,1-.55,0l-.76-.75a.31.31,0,0,1,0-.51,8.3,8.3,0,0,0,1.53-1.9,10.46,10.46,0,0,0,1-2.26,15,15,0,0,0,.54-2.64,28.6,28.6,0,0,0,.16-3c0-.17.07-.25.22-.25l1.41.05a.27.27,0,0,1,.17.08.22.22,0,0,1,.08.18c0,.85,0,1.63-.07,2.35a15.34,15.34,0,0,1-.27,2,8.76,8.76,0,0,0,.51,1.46,12,12,0,0,0,.77,1.42,13.57,13.57,0,0,0,.88,1.24,6.45,6.45,0,0,0,.89.91.28.28,0,0,1,.05.45l-.78.79a.31.31,0,0,1-.51,0,5.14,5.14,0,0,1-.73-.64c-.24-.27-.48-.55-.71-.85a11.09,11.09,0,0,1-.65-1,10,10,0,0,1-.5-1.05,10,10,0,0,1-1.12,2A13.73,13.73,0,0,1,189.15,56.39Zm9.3,3.31h-1.4c-.17,0-.25-.08-.25-.23v-8.4h-2.55a.31.31,0,0,1-.17-.07.22.22,0,0,1-.07-.17V49.67a.17.17,0,0,1,.07-.14.29.29,0,0,1,.17-.06h2.55V44.61c0-.15.08-.22.25-.22h1.4a.2.2,0,0,1,.22.22V59.47A.2.2,0,0,1,198.45,59.7Zm3.29.58h-1.48a.2.2,0,0,1-.22-.22V44.34a.21.21,0,0,1,.24-.23h1.46c.15,0,.22.08.22.23V60.06A.19.19,0,0,1,201.74,60.28Z"/><path class="cls-4" d="M218.74,57.41a.21.21,0,0,1-.17.08h-14.8a.19.19,0,0,1-.17-.08.25.25,0,0,1-.07-.17V56.13q0-.27.24-.27h3.4V53.21c0-.16.08-.24.25-.24h1.46c.17,0,.26.08.26.24v2.65h4.06V53.21c0-.16.09-.24.26-.24h1.46a.24.24,0,0,1,.18.07.21.21,0,0,1,.07.17v2.65h3.4a.22.22,0,0,1,.17.09.24.24,0,0,1,.09.18v1.11A.24.24,0,0,1,218.74,57.41Zm-7.58-5a9.06,9.06,0,0,1-2.12-.24,6.12,6.12,0,0,1-1.77-.7,3.67,3.67,0,0,1-1.21-1.17,2.93,2.93,0,0,1-.44-1.6,2.9,2.9,0,0,1,.44-1.57A3.85,3.85,0,0,1,207.27,46a5.87,5.87,0,0,1,1.77-.72,9.07,9.07,0,0,1,2.12-.23,9.27,9.27,0,0,1,2.15.23,5.66,5.66,0,0,1,1.77.72,3.92,3.92,0,0,1,1.2,1.16,2.9,2.9,0,0,1,.44,1.57,2.93,2.93,0,0,1-.44,1.6,3.73,3.73,0,0,1-1.2,1.17,5.9,5.9,0,0,1-1.77.7A9.26,9.26,0,0,1,211.16,52.41Zm0-5.78a6.43,6.43,0,0,0-1.32.14,5,5,0,0,0-1.13.41,2.46,2.46,0,0,0-.79.66,1.4,1.4,0,0,0-.3.88,1.44,1.44,0,0,0,.3.9,2.46,2.46,0,0,0,.79.66,5,5,0,0,0,1.13.41,6.43,6.43,0,0,0,1.32.14,6.31,6.31,0,0,0,1.3-.14,5,5,0,0,0,1.13-.41,2.46,2.46,0,0,0,.79-.66,1.44,1.44,0,0,0,.3-.9,1.4,1.4,0,0,0-.3-.88,2.46,2.46,0,0,0-.79-.66,5,5,0,0,0-1.13-.41A6.31,6.31,0,0,0,211.18,46.63Z"/><path class="cls-4" d="M221.87,59.53a1.3,1.3,0,0,1-1.31-1.31,1.24,1.24,0,0,1,.38-.91,1.3,1.3,0,0,1,.93-.38,1.26,1.26,0,0,1,.92.38,1.23,1.23,0,0,1,.37.91,1.26,1.26,0,0,1-.37.93A1.22,1.22,0,0,1,221.87,59.53Z"/><path class="cls-4" d="M378.09,10.89a.25.25,0,0,1,.14-.07l2.16-.05c.7,0,1.38-.06,2-.12a2.26,2.26,0,0,0,.15-.39c.05-.14.1-.27.14-.41a.77.77,0,0,0,.05-.39c0-.07-.12-.1-.29-.1h-3.79a.19.19,0,0,1-.16-.08.28.28,0,0,1-.06-.18v-1a.21.21,0,0,1,.24-.24h4.74a1.72,1.72,0,0,1,1,.24.92.92,0,0,1,.31.78,1.49,1.49,0,0,1,0,.19,2.56,2.56,0,0,1-.05.27c0,.09,0,.17,0,.24a.91.91,0,0,1,0,.16,9.35,9.35,0,0,1-2.18,3.79,11.17,11.17,0,0,1-3.91,2.61q-.36.15-.51-.12l-.47-.82a.3.3,0,0,1-.05-.27.35.35,0,0,1,.2-.22,13.85,13.85,0,0,0,2.1-1.16,8.42,8.42,0,0,0,1.57-1.34l-1.58.09c-.52,0-1,.05-1.56.05a.31.31,0,0,1-.16-.07.26.26,0,0,1-.08-.19v-1A.21.21,0,0,1,378.09,10.89Zm13,11.82a1.39,1.39,0,0,1-1,.28h-8a1.52,1.52,0,0,1-1-.25,1.27,1.27,0,0,1-.27-.94v-5a.18.18,0,0,1,.07-.15.2.2,0,0,1,.15-.06h1.5a.27.27,0,0,1,.16.06.18.18,0,0,1,.07.15v1.6h6.69V16.77a.2.2,0,0,1,.06-.15.21.21,0,0,1,.16-.07h1.51a.24.24,0,0,1,.22.22v5.08A1.2,1.2,0,0,1,391.05,22.71ZM389.37,20h-6.69V21.1c0,.2.11.29.31.29H389c.22,0,.33-.09.33-.29Zm0-12.69c0-.14.08-.22.24-.22h1.46a.2.2,0,0,1,.22.22V15.6a.2.2,0,0,1-.22.22h-1.48a.2.2,0,0,1-.22-.22V12.5h-1.48v2.88c0,.15-.07.23-.22.23h-1.4a.21.21,0,0,1-.23-.23V7.61c0-.15.08-.22.23-.22h1.4a.19.19,0,0,1,.22.22v3.26h1.48Z"/><path class="cls-4" d="M394.43,17.2a.46.46,0,0,1-.22-.16l-.7-.8q-.17-.18-.12-.3a.39.39,0,0,1,.19-.22,8.46,8.46,0,0,0,2.85-3.18,10.24,10.24,0,0,0,.94-4.61.29.29,0,0,1,.09-.21.24.24,0,0,1,.17-.1l1.49.09c.15,0,.22.08.22.25a12.84,12.84,0,0,1-.47,3.61,6.61,6.61,0,0,0,.67,1.18,7.37,7.37,0,0,0,.87,1,9.21,9.21,0,0,0,.95.85,5.39,5.39,0,0,0,.93.58c.18.09.2.24.06.43l-.63.92a.31.31,0,0,1-.46.1,8.83,8.83,0,0,1-1.81-1.29A8.3,8.3,0,0,1,398,13.62a8.66,8.66,0,0,1-1.38,1.89,11.64,11.64,0,0,1-1.87,1.58C394.62,17.19,394.51,17.23,394.43,17.2ZM407,22.94a.25.25,0,0,1-.16,0H398a1.46,1.46,0,0,1-1-.27,1.34,1.34,0,0,1-.26-.93V18.06a.21.21,0,0,1,.08-.16.23.23,0,0,1,.16-.08h1.46a.25.25,0,0,1,.18.08.23.23,0,0,1,.07.16v3a.3.3,0,0,0,.07.22.51.51,0,0,0,.26.05h7.87a.23.23,0,0,1,.16.07.19.19,0,0,1,.08.15v1.21A.16.16,0,0,1,407,22.94ZM401.67,12.4h3V11.18h-3a.34.34,0,0,1-.17-.07.22.22,0,0,1-.08-.15V9.82a.19.19,0,0,1,.08-.15.32.32,0,0,1,.17-.06h3V7.33a.2.2,0,0,1,.22-.22h1.52a.2.2,0,0,1,.22.22v11a.2.2,0,0,1-.22.22h-1.52a.19.19,0,0,1-.22-.22V14h-3a.3.3,0,0,1-.17-.05.19.19,0,0,1-.08-.15V12.6a.19.19,0,0,1,.08-.14A.32.32,0,0,1,401.67,12.4Z"/><path class="cls-4" d="M413.83,19.27a3.69,3.69,0,0,1-3.07-1.53,5.57,5.57,0,0,1-.83-1.75,8.43,8.43,0,0,1-.28-2.26,8.7,8.7,0,0,1,.28-2.31,5.32,5.32,0,0,1,.83-1.76,3.76,3.76,0,0,1,1.32-1.13,4.1,4.1,0,0,1,3.51,0,3.9,3.9,0,0,1,1.31,1.12,5.18,5.18,0,0,1,.84,1.75,8.61,8.61,0,0,1,.29,2.3,8.69,8.69,0,0,1-.29,2.31,5.43,5.43,0,0,1-.84,1.76,3.79,3.79,0,0,1-1.31,1.12A3.86,3.86,0,0,1,413.83,19.27Zm2.28-5.58a7.07,7.07,0,0,0-.16-1.48,4.41,4.41,0,0,0-.44-1.21,2.52,2.52,0,0,0-.71-.83,1.66,1.66,0,0,0-1-.3,1.6,1.6,0,0,0-.95.3,2.62,2.62,0,0,0-.7.83,4.41,4.41,0,0,0-.44,1.21,6.88,6.88,0,0,0,0,2.95,4.61,4.61,0,0,0,.44,1.22,2.66,2.66,0,0,0,.7.84,1.55,1.55,0,0,0,.95.32,1.61,1.61,0,0,0,1-.32,2.56,2.56,0,0,0,.71-.84,4.61,4.61,0,0,0,.44-1.22A7,7,0,0,0,416.11,13.69Zm8.2,1.21a.23.23,0,0,1-.16.07h-2.3V23a.2.2,0,0,1-.07.16.29.29,0,0,1-.17.06h-1.49c-.16,0-.24-.08-.24-.22V7.33c0-.14.08-.22.24-.22h1.49a.31.31,0,0,1,.17.07.21.21,0,0,1,.07.15v6h2.3a.27.27,0,0,1,.16.06.16.16,0,0,1,.07.14v1.19A.22.22,0,0,1,424.31,14.9Z"/><path class="cls-4" d="M430.13,19.34a3.73,3.73,0,0,1-1.75-.41,3.82,3.82,0,0,1-1.32-1.15,5.52,5.52,0,0,1-.82-1.78,8.16,8.16,0,0,1-.29-2.27,8.3,8.3,0,0,1,.29-2.31,5.31,5.31,0,0,1,.82-1.76,3.76,3.76,0,0,1,1.32-1.13,4.05,4.05,0,0,1,3.51,0,3.73,3.73,0,0,1,1.31,1.13,5.12,5.12,0,0,1,.82,1.76,8.3,8.3,0,0,1,.29,2.31A8.3,8.3,0,0,1,434,16a5.36,5.36,0,0,1-.82,1.77,3.66,3.66,0,0,1-3.07,1.53Zm2.26-5.61a7.17,7.17,0,0,0-.15-1.49A4.56,4.56,0,0,0,431.8,11a2.69,2.69,0,0,0-.71-.84,1.69,1.69,0,0,0-1.92,0,2.69,2.69,0,0,0-.71.84,4.56,4.56,0,0,0-.44,1.23,7.17,7.17,0,0,0-.15,1.49A7,7,0,0,0,428,15.2a4.76,4.76,0,0,0,.44,1.24,2.62,2.62,0,0,0,.71.85,1.64,1.64,0,0,0,1.92,0,2.62,2.62,0,0,0,.71-.85,4.76,4.76,0,0,0,.44-1.24A7,7,0,0,0,432.39,13.73Zm6.14,9.3a.2.2,0,0,1-.22.22h-1.52a.2.2,0,0,1-.22-.22V7.33a.2.2,0,0,1,.22-.22h1.52a.2.2,0,0,1,.22.22Z"/><path class="cls-4" d="M456,16.75a.24.24,0,0,1-.17.09H441.06a.21.21,0,0,1-.17-.09.28.28,0,0,1-.07-.17V15.46a.29.29,0,0,1,.07-.18.22.22,0,0,1,.17-.07H447v-2a.26.26,0,0,1,.26-.26h1.46a.25.25,0,0,1,.18.08.24.24,0,0,1,.07.18v2h6.92a.22.22,0,0,1,.17.08.24.24,0,0,1,.09.17v1.12A.22.22,0,0,1,456,16.75Zm-1.92,6a.37.37,0,0,1-.17.05h-9.4a1.46,1.46,0,0,1-1-.28,1.4,1.4,0,0,1-.26-1V18.21a.27.27,0,0,1,.07-.17.27.27,0,0,1,.17-.08h1.46a.25.25,0,0,1,.18.08.23.23,0,0,1,.07.17v2.67c0,.12,0,.19.07.22a.41.41,0,0,0,.26.06h8.41a.29.29,0,0,1,.17.06.15.15,0,0,1,.09.14v1.22A.18.18,0,0,1,454.1,22.74ZM443.56,10.6h2.24l2.25,0,2.1,0c.66,0,1.25,0,1.76-.07,0-.19,0-.37,0-.54s0-.34,0-.5,0-.25-.11-.29a.76.76,0,0,0-.35-.06h-8a.27.27,0,0,1-.17-.06.18.18,0,0,1-.09-.15V7.73a.18.18,0,0,1,.09-.16.34.34,0,0,1,.17-.05h9.26a1.24,1.24,0,0,1,.78.26,1,1,0,0,1,.34.88c0,.15,0,.36,0,.62s0,.56,0,.88-.05.65-.08,1-.06.68-.09,1-.08.62-.11.89-.08.48-.11.64a.66.66,0,0,1-.13.25.26.26,0,0,1-.23.09l-1.31-.12c-.17,0-.24-.15-.21-.38s.07-.46.11-.72.06-.52.1-.81c-1.23.07-2.55.11-4,.13l-4.26,0a.19.19,0,0,1-.15-.08.28.28,0,0,1-.07-.19V10.84C443.34,10.68,443.41,10.6,443.56,10.6Z"/><path class="cls-4" d="M456.8,15.12V14a.31.31,0,0,1,.07-.18.22.22,0,0,1,.17-.07h14.81a.27.27,0,0,1,.17.08.24.24,0,0,1,.08.17v1.09a.19.19,0,0,1-.08.16.27.27,0,0,1-.17.08H457A.21.21,0,0,1,456.8,15.12Zm13-5.23a2.06,2.06,0,0,1-.35,1.14,2.82,2.82,0,0,1-1,.92,5.72,5.72,0,0,1-1.67.6,12,12,0,0,1-4.58,0,5.72,5.72,0,0,1-1.67-.6,2.82,2.82,0,0,1-1-.92,2.06,2.06,0,0,1-.35-1.14,2.13,2.13,0,0,1,.35-1.16,3,3,0,0,1,1-.94,6.34,6.34,0,0,1,1.67-.62,11.52,11.52,0,0,1,4.58,0,6.34,6.34,0,0,1,1.67.62,3,3,0,0,1,1,.94A2.13,2.13,0,0,1,469.81,9.89ZM470,23a.21.21,0,0,1-.15.07h-9.48a1.32,1.32,0,0,1-.9-.23,1.08,1.08,0,0,1-.24-.79V20a1.07,1.07,0,0,1,.23-.78,1.23,1.23,0,0,1,.89-.24h7.21c.09,0,.15,0,.17,0s0-.08,0-.2v-.51a.53.53,0,0,0,0-.23.33.33,0,0,0-.19,0h-8.11a.27.27,0,0,1-.16-.06.19.19,0,0,1-.08-.14V16.67a.19.19,0,0,1,.08-.15.23.23,0,0,1,.16-.07h9.1a1.42,1.42,0,0,1,.92.21,1,1,0,0,1,.23.79v2a1,1,0,0,1-.23.8,1.5,1.5,0,0,1-.92.2h-7.18a.3.3,0,0,0-.17,0,.43.43,0,0,0,0,.2v.58a.31.31,0,0,0,0,.18.66.66,0,0,0,.19,0h8.47a.23.23,0,0,1,.16.07.22.22,0,0,1,.07.17v1.11A.23.23,0,0,1,470,23ZM464.47,8.42a8.05,8.05,0,0,0-1.36.11,4.58,4.58,0,0,0-1.06.32,2.09,2.09,0,0,0-.7.47.91.91,0,0,0-.25.58.8.8,0,0,0,.25.56,2.23,2.23,0,0,0,.7.45,4.61,4.61,0,0,0,1.06.3,8.11,8.11,0,0,0,1.36.1,8.07,8.07,0,0,0,1.35-.1,4.56,4.56,0,0,0,1.07-.3,2,2,0,0,0,.7-.46.76.76,0,0,0,0-1.13,2,2,0,0,0-.7-.47,4.52,4.52,0,0,0-1.07-.32A8,8,0,0,0,464.47,8.42Z"/><path class="cls-4" d="M480.13,10.4a.18.18,0,0,1,.15-.07h2.27l2.32,0,2.15,0,1.78-.07c0-.16,0-.32,0-.47V9.27c0-.16,0-.25-.11-.29a.74.74,0,0,0-.34-.06h-8.11a.27.27,0,0,1-.17-.06.18.18,0,0,1-.09-.15V7.56a.18.18,0,0,1,.09-.16.34.34,0,0,1,.17-.05h9.35a1.17,1.17,0,0,1,.83.28,1.24,1.24,0,0,1,.29.91c0,.24,0,.54,0,.91s0,.77-.07,1.2-.07.87-.12,1.33-.12.88-.2,1.29h2.28a.27.27,0,0,1,.17.08.24.24,0,0,1,.08.17v1.07a.24.24,0,0,1-.08.18.26.26,0,0,1-.17.1H477.78a.22.22,0,0,1-.17-.1.34.34,0,0,1-.07-.18V13.52a.34.34,0,0,1,.07-.18.22.22,0,0,1,.17-.07h10.71c.05-.24.09-.49.13-.75s.07-.53.09-.82c-.62,0-1.28.06-2,.08l-2.12,0-2.18,0h-2.16a.19.19,0,0,1-.15-.08.24.24,0,0,1-.07-.18v-1A.24.24,0,0,1,480.13,10.4ZM490.82,23a.25.25,0,0,1-.15.07H481.1a1.3,1.3,0,0,1-.9-.23A1.08,1.08,0,0,1,480,22V19.88a1.07,1.07,0,0,1,.23-.78,1.23,1.23,0,0,1,.89-.24h7.31a.49.49,0,0,0,.17,0,.31.31,0,0,0,0-.18V18c0-.13,0-.2,0-.22s-.09,0-.19,0h-8.21a.25.25,0,0,1-.16-.06.17.17,0,0,1-.08-.14V16.41a.22.22,0,0,1,.08-.15.21.21,0,0,1,.16-.07h9.18a1.43,1.43,0,0,1,.93.21,1.1,1.1,0,0,1,.23.79V19.3a1.06,1.06,0,0,1-.23.8,1.43,1.43,0,0,1-.93.21h-7.26c-.09,0-.15,0-.17,0a.36.36,0,0,0,0,.18v.73a.31.31,0,0,0,0,.18.61.61,0,0,0,.19,0h8.55a.29.29,0,0,1,.17.06.19.19,0,0,1,.09.16v1.13A.22.22,0,0,1,490.82,23Z"/><path class="cls-4" d="M503.89,15.42a.24.24,0,0,1-.15.09c-.52.1-1.1.2-1.74.27s-1.3.15-2,.19-1.36.08-2,.09-1.32,0-1.92,0a1.38,1.38,0,0,1-.9-.28,1.06,1.06,0,0,1-.24-.78V12.16a1,1,0,0,1,.23-.74,1.07,1.07,0,0,1,.77-.23h4a.38.38,0,0,0,.2,0s0-.1,0-.22V9.65c0-.13,0-.2,0-.22s-.09,0-.2,0h-4.73a.23.23,0,0,1-.16-.07.18.18,0,0,1-.07-.15V8.07a.18.18,0,0,1,.07-.15.27.27,0,0,1,.16-.06H501a1.18,1.18,0,0,1,.9.27,1.24,1.24,0,0,1,.23.85v2.55a1.13,1.13,0,0,1-.26.87,1.15,1.15,0,0,1-.81.24h-3.94a.31.31,0,0,0-.2,0s-.05.09-.05.2v1.34c0,.19.1.29.32.29h1.59c.55,0,1.09,0,1.64-.08l1.6-.14c.52-.06,1-.13,1.48-.21a.5.5,0,0,1,.17,0,.14.14,0,0,1,.11.13l.17,1A.15.15,0,0,1,503.89,15.42ZM507,23.14a.23.23,0,0,1-.16.07h-1.46a.24.24,0,0,1-.18-.07.24.24,0,0,1-.08-.16V19.47a.26.26,0,0,0-.07-.22.47.47,0,0,0-.25-.05H497a.25.25,0,0,1-.17-.07.18.18,0,0,1-.07-.15V17.77a.17.17,0,0,1,.07-.15.37.37,0,0,1,.17-.05h8.9a1.21,1.21,0,0,1,.89.26,1.36,1.36,0,0,1,.24.91V23A.24.24,0,0,1,507,23.14Zm-.15-6.42h-1.51a.19.19,0,0,1-.22-.22V7.33a.2.2,0,0,1,.09-.15.28.28,0,0,1,.17-.07h1.51c.12,0,.19.08.19.22v9.15A.21.21,0,0,1,506.83,16.72Z"/><path class="cls-4" d="M517.84,12.05a.25.25,0,0,1-.18.08h-7.6a.26.26,0,0,1-.17-.09.22.22,0,0,1-.1-.18v-1a.22.22,0,0,1,.1-.17.26.26,0,0,1,.17-.09h7.6a.27.27,0,0,1,.26.26v1A.25.25,0,0,1,517.84,12.05Zm-3.78.95a3.53,3.53,0,0,1,1.4.27,3.36,3.36,0,0,1,1.1.73,3.24,3.24,0,0,1,.7,1.08,3.46,3.46,0,0,1,.25,1.33,3.56,3.56,0,0,1-.25,1.35,3.18,3.18,0,0,1-1.8,1.82,3.76,3.76,0,0,1-2.8,0,3.08,3.08,0,0,1-1.09-.73,3.34,3.34,0,0,1-.7-1.09,3.77,3.77,0,0,1-.25-1.35,3.66,3.66,0,0,1,.25-1.33,3.41,3.41,0,0,1,.7-1.08,3.21,3.21,0,0,1,1.09-.73A3.53,3.53,0,0,1,514.06,13Zm2.1-3.5a.26.26,0,0,1-.2.1h-4.08a.3.3,0,0,1-.16-.08.25.25,0,0,1-.09-.2v-1a.23.23,0,0,1,.09-.19.27.27,0,0,1,.16-.07H516a.26.26,0,0,1,.19.09.24.24,0,0,1,.09.18v1A.29.29,0,0,1,516.16,9.5Zm-2.1,5a1.64,1.64,0,0,0-.71.15,1.52,1.52,0,0,0-.55.42,1.82,1.82,0,0,0-.34.61,2.18,2.18,0,0,0-.12.72,2.25,2.25,0,0,0,.12.74,2,2,0,0,0,.34.62,1.55,1.55,0,0,0,.55.43,1.64,1.64,0,0,0,.71.15,1.7,1.7,0,0,0,.73-.15,1.43,1.43,0,0,0,.54-.43,2,2,0,0,0,.34-.62,2.25,2.25,0,0,0,.12-.74,2.18,2.18,0,0,0-.12-.72,1.82,1.82,0,0,0-.34-.61,1.41,1.41,0,0,0-.54-.42A1.7,1.7,0,0,0,514.06,14.51ZM522,7.33c0-.14.08-.22.24-.22h1.46a.2.2,0,0,1,.22.22V23a.2.2,0,0,1-.22.22h-1.48A.2.2,0,0,1,522,23V15h-1.45v7.38c0,.16-.07.24-.22.24h-1.39a.21.21,0,0,1-.24-.24V7.64c0-.15.08-.22.24-.22h1.39a.19.19,0,0,1,.22.22v5.73H522Z"/><path class="cls-4" d="M531.84,16.26a.78.78,0,0,1-.28,0,.29.29,0,0,1-.26-.19l-.53-.85a.31.31,0,0,1,0-.28.42.42,0,0,1,.21-.23,12.82,12.82,0,0,0,3.29-2.12A8.59,8.59,0,0,0,536.31,10a.42.42,0,0,0,.07-.27c0-.08-.11-.12-.29-.12h-4.27a.2.2,0,0,1-.17-.09.28.28,0,0,1-.06-.18V8.19c0-.16.08-.24.25-.24h5.46a1.85,1.85,0,0,1,1.11.27.79.79,0,0,1,.28.83c0,.13-.05.26-.08.39a3.78,3.78,0,0,1-.12.36,8,8,0,0,1-.54,1.11,10.71,10.71,0,0,1-.75,1.1,8.33,8.33,0,0,0,.68.61,8.47,8.47,0,0,0,.76.58c.26.18.52.35.78.5s.51.29.73.4a.49.49,0,0,1,.24.18c0,.06,0,.15-.07.26l-.56,1c-.11.2-.28.24-.51.13a7,7,0,0,1-.7-.4,8.94,8.94,0,0,1-.84-.57c-.28-.21-.57-.44-.85-.67s-.55-.47-.79-.7a16.91,16.91,0,0,1-2,1.64A15.1,15.1,0,0,1,531.84,16.26Zm11.3,6.88a.24.24,0,0,1-.18.07h-1.45a.26.26,0,0,1-.18-.07.22.22,0,0,1-.09-.16V19.2a.3.3,0,0,0-.07-.24.41.41,0,0,0-.23-.05h-7.69a.27.27,0,0,1-.16-.06.19.19,0,0,1-.08-.14V17.5a.19.19,0,0,1,.08-.16.27.27,0,0,1,.16-.06h8.83a1.18,1.18,0,0,1,.89.27,1.39,1.39,0,0,1,.24.92V23A.23.23,0,0,1,543.14,23.14Zm2.57-10.42a.27.27,0,0,1-.18.07h-2.3v3.42a.19.19,0,0,1-.22.22H541.5c-.15,0-.22-.08-.22-.24V7.33a.2.2,0,0,1,.22-.22H543a.2.2,0,0,1,.22.22v3.83h2.3a.32.32,0,0,1,.18.06.19.19,0,0,1,.07.16v1.19A.18.18,0,0,1,545.71,12.72Z"/><path class="cls-4" d="M558.74,22.72a1.5,1.5,0,0,1-1,.27h-7.84a1.52,1.52,0,0,1-1-.26,1.29,1.29,0,0,1-.26-.93V18.93A1.16,1.16,0,0,1,549,18a1.5,1.5,0,0,1,1-.27h3V16.09h-6.43a.21.21,0,0,1-.24-.24V14.71a.34.34,0,0,1,.07-.18.22.22,0,0,1,.17-.07h14.81a.27.27,0,0,1,.17.08.24.24,0,0,1,.08.17v1.14a.19.19,0,0,1-.08.16.27.27,0,0,1-.17.08h-6.43v1.65h2.93a1.53,1.53,0,0,1,1,.25,1.29,1.29,0,0,1,.27.94V21.8A1.13,1.13,0,0,1,558.74,22.72ZM548.81,9a.24.24,0,0,1-.18-.08.29.29,0,0,1-.09-.21v-1a.24.24,0,0,1,.09-.17.26.26,0,0,1,.18-.09h10.11a.27.27,0,0,1,.26.26v1a.25.25,0,0,1-.08.18.24.24,0,0,1-.18.07h-1.6V11.7h1.91a.25.25,0,0,1,.18.08.24.24,0,0,1,.07.18v1a.27.27,0,0,1-.07.2.24.24,0,0,1-.18.07H548.5a.28.28,0,0,1-.19-.08.3.3,0,0,1-.1-.21V12a.26.26,0,0,1,.1-.17.3.3,0,0,1,.19-.09h1.91V9Zm8.31,10.66q0-.27-.24-.27h-6.07a.22.22,0,0,0-.18.06.46.46,0,0,0,0,.2v1.51a.35.35,0,0,0,0,.19.36.36,0,0,0,.18,0h6.07a.43.43,0,0,0,.2,0s0-.09,0-.19ZM552.29,9V11.7h3.15V9Z"/><path class="cls-4" d="M562.51,18.21a.24.24,0,0,1,.19-.08q1.2,0,2.55,0c.89,0,1.78-.06,2.67-.1s1.76-.11,2.6-.18,1.6-.16,2.31-.25a.42.42,0,0,1,.19,0,.16.16,0,0,1,.13.16l.1,1.11a.24.24,0,0,1-.06.21.29.29,0,0,1-.16.09c-.63.09-1.37.18-2.23.26s-1.74.15-2.67.2-1.88.1-2.82.13-1.81,0-2.61,0a.26.26,0,0,1-.26-.26V18.39A.24.24,0,0,1,562.51,18.21ZM567.58,8.1a4.6,4.6,0,0,1,1.62.28,4,4,0,0,1,1.32.8,3.83,3.83,0,0,1,1.2,2.86,3.86,3.86,0,0,1-.32,1.63,3.64,3.64,0,0,1-.88,1.22,4.16,4.16,0,0,1-1.32.78,4.86,4.86,0,0,1-1.64.27,4.75,4.75,0,0,1-1.62-.27,4,4,0,0,1-1.3-.78,3.48,3.48,0,0,1-.87-1.22,4.14,4.14,0,0,1,0-3.24,3.7,3.7,0,0,1,.87-1.25,3.88,3.88,0,0,1,1.31-.8A4.62,4.62,0,0,1,567.58,8.1Zm0,1.61a2.16,2.16,0,0,0-1.6.63,2.3,2.3,0,0,0-.63,1.7,2.32,2.32,0,0,0,.63,1.72,2.16,2.16,0,0,0,1.6.63,2.22,2.22,0,0,0,1.63-.63,2.32,2.32,0,0,0,.63-1.72,2.3,2.3,0,0,0-.63-1.7A2.22,2.22,0,0,0,567.58,9.71ZM575.91,23c0,.14-.08.22-.24.22h-1.5a.25.25,0,0,1-.16-.06.21.21,0,0,1-.08-.16V7.33a.22.22,0,0,1,.08-.15.26.26,0,0,1,.16-.07h1.5c.16,0,.24.08.24.22Z"/><path class="cls-4" d="M344.09,53.26a.47.47,0,0,1-.34.1.44.44,0,0,1-.22-.15l-.69-.8c-.12-.12-.16-.23-.13-.31a.48.48,0,0,1,.19-.22,12.34,12.34,0,0,0,1.67-1.33A6.55,6.55,0,0,0,345.75,49a7.12,7.12,0,0,0,.71-1.88,10.86,10.86,0,0,0,.24-2.41.26.26,0,0,1,.08-.2.24.24,0,0,1,.17-.09l1.5.07c.14,0,.22.09.22.26a12.13,12.13,0,0,1-.26,2.63,5.85,5.85,0,0,0,.71,1.23,8.79,8.79,0,0,0,1.95,1.91,6.45,6.45,0,0,0,1,.57c.19.08.23.21.1.41l-.59.93a.31.31,0,0,1-.46.14,7.68,7.68,0,0,1-1.93-1.25,8.7,8.7,0,0,1-1.52-1.76,8.75,8.75,0,0,1-1.46,2A13.74,13.74,0,0,1,344.09,53.26ZM355.72,57a2.44,2.44,0,0,1-.38,1.31,3.33,3.33,0,0,1-1.07,1,5.68,5.68,0,0,1-1.62.67,8.27,8.27,0,0,1-2,.24,8.48,8.48,0,0,1-2.1-.24,5.25,5.25,0,0,1-1.59-.67,3,3,0,0,1-1-1,2.49,2.49,0,0,1-.36-1.32,2.46,2.46,0,0,1,.36-1.31,3,3,0,0,1,1-1,5.25,5.25,0,0,1,1.59-.67,8.48,8.48,0,0,1,2.1-.24,8.27,8.27,0,0,1,2,.24,6,6,0,0,1,1.62.66,3.28,3.28,0,0,1,1.07,1A2.46,2.46,0,0,1,355.72,57Zm-2,0a1.18,1.18,0,0,0-.26-.75,1.94,1.94,0,0,0-.68-.54,3.76,3.76,0,0,0-1-.34,5.79,5.79,0,0,0-1.19-.12,4.69,4.69,0,0,0-2.21.45,1.41,1.41,0,0,0-.84,1.3,1.16,1.16,0,0,0,.23.71,1.81,1.81,0,0,0,.63.52,3.49,3.49,0,0,0,1,.32,5.92,5.92,0,0,0,1.23.11,5.79,5.79,0,0,0,1.19-.11,3.76,3.76,0,0,0,1-.32,2,2,0,0,0,.68-.52A1.07,1.07,0,0,0,353.72,57.07ZM358,49.86a.25.25,0,0,1-.17.07h-2.31v3.4a.23.23,0,0,1-.07.16.19.19,0,0,1-.15.08h-1.51a.19.19,0,0,1-.15-.08.24.24,0,0,1-.07-.18v-9a.2.2,0,0,1,.22-.22h1.51a.2.2,0,0,1,.22.22v4h2.31a.29.29,0,0,1,.17.06.18.18,0,0,1,.07.15v1.19A.21.21,0,0,1,358,49.86Z"/><path class="cls-4" d="M360.14,56.39a.34.34,0,0,1-.54,0l-.77-.75c-.17-.16-.16-.33,0-.51a8.87,8.87,0,0,0,1.53-1.9,10.54,10.54,0,0,0,1-2.27,14.75,14.75,0,0,0,.53-2.63,26.17,26.17,0,0,0,.16-3c0-.17.08-.25.22-.25l1.42.05a.29.29,0,0,1,.17.08.25.25,0,0,1,.08.17c0,.86,0,1.64-.08,2.36a15.38,15.38,0,0,1-.26,2,7.49,7.49,0,0,0,.51,1.46,11.37,11.37,0,0,0,.77,1.42,10.75,10.75,0,0,0,.88,1.23,6.57,6.57,0,0,0,.88.92c.17.15.19.3.05.44l-.78.8a.31.31,0,0,1-.51,0,4.6,4.6,0,0,1-.72-.64c-.24-.27-.48-.55-.71-.85a9.24,9.24,0,0,1-.65-1,7.14,7.14,0,0,1-.5-1.05,10.54,10.54,0,0,1-1.12,2A14.62,14.62,0,0,1,360.14,56.39Zm9.3,3.31h-1.39c-.17,0-.26-.08-.26-.24V51.07h-2.55a.28.28,0,0,1-.16-.07.23.23,0,0,1-.08-.17V49.67a.19.19,0,0,1,.08-.14.27.27,0,0,1,.16-.06h2.55V44.61c0-.15.09-.22.26-.22h1.39a.19.19,0,0,1,.22.22V59.46C369.66,59.62,369.59,59.7,369.44,59.7Zm3.3.58h-1.48a.19.19,0,0,1-.22-.22V44.33c0-.14.08-.22.24-.22h1.46a.2.2,0,0,1,.22.22V60.06A.19.19,0,0,1,372.74,60.28Z"/><path class="cls-4" d="M375.83,52.56l-.68-.81a.37.37,0,0,1-.09-.27.27.27,0,0,1,.18-.23,7,7,0,0,0,2.91-2.74,8,8,0,0,0,.91-4,.22.22,0,0,1,.1-.19.34.34,0,0,1,.17-.07l1.47.07c.14,0,.22.09.22.26a10.18,10.18,0,0,1-.34,2.67,5.88,5.88,0,0,0,.68,1.12,8.11,8.11,0,0,0,.88,1,7.77,7.77,0,0,0,1,.77,7.42,7.42,0,0,0,1,.54c.19.08.22.22.1.42l-.58.92a.33.33,0,0,1-.44.14A7,7,0,0,1,381.39,51a9.45,9.45,0,0,1-1.49-1.72,8.26,8.26,0,0,1-3.52,3.35C376.13,52.73,376,52.72,375.83,52.56Zm12.75,7.58a.23.23,0,0,1-.15.07h-9.18a1.23,1.23,0,0,1-.9-.25,1.14,1.14,0,0,1-.24-.8v-2a1.12,1.12,0,0,1,.23-.78,1.23,1.23,0,0,1,.89-.24h6.87c.09,0,.15,0,.17-.05a.45.45,0,0,0,0-.21v-.57c0-.13,0-.21-.06-.23a.3.3,0,0,0-.2,0h-7.73a.29.29,0,0,1-.17-.06.15.15,0,0,1-.07-.14V53.67a.21.21,0,0,1,.07-.16.27.27,0,0,1,.17-.08h8.73a1.3,1.3,0,0,1,.93.24,1.17,1.17,0,0,1,.23.81v2a1.12,1.12,0,0,1-.23.81,1.37,1.37,0,0,1-.93.22h-6.81c-.09,0-.15,0-.17.05s0,.08,0,.18v.67c0,.11,0,.17.05.18a.51.51,0,0,0,.21,0h8.12a.25.25,0,0,1,.17.07.21.21,0,0,1,.07.17V60A.23.23,0,0,1,388.58,60.14ZM383,48.36V47.21a.18.18,0,0,1,.07-.15.28.28,0,0,1,.18-.06h3V44.33a.2.2,0,0,1,.22-.22H388a.2.2,0,0,1,.22.22v8.1a.28.28,0,0,1-.07.16.22.22,0,0,1-.15.08h-1.52a.21.21,0,0,1-.15-.08.23.23,0,0,1-.07-.16V48.57h-3a.28.28,0,0,1-.18-.06A.18.18,0,0,1,383,48.36Z"/><path class="cls-4" d="M399.1,52.47a1.25,1.25,0,0,1-.91.26h-5.05a1.4,1.4,0,0,1-1-.26,1.29,1.29,0,0,1-.27-.93V46a1.26,1.26,0,0,1,.26-.9,1.36,1.36,0,0,1,.91-.24h5.14a1.36,1.36,0,0,1,.91.23,1.2,1.2,0,0,1,.26.91v.46h2.89v-2.1a.2.2,0,0,1,.22-.22H404a.2.2,0,0,1,.22.22V53.4a.2.2,0,0,1-.22.23h-1.52a.2.2,0,0,1-.22-.23V51.27h-2.89v.27A1.34,1.34,0,0,1,399.1,52.47Zm-1.64-5.86a.35.35,0,0,0,0-.19.26.26,0,0,0-.18,0H394a.36.36,0,0,0-.18,0s0,.08,0,.19V51c0,.1,0,.16,0,.19a.36.36,0,0,0,.18,0h3.23a.36.36,0,0,0,.18,0,.35.35,0,0,0,0-.19ZM404.33,57a2.32,2.32,0,0,1-.39,1.31,3.24,3.24,0,0,1-1.06,1,5.49,5.49,0,0,1-1.61.66,8.79,8.79,0,0,1-2,.23,9,9,0,0,1-2.1-.23,5.51,5.51,0,0,1-1.59-.65,3.14,3.14,0,0,1-1-1,2.52,2.52,0,0,1-.35-1.33,2.44,2.44,0,0,1,.35-1.3,3.35,3.35,0,0,1,1-1,5.24,5.24,0,0,1,1.59-.65,8.5,8.5,0,0,1,2.1-.23,8.28,8.28,0,0,1,2,.23,5.76,5.76,0,0,1,1.61.64,3.32,3.32,0,0,1,1.06,1A2.32,2.32,0,0,1,404.33,57Zm-2,0a1.12,1.12,0,0,0-.25-.73,1.9,1.9,0,0,0-.67-.53,3.76,3.76,0,0,0-1-.32,5.79,5.79,0,0,0-1.19-.11,4.93,4.93,0,0,0-2.2.42,1.36,1.36,0,0,0-.83,1.27,1.29,1.29,0,0,0,.85,1.21,5.08,5.08,0,0,0,2.18.41,6.59,6.59,0,0,0,1.19-.1,3.76,3.76,0,0,0,1-.31,1.84,1.84,0,0,0,.67-.5A1,1,0,0,0,402.32,57.08Zm-.07-7.34V48h-2.89v1.78Z"/><path class="cls-4" d="M406.48,52.12V51a.31.31,0,0,1,.07-.18.22.22,0,0,1,.17-.07h14.81a.27.27,0,0,1,.17.08.24.24,0,0,1,.08.17v1.09a.19.19,0,0,1-.08.16.27.27,0,0,1-.17.08H406.72A.21.21,0,0,1,406.48,52.12Zm13-5.23a2.06,2.06,0,0,1-.35,1.14,2.74,2.74,0,0,1-1,.92,5.72,5.72,0,0,1-1.67.6,10.53,10.53,0,0,1-2.29.22,10.37,10.37,0,0,1-2.28-.22,5.68,5.68,0,0,1-1.68-.6,2.82,2.82,0,0,1-1-.92,2.06,2.06,0,0,1-.35-1.14,2.13,2.13,0,0,1,.35-1.16,3,3,0,0,1,1-.94,6.29,6.29,0,0,1,1.68-.62,10.33,10.33,0,0,1,2.28-.23,10.49,10.49,0,0,1,2.29.23,6.34,6.34,0,0,1,1.67.62,2.87,2.87,0,0,1,1,.94A2.13,2.13,0,0,1,419.49,46.89ZM419.67,60a.21.21,0,0,1-.15.07H410a1.32,1.32,0,0,1-.9-.23,1.08,1.08,0,0,1-.24-.79V57a1.07,1.07,0,0,1,.23-.78A1.23,1.23,0,0,1,410,56h7.21c.09,0,.15,0,.17,0s0-.08,0-.2v-.51a.53.53,0,0,0,0-.23.33.33,0,0,0-.19,0H409.1a.27.27,0,0,1-.16-.06.19.19,0,0,1-.08-.14V53.67a.19.19,0,0,1,.08-.15.23.23,0,0,1,.16-.07h9.1a1.42,1.42,0,0,1,.92.21,1,1,0,0,1,.23.79v2a1,1,0,0,1-.23.8,1.5,1.5,0,0,1-.92.2H411a.3.3,0,0,0-.17,0,.43.43,0,0,0,0,.2v.58a.31.31,0,0,0,0,.18.66.66,0,0,0,.19,0h8.47a.23.23,0,0,1,.16.07.22.22,0,0,1,.07.17v1.11A.23.23,0,0,1,419.67,60Zm-5.52-14.55a8.05,8.05,0,0,0-1.36.11,4.58,4.58,0,0,0-1.06.32,2.09,2.09,0,0,0-.7.47.89.89,0,0,0-.24.58.79.79,0,0,0,.24.56,2.23,2.23,0,0,0,.7.45,4.61,4.61,0,0,0,1.06.3,9.23,9.23,0,0,0,2.71,0,4.56,4.56,0,0,0,1.07-.3,2,2,0,0,0,.7-.46.76.76,0,0,0,0-1.13,2,2,0,0,0-.7-.47,4.52,4.52,0,0,0-1.07-.32A8,8,0,0,0,414.15,45.42Z"/><path class="cls-4" d="M427.73,53.23l2,0c.69,0,1.39,0,2.09,0v-.85a4,4,0,0,1-2-.75,1.76,1.76,0,0,1-.74-1.41,1.64,1.64,0,0,1,.26-.88,2.44,2.44,0,0,1,.75-.71,3.71,3.71,0,0,1,1.16-.48,6.25,6.25,0,0,1,1.5-.17,6.49,6.49,0,0,1,1.52.17,3.65,3.65,0,0,1,1.15.48,2.4,2.4,0,0,1,.74.71,1.56,1.56,0,0,1,.26.88,1.71,1.71,0,0,1-.71,1.37,4,4,0,0,1-1.94.78v.79c.65,0,1.27-.05,1.88-.1s1.19-.1,1.76-.17a.37.37,0,0,1,.18,0,.17.17,0,0,1,.11.15l.08,1a.2.2,0,0,1-.05.2.24.24,0,0,1-.15.09c-.78.09-1.61.17-2.47.23s-1.73.11-2.59.15-1.69.06-2.5.07-1.58,0-2.27,0a.25.25,0,0,1-.17-.08.28.28,0,0,1-.06-.18v-1A.21.21,0,0,1,427.73,53.23ZM437,47.45a.25.25,0,0,1-.18.08h-8.48a.22.22,0,0,1-.17-.09.28.28,0,0,1-.09-.2v-.83a.24.24,0,0,1,.09-.17.3.3,0,0,1,.18-.09h8.47a.25.25,0,0,1,.18.08.24.24,0,0,1,.07.18v.85A.28.28,0,0,1,437,47.45Zm3.23,12.74a.23.23,0,0,1-.16.07h-1.47a.23.23,0,0,1-.17-.07.21.21,0,0,1-.08-.16V57.42a.26.26,0,0,0-.07-.22.47.47,0,0,0-.25-.05h-8.25a.21.21,0,0,1-.16-.07.19.19,0,0,1-.08-.15V55.79a.18.18,0,0,1,.08-.15.3.3,0,0,1,.16,0h9.4a1.21,1.21,0,0,1,.89.26,1.42,1.42,0,0,1,.23.91V60A.23.23,0,0,1,440.24,60.19ZM434.9,45.47a.26.26,0,0,1-.21.09H430.5a.32.32,0,0,1-.17-.07.23.23,0,0,1-.1-.19v-.86a.24.24,0,0,1,.1-.19.43.43,0,0,1,.17-.07h4.19a.27.27,0,0,1,.2.09.24.24,0,0,1,.09.18v.84A.27.27,0,0,1,434.9,45.47Zm-2.17,3.85a2.56,2.56,0,0,0-1.28.27.77.77,0,0,0-.47.64c0,.24.16.45.47.64a2.46,2.46,0,0,0,1.28.28,2.5,2.5,0,0,0,1.29-.28.78.78,0,0,0,.46-.64.75.75,0,0,0-.46-.64A2.61,2.61,0,0,0,432.73,49.32Zm10,1.73a.25.25,0,0,1-.17.07H440.3v3.47a.2.2,0,0,1-.22.22h-1.52a.2.2,0,0,1-.22-.22V44.33a.2.2,0,0,1,.22-.22h1.52a.2.2,0,0,1,.22.22v5.16h2.22a.29.29,0,0,1,.17.06.16.16,0,0,1,.07.14V50.9A.21.21,0,0,1,442.69,51.05Z"/><path class="cls-4" d="M452.37,48.91a4.26,4.26,0,0,1-.31,1.6,3.93,3.93,0,0,1-.86,1.3,4,4,0,0,1-1.32.87,4.16,4.16,0,0,1-1.68.32,4.06,4.06,0,0,1-1.66-.32,4.18,4.18,0,0,1-1.3-.87,4,4,0,0,1-.84-1.3,4.25,4.25,0,0,1-.29-1.6,4.12,4.12,0,0,1,.29-1.56,4.2,4.2,0,0,1,.84-1.31,4,4,0,0,1,3-1.23,4.16,4.16,0,0,1,1.68.33,4,4,0,0,1,1.32.9,4.08,4.08,0,0,1,.86,1.31A4.13,4.13,0,0,1,452.37,48.91Zm-1.94,0a2.51,2.51,0,0,0-.16-.92,2.24,2.24,0,0,0-.46-.76,2,2,0,0,0-.71-.51,2,2,0,0,0-.9-.19,2,2,0,0,0-.89.19,1.94,1.94,0,0,0-.69.51,2.39,2.39,0,0,0-.45.76,2.51,2.51,0,0,0-.16.92,2.67,2.67,0,0,0,.16,1,2.44,2.44,0,0,0,.45.77,2.21,2.21,0,0,0,.69.51,2.15,2.15,0,0,0,.89.19,2.2,2.2,0,0,0,.9-.19,2.18,2.18,0,0,0,1.17-1.28A2.67,2.67,0,0,0,450.43,48.94Zm6.75,10.93a.3.3,0,0,1-.17.05H448.2a1.46,1.46,0,0,1-1-.27,1.34,1.34,0,0,1-.26-.93V54.88a.25.25,0,0,1,.08-.17.21.21,0,0,1,.16-.07h1.48a.26.26,0,0,1,.18.07.23.23,0,0,1,.07.17V58c0,.11,0,.19.07.22a.45.45,0,0,0,.24,0H457a.32.32,0,0,1,.17.06.19.19,0,0,1,.08.15v1.22A.16.16,0,0,1,457.18,59.87Zm-.44-4.52c0,.15-.08.22-.23.22H455c-.15,0-.22-.08-.22-.24v-11a.2.2,0,0,1,.22-.22h1.51a.2.2,0,0,1,.23.22Z"/><path class="cls-4" d="M469.19,49.11a.23.23,0,0,1-.18.09H459.8a.33.33,0,0,1-.29-.29v-1a.24.24,0,0,1,.09-.17.27.27,0,0,1,.2-.08H469a.24.24,0,0,1,.25.25v1.05A.26.26,0,0,1,469.19,49.11Zm-4.67.92a4.39,4.39,0,0,1,1.53.25,3.33,3.33,0,0,1,1.19.69,3.25,3.25,0,0,1,.78,1.08,3.53,3.53,0,0,1,.28,1.4,3.62,3.62,0,0,1-.28,1.41,3.26,3.26,0,0,1-.79,1.11,3.69,3.69,0,0,1-1.19.74,4.26,4.26,0,0,1-1.54.27,4.15,4.15,0,0,1-1.52-.26A3.48,3.48,0,0,1,461.8,56a3.32,3.32,0,0,1-.76-1.12,3.62,3.62,0,0,1-.28-1.41,3.47,3.47,0,0,1,.28-1.38,3.09,3.09,0,0,1,.77-1.08,3.6,3.6,0,0,1,1.19-.7A4.37,4.37,0,0,1,464.52,50ZM467,46.39a.23.23,0,0,1-.19.09H462a.35.35,0,0,1-.16-.07.23.23,0,0,1-.09-.19V45.1a.23.23,0,0,1,.09-.19.32.32,0,0,1,.16-.06h4.78a.23.23,0,0,1,.18.08.26.26,0,0,1,.09.19v1.09A.27.27,0,0,1,467,46.39Zm-2.49,5.19a1.84,1.84,0,0,0-1.38.53,1.9,1.9,0,0,0-.52,1.39,1.93,1.93,0,0,0,.52,1.38,1.81,1.81,0,0,0,1.38.54,1.85,1.85,0,0,0,1.41-.54,2,2,0,0,0,.51-1.38,1.94,1.94,0,0,0-.51-1.39A1.88,1.88,0,0,0,464.52,51.58Zm10.13.51a.31.31,0,0,1-.18.07h-2.3V60a.2.2,0,0,1-.22.22h-1.51a.2.2,0,0,1-.22-.22V44.33a.2.2,0,0,1,.22-.22H472a.2.2,0,0,1,.22.22v6.19h2.3a.3.3,0,0,1,.18.06.18.18,0,0,1,.07.15v1.2A.21.21,0,0,1,474.65,52.09Z"/><path class="cls-4" d="M483.83,46.66a11.64,11.64,0,0,1-2.07,5.84A15.35,15.35,0,0,1,477,56.78a.39.39,0,0,1-.3.06.36.36,0,0,1-.25-.16l-.59-.83a.27.27,0,0,1-.05-.25.27.27,0,0,1,.17-.18,13.5,13.5,0,0,0,4-3.52,10.65,10.65,0,0,0,1.9-4.32c.05-.22.05-.37,0-.45a.59.59,0,0,0-.41-.11h-4.73c-.15,0-.22-.08-.22-.24V45.59c0-.13.07-.2.22-.2h6a1.26,1.26,0,0,1,1,.31A1.36,1.36,0,0,1,483.83,46.66Zm4.9,13.59h-1.5A.2.2,0,0,1,487,60V51.65h-3.13a.25.25,0,0,1-.16-.06.19.19,0,0,1-.08-.15V50.23a.19.19,0,0,1,.08-.14.25.25,0,0,1,.16-.06H487v-5.7a.2.2,0,0,1,.23-.22h1.5c.16,0,.24.08.24.22V60C489,60.17,488.89,60.25,488.73,60.25Z"/><path class="cls-4" d="M501.34,54.59a.4.4,0,0,1-.23.13,13.78,13.78,0,0,1-1.6.33c-.65.11-1.32.2-2,.28s-1.4.14-2.07.17a13.54,13.54,0,0,1-1.73,0,1.47,1.47,0,0,1-.95-.39,1.33,1.33,0,0,1-.29-.9V45.34a.28.28,0,0,1,.24-.24h1.46a.25.25,0,0,1,.18.08.23.23,0,0,1,.08.16v8.19c0,.12,0,.19.07.21a.5.5,0,0,0,.23.06,10.31,10.31,0,0,0,1.39,0c.52,0,1-.06,1.6-.12s1.09-.14,1.63-.24,1-.2,1.5-.31a.28.28,0,0,1,.27.06.62.62,0,0,1,.11.19l.19,1A.24.24,0,0,1,501.34,54.59Zm5.25-2.69a.23.23,0,0,1-.16.07h-2.31V60a.2.2,0,0,1-.23.22h-1.51a.2.2,0,0,1-.22-.22V44.33a.2.2,0,0,1,.22-.22h1.51a.2.2,0,0,1,.23.22v6h2.31a.27.27,0,0,1,.16.06.17.17,0,0,1,.08.14v1.19A.23.23,0,0,1,506.59,51.9Z"/><path class="cls-4" d="M520.63,55.28a1.36,1.36,0,0,1-1,.29h-5.1a1.52,1.52,0,0,1-1-.25,1.27,1.27,0,0,1-.27-.94V45.2a.2.2,0,0,1,.06-.14.25.25,0,0,1,.16-.06h1.49a.29.29,0,0,1,.17.06.17.17,0,0,1,.07.14v3.72h3.76V45.19A.19.19,0,0,1,519,45a.26.26,0,0,1,.16-.07h1.49a.26.26,0,0,1,.16.07.19.19,0,0,1,.08.16v9.24A1.15,1.15,0,0,1,520.63,55.28Zm-1.69-4.77h-3.76v3.18c0,.19.1.28.31.28h3.14c.21,0,.31-.09.31-.28ZM525.57,60a.2.2,0,0,1-.22.22h-1.52a.2.2,0,0,1-.22-.22V44.33a.2.2,0,0,1,.22-.22h1.52a.2.2,0,0,1,.22.22Z"/><path class="cls-4" d="M538.44,54.88l-.17.1a13.54,13.54,0,0,1-1.72.35c-.69.11-1.41.19-2.15.25s-1.46.11-2.17.13a16.16,16.16,0,0,1-1.75,0,1.48,1.48,0,0,1-.92-.28,1.05,1.05,0,0,1-.3-.86V46.46a1.14,1.14,0,0,1,.24-.83,1.31,1.31,0,0,1,.9-.24h6.34c.16,0,.24.07.24.22V46.8c0,.15-.08.22-.24.22h-5.2c-.22,0-.33.1-.33.29v6.22c0,.18,0,.3.1.35a.85.85,0,0,0,.41.11A10.49,10.49,0,0,0,533,54c.5,0,1-.06,1.6-.11s1.14-.12,1.73-.2,1.13-.16,1.64-.25a.23.23,0,0,1,.31.2l.2,1C538.51,54.76,538.49,54.84,538.44,54.88ZM541.55,60a.2.2,0,0,1-.22.22h-1.52a.2.2,0,0,1-.22-.22V44.33a.2.2,0,0,1,.22-.22h1.52a.2.2,0,0,1,.22.22Z"/><path class="cls-4" d="M559.06,57.41a.27.27,0,0,1-.17.08H544.08a.23.23,0,0,1-.17-.08.34.34,0,0,1-.07-.17V56.13q0-.27.24-.27h6.43V52.72a7.48,7.48,0,0,1-1.85-.42,5.2,5.2,0,0,1-1.45-.81,3.46,3.46,0,0,1-1-1.15,3,3,0,0,1-.34-1.45,3.11,3.11,0,0,1,.42-1.6,4,4,0,0,1,1.18-1.22,5.57,5.57,0,0,1,1.76-.78,9.18,9.18,0,0,1,4.42,0,5.73,5.73,0,0,1,1.77.78,3.87,3.87,0,0,1,1.17,1.22,3.2,3.2,0,0,1,.41,1.6,3,3,0,0,1-.34,1.45,3.46,3.46,0,0,1-1,1.15,5.2,5.2,0,0,1-1.45.81,7.48,7.48,0,0,1-1.85.42v3.14h6.43a.24.24,0,0,1,.17.09.22.22,0,0,1,.08.18v1.11A.24.24,0,0,1,559.06,57.41Zm-7.57-10.78a5.51,5.51,0,0,0-1.36.16,4.12,4.12,0,0,0-1.13.46,2.64,2.64,0,0,0-.77.71,1.63,1.63,0,0,0-.29.93,1.68,1.68,0,0,0,.29.94,2.54,2.54,0,0,0,.77.72,4.12,4.12,0,0,0,1.13.46,5.51,5.51,0,0,0,1.36.16,5.45,5.45,0,0,0,1.36-.16,4,4,0,0,0,1.13-.46,2.43,2.43,0,0,0,.77-.72,1.67,1.67,0,0,0,.28-.94,1.62,1.62,0,0,0-.28-.93,2.52,2.52,0,0,0-.77-.71,4,4,0,0,0-1.13-.46A5.45,5.45,0,0,0,551.49,46.63Z"/><path class="cls-4" d="M566.18,53.26a.78.78,0,0,1-.28.05.29.29,0,0,1-.26-.19l-.53-.85a.31.31,0,0,1,0-.28.42.42,0,0,1,.21-.23,12.82,12.82,0,0,0,3.29-2.12A8.74,8.74,0,0,0,570.65,47a.42.42,0,0,0,.07-.27c0-.08-.11-.12-.29-.12h-4.27a.19.19,0,0,1-.17-.09.28.28,0,0,1-.06-.18V45.19c0-.16.08-.24.25-.24h5.46a1.85,1.85,0,0,1,1.11.27.79.79,0,0,1,.28.83c0,.13,0,.26-.08.39a3.78,3.78,0,0,1-.12.36,8,8,0,0,1-.54,1.11,10.71,10.71,0,0,1-.75,1.1,8.33,8.33,0,0,0,.68.61c.25.21.5.4.76.58s.52.35.78.5.51.29.73.4a.49.49,0,0,1,.24.18c0,.06,0,.15-.07.26l-.56,1c-.11.2-.28.24-.51.13a7,7,0,0,1-.7-.4,8.94,8.94,0,0,1-.84-.57c-.28-.21-.57-.44-.85-.67s-.55-.47-.79-.7a16.91,16.91,0,0,1-2,1.64A15.1,15.1,0,0,1,566.18,53.26Zm11.3,6.88a.24.24,0,0,1-.18.07h-1.45a.26.26,0,0,1-.18-.07.22.22,0,0,1-.09-.16V56.2a.3.3,0,0,0-.07-.24.41.41,0,0,0-.23-.05h-7.69a.27.27,0,0,1-.16-.06.19.19,0,0,1-.08-.14V54.5a.19.19,0,0,1,.08-.16.27.27,0,0,1,.16-.06h8.83a1.18,1.18,0,0,1,.89.27,1.39,1.39,0,0,1,.24.92V60A.23.23,0,0,1,577.48,60.14ZM580,49.72a.23.23,0,0,1-.17.07h-2.3v3.42a.19.19,0,0,1-.22.22h-1.51c-.15,0-.22-.08-.22-.24V44.33a.2.2,0,0,1,.22-.22h1.51a.2.2,0,0,1,.22.22v3.83h2.3a.27.27,0,0,1,.17.06.17.17,0,0,1,.08.16v1.19A.17.17,0,0,1,580,49.72Z"/><path class="cls-4" d="M593.08,59.72a1.5,1.5,0,0,1-1,.27h-7.84a1.52,1.52,0,0,1-1-.26,1.34,1.34,0,0,1-.26-.93V55.93a1.13,1.13,0,0,1,.32-.92,1.5,1.5,0,0,1,1-.27h3V53.09H580.8a.21.21,0,0,1-.24-.24V51.71a.34.34,0,0,1,.07-.18.22.22,0,0,1,.17-.07h14.81a.27.27,0,0,1,.17.08.29.29,0,0,1,.08.17v1.14a.23.23,0,0,1-.08.16.27.27,0,0,1-.17.08h-6.43v1.65h2.93a1.53,1.53,0,0,1,1,.25,1.29,1.29,0,0,1,.27.94V58.8A1.13,1.13,0,0,1,593.08,59.72ZM583.15,46a.24.24,0,0,1-.18-.08.29.29,0,0,1-.09-.21v-1a.24.24,0,0,1,.09-.17.26.26,0,0,1,.18-.09h10.11a.27.27,0,0,1,.26.26v1a.25.25,0,0,1-.08.18.24.24,0,0,1-.18.07h-1.6V48.7h1.91a.25.25,0,0,1,.18.08.24.24,0,0,1,.07.18v1a.27.27,0,0,1-.07.2.24.24,0,0,1-.18.07H582.84a.28.28,0,0,1-.19-.08.3.3,0,0,1-.1-.21V49a.26.26,0,0,1,.1-.17.3.3,0,0,1,.19-.09h1.91V46Zm8.31,10.66q0-.27-.24-.27h-6.07a.22.22,0,0,0-.18.06.46.46,0,0,0,0,.2v1.51a.35.35,0,0,0,0,.19.36.36,0,0,0,.18,0h6.07a.43.43,0,0,0,.2,0s0-.09,0-.19ZM586.63,46V48.7h3.15V46Z"/><path class="cls-4" d="M596.54,52.12V51a.31.31,0,0,1,.07-.18.22.22,0,0,1,.17-.07h14.81a.27.27,0,0,1,.17.08.24.24,0,0,1,.08.17v1.09a.19.19,0,0,1-.08.16.27.27,0,0,1-.17.08H596.78A.21.21,0,0,1,596.54,52.12Zm13-5.23A2.06,2.06,0,0,1,609.2,48a2.82,2.82,0,0,1-1,.92,5.72,5.72,0,0,1-1.67.6,12,12,0,0,1-4.58,0,5.72,5.72,0,0,1-1.67-.6,2.82,2.82,0,0,1-1-.92,2.06,2.06,0,0,1-.35-1.14,2.13,2.13,0,0,1,.35-1.16,3,3,0,0,1,1-.94,6.34,6.34,0,0,1,1.67-.62,11.52,11.52,0,0,1,4.58,0,6.34,6.34,0,0,1,1.67.62,3,3,0,0,1,1,.94A2.13,2.13,0,0,1,609.55,46.89ZM609.73,60a.21.21,0,0,1-.15.07H600.1a1.3,1.3,0,0,1-.9-.23A1.08,1.08,0,0,1,599,59V57a1.07,1.07,0,0,1,.23-.78,1.23,1.23,0,0,1,.89-.24h7.21a.35.35,0,0,0,.17,0s0-.08,0-.2v-.51a.53.53,0,0,0,0-.23.35.35,0,0,0-.19,0h-8.11A.25.25,0,0,1,599,55a.19.19,0,0,1-.08-.14V53.67a.19.19,0,0,1,.08-.15.21.21,0,0,1,.16-.07h9.1a1.42,1.42,0,0,1,.92.21,1,1,0,0,1,.23.79v2a1,1,0,0,1-.23.8,1.5,1.5,0,0,1-.92.2h-7.18a.27.27,0,0,0-.17,0,.43.43,0,0,0,0,.2v.58a.31.31,0,0,0,0,.18.61.61,0,0,0,.19,0h8.47a.23.23,0,0,1,.16.07.22.22,0,0,1,.07.17v1.11A.23.23,0,0,1,609.73,60Zm-5.52-14.55a8.05,8.05,0,0,0-1.36.11,4.58,4.58,0,0,0-1.06.32,2,2,0,0,0-.7.47.91.91,0,0,0-.25.58.8.8,0,0,0,.25.56,2.12,2.12,0,0,0,.7.45,4.61,4.61,0,0,0,1.06.3,9.23,9.23,0,0,0,2.71,0,4.56,4.56,0,0,0,1.07-.3,2,2,0,0,0,.7-.46.76.76,0,0,0,0-1.13,2,2,0,0,0-.7-.47,4.52,4.52,0,0,0-1.07-.32A8,8,0,0,0,604.21,45.42Z"/><path class="cls-4" d="M428.66,90.45c-.27.11-.45.06-.54-.16l-.45-.88a.43.43,0,0,1,0-.27.32.32,0,0,1,.21-.22,12.78,12.78,0,0,0,3.51-2.17,6.16,6.16,0,0,0,1.88-2.81.64.64,0,0,0,0-.38c0-.07-.11-.1-.28-.1h-4.63a.19.19,0,0,1-.16-.08.33.33,0,0,1-.06-.19V82.07a.21.21,0,0,1,.24-.24h5.76a1.72,1.72,0,0,1,1.05.24,1,1,0,0,1,.29.78,1.49,1.49,0,0,1,0,.19,2.56,2.56,0,0,1-.05.27,1.44,1.44,0,0,1-.05.24.71.71,0,0,1,0,.16,8.7,8.7,0,0,1-2.32,4A13.48,13.48,0,0,1,428.66,90.45Zm11.08,6.27a1.32,1.32,0,0,1-.93.27h-7.48a1.51,1.51,0,0,1-1.05-.27,1.34,1.34,0,0,1-.26-.93V92.21A1,1,0,0,1,431.24,91h7.48a1.44,1.44,0,0,1,1,.28,1.38,1.38,0,0,1,.27,1V95.8A1.2,1.2,0,0,1,439.74,96.72Zm-1.66-3.94a.34.34,0,0,0,0-.18.26.26,0,0,0-.18,0H432.2a.4.4,0,0,0-.2,0s0,.08,0,.17v2.45c0,.1,0,.16,0,.18s.09,0,.2,0h5.66a.26.26,0,0,0,.18,0,.29.29,0,0,0,0-.18Zm4.4-6.12a.29.29,0,0,1-.17.06H440v3.2c0,.15-.08.22-.24.22h-1.5a.26.26,0,0,1-.24-.24V81.33a.22.22,0,0,1,.08-.15.26.26,0,0,1,.16-.07h1.5c.16,0,.24.08.24.22v3.76h2.29a.25.25,0,0,1,.17.07.2.2,0,0,1,.09.15V86.5A.21.21,0,0,1,442.48,86.66Z"/><path class="cls-4" d="M444.54,90.26a.48.48,0,0,1-.34.1.4.4,0,0,1-.22-.15l-.7-.8c-.11-.12-.16-.23-.13-.31a.51.51,0,0,1,.2-.22A12.22,12.22,0,0,0,445,87.55,6.88,6.88,0,0,0,446.2,86a7.11,7.11,0,0,0,.7-1.88,10.86,10.86,0,0,0,.24-2.41.3.3,0,0,1,.08-.2.26.26,0,0,1,.17-.09l1.5.07c.15,0,.22.09.22.26a12.17,12.17,0,0,1-.25,2.63,5.81,5.81,0,0,0,.7,1.23,8.68,8.68,0,0,0,.94,1.06,7.92,7.92,0,0,0,1,.85,6.39,6.39,0,0,0,1,.57c.2.08.23.21.11.41l-.6.93a.31.31,0,0,1-.46.14,7.87,7.87,0,0,1-1.93-1.25,9,9,0,0,1-1.52-1.76,8.19,8.19,0,0,1-1.46,2A14.14,14.14,0,0,1,444.54,90.26ZM456.17,94a2.36,2.36,0,0,1-.39,1.31,3.23,3.23,0,0,1-1.07,1,5.68,5.68,0,0,1-1.62.67,8.15,8.15,0,0,1-2,.24A8.39,8.39,0,0,1,449,97a5.21,5.21,0,0,1-1.6-.67,3.23,3.23,0,0,1-1-1A2.49,2.49,0,0,1,446,94a2.46,2.46,0,0,1,.36-1.31,3.23,3.23,0,0,1,1-1A5.21,5.21,0,0,1,449,91a8.39,8.39,0,0,1,2.09-.24,8.15,8.15,0,0,1,2,.24,6,6,0,0,1,1.62.66,3.18,3.18,0,0,1,1.07,1A2.38,2.38,0,0,1,456.17,94Zm-2,0a1.17,1.17,0,0,0-.25-.75,2,2,0,0,0-.69-.54,3.76,3.76,0,0,0-1-.34,5.65,5.65,0,0,0-1.19-.12,4.65,4.65,0,0,0-2.2.45,1.41,1.41,0,0,0-.84,1.3,1.1,1.1,0,0,0,.23.71,1.78,1.78,0,0,0,.62.52,3.45,3.45,0,0,0,1,.32,5.83,5.83,0,0,0,1.22.11,5.66,5.66,0,0,0,1.19-.11,3.76,3.76,0,0,0,1-.32,2.06,2.06,0,0,0,.69-.52A1.06,1.06,0,0,0,454.16,94.07Zm4.31-7.21a.23.23,0,0,1-.16.07H456v3.4a.28.28,0,0,1-.07.16.23.23,0,0,1-.16.08h-1.51a.21.21,0,0,1-.15-.08.24.24,0,0,1-.07-.18v-9a.2.2,0,0,1,.22-.22h1.51a.2.2,0,0,1,.23.22v4h2.31a.27.27,0,0,1,.16.06.19.19,0,0,1,.08.15v1.19A.22.22,0,0,1,458.47,86.86Z"/><path class="cls-4" d="M467.33,86.05a.25.25,0,0,1-.18.08h-7.6a.26.26,0,0,1-.18-.09.24.24,0,0,1-.09-.18v-1a.24.24,0,0,1,.09-.17.26.26,0,0,1,.18-.09h7.6a.25.25,0,0,1,.18.08.24.24,0,0,1,.07.18v1.05A.24.24,0,0,1,467.33,86.05Zm-3.79,1a3.62,3.62,0,0,1,1.41.27A3.31,3.31,0,0,1,466,88a3.27,3.27,0,0,1,.71,1.08,3.66,3.66,0,0,1,.25,1.33,3.77,3.77,0,0,1-.25,1.35,3.21,3.21,0,0,1-.71,1.09,3.17,3.17,0,0,1-1.09.73,3.62,3.62,0,0,1-1.41.27,3.57,3.57,0,0,1-1.4-.27,3.15,3.15,0,0,1-1.78-1.82,3.56,3.56,0,0,1-.25-1.35,3.46,3.46,0,0,1,.25-1.33,3.22,3.22,0,0,1,.69-1.08,3.31,3.31,0,0,1,1.09-.73A3.57,3.57,0,0,1,463.54,87Zm2.1-3.5a.24.24,0,0,1-.19.1h-4.08a.27.27,0,0,1-.16-.08.23.23,0,0,1-.1-.2v-1a.22.22,0,0,1,.1-.19.25.25,0,0,1,.16-.07h4.08a.23.23,0,0,1,.18.09.24.24,0,0,1,.09.18v1A.29.29,0,0,1,465.64,83.5Zm-2.1,5a1.64,1.64,0,0,0-.71.15,1.41,1.41,0,0,0-.54.42,1.82,1.82,0,0,0-.34.61,2.18,2.18,0,0,0-.12.72,2.25,2.25,0,0,0,.12.74,2,2,0,0,0,.34.62,1.43,1.43,0,0,0,.54.43,1.64,1.64,0,0,0,.71.15,1.67,1.67,0,0,0,.73-.15,1.55,1.55,0,0,0,.55-.43,2,2,0,0,0,.34-.62,2.25,2.25,0,0,0,.12-.74,2.18,2.18,0,0,0-.12-.72,1.82,1.82,0,0,0-.34-.61,1.52,1.52,0,0,0-.55-.42A1.67,1.67,0,0,0,463.54,88.51Zm7.94-7.18c0-.14.08-.22.24-.22h1.46a.2.2,0,0,1,.22.22V97a.2.2,0,0,1-.22.22H471.7a.2.2,0,0,1-.22-.22V89H470v7.38c0,.16-.08.24-.22.24h-1.4a.21.21,0,0,1-.24-.24V81.64c0-.15.08-.22.24-.22h1.4a.2.2,0,0,1,.22.22v5.73h1.44Z"/><path class="cls-4" d="M490.18,94.41a.25.25,0,0,1-.17.08h-14.8a.21.21,0,0,1-.17-.08.27.27,0,0,1-.07-.17V93.13A.24.24,0,0,1,475,93a.2.2,0,0,1,.17-.09h6.42V89.75h-3.11a1.52,1.52,0,0,1-1-.25,1.31,1.31,0,0,1-.27-1V82.05a.18.18,0,0,1,.07-.15.2.2,0,0,1,.15-.05H479a.25.25,0,0,1,.16.05.18.18,0,0,1,.07.15v2.4H486V82a.19.19,0,0,1,.07-.15.18.18,0,0,1,.15-.07h1.51a.18.18,0,0,1,.15.07A.19.19,0,0,1,488,82v6.58a1.2,1.2,0,0,1-.27.85,1.37,1.37,0,0,1-1,.29h-3.11v3.11H490a.22.22,0,0,1,.17.09.3.3,0,0,1,.09.18v1.11A.26.26,0,0,1,490.18,94.41ZM486,86h-6.84v1.83c0,.2.11.29.31.29h6.22c.21,0,.31-.09.31-.29Z"/><path class="cls-4" d="M492.55,93.39a.35.35,0,0,1-.55,0l-.76-.75a.31.31,0,0,1,0-.51,8.3,8.3,0,0,0,1.53-1.9,10.54,10.54,0,0,0,1-2.27,14.73,14.73,0,0,0,.54-2.63,28.6,28.6,0,0,0,.16-3c0-.17.07-.25.22-.25l1.41,0a.27.27,0,0,1,.17.08.21.21,0,0,1,.08.17c0,.86,0,1.64-.07,2.36a15.34,15.34,0,0,1-.27,2,9.09,9.09,0,0,0,.51,1.46,11.37,11.37,0,0,0,.77,1.42,12.14,12.14,0,0,0,.88,1.23,6.06,6.06,0,0,0,.89.92c.17.15.18.3.05.44l-.78.8a.31.31,0,0,1-.51,0,5.14,5.14,0,0,1-.73-.64c-.24-.27-.48-.55-.71-.85a11.09,11.09,0,0,1-.65-1,10,10,0,0,1-.5-1,10,10,0,0,1-1.12,2A13.73,13.73,0,0,1,492.55,93.39Zm9.29,3.31h-1.39c-.17,0-.25-.08-.25-.24V88.07h-2.55a.31.31,0,0,1-.17-.07.22.22,0,0,1-.07-.17V86.67a.17.17,0,0,1,.07-.14.29.29,0,0,1,.17-.06h2.55V81.61c0-.15.08-.22.25-.22h1.39c.15,0,.23.07.23.22V96.46A.21.21,0,0,1,501.84,96.7Zm3.3.58h-1.48a.2.2,0,0,1-.22-.22V81.33c0-.14.08-.22.24-.22h1.46a.2.2,0,0,1,.22.22V97.06A.19.19,0,0,1,505.14,97.28Z"/><path class="cls-4" d="M522.14,94.41a.25.25,0,0,1-.17.08h-14.8a.21.21,0,0,1-.17-.08.27.27,0,0,1-.07-.17V93.13q0-.27.24-.27h3.4V90.21c0-.16.08-.24.25-.24h1.46c.17,0,.26.08.26.24v2.65h4.06V90.21c0-.16.09-.24.26-.24h1.46a.24.24,0,0,1,.18.07.21.21,0,0,1,.07.17v2.65H522a.22.22,0,0,1,.17.09.23.23,0,0,1,.09.18v1.11A.26.26,0,0,1,522.14,94.41Zm-7.58-5a9,9,0,0,1-2.12-.24,6.12,6.12,0,0,1-1.77-.7,3.67,3.67,0,0,1-1.21-1.17,3,3,0,0,1-.44-1.6,2.88,2.88,0,0,1,.44-1.57A3.64,3.64,0,0,1,510.67,83a5.87,5.87,0,0,1,1.77-.72,9,9,0,0,1,2.12-.23,9.27,9.27,0,0,1,2.15.23,5.77,5.77,0,0,1,1.77.72,3.81,3.81,0,0,1,1.2,1.16,2.88,2.88,0,0,1,.44,1.57,3,3,0,0,1-.44,1.6,3.84,3.84,0,0,1-1.2,1.17,6,6,0,0,1-1.77.7A9.26,9.26,0,0,1,514.56,89.41Zm0-5.78a6.35,6.35,0,0,0-1.32.14,4.83,4.83,0,0,0-1.13.41,2.46,2.46,0,0,0-.79.66,1.4,1.4,0,0,0-.3.88,1.44,1.44,0,0,0,.3.9,2.46,2.46,0,0,0,.79.66,4.42,4.42,0,0,0,1.13.4,5.8,5.8,0,0,0,2.62,0,4.56,4.56,0,0,0,1.13-.4,2.46,2.46,0,0,0,.79-.66,1.44,1.44,0,0,0,.3-.9,1.4,1.4,0,0,0-.3-.88,2.46,2.46,0,0,0-.79-.66,5,5,0,0,0-1.13-.41A6.31,6.31,0,0,0,514.58,83.63Z"/><path class="cls-4" d="M525.27,96.53A1.3,1.3,0,0,1,524,95.22a1.24,1.24,0,0,1,.38-.91,1.3,1.3,0,0,1,.93-.38,1.26,1.26,0,0,1,.92.38,1.23,1.23,0,0,1,.37.91,1.26,1.26,0,0,1-.37.93A1.22,1.22,0,0,1,525.27,96.53Z"/><rect class="cls-5" width="612" height="347"/></g></g></svg>