<svg xmlns="http://www.w3.org/2000/svg" viewBox="0 0 612 309.5"><defs><style>.cls-1,.cls-2,.cls-3,.cls-5{fill:none;}.cls-1,.cls-2,.cls-3{stroke:#fff;}.cls-1,.cls-2{stroke-width:2px;}.cls-2{stroke-linecap:square;}.cls-3{stroke-width:1.5px;}.cls-4{fill:#fff;}</style></defs><g id="Layer_2" data-name="Layer 2"><g id="Layer_2_copy_5" data-name="Layer 2 copy 5"><g id="Layer_1-2" data-name="Layer 1-2"><g id="Group-4"><circle id="Oval-10" class="cls-1" cx="479.72" cy="178.6" r="50.22"/><circle id="Oval-10-2" class="cls-1" cx="479.72" cy="178.6" r="36.16"/></g><path id="Line-29" class="cls-2" d="M480.22,241.88v46.21"/></g><g id="Layer_1-2-2" data-name="Layer 1-2"><g id="Group-5"><circle id="Oval-10-2-2" data-name="Oval-10" class="cls-3" cx="131.5" cy="208.56" r="19.86"/><circle id="Oval-10-2-3" data-name="Oval-10-2" class="cls-4" cx="131.5" cy="208.56" r="14"/></g><rect id="Rectangle-29" class="cls-1" x="79.53" y="122.16" width="103.95" height="172.81"/><rect id="Rectangle-29-2" class="cls-1" x="72.91" y="110.91" width="117.19" height="195.31" rx="5.3"/></g><path class="cls-4" d="M61.35,11.67a5,5,0,0,1,1.46.21,4,4,0,0,1,1.19.59,2.79,2.79,0,0,1,.8.91,2.43,2.43,0,0,1,.29,1.16,2.41,2.41,0,0,1-.22,1,2.57,2.57,0,0,1-.59.83,3.42,3.42,0,0,1-.91.6,4.21,4.21,0,0,1-1.14.35v1.43a36.58,36.58,0,0,0,3.93-.41.37.37,0,0,1,.18,0,.16.16,0,0,1,.12.16l.1,1.06a.2.2,0,0,1,0,.2.28.28,0,0,1-.15.08,43,43,0,0,1-4.93.51c-1.7.08-3.37.11-5,.09a.23.23,0,0,1-.17-.08.29.29,0,0,1-.07-.18V19.1c0-.17.08-.26.24-.26,1.29,0,2.6,0,3.91,0V17.31A4.65,4.65,0,0,1,59.25,17a3.52,3.52,0,0,1-.87-.6,2.83,2.83,0,0,1-.57-.81,2.53,2.53,0,0,1,.09-2.16,2.82,2.82,0,0,1,.81-.91,4,4,0,0,1,1.19-.59A4.89,4.89,0,0,1,61.35,11.67ZM65.89,11a.24.24,0,0,1-.18.07h-9a.29.29,0,0,1-.18-.08.26.26,0,0,1-.09-.19v-1a.21.21,0,0,1,.1-.17.3.3,0,0,1,.19-.09h8.95a.27.27,0,0,1,.26.26v1A.27.27,0,0,1,65.89,11ZM63.73,8.83a.23.23,0,0,1-.19.09H59a.35.35,0,0,1-.16-.07.26.26,0,0,1-.09-.21v-1a.23.23,0,0,1,.09-.19A.35.35,0,0,1,59,7.4h4.56a.26.26,0,0,1,.19.09.27.27,0,0,1,.08.18v1A.26.26,0,0,1,63.73,8.83Zm-2.38,4.35a2.26,2.26,0,0,0-1.36.39,1.13,1.13,0,0,0-.55,1,1.18,1.18,0,0,0,.54,1,2.58,2.58,0,0,0,2.73,0,1.18,1.18,0,0,0,.54-1,1.14,1.14,0,0,0-.54-1A2.24,2.24,0,0,0,61.35,13.18Zm10.22,2.18a.26.26,0,0,1-.16.07H69.18V23a.2.2,0,0,1-.22.22H67.45a.2.2,0,0,1-.22-.22V7.33a.2.2,0,0,1,.22-.22H69a.2.2,0,0,1,.22.22v6.46h2.23a.26.26,0,0,1,.16.07.23.23,0,0,1,.08.16v1.19A.22.22,0,0,1,71.57,15.36Z"/><path class="cls-4" d="M80.68,16a1.28,1.28,0,0,1-.91.26h-5a1.44,1.44,0,0,1-1-.26,1.22,1.22,0,0,1-.27-.91V9.17a1.17,1.17,0,0,1,.26-.89A1.3,1.3,0,0,1,74.64,8h5.13a1.4,1.4,0,0,1,.91.23,1.18,1.18,0,0,1,.27.91v.65h2.89V7.33a.2.2,0,0,1,.22-.22h1.51a.2.2,0,0,1,.22.22V18.52a.19.19,0,0,1-.22.22H84.06a.19.19,0,0,1-.22-.22V14.71H81V15A1.22,1.22,0,0,1,80.68,16ZM79,9.82a.26.26,0,0,0,0-.18s-.08,0-.18,0H75.61a.36.36,0,0,0-.18,0s0,.08,0,.17v4.62c0,.12,0,.19,0,.21a.36.36,0,0,0,.18,0H78.8a.34.34,0,0,0,.18,0s0-.09,0-.21Zm7.18,13.09a.33.33,0,0,1-.16.05H77.21a1.49,1.49,0,0,1-1-.27,1.34,1.34,0,0,1-.27-.94v-3.5a.27.27,0,0,1,.08-.17.26.26,0,0,1,.17-.09H77.6a.23.23,0,0,1,.19.09.27.27,0,0,1,.08.17v2.8c0,.12,0,.19.07.22a.35.35,0,0,0,.24.06h7.87a.27.27,0,0,1,.16.06.21.21,0,0,1,.07.16v1.2A.19.19,0,0,1,86.21,22.91Zm-2.37-9.76V11.38H81v1.77Z"/><path class="cls-4" d="M108,16.28a.29.29,0,0,1-.17.08H93.07a.21.21,0,0,1-.17-.07.27.27,0,0,1-.07-.18V15a.23.23,0,0,1,.07-.17.21.21,0,0,1,.17-.08h6.42V12.66a.21.21,0,0,1,.24-.24h1.4a.23.23,0,0,1,.17.07.21.21,0,0,1,.08.17v2.07h6.48a.28.28,0,0,1,.25.25v1.13A.29.29,0,0,1,108,16.28Zm-12.91-3c-.24.06-.4,0-.45-.1l-.46-1.09a.21.21,0,0,1,0-.19.18.18,0,0,1,.15-.13,15.33,15.33,0,0,0,2.12-.73A7,7,0,0,0,98,10.14a3.8,3.8,0,0,0,1-1.21,4.19,4.19,0,0,0,.45-1.54.29.29,0,0,1,.32-.28l1.34.06c.16,0,.24.07.24.23s0,.22,0,.33a1.87,1.87,0,0,1,0,.32,4,4,0,0,0,.83,1.22,6.82,6.82,0,0,0,1.26,1.05,9.89,9.89,0,0,0,1.55.81,10.92,10.92,0,0,0,1.67.56.24.24,0,0,1,.14.12.23.23,0,0,1,0,.18l-.51,1a.31.31,0,0,1-.39.19,7.39,7.39,0,0,1-1.46-.42,10.74,10.74,0,0,1-1.49-.72,10.07,10.07,0,0,1-1.34-.95,5.67,5.67,0,0,1-1-1.13,7,7,0,0,1-2.2,2A11.72,11.72,0,0,1,95.12,13.32Zm10.64,9.94a.23.23,0,0,1-.16.07h-1.48a.24.24,0,0,1-.18-.07.27.27,0,0,1-.08-.17V19.68c0-.12,0-.19-.07-.22a.34.34,0,0,0-.23-.05H95.12a.27.27,0,0,1-.16-.06.18.18,0,0,1-.07-.15V18a.18.18,0,0,1,.07-.15.33.33,0,0,1,.16-.05h9.59a1.22,1.22,0,0,1,.91.24,1.55,1.55,0,0,1,.21,1v4.09A.25.25,0,0,1,105.76,23.26Z"/><path class="cls-4" d="M124.66,15.37a.42.42,0,0,1-.16.11c-.32,0-.67.1-1,.14l-1.19.11-1.22.1-1.13.06v2.44a.25.25,0,0,1-.08.18.25.25,0,0,1-.17.08h-1.42a.25.25,0,0,1-.17-.08.22.22,0,0,1-.08-.18V16l-1,0-1,0-1,0-.8,0A.23.23,0,0,1,114,16a.28.28,0,0,1-.07-.19V14.75a.24.24,0,0,1,.07-.18.23.23,0,0,1,.17-.08l2.56,0,2.76-.09c.92,0,1.8-.09,2.65-.15s1.59-.14,2.21-.23a.29.29,0,0,1,.18,0,.23.23,0,0,1,.11.16l.12,1A.24.24,0,0,1,124.66,15.37Zm-5.62-8a4.74,4.74,0,0,1,1.59.25,3.86,3.86,0,0,1,1.24.66,3,3,0,0,1,.81,1,2.58,2.58,0,0,1,.29,1.19,2.82,2.82,0,0,1-1.1,2.23,4.08,4.08,0,0,1-1.24.67,5.35,5.35,0,0,1-3.17,0,4.27,4.27,0,0,1-1.23-.67,2.74,2.74,0,0,1-.8-1,2.78,2.78,0,0,1-.28-1.24,2.57,2.57,0,0,1,.28-1.19,3,3,0,0,1,.8-1,4,4,0,0,1,1.23-.66A4.72,4.72,0,0,1,119,7.35Zm8.51,15.56a.3.3,0,0,1-.16.05h-9.64a1.46,1.46,0,0,1-1-.27,1.34,1.34,0,0,1-.27-.94V19.32a.28.28,0,0,1,.24-.24h1.46a.25.25,0,0,1,.18.08.23.23,0,0,1,.08.16v1.73c0,.12,0,.19.07.22a.38.38,0,0,0,.25.06h8.67a.25.25,0,0,1,.16.06.23.23,0,0,1,.08.16v1.2A.19.19,0,0,1,127.55,22.91ZM119,8.85a2.28,2.28,0,0,0-.78.13,1.87,1.87,0,0,0-.64.34,1.53,1.53,0,0,0-.44.51,1.26,1.26,0,0,0-.16.63,1.34,1.34,0,0,0,.16.66,1.53,1.53,0,0,0,.44.51,2.28,2.28,0,0,0,.64.34,2.55,2.55,0,0,0,.78.13,2.47,2.47,0,0,0,.79-.13,2.5,2.5,0,0,0,.65-.34,1.53,1.53,0,0,0,.44-.51,1.34,1.34,0,0,0,.16-.66,1.26,1.26,0,0,0-.16-.63,1.53,1.53,0,0,0-.44-.51,2,2,0,0,0-.65-.34A2.22,2.22,0,0,0,119,8.85Zm8,11h-1.51c-.15,0-.22-.08-.22-.23V18h-2.91a.23.23,0,0,1-.16-.07.21.21,0,0,1-.08-.15V16.74a.19.19,0,0,1,.08-.15.27.27,0,0,1,.16-.06h2.91V7.33a.2.2,0,0,1,.22-.22H127a.2.2,0,0,1,.22.22V19.58C127.25,19.73,127.18,19.81,127,19.81Z"/><path class="cls-4" d="M142.27,15.37a1.33,1.33,0,0,1-.92.26h-3.16v3.23h6.4a.22.22,0,0,1,.17.09.23.23,0,0,1,.09.18v1.11a.26.26,0,0,1-.09.17.25.25,0,0,1-.17.08h-14.8a.21.21,0,0,1-.17-.08.27.27,0,0,1-.07-.17V19.13q0-.27.24-.27h6.44V15.63h-3.15a1.49,1.49,0,0,1-1-.26,1.29,1.29,0,0,1-.27-.93V9.38a1.22,1.22,0,0,1,.28-.91A1.32,1.32,0,0,1,133,8.2h8.26a1.52,1.52,0,0,1,1,.26,1.26,1.26,0,0,1,.26.93v5.07A1.21,1.21,0,0,1,142.27,15.37Zm-1.67-5.31a.29.29,0,0,0,0-.18.26.26,0,0,0-.18-.05H134a.34.34,0,0,0-.18,0s0,.08,0,.17v3.74c0,.11,0,.18,0,.2a.34.34,0,0,0,.18,0h6.39a.34.34,0,0,0,.18,0,.34.34,0,0,0,0-.2Z"/><path class="cls-4" d="M154.68,11.62a4,4,0,0,1-.31,1.57,3.5,3.5,0,0,1-.86,1.24,3.85,3.85,0,0,1-1.32.81,4.78,4.78,0,0,1-1.68.29,4.68,4.68,0,0,1-1.67-.29,3.77,3.77,0,0,1-1.28-.81,3.56,3.56,0,0,1-.83-1.24,4,4,0,0,1-.3-1.57,4,4,0,0,1,.3-1.54,3.84,3.84,0,0,1,.83-1.26A4.18,4.18,0,0,1,148.84,8a4.47,4.47,0,0,1,1.67-.31,4.57,4.57,0,0,1,1.68.31,4.26,4.26,0,0,1,1.32.84,3.77,3.77,0,0,1,.86,1.26A4,4,0,0,1,154.68,11.62Zm-1.94,0a2.21,2.21,0,1,0-4.42,0,2.22,2.22,0,0,0,.61,1.64,2.16,2.16,0,0,0,1.58.61,2.19,2.19,0,0,0,1.61-.61A2.22,2.22,0,0,0,152.74,11.65ZM158.67,20a2.45,2.45,0,0,1-.38,1.32,3.48,3.48,0,0,1-1.06,1,6,6,0,0,1-1.62.66,8.11,8.11,0,0,1-2,.24,8.36,8.36,0,0,1-2.1-.24,5.33,5.33,0,0,1-1.58-.66,3.27,3.27,0,0,1-1-1,2.61,2.61,0,0,1-.34-1.33,2.56,2.56,0,0,1,.34-1.31,3.07,3.07,0,0,1,1-1,5.33,5.33,0,0,1,1.58-.66,8.36,8.36,0,0,1,2.1-.24,8.61,8.61,0,0,1,2,.23,5.66,5.66,0,0,1,1.62.65,3.57,3.57,0,0,1,1.06,1A2.46,2.46,0,0,1,158.67,20Zm-2,.05a1.25,1.25,0,0,0-.25-.75,2,2,0,0,0-.66-.54,3.35,3.35,0,0,0-1-.33,5.57,5.57,0,0,0-1.18-.11,4.65,4.65,0,0,0-2.2.44,1.39,1.39,0,0,0-.83,1.29,1.2,1.2,0,0,0,.22.72,1.69,1.69,0,0,0,.63.5,3.49,3.49,0,0,0,1,.32,6.59,6.59,0,0,0,1.22.11,6.31,6.31,0,0,0,1.18-.11,3.68,3.68,0,0,0,1-.32,1.8,1.8,0,0,0,.66-.5A1.17,1.17,0,0,0,156.65,20.05ZM161,13.11a.17.17,0,0,1,.08.14v1.19a.19.19,0,0,1-.08.15.21.21,0,0,1-.16.07H158.5v1.63a.25.25,0,0,1-.07.17.18.18,0,0,1-.15.07h-1.51a.21.21,0,0,1-.16-.07.31.31,0,0,1-.07-.18v-9a.2.2,0,0,1,.23-.22h1.51a.2.2,0,0,1,.22.22V9.71h2.31a.25.25,0,0,1,.16.06.19.19,0,0,1,.08.15v1.19a.28.28,0,0,1-.24.24H158.5v1.7h2.31A.25.25,0,0,1,161,13.11Z"/><path class="cls-4" d="M161.51,15.12V14a.26.26,0,0,1,.07-.18.21.21,0,0,1,.17-.07h14.8a.25.25,0,0,1,.17.08.26.26,0,0,1,.09.17v1.09a.21.21,0,0,1-.09.16.25.25,0,0,1-.17.08h-14.8A.21.21,0,0,1,161.51,15.12Zm13-5.23a2.05,2.05,0,0,1-.34,1.14,2.9,2.9,0,0,1-1,.92,5.79,5.79,0,0,1-1.68.6,10.37,10.37,0,0,1-2.28.22,10.4,10.4,0,0,1-2.29-.22,5.9,5.9,0,0,1-1.68-.6,2.78,2.78,0,0,1-1-.92,2,2,0,0,1-.35-1.14,2,2,0,0,1,.35-1.16,2.92,2.92,0,0,1,1-.94,6.56,6.56,0,0,1,1.68-.62,11.47,11.47,0,0,1,4.57,0,6.42,6.42,0,0,1,1.68.62,3,3,0,0,1,1,.94A2.12,2.12,0,0,1,174.51,9.89ZM174.69,23a.21.21,0,0,1-.14.07h-9.49a1.34,1.34,0,0,1-.9-.23,1.08,1.08,0,0,1-.24-.79V20a1.12,1.12,0,0,1,.23-.78A1.25,1.25,0,0,1,165,19h7.21c.09,0,.15,0,.17,0s0-.08,0-.2v-.51a.38.38,0,0,0,0-.23.29.29,0,0,0-.18,0h-8.11A.25.25,0,0,1,164,18a.16.16,0,0,1-.08-.14V16.67a.17.17,0,0,1,.08-.15.21.21,0,0,1,.16-.07h9.09a1.43,1.43,0,0,1,.93.21,1.06,1.06,0,0,1,.23.79v2a1.07,1.07,0,0,1-.23.8,1.51,1.51,0,0,1-.93.2h-7.17a.27.27,0,0,0-.17,0,.31.31,0,0,0,0,.2v.58c0,.1,0,.16,0,.18a.53.53,0,0,0,.18,0h8.47a.21.21,0,0,1,.16.07.23.23,0,0,1,.08.17v1.11A.24.24,0,0,1,174.69,23ZM169.18,8.42a8,8,0,0,0-1.36.11,4.67,4.67,0,0,0-1.07.32,1.94,1.94,0,0,0-.69.47.86.86,0,0,0-.25.58.76.76,0,0,0,.25.56,2.06,2.06,0,0,0,.69.45,4.71,4.71,0,0,0,1.07.3,8,8,0,0,0,1.36.1,8.23,8.23,0,0,0,1.35-.1,4.71,4.71,0,0,0,1.07-.3,2.08,2.08,0,0,0,.7-.46.79.79,0,0,0,0-1.13,2.09,2.09,0,0,0-.7-.47,4.67,4.67,0,0,0-1.07-.32A8.2,8.2,0,0,0,169.18,8.42Z"/><path class="cls-4" d="M197.46,15.16a.25.25,0,0,1-.17.08h-6.42v1.29H194a1.42,1.42,0,0,1,.92.21,1.06,1.06,0,0,1,.23.8v1.95a1,1,0,0,1-.23.8,1.5,1.5,0,0,1-.92.2h-7.16c-.09,0-.15,0-.17.05a.33.33,0,0,0,0,.19v.53a.29.29,0,0,0,0,.18.56.56,0,0,0,.19,0h8.44a.23.23,0,0,1,.17.07.21.21,0,0,1,.09.17v1.11a.22.22,0,0,1-.09.16.21.21,0,0,1-.15.07h-9.47a1.34,1.34,0,0,1-.9-.23,1.08,1.08,0,0,1-.24-.79V20.08a1.12,1.12,0,0,1,.23-.78,1.26,1.26,0,0,1,.9-.24H193c.09,0,.15,0,.17,0s0-.08,0-.2v-.47c0-.13,0-.2,0-.22s-.08,0-.18,0H184.9a.21.21,0,0,1-.16-.07.19.19,0,0,1-.08-.15V16.75a.22.22,0,0,1,.08-.15.21.21,0,0,1,.16-.07h4V15.24h-6.42a.21.21,0,0,1-.24-.24V14a.28.28,0,0,1,.07-.19.19.19,0,0,1,.17-.08h14.8a.22.22,0,0,1,.17.09.26.26,0,0,1,.09.18V15A.21.21,0,0,1,197.46,15.16Zm-2.11-2.69a.33.33,0,0,1-.16,0h-9.1a1.46,1.46,0,0,1-1-.27,1.32,1.32,0,0,1-.27-.94V7.25A.28.28,0,0,1,185,7h1.48a.25.25,0,0,1,.18.08.21.21,0,0,1,.07.16v3.4a.29.29,0,0,0,.07.22.42.42,0,0,0,.26.05h8.11a.23.23,0,0,1,.16.07.21.21,0,0,1,.07.15v1.18A.17.17,0,0,1,195.35,12.47Z"/><path class="cls-4" d="M207.88,18.73a.36.36,0,0,1-.22.13,15.54,15.54,0,0,1-1.59.26l-1.85.17c-.63,0-1.24.07-1.84.08h-1.57a1.53,1.53,0,0,1-1-.31,1.25,1.25,0,0,1-.28-.91V14a1.13,1.13,0,0,1,.3-.88,1.3,1.3,0,0,1,.89-.27h3.4a.29.29,0,0,0,.19-.05s.05-.09.05-.21V10.19a.44.44,0,0,0,0-.19.3.3,0,0,0-.21-.05h-4.28a.25.25,0,0,1-.16-.06.23.23,0,0,1-.08-.16V8.56a.19.19,0,0,1,.08-.15.31.31,0,0,1,.16-.06h5.3a1.25,1.25,0,0,1,1,.28,1.43,1.43,0,0,1,.22.88v3.83a1.1,1.1,0,0,1-.28.88,1.4,1.4,0,0,1-.93.24H201.7a.21.21,0,0,0-.24.24v2.73c0,.2.1.29.3.29.87,0,1.77,0,2.71-.09s1.94-.19,3-.35a.21.21,0,0,1,.19.06.42.42,0,0,1,.11.21l.17,1A.19.19,0,0,1,207.88,18.73Zm3.93,4.52H210.3a.2.2,0,0,1-.22-.22V14.56h-2.77a.25.25,0,0,1-.16-.06.2.2,0,0,1-.06-.14V13.15a.2.2,0,0,1,.06-.15.21.21,0,0,1,.16-.07h2.77V7.33a.2.2,0,0,1,.22-.22h1.51a.2.2,0,0,1,.22.22V23A.2.2,0,0,1,211.81,23.25Z"/><path class="cls-4" d="M47.14,52.53a.21.21,0,0,1-.17.08H32.18a.2.2,0,0,1-.17-.08.31.31,0,0,1-.07-.17V51.25a.31.31,0,0,1,.07-.18.21.21,0,0,1,.17-.09H38v-2.7a.21.21,0,0,1,.24-.24h1.48a.21.21,0,0,1,.24.24V51H46.9a.33.33,0,0,1,.21.1c.08.06.12.12.12.17v1.11A.24.24,0,0,1,47.14,52.53ZM45,57a2.46,2.46,0,0,1-.36,1.29,3.4,3.4,0,0,1-1.06,1,5.8,5.8,0,0,1-1.7.69,11,11,0,0,1-4.57,0,5.8,5.8,0,0,1-1.7-.69,3.4,3.4,0,0,1-1.06-1,2.47,2.47,0,0,1,0-2.57,3.25,3.25,0,0,1,1.06-1,5.54,5.54,0,0,1,1.7-.68,10.57,10.57,0,0,1,4.57,0,5.54,5.54,0,0,1,1.7.68,3.25,3.25,0,0,1,1.06,1A2.46,2.46,0,0,1,45,57Zm0-11.26q0,.35,0,.93c0,.39-.05.8-.09,1.21s-.07.81-.11,1.18-.1.65-.14.83a.56.56,0,0,1-.13.24.25.25,0,0,1-.23.09l-1.31-.12c-.17,0-.23-.13-.2-.36s.07-.43.1-.72.06-.59.09-.89,0-.59.06-.87,0-.51,0-.68,0-.26-.11-.3a.76.76,0,0,0-.35-.06H34.66a.32.32,0,0,1-.17-.06.19.19,0,0,1-.08-.14V44.78a.19.19,0,0,1,.08-.16.41.41,0,0,1,.17,0h9.2a1.3,1.3,0,0,1,.78.25A1,1,0,0,1,45,45.69ZM39.59,55.2a6.08,6.08,0,0,0-1.49.16,4.2,4.2,0,0,0-1.08.42,2.09,2.09,0,0,0-.66.57,1,1,0,0,0-.23.62,1,1,0,0,0,.23.62,2.09,2.09,0,0,0,.66.57,4.2,4.2,0,0,0,1.08.41,7,7,0,0,0,3,0,4.14,4.14,0,0,0,1.09-.41,2.09,2.09,0,0,0,.66-.57,1,1,0,0,0,.23-.62,1,1,0,0,0-.23-.62,2.09,2.09,0,0,0-.66-.57,4.13,4.13,0,0,0-1.09-.42A6.08,6.08,0,0,0,39.59,55.2Z"/><path class="cls-4" d="M49.51,54.08c-.27.1-.45.05-.57-.16l-.47-.86a.32.32,0,0,1,0-.28c0-.09.09-.16.22-.22a12.7,12.7,0,0,0,3.61-2.37,7,7,0,0,0,1.88-3,1.28,1.28,0,0,0,.08-.37c0-.07-.1-.11-.32-.11H49.27a.19.19,0,0,1-.16-.07.28.28,0,0,1-.06-.18V45.32a.21.21,0,0,1,.23-.24h5.77a1.72,1.72,0,0,1,1.05.24.92.92,0,0,1,.31.78,1,1,0,0,1,0,.22,2.33,2.33,0,0,1-.05.28c0,.1,0,.19,0,.26s0,.13,0,.16a10.13,10.13,0,0,1-2.36,4.17A12.81,12.81,0,0,1,49.51,54.08Zm12,5.83a.37.37,0,0,1-.17.05h-9a1.46,1.46,0,0,1-1-.27,1.34,1.34,0,0,1-.27-.94V55a.21.21,0,0,1,.08-.16.25.25,0,0,1,.17-.07h1.45a.26.26,0,0,1,.18.07A.22.22,0,0,1,53,55v3.06c0,.12,0,.19.07.22a.33.33,0,0,0,.23.06h8a.29.29,0,0,1,.17.06.21.21,0,0,1,.09.16v1.2A.18.18,0,0,1,61.49,59.91Zm1.9-9.12a.26.26,0,0,1-.18.07h-2.3v4.49c0,.15-.08.22-.24.22H59.18A.21.21,0,0,1,59,55.5a.19.19,0,0,1-.08-.15v-11a.22.22,0,0,1,.08-.15.26.26,0,0,1,.16-.07h1.49c.16,0,.24.08.24.22v4.9h2.3a.3.3,0,0,1,.18.06.18.18,0,0,1,.07.15v1.2A.18.18,0,0,1,63.39,50.79Z"/><path class="cls-4" d="M63.9,52.12V51a.31.31,0,0,1,.07-.18.22.22,0,0,1,.17-.07H79a.27.27,0,0,1,.17.08.24.24,0,0,1,.08.17v1.09a.19.19,0,0,1-.08.16.27.27,0,0,1-.17.08H64.14A.21.21,0,0,1,63.9,52.12Zm13-5.23A2.06,2.06,0,0,1,76.56,48a2.74,2.74,0,0,1-1,.92,5.72,5.72,0,0,1-1.67.6,10.53,10.53,0,0,1-2.29.22,10.37,10.37,0,0,1-2.28-.22,5.68,5.68,0,0,1-1.68-.6,2.82,2.82,0,0,1-1-.92,2.06,2.06,0,0,1-.35-1.14,2.13,2.13,0,0,1,.35-1.16,3,3,0,0,1,1-.94,6.29,6.29,0,0,1,1.68-.62,10.33,10.33,0,0,1,2.28-.23,10.49,10.49,0,0,1,2.29.23,6.34,6.34,0,0,1,1.67.62,2.87,2.87,0,0,1,1,.94A2.13,2.13,0,0,1,76.91,46.89ZM77.09,60a.21.21,0,0,1-.15.07H67.46a1.34,1.34,0,0,1-.9-.23,1.08,1.08,0,0,1-.24-.79V57a1.12,1.12,0,0,1,.23-.78,1.23,1.23,0,0,1,.89-.24h7.21c.09,0,.15,0,.17,0s0-.08,0-.2v-.51a.53.53,0,0,0,0-.23.33.33,0,0,0-.19,0H66.52a.27.27,0,0,1-.16-.06.19.19,0,0,1-.08-.14V53.67a.19.19,0,0,1,.08-.15.23.23,0,0,1,.16-.07h9.1a1.42,1.42,0,0,1,.92.21,1,1,0,0,1,.23.79v2a1,1,0,0,1-.23.8,1.5,1.5,0,0,1-.92.2H68.44a.3.3,0,0,0-.17,0,.43.43,0,0,0,0,.2v.58a.31.31,0,0,0,0,.18.66.66,0,0,0,.19,0h8.47a.23.23,0,0,1,.16.07.22.22,0,0,1,.07.17v1.11A.23.23,0,0,1,77.09,60ZM71.57,45.42a8.05,8.05,0,0,0-1.36.11,4.58,4.58,0,0,0-1.06.32,2.09,2.09,0,0,0-.7.47.89.89,0,0,0-.24.58.79.79,0,0,0,.24.56,2.23,2.23,0,0,0,.7.45,4.61,4.61,0,0,0,1.06.3,9.23,9.23,0,0,0,2.71,0,4.56,4.56,0,0,0,1.07-.3,2,2,0,0,0,.7-.46.76.76,0,0,0,0-1.13,2,2,0,0,0-.7-.47,4.52,4.52,0,0,0-1.07-.32A8,8,0,0,0,71.57,45.42Z"/><path class="cls-4" d="M85.83,56.15a.41.41,0,0,1-.28.07.3.3,0,0,1-.23-.16l-.66-.86a.25.25,0,0,1,0-.29.51.51,0,0,1,.18-.2,15.59,15.59,0,0,0,2-1.54,15.76,15.76,0,0,0,1.75-1.82,12.48,12.48,0,0,0,1.32-2,8.16,8.16,0,0,0,.79-1.91c0-.19,0-.32,0-.37s-.14-.09-.34-.09H86a.19.19,0,0,1-.18-.08.27.27,0,0,1-.06-.17V45.63a.19.19,0,0,1,.08-.17.23.23,0,0,1,.17-.07h5.55a1.8,1.8,0,0,1,1,.25.79.79,0,0,1,.38.67,2.42,2.42,0,0,1,0,.45,3.73,3.73,0,0,1-.08.41A13.46,13.46,0,0,1,92.21,49a12.07,12.07,0,0,1-1,1.84q.33.45.75.93t.87.93c.29.3.58.58.88.84s.56.46.8.63a.46.46,0,0,1,.16.23.28.28,0,0,1-.06.27l-.73.83a.39.39,0,0,1-.56,0,8,8,0,0,1-.72-.57c-.27-.23-.55-.5-.84-.8s-.58-.6-.86-.92-.55-.63-.78-.93A17.42,17.42,0,0,1,85.83,56.15Zm14.28-4.23a.29.29,0,0,1-.17.06H97.63V60a.2.2,0,0,1-.22.22H95.9a.2.2,0,0,1-.22-.22V44.33a.2.2,0,0,1,.22-.22h1.51a.2.2,0,0,1,.22.22v6h2.31a.29.29,0,0,1,.17.06.18.18,0,0,1,.07.15v1.2A.21.21,0,0,1,100.11,51.92Z"/><path class="cls-4" d="M115.84,54.31a.24.24,0,0,1-.17.09H112v5.49a.21.21,0,0,1-.24.24h-1.48a.21.21,0,0,1-.24-.24V54.4h-3.55v5.49a.21.21,0,0,1-.24.24h-1.48a.21.21,0,0,1-.24-.24V54.4h-3.67a.21.21,0,0,1-.17-.09.41.41,0,0,1-.07-.18V53a.29.29,0,0,1,.07-.18.22.22,0,0,1,.17-.07h14.81a.27.27,0,0,1,.17.08.24.24,0,0,1,.08.17v1.11A.28.28,0,0,1,115.84,54.31Zm-7.57-3.11a9,9,0,0,1-2.09-.23,6.09,6.09,0,0,1-1.77-.67,3.74,3.74,0,0,1-1.24-1.08,2.35,2.35,0,0,1-.47-1.47,2.42,2.42,0,0,1,.47-1.48,3.74,3.74,0,0,1,1.24-1.08,6.38,6.38,0,0,1,1.77-.66,9.66,9.66,0,0,1,4.19,0,6.51,6.51,0,0,1,1.77.66,3.61,3.61,0,0,1,1.23,1.08,2.48,2.48,0,0,1,.46,1.48,2.4,2.4,0,0,1-.46,1.47,3.61,3.61,0,0,1-1.23,1.08,6.2,6.2,0,0,1-1.77.67A9,9,0,0,1,108.27,51.2Zm0-5.3A6.14,6.14,0,0,0,107,46a4.68,4.68,0,0,0-1.13.37,2.52,2.52,0,0,0-.81.6,1.15,1.15,0,0,0-.3.77,1.11,1.11,0,0,0,.3.76,2.63,2.63,0,0,0,.81.58,5.17,5.17,0,0,0,1.13.37,7,7,0,0,0,2.59,0,4.91,4.91,0,0,0,1.12-.37,2.58,2.58,0,0,0,.8-.58,1.11,1.11,0,0,0,.3-.76,1.15,1.15,0,0,0-.3-.77,2.47,2.47,0,0,0-.8-.6,4.46,4.46,0,0,0-1.12-.37A6.16,6.16,0,0,0,108.27,45.9Z"/><path class="cls-4" d="M129.65,50.4a.21.21,0,0,1-.14.07h-4.29v1.34h6.41a.25.25,0,0,1,.17.08.22.22,0,0,1,.09.16v1a.33.33,0,0,1-.26.26H116.84a.23.23,0,0,1-.17-.08.29.29,0,0,1-.07-.18v-1a.21.21,0,0,1,.24-.24h6.43V50.47h-3a1.29,1.29,0,0,1-.91-.24,1.1,1.1,0,0,1-.23-.78V47.63a1.07,1.07,0,0,1,.23-.78,1.23,1.23,0,0,1,.89-.24h7.14c.09,0,.15,0,.17,0a.45.45,0,0,0,0-.21v-.55c0-.09,0-.14,0-.16a.61.61,0,0,0-.19,0h-7.94a.28.28,0,0,1-.16-.07.22.22,0,0,1-.08-.15V44.33a.22.22,0,0,1,.08-.15.28.28,0,0,1,.16-.07h8.91a1.46,1.46,0,0,1,.93.22,1.06,1.06,0,0,1,.23.79V47a1.06,1.06,0,0,1-.23.8,1.47,1.47,0,0,1-.93.21h-7.07c-.1,0-.17,0-.19,0a.4.4,0,0,0,0,.2v.5q0,.16,0,.18a.4.4,0,0,0,.21,0h8.24a.25.25,0,0,1,.16.06.22.22,0,0,1,.08.18v1A.27.27,0,0,1,129.65,50.4Zm-.45,9.4a1.4,1.4,0,0,1-1,.28h-7.87a1.51,1.51,0,0,1-1-.26,1.26,1.26,0,0,1-.27-.93V54.43a.24.24,0,0,1,.06-.15.21.21,0,0,1,.16-.07h1.49a.21.21,0,0,1,.16.07.22.22,0,0,1,.08.15v1.4h6.53v-1.4a.23.23,0,0,1,.07-.16.19.19,0,0,1,.15-.08h1.51a.23.23,0,0,1,.16.08.27.27,0,0,1,.06.16v4.51A1.22,1.22,0,0,1,129.2,59.8Zm-1.68-2.46H121v.92c0,.19.11.29.32.29h5.89c.21,0,.32-.1.32-.29Z"/><path class="cls-4" d="M134.27,56.34a.74.74,0,0,1-.27.1.23.23,0,0,1-.23-.1l-.68-.9a.27.27,0,0,1,0-.27.42.42,0,0,1,.15-.19,12.25,12.25,0,0,0,3.66-3.54,9.27,9.27,0,0,0,1-2,6.08,6.08,0,0,0,.39-1.84.88.88,0,0,0-.07-.49c-.05-.08-.2-.13-.44-.13H134c-.16,0-.24-.07-.24-.22V45.63a.21.21,0,0,1,.07-.16.27.27,0,0,1,.17-.06h4.94a1.4,1.4,0,0,1,1,.28,1.28,1.28,0,0,1,.25.94,10.62,10.62,0,0,1-.48,2.92h2.13V44.62c0-.14.08-.22.24-.22h1.39a.2.2,0,0,1,.22.22V59.46c0,.16-.07.24-.22.24h-1.39a.21.21,0,0,1-.24-.24V51.19h-2.79a12,12,0,0,1-2,2.83A14.91,14.91,0,0,1,134.27,56.34Zm12.51,3.94H145.3a.19.19,0,0,1-.22-.22V44.33c0-.14.08-.22.24-.22h1.46a.2.2,0,0,1,.22.22V60.06A.19.19,0,0,1,146.78,60.28Z"/><path class="cls-4" d="M158.61,56.34a3.73,3.73,0,0,1-1.75-.41,3.82,3.82,0,0,1-1.32-1.15,5.52,5.52,0,0,1-.82-1.78,8.16,8.16,0,0,1-.29-2.27,8.3,8.3,0,0,1,.29-2.31,5.31,5.31,0,0,1,.82-1.76,3.76,3.76,0,0,1,1.32-1.13,4.05,4.05,0,0,1,3.51,0,3.73,3.73,0,0,1,1.31,1.13,5.12,5.12,0,0,1,.82,1.76,9.35,9.35,0,0,1,0,4.62,5.36,5.36,0,0,1-.82,1.77,3.66,3.66,0,0,1-3.07,1.53Zm2.26-5.61a7.17,7.17,0,0,0-.15-1.49,4.56,4.56,0,0,0-.44-1.23,2.69,2.69,0,0,0-.71-.84,1.69,1.69,0,0,0-1.92,0,2.69,2.69,0,0,0-.71.84,4.56,4.56,0,0,0-.44,1.23,7.17,7.17,0,0,0-.15,1.49,7,7,0,0,0,.15,1.47,4.76,4.76,0,0,0,.44,1.24,2.62,2.62,0,0,0,.71.85,1.64,1.64,0,0,0,1.92,0,2.62,2.62,0,0,0,.71-.85,4.76,4.76,0,0,0,.44-1.24A7,7,0,0,0,160.87,50.73ZM167,60a.2.2,0,0,1-.22.22h-1.52a.2.2,0,0,1-.22-.22V44.33a.2.2,0,0,1,.22-.22h1.52a.2.2,0,0,1,.22.22Z"/><path class="cls-4" d="M182.23,50a.2.2,0,0,1-.14.06h-4.17V51.8h6.41a.25.25,0,0,1,.17.08.26.26,0,0,1,.09.17v1.12a.26.26,0,0,1-.09.18.25.25,0,0,1-.17.08H169.54a.23.23,0,0,1-.17-.08.29.29,0,0,1-.07-.18V52.05a.31.31,0,0,1,.07-.18.22.22,0,0,1,.17-.07H176V50.05h-3a1.24,1.24,0,0,1-1-.31,1.31,1.31,0,0,1-.27-.9V45.51a1.1,1.1,0,0,1,.29-.88,1.51,1.51,0,0,1,.93-.23h8.95a.2.2,0,0,1,.23.22v1.16a.21.21,0,0,1-.23.24h-7.88c-.21,0-.32.09-.32.29v1.83a.31.31,0,0,0,.07.22.29.29,0,0,0,.25.09h8a.49.49,0,0,1,.2,0c.05,0,.07.08.07.17v1.14A.28.28,0,0,1,182.23,50Zm.06,7.35a2.37,2.37,0,0,1-1.38,2.16,10.75,10.75,0,0,1-7.94,0,2.37,2.37,0,0,1,0-4.31,10.62,10.62,0,0,1,7.94,0A2.38,2.38,0,0,1,182.29,57.34Zm-5.35-1.43a6,6,0,0,0-2.56.42c-.57.28-.86.62-.86,1s.29.73.86,1a6,6,0,0,0,2.56.42,6.08,6.08,0,0,0,2.56-.42c.57-.28.85-.62.85-1s-.28-.75-.85-1A6.08,6.08,0,0,0,176.94,55.91Z"/><path class="cls-4" d="M195.29,49.11a.23.23,0,0,1-.18.09H185.9a.33.33,0,0,1-.29-.29v-1a.24.24,0,0,1,.09-.17.27.27,0,0,1,.2-.08h9.21a.24.24,0,0,1,.25.25v1.05A.26.26,0,0,1,195.29,49.11Zm-4.67.92a4.39,4.39,0,0,1,1.53.25,3.33,3.33,0,0,1,1.19.69,3.25,3.25,0,0,1,.78,1.08,3.53,3.53,0,0,1,.28,1.4,3.62,3.62,0,0,1-.28,1.41,3.26,3.26,0,0,1-.79,1.11,3.63,3.63,0,0,1-1.2.74,4.52,4.52,0,0,1-3,0A3.48,3.48,0,0,1,187.9,56a3.32,3.32,0,0,1-.76-1.12,3.62,3.62,0,0,1-.28-1.41,3.47,3.47,0,0,1,.28-1.38,3.09,3.09,0,0,1,.77-1.08,3.6,3.6,0,0,1,1.19-.7A4.37,4.37,0,0,1,190.62,50Zm2.49-3.64a.23.23,0,0,1-.19.09h-4.78a.31.31,0,0,1-.16-.07.24.24,0,0,1-.1-.19V45.1a.24.24,0,0,1,.1-.19.29.29,0,0,1,.16-.06h4.78a.23.23,0,0,1,.18.08.26.26,0,0,1,.09.19v1.09A.27.27,0,0,1,193.11,46.39Zm-2.49,5.19a1.84,1.84,0,0,0-1.38.53,1.9,1.9,0,0,0-.52,1.39,1.93,1.93,0,0,0,.52,1.38,1.81,1.81,0,0,0,1.38.54,1.85,1.85,0,0,0,1.41-.54,2,2,0,0,0,.51-1.38,1.94,1.94,0,0,0-.51-1.39A1.88,1.88,0,0,0,190.62,51.58Zm10.13.51a.34.34,0,0,1-.18.07h-2.3V60a.2.2,0,0,1-.22.22h-1.51a.2.2,0,0,1-.22-.22V44.33a.2.2,0,0,1,.22-.22h1.51a.2.2,0,0,1,.22.22v6.19h2.3a.32.32,0,0,1,.18.06.18.18,0,0,1,.07.15v1.2A.21.21,0,0,1,200.75,52.09Z"/><path class="cls-4" d="M202.86,56.39a.34.34,0,0,1-.54,0l-.77-.75c-.17-.16-.16-.33,0-.51a8.87,8.87,0,0,0,1.53-1.9,10.54,10.54,0,0,0,1-2.27,15.69,15.69,0,0,0,.53-2.63,26.17,26.17,0,0,0,.16-3c0-.17.08-.25.22-.25l1.42.05a.24.24,0,0,1,.16.08.22.22,0,0,1,.09.17c0,.86,0,1.64-.08,2.36a17.27,17.27,0,0,1-.26,2,7.49,7.49,0,0,0,.51,1.46,12.79,12.79,0,0,0,.76,1.42,12.18,12.18,0,0,0,.89,1.23,6,6,0,0,0,.88.92c.17.15.19.3,0,.44l-.78.8a.31.31,0,0,1-.51,0,4.6,4.6,0,0,1-.72-.64c-.24-.27-.48-.55-.71-.85a9.24,9.24,0,0,1-.65-1,7.14,7.14,0,0,1-.5-1.05,10.54,10.54,0,0,1-1.12,2A14.62,14.62,0,0,1,202.86,56.39Zm9.3,3.31h-1.39c-.17,0-.26-.08-.26-.24V51.07H208a.28.28,0,0,1-.16-.07.23.23,0,0,1-.08-.17V49.67a.19.19,0,0,1,.08-.14.27.27,0,0,1,.16-.06h2.55V44.61c0-.15.09-.22.26-.22h1.39a.19.19,0,0,1,.22.22V59.46C212.38,59.62,212.31,59.7,212.16,59.7Zm3.3.58H214a.19.19,0,0,1-.22-.22V44.33c0-.14.08-.22.24-.22h1.46a.2.2,0,0,1,.22.22V60.06A.19.19,0,0,1,215.46,60.28Z"/><path class="cls-4" d="M232.46,57.41a.27.27,0,0,1-.17.08H217.48a.23.23,0,0,1-.17-.08.34.34,0,0,1-.07-.17V56.13q0-.27.24-.27h3.4V53.21c0-.16.09-.24.26-.24h1.46c.17,0,.25.08.25.24v2.65h4.07V53.21c0-.16.08-.24.25-.24h1.46a.24.24,0,0,1,.18.07.21.21,0,0,1,.08.17v2.65h3.4a.24.24,0,0,1,.17.09.22.22,0,0,1,.08.18v1.11A.24.24,0,0,1,232.46,57.41Zm-7.58-5a9.15,9.15,0,0,1-2.13-.24,6.12,6.12,0,0,1-1.77-.7,3.63,3.63,0,0,1-1.2-1.17,2.88,2.88,0,0,1-.45-1.6,2.8,2.8,0,0,1,.45-1.57A3.61,3.61,0,0,1,221,46a5.87,5.87,0,0,1,1.77-.72,9.15,9.15,0,0,1,2.13-.23,9.33,9.33,0,0,1,2.15.23,5.87,5.87,0,0,1,1.77.72A3.67,3.67,0,0,1,230,47.13a2.8,2.8,0,0,1,.45,1.57,2.88,2.88,0,0,1-.45,1.6,3.7,3.7,0,0,1-1.19,1.17,6.12,6.12,0,0,1-1.77.7A9.32,9.32,0,0,1,224.88,52.41Zm0-5.78a6.26,6.26,0,0,0-1.31.14,4.67,4.67,0,0,0-1.13.41,2.36,2.36,0,0,0-.79.66,1.4,1.4,0,0,0-.3.88,1.44,1.44,0,0,0,.3.9,2.36,2.36,0,0,0,.79.66,4.28,4.28,0,0,0,1.13.4,5.66,5.66,0,0,0,1.31.15,5.57,5.57,0,0,0,1.3-.15,4.28,4.28,0,0,0,1.13-.4,2.51,2.51,0,0,0,.8-.66,1.49,1.49,0,0,0,.29-.9,1.45,1.45,0,0,0-.29-.88,2.51,2.51,0,0,0-.8-.66,4.67,4.67,0,0,0-1.13-.41A6.16,6.16,0,0,0,224.89,46.63Z"/><path class="cls-4" d="M235.59,59.53a1.24,1.24,0,0,1-.93-.38,1.27,1.27,0,0,1-.38-.93,1.24,1.24,0,0,1,.38-.91,1.28,1.28,0,0,1,.93-.38,1.22,1.22,0,0,1,.91.38,1.24,1.24,0,0,1,.38.91,1.27,1.27,0,0,1-.38.93A1.19,1.19,0,0,1,235.59,59.53Z"/><path class="cls-4" d="M412.55,10.89a.25.25,0,0,1,.14-.07l2.16-.05c.7,0,1.38-.06,2-.12a2.26,2.26,0,0,0,.15-.39c.05-.14.1-.27.14-.41a.77.77,0,0,0,0-.39c0-.07-.12-.1-.29-.1h-3.79a.19.19,0,0,1-.16-.08.28.28,0,0,1-.06-.18v-1a.21.21,0,0,1,.24-.24h4.74a1.72,1.72,0,0,1,1,.24.92.92,0,0,1,.31.78,1.49,1.49,0,0,1,0,.19,2.56,2.56,0,0,1-.05.27c0,.09,0,.17,0,.24a.91.91,0,0,1,0,.16,9.35,9.35,0,0,1-2.18,3.79A11.17,11.17,0,0,1,413,16.11q-.36.15-.51-.12l-.47-.82a.3.3,0,0,1,0-.27.35.35,0,0,1,.2-.22,13.85,13.85,0,0,0,2.1-1.16,8.42,8.42,0,0,0,1.57-1.34l-1.58.09c-.52,0-1,.05-1.56.05a.31.31,0,0,1-.16-.07.26.26,0,0,1-.08-.19v-1A.21.21,0,0,1,412.55,10.89Zm13,11.82a1.39,1.39,0,0,1-1,.28h-8a1.52,1.52,0,0,1-1-.25,1.27,1.27,0,0,1-.27-.94v-5a.18.18,0,0,1,.07-.15.2.2,0,0,1,.15-.06h1.5a.27.27,0,0,1,.16.06.18.18,0,0,1,.07.15v1.6h6.68V16.77a.21.21,0,0,1,.07-.15.21.21,0,0,1,.15-.07h1.52a.24.24,0,0,1,.22.22v5.08A1.2,1.2,0,0,1,425.51,22.71ZM423.82,20h-6.68V21.1c0,.2.11.29.31.29h6.05c.22,0,.32-.09.32-.29Zm0-12.69c0-.14.08-.22.24-.22h1.46a.2.2,0,0,1,.22.22V15.6a.2.2,0,0,1-.22.22h-1.48a.2.2,0,0,1-.22-.22V12.5h-1.48v2.88c0,.15-.07.23-.22.23h-1.4a.21.21,0,0,1-.23-.23V7.61c0-.15.08-.22.23-.22h1.4a.19.19,0,0,1,.22.22v3.26h1.48Z"/><path class="cls-4" d="M428.89,17.2a.46.46,0,0,1-.22-.16l-.7-.8c-.11-.12-.15-.22-.13-.3a.46.46,0,0,1,.2-.22,8.46,8.46,0,0,0,2.85-3.18,10.24,10.24,0,0,0,.94-4.61.29.29,0,0,1,.09-.21.24.24,0,0,1,.17-.1l1.49.09c.15,0,.22.08.22.25a12.84,12.84,0,0,1-.47,3.61,6.61,6.61,0,0,0,.67,1.18,6.76,6.76,0,0,0,.87,1,9.21,9.21,0,0,0,.95.85,5.74,5.74,0,0,0,.92.58c.19.09.21.24.07.43l-.63.92a.31.31,0,0,1-.46.1,8.57,8.57,0,0,1-1.81-1.29,8.3,8.3,0,0,1-1.43-1.76,8.66,8.66,0,0,1-1.38,1.89,11.64,11.64,0,0,1-1.87,1.58C429.08,17.19,429,17.23,428.89,17.2Zm12.59,5.74a.25.25,0,0,1-.16,0h-8.86a1.46,1.46,0,0,1-1-.27,1.34,1.34,0,0,1-.26-.93V18.06a.21.21,0,0,1,.08-.16.23.23,0,0,1,.16-.08h1.46a.25.25,0,0,1,.18.08.23.23,0,0,1,.07.16v3a.3.3,0,0,0,.07.22.51.51,0,0,0,.26.05h7.87a.23.23,0,0,1,.16.07.19.19,0,0,1,.08.15v1.21A.16.16,0,0,1,441.48,22.94ZM436.13,12.4h3V11.18h-3a.34.34,0,0,1-.17-.07.22.22,0,0,1-.08-.15V9.82a.19.19,0,0,1,.08-.15.32.32,0,0,1,.17-.06h3V7.33a.2.2,0,0,1,.22-.22h1.51a.2.2,0,0,1,.22.22v11a.19.19,0,0,1-.22.22h-1.51a.19.19,0,0,1-.22-.22V14h-3a.3.3,0,0,1-.17-.05.19.19,0,0,1-.08-.15V12.6a.19.19,0,0,1,.08-.14A.32.32,0,0,1,436.13,12.4Z"/><path class="cls-4" d="M453.05,19.27a3.73,3.73,0,0,1-1.75-.4A3.68,3.68,0,0,1,450,17.74a5.57,5.57,0,0,1-.83-1.75,8.43,8.43,0,0,1-.28-2.26,8.7,8.7,0,0,1,.28-2.31A5.32,5.32,0,0,1,450,9.66a3.68,3.68,0,0,1,1.32-1.13,4.1,4.1,0,0,1,3.51,0,3.9,3.9,0,0,1,1.31,1.12,5.18,5.18,0,0,1,.84,1.75,8.61,8.61,0,0,1,.29,2.3A8.69,8.69,0,0,1,457,16a5.43,5.43,0,0,1-.84,1.76,3.79,3.79,0,0,1-1.31,1.12A3.89,3.89,0,0,1,453.05,19.27Zm2.28-5.58a7.07,7.07,0,0,0-.16-1.48,4.41,4.41,0,0,0-.44-1.21,2.52,2.52,0,0,0-.71-.83,1.66,1.66,0,0,0-1-.3,1.6,1.6,0,0,0-.95.3,2.62,2.62,0,0,0-.7.83,4.41,4.41,0,0,0-.44,1.21,6.88,6.88,0,0,0,0,2.95,4.61,4.61,0,0,0,.44,1.22,2.66,2.66,0,0,0,.7.84,1.55,1.55,0,0,0,.95.32,1.61,1.61,0,0,0,1-.32,2.56,2.56,0,0,0,.71-.84,4.61,4.61,0,0,0,.44-1.22A7,7,0,0,0,455.33,13.69Zm8.2,1.21a.23.23,0,0,1-.16.07h-2.3V23a.18.18,0,0,1-.08.16.25.25,0,0,1-.16.06h-1.49c-.16,0-.24-.08-.24-.22V7.33c0-.14.08-.22.24-.22h1.49a.26.26,0,0,1,.16.07.19.19,0,0,1,.08.15v6h2.3a.27.27,0,0,1,.16.06.16.16,0,0,1,.07.14v1.19A.22.22,0,0,1,463.53,14.9Z"/><path class="cls-4" d="M469.35,19.34a3.73,3.73,0,0,1-1.75-.41,3.82,3.82,0,0,1-1.32-1.15,5.32,5.32,0,0,1-.82-1.78,8.16,8.16,0,0,1-.29-2.27,8.3,8.3,0,0,1,.29-2.31,5.12,5.12,0,0,1,.82-1.76,3.76,3.76,0,0,1,1.32-1.13,3.79,3.79,0,0,1,4.82,1.13,5.12,5.12,0,0,1,.82,1.76,8.3,8.3,0,0,1,.29,2.31,8.3,8.3,0,0,1-.29,2.31,5.36,5.36,0,0,1-.82,1.77,3.93,3.93,0,0,1-1.31,1.13A3.87,3.87,0,0,1,469.35,19.34Zm2.26-5.61a7.17,7.17,0,0,0-.15-1.49A4.56,4.56,0,0,0,471,11a2.69,2.69,0,0,0-.71-.84,1.69,1.69,0,0,0-1.92,0,2.69,2.69,0,0,0-.71.84,4.56,4.56,0,0,0-.44,1.23,7.17,7.17,0,0,0-.15,1.49,7,7,0,0,0,.15,1.47,4.76,4.76,0,0,0,.44,1.24,2.62,2.62,0,0,0,.71.85,1.64,1.64,0,0,0,1.92,0,2.62,2.62,0,0,0,.71-.85,4.76,4.76,0,0,0,.44-1.24A7,7,0,0,0,471.61,13.73Zm6.14,9.3a.2.2,0,0,1-.22.22H476a.2.2,0,0,1-.22-.22V7.33a.2.2,0,0,1,.22-.22h1.52a.2.2,0,0,1,.22.22Z"/><path class="cls-4" d="M495.24,16.75a.24.24,0,0,1-.17.09H480.28a.21.21,0,0,1-.17-.09.28.28,0,0,1-.07-.17V15.46a.29.29,0,0,1,.07-.18.22.22,0,0,1,.17-.07h5.9v-2a.24.24,0,0,1,.07-.18.23.23,0,0,1,.18-.08h1.47a.29.29,0,0,1,.18.08.24.24,0,0,1,.07.18v2h6.92a.22.22,0,0,1,.17.08.24.24,0,0,1,.09.17v1.12A.22.22,0,0,1,495.24,16.75Zm-1.92,6a.37.37,0,0,1-.17.05h-9.4a1.46,1.46,0,0,1-1-.28,1.35,1.35,0,0,1-.26-1V18.21a.27.27,0,0,1,.07-.17.25.25,0,0,1,.17-.08h1.46a.29.29,0,0,1,.18.08.23.23,0,0,1,.07.17v2.67c0,.12,0,.19.07.22a.41.41,0,0,0,.26.06h8.41a.29.29,0,0,1,.17.06.15.15,0,0,1,.09.14v1.22A.18.18,0,0,1,493.32,22.74ZM482.78,10.6H485l2.25,0,2.1,0c.66,0,1.25,0,1.76-.07,0-.19,0-.37,0-.54s0-.34,0-.5,0-.25-.11-.29a.76.76,0,0,0-.35-.06h-7.95a.27.27,0,0,1-.17-.06.18.18,0,0,1-.09-.15V7.73a.18.18,0,0,1,.09-.16.34.34,0,0,1,.17-.05H492a1.24,1.24,0,0,1,.78.26,1,1,0,0,1,.34.88c0,.15,0,.36,0,.62s0,.56-.05.88-.05.65-.08,1-.06.68-.1,1-.07.62-.11.89-.07.48-.11.64a.53.53,0,0,1-.12.25.26.26,0,0,1-.23.09L491,13.9c-.17,0-.24-.15-.21-.38s.07-.46.11-.72.06-.52.1-.81c-1.23.07-2.55.11-4,.13l-4.26,0a.19.19,0,0,1-.15-.08.28.28,0,0,1-.07-.19V10.84C482.56,10.68,482.63,10.6,482.78,10.6Z"/><path class="cls-4" d="M496,15.12V14a.31.31,0,0,1,.07-.18.22.22,0,0,1,.17-.07h14.81a.28.28,0,0,1,.25.25v1.09a.23.23,0,0,1-.08.16.29.29,0,0,1-.17.08H496.26A.21.21,0,0,1,496,15.12Zm13-5.23a2.06,2.06,0,0,1-.35,1.14,2.82,2.82,0,0,1-1,.92,5.72,5.72,0,0,1-1.67.6,12,12,0,0,1-4.58,0,5.72,5.72,0,0,1-1.67-.6,2.82,2.82,0,0,1-1-.92,2.06,2.06,0,0,1-.35-1.14,2.13,2.13,0,0,1,.35-1.16,3,3,0,0,1,1-.94,6.34,6.34,0,0,1,1.67-.62,11.52,11.52,0,0,1,4.58,0,6.34,6.34,0,0,1,1.67.62,3,3,0,0,1,1,.94A2.13,2.13,0,0,1,509,9.89ZM509.21,23a.21.21,0,0,1-.15.07h-9.48a1.35,1.35,0,0,1-.91-.23,1.13,1.13,0,0,1-.23-.79V20a1.07,1.07,0,0,1,.23-.78,1.23,1.23,0,0,1,.89-.24h7.21a.35.35,0,0,0,.17,0s0-.08,0-.2v-.51a.53.53,0,0,0,0-.23.35.35,0,0,0-.19,0h-8.11a.25.25,0,0,1-.16-.06.19.19,0,0,1-.08-.14V16.67a.19.19,0,0,1,.08-.15.21.21,0,0,1,.16-.07h9.1a1.42,1.42,0,0,1,.92.21,1,1,0,0,1,.23.79v2a1,1,0,0,1-.23.8,1.5,1.5,0,0,1-.92.2h-7.18a.27.27,0,0,0-.17,0,.43.43,0,0,0,0,.2v.58a.31.31,0,0,0,0,.18.61.61,0,0,0,.19,0H509a.23.23,0,0,1,.17.07.22.22,0,0,1,.07.17v1.11A.23.23,0,0,1,509.21,23ZM503.69,8.42a8.05,8.05,0,0,0-1.36.11,4.58,4.58,0,0,0-1.06.32,2,2,0,0,0-.7.47.91.91,0,0,0-.25.58.8.8,0,0,0,.25.56,2.12,2.12,0,0,0,.7.45,4.61,4.61,0,0,0,1.06.3,8.11,8.11,0,0,0,1.36.1,8.07,8.07,0,0,0,1.35-.1,4.56,4.56,0,0,0,1.07-.3,2,2,0,0,0,.7-.46.76.76,0,0,0,0-1.13,2,2,0,0,0-.7-.47A4.52,4.52,0,0,0,505,8.53,8,8,0,0,0,503.69,8.42Z"/><path class="cls-4" d="M532,15.16a.29.29,0,0,1-.17.08h-6.43v1.29h3.13a1.47,1.47,0,0,1,.93.21,1.11,1.11,0,0,1,.23.8v1.95a1.07,1.07,0,0,1-.23.8,1.56,1.56,0,0,1-.93.2h-7.16a.23.23,0,0,0-.17.05.36.36,0,0,0,0,.19v.53a.31.31,0,0,0,0,.18.66.66,0,0,0,.19,0h8.45a.25.25,0,0,1,.17.07.23.23,0,0,1,.08.17v1.11a.26.26,0,0,1-.23.23h-9.47a1.3,1.3,0,0,1-.9-.23,1.08,1.08,0,0,1-.24-.79V20.08a1.07,1.07,0,0,1,.23-.78,1.23,1.23,0,0,1,.89-.24h7.21c.09,0,.15,0,.17,0s0-.08,0-.2v-.47c0-.13,0-.2,0-.22s-.09,0-.19,0h-8.12a.23.23,0,0,1-.17-.07.18.18,0,0,1-.07-.15V16.75a.21.21,0,0,1,.07-.15.23.23,0,0,1,.17-.07h4V15.24H517a.21.21,0,0,1-.24-.24V14a.34.34,0,0,1,.07-.19.2.2,0,0,1,.17-.08h14.81a.26.26,0,0,1,.17.09.29.29,0,0,1,.08.18V15A.23.23,0,0,1,532,15.16Zm-2.12-2.69a.3.3,0,0,1-.16,0h-9.1a1.46,1.46,0,0,1-1-.27,1.32,1.32,0,0,1-.26-.94V7.25a.21.21,0,0,1,.07-.16.24.24,0,0,1,.16-.08H521a.25.25,0,0,1,.18.08.23.23,0,0,1,.08.16v3.4c0,.11,0,.19.07.22a.39.39,0,0,0,.25.05h8.11a.21.21,0,0,1,.16.07.22.22,0,0,1,.08.15v1.18A.18.18,0,0,1,529.86,12.47Z"/><path class="cls-4" d="M542.4,18.73a.38.38,0,0,1-.22.13c-.46.1-1,.19-1.59.26l-1.85.17c-.63,0-1.25.07-1.85.08h-1.56a1.53,1.53,0,0,1-1-.31,1.21,1.21,0,0,1-.28-.91V14a1.13,1.13,0,0,1,.3-.88,1.26,1.26,0,0,1,.89-.27h3.4a.26.26,0,0,0,.18-.05s.06-.09.06-.21V10.19a.41.41,0,0,0,0-.19s-.09-.05-.2-.05h-4.29a.27.27,0,0,1-.16-.06.21.21,0,0,1-.07-.16V8.56a.18.18,0,0,1,.07-.15.35.35,0,0,1,.16-.06h5.31a1.22,1.22,0,0,1,1,.28,1.37,1.37,0,0,1,.22.88v3.83a1.14,1.14,0,0,1-.27.88,1.42,1.42,0,0,1-.94.24h-3.38a.21.21,0,0,0-.24.24v2.73c0,.2.1.29.31.29q1.29,0,2.7-.09c.94-.07,1.94-.19,3-.35a.24.24,0,0,1,.2.06.52.52,0,0,1,.11.21l.17,1A.19.19,0,0,1,542.4,18.73Zm3.93,4.52h-1.52a.2.2,0,0,1-.22-.22V14.56h-2.77a.2.2,0,0,1-.15-.06.17.17,0,0,1-.07-.14V13.15a.24.24,0,0,1,.22-.22h2.77V7.33a.2.2,0,0,1,.22-.22h1.52a.2.2,0,0,1,.22.22V23A.2.2,0,0,1,546.33,23.25Z"/><path class="cls-4" d="M386.35,53.26a.48.48,0,0,1-.34.1.44.44,0,0,1-.22-.15l-.7-.8c-.11-.12-.16-.23-.13-.31a.51.51,0,0,1,.2-.22,12.22,12.22,0,0,0,1.66-1.33A6.88,6.88,0,0,0,388,49a7.11,7.11,0,0,0,.7-1.88,10.86,10.86,0,0,0,.24-2.41.3.3,0,0,1,.08-.2.26.26,0,0,1,.17-.09l1.5.07c.15,0,.22.09.22.26a12.17,12.17,0,0,1-.25,2.63,5.81,5.81,0,0,0,.7,1.23,8.68,8.68,0,0,0,.94,1.06,7.92,7.92,0,0,0,1,.85,6.39,6.39,0,0,0,1,.57c.2.08.23.21.11.41l-.6.93a.31.31,0,0,1-.46.14,7.87,7.87,0,0,1-1.93-1.25,9,9,0,0,1-1.52-1.76,8.19,8.19,0,0,1-1.46,2A14.14,14.14,0,0,1,386.35,53.26ZM398,57a2.36,2.36,0,0,1-.39,1.31,3.23,3.23,0,0,1-1.07,1,5.68,5.68,0,0,1-1.62.67,8.15,8.15,0,0,1-2,.24,8.39,8.39,0,0,1-2.09-.24,5.21,5.21,0,0,1-1.6-.67,3.23,3.23,0,0,1-1-1,2.49,2.49,0,0,1-.36-1.32,2.46,2.46,0,0,1,.36-1.31,3.23,3.23,0,0,1,1-1,5.21,5.21,0,0,1,1.6-.67,8.39,8.39,0,0,1,2.09-.24,8.15,8.15,0,0,1,2,.24,6,6,0,0,1,1.62.66,3.18,3.18,0,0,1,1.07,1A2.38,2.38,0,0,1,398,57Zm-2,0a1.17,1.17,0,0,0-.25-.75,2,2,0,0,0-.68-.54,4,4,0,0,0-1-.34,5.65,5.65,0,0,0-1.19-.12,4.65,4.65,0,0,0-2.2.45,1.41,1.41,0,0,0-.84,1.3,1.1,1.1,0,0,0,.23.71,1.78,1.78,0,0,0,.62.52,3.45,3.45,0,0,0,1,.32,5.83,5.83,0,0,0,1.22.11,5.66,5.66,0,0,0,1.19-.11,4,4,0,0,0,1-.32,2.12,2.12,0,0,0,.68-.52A1.06,1.06,0,0,0,396,57.07Zm4.31-7.21a.23.23,0,0,1-.16.07h-2.31v3.4a.28.28,0,0,1-.07.16.23.23,0,0,1-.16.08h-1.51a.21.21,0,0,1-.15-.08.24.24,0,0,1-.07-.18v-9a.2.2,0,0,1,.22-.22h1.51a.2.2,0,0,1,.23.22v4h2.31a.27.27,0,0,1,.16.06.19.19,0,0,1,.08.15v1.19A.22.22,0,0,1,400.28,49.86Z"/><path class="cls-4" d="M402.4,56.39a.35.35,0,0,1-.55,0l-.76-.75a.31.31,0,0,1,0-.51,8.3,8.3,0,0,0,1.53-1.9,10.54,10.54,0,0,0,1-2.27,14.73,14.73,0,0,0,.54-2.63,28.6,28.6,0,0,0,.16-3c0-.17.07-.25.22-.25l1.41.05a.27.27,0,0,1,.17.08.21.21,0,0,1,.08.17c0,.86,0,1.64-.07,2.36a15.34,15.34,0,0,1-.27,2,9.09,9.09,0,0,0,.51,1.46,12.84,12.84,0,0,0,.77,1.42,12.14,12.14,0,0,0,.88,1.23,6.06,6.06,0,0,0,.89.92c.17.15.18.3,0,.44l-.78.8a.31.31,0,0,1-.51,0,5.14,5.14,0,0,1-.73-.64c-.24-.27-.48-.55-.71-.85a11.09,11.09,0,0,1-.65-1,10,10,0,0,1-.5-1.05,10,10,0,0,1-1.12,2A13.73,13.73,0,0,1,402.4,56.39Zm9.3,3.31h-1.4c-.17,0-.25-.08-.25-.24V51.07H407.5a.31.31,0,0,1-.17-.07.22.22,0,0,1-.07-.17V49.67a.17.17,0,0,1,.07-.14.29.29,0,0,1,.17-.06h2.55V44.61c0-.15.08-.22.25-.22h1.4a.2.2,0,0,1,.22.22V59.46C411.92,59.62,411.84,59.7,411.7,59.7Zm3.29.58h-1.48a.2.2,0,0,1-.22-.22V44.33c0-.14.08-.22.24-.22H415a.2.2,0,0,1,.22.22V60.06A.19.19,0,0,1,415,60.28Z"/><path class="cls-4" d="M422.85,52.56l-.68-.81a.43.43,0,0,1-.1-.27.29.29,0,0,1,.18-.23,7.14,7.14,0,0,0,2.92-2.74,8.14,8.14,0,0,0,.91-4,.23.23,0,0,1,.09-.19.34.34,0,0,1,.18-.07l1.46.07c.15,0,.22.09.22.26a10.18,10.18,0,0,1-.34,2.67,5.88,5.88,0,0,0,.68,1.12,8.19,8.19,0,0,0,.89,1,7,7,0,0,0,1,.77,8.13,8.13,0,0,0,1,.54c.19.08.23.22.1.42l-.57.92a.35.35,0,0,1-.45.14A6.79,6.79,0,0,1,428.41,51a9.13,9.13,0,0,1-1.5-1.72,8.21,8.21,0,0,1-3.52,3.35C423.14,52.73,423,52.72,422.85,52.56Zm12.74,7.58a.21.21,0,0,1-.15.07h-9.18a1.23,1.23,0,0,1-.9-.25,1.14,1.14,0,0,1-.24-.8v-2a1.12,1.12,0,0,1,.23-.78,1.26,1.26,0,0,1,.9-.24h6.87a.23.23,0,0,0,.17-.05.48.48,0,0,0,0-.21v-.57c0-.13,0-.21-.05-.23a.34.34,0,0,0-.21,0h-7.73a.25.25,0,0,1-.16-.06.16.16,0,0,1-.08-.14V53.67a.28.28,0,0,1,.24-.24h8.74a1.29,1.29,0,0,1,.92.24,1.12,1.12,0,0,1,.23.81v2a1.08,1.08,0,0,1-.23.81,1.35,1.35,0,0,1-.92.22h-6.82c-.09,0-.15,0-.17.05a.31.31,0,0,0,0,.18v.67c0,.11,0,.17.05.18a.43.43,0,0,0,.2,0h8.13a.23.23,0,0,1,.16.07.21.21,0,0,1,.08.17V60A.24.24,0,0,1,435.59,60.14ZM430,48.36V47.21a.19.19,0,0,1,.08-.15.28.28,0,0,1,.18-.06h3V44.33a.2.2,0,0,1,.22-.22H435a.2.2,0,0,1,.22.22v8.1a.23.23,0,0,1-.07.16.19.19,0,0,1-.15.08h-1.51a.23.23,0,0,1-.16-.08.27.27,0,0,1-.06-.16V48.57h-3a.28.28,0,0,1-.18-.06A.19.19,0,0,1,430,48.36Z"/><path class="cls-4" d="M446.11,52.47a1.24,1.24,0,0,1-.91.26h-5.05a1.39,1.39,0,0,1-1-.26,1.29,1.29,0,0,1-.27-.93V46a1.21,1.21,0,0,1,.26-.9,1.34,1.34,0,0,1,.91-.24h5.13a1.35,1.35,0,0,1,.91.23,1.16,1.16,0,0,1,.27.91v.46h2.88v-2.1a.2.2,0,0,1,.23-.22H451a.2.2,0,0,1,.22.22V53.4c0,.15-.07.23-.22.23h-1.51a.21.21,0,0,1-.23-.23V51.27h-2.88v.27A1.29,1.29,0,0,1,446.11,52.47Zm-1.64-5.86c0-.1,0-.16,0-.19a.26.26,0,0,0-.18,0H441a.36.36,0,0,0-.18,0s0,.08,0,.19V51c0,.1,0,.16,0,.19a.36.36,0,0,0,.18,0h3.23a.36.36,0,0,0,.18,0s0-.09,0-.19ZM451.34,57a2.39,2.39,0,0,1-.38,1.31,3.28,3.28,0,0,1-1.07,1,5.49,5.49,0,0,1-1.61.66,8.66,8.66,0,0,1-2,.23,8.92,8.92,0,0,1-2.09-.23,5.39,5.39,0,0,1-1.59-.65,3,3,0,0,1-1-1,2.53,2.53,0,0,1-.36-1.33,2.45,2.45,0,0,1,.36-1.3,3.24,3.24,0,0,1,1-1,5.14,5.14,0,0,1,1.59-.65,8.41,8.41,0,0,1,2.09-.23,8.17,8.17,0,0,1,2,.23,5.76,5.76,0,0,1,1.61.64,3.36,3.36,0,0,1,1.07,1A2.39,2.39,0,0,1,451.34,57Zm-2,0a1.16,1.16,0,0,0-.24-.73,2,2,0,0,0-.67-.53,4,4,0,0,0-1-.32,5.73,5.73,0,0,0-1.19-.11,4.85,4.85,0,0,0-2.19.42,1.36,1.36,0,0,0-.84,1.27,1.3,1.3,0,0,0,.85,1.21,5.11,5.11,0,0,0,2.18.41,6.51,6.51,0,0,0,1.19-.1,4,4,0,0,0,1-.31,1.93,1.93,0,0,0,.67-.5A1.09,1.09,0,0,0,449.33,57.08Zm-.07-7.34V48h-2.88v1.78Z"/><path class="cls-4" d="M453.5,52.12V51a.26.26,0,0,1,.07-.18.21.21,0,0,1,.17-.07h14.8a.25.25,0,0,1,.17.08.26.26,0,0,1,.09.17v1.09a.21.21,0,0,1-.09.16.25.25,0,0,1-.17.08h-14.8A.21.21,0,0,1,453.5,52.12Zm13-5.23a2,2,0,0,1-.35,1.14,2.78,2.78,0,0,1-1,.92,5.9,5.9,0,0,1-1.68.6,12,12,0,0,1-4.57,0,5.9,5.9,0,0,1-1.68-.6,2.78,2.78,0,0,1-1-.92,2,2,0,0,1-.35-1.14,2,2,0,0,1,.35-1.16,2.92,2.92,0,0,1,1-.94,6.56,6.56,0,0,1,1.68-.62,11.47,11.47,0,0,1,4.57,0,6.56,6.56,0,0,1,1.68.62,2.92,2.92,0,0,1,1,.94A2,2,0,0,1,466.5,46.89ZM466.68,60a.21.21,0,0,1-.14.07h-9.49a1.34,1.34,0,0,1-.9-.23,1.08,1.08,0,0,1-.24-.79V57a1.12,1.12,0,0,1,.23-.78A1.23,1.23,0,0,1,457,56h7.21c.09,0,.15,0,.17,0a.32.32,0,0,0,0-.2v-.51a.49.49,0,0,0,0-.23.3.3,0,0,0-.19,0h-8.1A.29.29,0,0,1,456,55a.17.17,0,0,1-.07-.14V53.67a.18.18,0,0,1,.07-.15.25.25,0,0,1,.17-.07h9.09a1.45,1.45,0,0,1,.93.21,1.06,1.06,0,0,1,.23.79v2a1.07,1.07,0,0,1-.23.8,1.53,1.53,0,0,1-.93.2H458a.27.27,0,0,0-.17,0,.31.31,0,0,0,0,.2v.58c0,.1,0,.16,0,.18a.53.53,0,0,0,.18,0h8.47a.21.21,0,0,1,.16.07.23.23,0,0,1,.08.17v1.11A.24.24,0,0,1,466.68,60Zm-5.51-14.55a8.18,8.18,0,0,0-1.37.11,4.74,4.74,0,0,0-1.06.32,1.94,1.94,0,0,0-.69.47.86.86,0,0,0-.25.58.76.76,0,0,0,.25.56,2.06,2.06,0,0,0,.69.45,4.76,4.76,0,0,0,1.06.3,9.3,9.3,0,0,0,2.72,0,4.71,4.71,0,0,0,1.07-.3,1.93,1.93,0,0,0,.69-.46.76.76,0,0,0,0-1.13,1.94,1.94,0,0,0-.69-.47,4.67,4.67,0,0,0-1.07-.32A8.2,8.2,0,0,0,461.17,45.42Z"/><path class="cls-4" d="M474.75,53.23l2,0c.7,0,1.39,0,2.09,0v-.85a4.08,4.08,0,0,1-2-.75,1.76,1.76,0,0,1-.74-1.41,1.57,1.57,0,0,1,.27-.88,2.3,2.3,0,0,1,.74-.71,3.82,3.82,0,0,1,1.16-.48,6.79,6.79,0,0,1,3,0,3.71,3.71,0,0,1,1.16.48,2.36,2.36,0,0,1,.73.71,1.57,1.57,0,0,1,.27.88,1.72,1.72,0,0,1-.72,1.37,4,4,0,0,1-1.93.78v.79c.64,0,1.27-.05,1.87-.1s1.2-.1,1.76-.17a.37.37,0,0,1,.18,0,.17.17,0,0,1,.11.15l.09,1a.26.26,0,0,1,0,.2.29.29,0,0,1-.16.09c-.78.09-1.6.17-2.47.23s-1.73.11-2.58.15-1.69.06-2.51.07-1.57,0-2.26,0a.21.21,0,0,1-.17-.08.24.24,0,0,1-.07-.18v-1A.21.21,0,0,1,474.75,53.23ZM484,47.45a.25.25,0,0,1-.18.08h-8.48a.24.24,0,0,1-.17-.09.28.28,0,0,1-.09-.2v-.83a.35.35,0,0,1,.28-.26h8.46a.27.27,0,0,1,.26.26v.85A.29.29,0,0,1,484,47.45Zm3.23,12.74a.21.21,0,0,1-.16.07h-1.46a.24.24,0,0,1-.18-.07.24.24,0,0,1-.08-.16V57.42a.26.26,0,0,0-.07-.22.47.47,0,0,0-.25-.05H476.8a.23.23,0,0,1-.16-.07.18.18,0,0,1-.07-.15V55.79a.17.17,0,0,1,.07-.15.33.33,0,0,1,.16,0h9.41a1.18,1.18,0,0,1,.88.26,1.36,1.36,0,0,1,.24.91V60A.24.24,0,0,1,487.25,60.19Zm-5.34-14.72a.26.26,0,0,1-.21.09h-4.18a.29.29,0,0,1-.17-.07.21.21,0,0,1-.1-.19v-.86a.22.22,0,0,1,.1-.19.38.38,0,0,1,.17-.07h4.18a.29.29,0,0,1,.21.09.27.27,0,0,1,.08.18v.84A.27.27,0,0,1,481.91,45.47Zm-2.16,3.85a2.58,2.58,0,0,0-1.29.27.75.75,0,0,0-.46.64.78.78,0,0,0,.46.64,3.09,3.09,0,0,0,2.57,0c.31-.19.47-.4.47-.64a.77.77,0,0,0-.47-.64A2.56,2.56,0,0,0,479.75,49.32Zm9.95,1.73a.23.23,0,0,1-.16.07h-2.23v3.47a.2.2,0,0,1-.22.22h-1.51a.2.2,0,0,1-.22-.22V44.33a.2.2,0,0,1,.22-.22h1.51a.2.2,0,0,1,.22.22v5.16h2.23a.27.27,0,0,1,.16.06.17.17,0,0,1,.08.14V50.9A.22.22,0,0,1,489.7,51.05Z"/><path class="cls-4" d="M499.38,48.91a4,4,0,0,1-1.16,2.9,4.2,4.2,0,0,1-3,1.19,4.08,4.08,0,0,1-1.67-.32,4,4,0,0,1-1.29-.87,3.73,3.73,0,0,1-.84-1.3,4.26,4.26,0,0,1-.3-1.6,4.13,4.13,0,0,1,.3-1.56,3.87,3.87,0,0,1,.84-1.31,3.94,3.94,0,0,1,1.29-.9,4.08,4.08,0,0,1,1.67-.33,4.2,4.2,0,0,1,1.68.33,4.07,4.07,0,0,1,1.32.9,4.44,4.44,0,0,1,.86,1.31A4.13,4.13,0,0,1,499.38,48.91Zm-1.94,0a2.51,2.51,0,0,0-.16-.92,2.24,2.24,0,0,0-.46-.76,2.07,2.07,0,0,0-.7-.51,2.11,2.11,0,0,0-.9-.19,2,2,0,0,0-.9.19,2.14,2.14,0,0,0-.69.51,2.39,2.39,0,0,0-.45.76,2.73,2.73,0,0,0-.16.92,2.91,2.91,0,0,0,.16,1,2.44,2.44,0,0,0,.45.77,2.47,2.47,0,0,0,.69.51,2.2,2.2,0,0,0,.9.19,2.27,2.27,0,0,0,.9-.19,2.38,2.38,0,0,0,.7-.51,2.29,2.29,0,0,0,.46-.77A2.67,2.67,0,0,0,497.44,48.94Zm6.75,10.93a.28.28,0,0,1-.17.05h-8.8a1.45,1.45,0,0,1-1-.27,1.29,1.29,0,0,1-.27-.93V54.88a.25.25,0,0,1,.08-.17.21.21,0,0,1,.16-.07h1.48a.24.24,0,0,1,.18.07.25.25,0,0,1,.08.17V58a.29.29,0,0,0,.06.22.48.48,0,0,0,.24,0H504a.29.29,0,0,1,.17.06.18.18,0,0,1,.09.15v1.22A.16.16,0,0,1,504.19,59.87Zm-.44-4.52a.19.19,0,0,1-.22.22H502a.21.21,0,0,1-.23-.24v-11a.2.2,0,0,1,.23-.22h1.51a.2.2,0,0,1,.22.22Z"/><path class="cls-4" d="M514.54,49.05a.25.25,0,0,1-.18.08h-7.6a.26.26,0,0,1-.18-.09.24.24,0,0,1-.09-.18v-1a.24.24,0,0,1,.09-.17.26.26,0,0,1,.18-.09h7.6a.25.25,0,0,1,.18.08.24.24,0,0,1,.07.18v1A.24.24,0,0,1,514.54,49.05Zm-3.79,1a3.62,3.62,0,0,1,1.41.27,3.31,3.31,0,0,1,1.09.73,3.27,3.27,0,0,1,.71,1.08,3.66,3.66,0,0,1,.25,1.33,3.77,3.77,0,0,1-.25,1.35,3.21,3.21,0,0,1-.71,1.09,3.17,3.17,0,0,1-1.09.73,3.62,3.62,0,0,1-1.41.27,3.57,3.57,0,0,1-1.4-.27,3.15,3.15,0,0,1-1.78-1.82,3.56,3.56,0,0,1-.25-1.35,3.46,3.46,0,0,1,.25-1.33,3.22,3.22,0,0,1,.69-1.08,3.31,3.31,0,0,1,1.09-.73A3.57,3.57,0,0,1,510.75,50Zm2.1-3.5a.24.24,0,0,1-.19.1h-4.08a.27.27,0,0,1-.16-.08.23.23,0,0,1-.1-.2v-1a.22.22,0,0,1,.1-.19.25.25,0,0,1,.16-.07h4.08a.23.23,0,0,1,.18.09.24.24,0,0,1,.09.18v1A.29.29,0,0,1,512.85,46.5Zm-2.1,5a1.64,1.64,0,0,0-.71.15,1.41,1.41,0,0,0-.54.42,1.82,1.82,0,0,0-.34.61,2.18,2.18,0,0,0-.12.72,2.25,2.25,0,0,0,.12.74,2,2,0,0,0,.34.62,1.43,1.43,0,0,0,.54.43,1.64,1.64,0,0,0,.71.15,1.67,1.67,0,0,0,.73-.15,1.55,1.55,0,0,0,.55-.43,2,2,0,0,0,.34-.62,2.25,2.25,0,0,0,.12-.74,2.18,2.18,0,0,0-.12-.72,1.82,1.82,0,0,0-.34-.61,1.52,1.52,0,0,0-.55-.42A1.67,1.67,0,0,0,510.75,51.51Zm7.94-7.18c0-.14.08-.22.24-.22h1.46a.2.2,0,0,1,.22.22V60a.2.2,0,0,1-.22.22h-1.48a.2.2,0,0,1-.22-.22V52h-1.44v7.38c0,.16-.08.24-.22.24h-1.4a.21.21,0,0,1-.24-.24V44.64c0-.15.08-.22.24-.22H517a.2.2,0,0,1,.22.22v5.73h1.44Z"/><path class="cls-4" d="M537.39,57.41a.25.25,0,0,1-.17.08h-14.8a.21.21,0,0,1-.17-.08.27.27,0,0,1-.07-.17V56.13a.24.24,0,0,1,.07-.18.2.2,0,0,1,.17-.09h6.42V52.75h-3.11a1.52,1.52,0,0,1-1-.25,1.31,1.31,0,0,1-.27-1V45.05a.18.18,0,0,1,.07-.15.2.2,0,0,1,.15,0h1.5a.25.25,0,0,1,.16,0,.18.18,0,0,1,.07.15v2.4h6.84V45a.19.19,0,0,1,.07-.15.18.18,0,0,1,.15-.07H535a.18.18,0,0,1,.15.07.19.19,0,0,1,.07.15v6.58a1.2,1.2,0,0,1-.27.85,1.37,1.37,0,0,1-1,.29H530.8v3.11h6.42a.22.22,0,0,1,.17.09.3.3,0,0,1,.09.18v1.11A.26.26,0,0,1,537.39,57.41ZM533.23,49h-6.84v1.83c0,.2.11.29.31.29h6.22c.21,0,.31-.09.31-.29Z"/><path class="cls-4" d="M539.76,56.39a.35.35,0,0,1-.55,0l-.76-.75a.31.31,0,0,1,0-.51,8.3,8.3,0,0,0,1.53-1.9A10.54,10.54,0,0,0,541,51a14.73,14.73,0,0,0,.54-2.63,28.6,28.6,0,0,0,.16-3c0-.17.07-.25.22-.25l1.41.05a.27.27,0,0,1,.17.08.21.21,0,0,1,.08.17c0,.86,0,1.64-.07,2.36a15.34,15.34,0,0,1-.27,2,9.09,9.09,0,0,0,.51,1.46,11.37,11.37,0,0,0,.77,1.42,12.14,12.14,0,0,0,.88,1.23,6.06,6.06,0,0,0,.89.92c.17.15.18.3.05.44l-.78.8a.31.31,0,0,1-.51,0,5.14,5.14,0,0,1-.73-.64c-.24-.27-.48-.55-.71-.85a11.09,11.09,0,0,1-.65-1,10,10,0,0,1-.5-1.05,10,10,0,0,1-1.12,2A13.73,13.73,0,0,1,539.76,56.39Zm9.29,3.31h-1.39c-.17,0-.25-.08-.25-.24V51.07h-2.55a.31.31,0,0,1-.17-.07.22.22,0,0,1-.07-.17V49.67a.17.17,0,0,1,.07-.14.29.29,0,0,1,.17-.06h2.55V44.61c0-.15.08-.22.25-.22h1.39c.15,0,.23.07.23.22V59.46A.21.21,0,0,1,549.05,59.7Zm3.3.58h-1.48a.2.2,0,0,1-.22-.22V44.33c0-.14.08-.22.24-.22h1.46a.2.2,0,0,1,.22.22V60.06A.19.19,0,0,1,552.35,60.28Z"/><path class="cls-4" d="M569.35,57.41a.25.25,0,0,1-.17.08h-14.8a.21.21,0,0,1-.17-.08.27.27,0,0,1-.07-.17V56.13q0-.27.24-.27h3.4V53.21c0-.16.08-.24.25-.24h1.46c.17,0,.26.08.26.24v2.65h4.06V53.21c0-.16.09-.24.26-.24h1.46a.24.24,0,0,1,.18.07.21.21,0,0,1,.07.17v2.65h3.4a.22.22,0,0,1,.17.09.23.23,0,0,1,.09.18v1.11A.26.26,0,0,1,569.35,57.41Zm-7.58-5a9,9,0,0,1-2.12-.24,6.12,6.12,0,0,1-1.77-.7,3.67,3.67,0,0,1-1.21-1.17,3,3,0,0,1-.44-1.6,2.88,2.88,0,0,1,.44-1.57A3.64,3.64,0,0,1,557.88,46a5.87,5.87,0,0,1,1.77-.72,9,9,0,0,1,2.12-.23,9.27,9.27,0,0,1,2.15.23,5.77,5.77,0,0,1,1.77.72,3.81,3.81,0,0,1,1.2,1.16,2.88,2.88,0,0,1,.44,1.57,3,3,0,0,1-.44,1.6,3.84,3.84,0,0,1-1.2,1.17,6,6,0,0,1-1.77.7A9.26,9.26,0,0,1,561.77,52.41Zm0-5.78a6.35,6.35,0,0,0-1.32.14,4.83,4.83,0,0,0-1.13.41,2.46,2.46,0,0,0-.79.66,1.4,1.4,0,0,0-.3.88,1.44,1.44,0,0,0,.3.9,2.46,2.46,0,0,0,.79.66,4.42,4.42,0,0,0,1.13.4,5.8,5.8,0,0,0,2.62,0,4.56,4.56,0,0,0,1.13-.4,2.46,2.46,0,0,0,.79-.66,1.44,1.44,0,0,0,.3-.9,1.4,1.4,0,0,0-.3-.88,2.46,2.46,0,0,0-.79-.66,5,5,0,0,0-1.13-.41A6.31,6.31,0,0,0,561.79,46.63Z"/><path class="cls-4" d="M572.48,59.53a1.3,1.3,0,0,1-1.31-1.31,1.24,1.24,0,0,1,.38-.91,1.3,1.3,0,0,1,.93-.38,1.26,1.26,0,0,1,.92.38,1.23,1.23,0,0,1,.37.91,1.26,1.26,0,0,1-.37.93A1.22,1.22,0,0,1,572.48,59.53Z"/><rect class="cls-5" width="612" height="309.5"/></g></g></svg>