<svg xmlns="http://www.w3.org/2000/svg" viewBox="0 0 612 310"><defs><style>.cls-1,.cls-3{fill:none;}.cls-1{stroke:#fff;stroke-width:2px;}.cls-2{fill:#fff;}</style></defs><g id="Layer_2" data-name="Layer 2"><g id="Layer_2_copy_2" data-name="Layer 2 copy 2"><g id="Layer_1-2" data-name="Layer 1-2"><g id="Group"><path id="Oval-8" class="cls-1" d="M157.46,177.81c-24.92-1.75-50.32,17.32-52.2,44.13"/><path id="Rectangle-18" class="cls-1" d="M95.59,221.41l7.11,12.3,12.3-7.1"/></g><rect id="Rectangle-29" class="cls-1" x="75.14" y="120.76" width="103.95" height="172.81"/><rect id="Rectangle-29-2" class="cls-1" x="68.51" y="109.51" width="117.19" height="195.31" rx="5.3"/></g><g id="Layer_1-2-2" data-name="Layer 1-2"><rect id="Rectangle-29-2-2" data-name="Rectangle-29" class="cls-1" x="423.35" y="120.76" width="103.95" height="172.81"/><rect id="Rectangle-29-2-3" data-name="Rectangle-29-2" class="cls-1" x="416.73" y="109.51" width="117.19" height="195.31" rx="5.3"/></g><polyline class="cls-1" points="457.37 236.47 445.35 236.47 445.35 224.45"/><line class="cls-1" x1="451.98" y1="229.84" x2="467.13" y2="214.68"/><polyline class="cls-1" points="493.28 177.85 505.3 177.85 505.3 189.87"/><line class="cls-1" x1="498.67" y1="184.48" x2="483.52" y2="199.64"/><path class="cls-2" d="M374.42,15.27a.24.24,0,0,1-.17.09h-6.39v5.39a.21.21,0,0,1-.24.24h-1.48a.21.21,0,0,1-.24-.24V15.36h-6.46a.22.22,0,0,1-.17-.09.38.38,0,0,1-.06-.18V14a.32.32,0,0,1,.06-.18.23.23,0,0,1,.17-.07h14.81a.27.27,0,0,1,.17.08.24.24,0,0,1,.08.17v1.11A.28.28,0,0,1,374.42,15.27Zm-2.17-3.34a.2.2,0,0,1-.14.06h-9.42a1.21,1.21,0,0,1-.95-.31,1.35,1.35,0,0,1-.27-.91V6.44a1.08,1.08,0,0,1,.28-.88,1.56,1.56,0,0,1,.94-.23H372c.15,0,.23.07.23.22V6.74c0,.15-.08.22-.23.22h-8.23c-.21,0-.31.1-.31.29v2.81c0,.2.1.3.31.3H372a.35.35,0,0,1,.2,0c.05,0,.07.08.07.17v1.15A.28.28,0,0,1,372.25,11.93Z"/><path class="cls-2" d="M395.14,14.56a.24.24,0,0,1-.17.09H380.18a.23.23,0,0,1-.17-.08.29.29,0,0,1-.07-.18V13.25a.21.21,0,0,1,.24-.24h6.43V10.79c0-.17.08-.26.24-.26h1.39a.24.24,0,0,1,.18.07.26.26,0,0,1,.08.19V13H395a.27.27,0,0,1,.17.08.22.22,0,0,1,.09.16v1.14A.24.24,0,0,1,395.14,14.56Zm-12.9-3c-.25.08-.4.05-.46-.1l-.46-1.07a.31.31,0,0,1,0-.19.18.18,0,0,1,.15-.13,8.61,8.61,0,0,0,3.68-1.8,4.38,4.38,0,0,0,1.44-2.89.28.28,0,0,1,.32-.28l1.35.05a.21.21,0,0,1,.24.24c0,.13,0,.24,0,.35a2.91,2.91,0,0,1,0,.31,4.2,4.2,0,0,0,.8,1.28,7.73,7.73,0,0,0,1.28,1.12,9.15,9.15,0,0,0,1.56.89,9.17,9.17,0,0,0,1.66.59.24.24,0,0,1,.15.13.23.23,0,0,1,0,.18l-.51,1c-.05.15-.18.21-.39.17a7,7,0,0,1-1.46-.43,10.53,10.53,0,0,1-1.49-.77,9.72,9.72,0,0,1-1.34-1,6.18,6.18,0,0,1-1-1.17,7.15,7.15,0,0,1-2.2,2.18A9.9,9.9,0,0,1,382.24,11.6Zm11,9.06a.28.28,0,0,1-.17.05H383.7a1.46,1.46,0,0,1-1-.27,1.29,1.29,0,0,1-.27-.93V16.09a.27.27,0,0,1,.08-.17.19.19,0,0,1,.16-.08h1.46a.22.22,0,0,1,.18.08.27.27,0,0,1,.08.17v2.72c0,.11,0,.19.07.22s.12,0,.25,0h8.38a.29.29,0,0,1,.17.06.18.18,0,0,1,.09.15v1.22A.16.16,0,0,1,393.22,20.66Z"/><path class="cls-2" d="M404.58,7.52a11.63,11.63,0,0,1-.63,3,11.29,11.29,0,0,1-1.41,2.71,13.27,13.27,0,0,1-2.15,2.38,16,16,0,0,1-2.83,2,.49.49,0,0,1-.28.06.27.27,0,0,1-.23-.14l-.68-.84a.28.28,0,0,1-.06-.24.39.39,0,0,1,.16-.2,12.69,12.69,0,0,0,4.09-3.42,9.29,9.29,0,0,0,1.91-4.35c0-.23,0-.38,0-.45a.56.56,0,0,0-.4-.11h-4.8c-.15,0-.22-.08-.22-.24V6.45c0-.13.07-.2.22-.2h6.14a1.24,1.24,0,0,1,1,.31A1.41,1.41,0,0,1,404.58,7.52Zm6.8,5.22a.23.23,0,0,1-.17.07h-2.3v8.07c0,.15-.07.23-.22.23h-1.51c-.15,0-.22-.08-.22-.23V5.19a.2.2,0,0,1,.22-.22h1.51a.2.2,0,0,1,.22.22v6h2.3a.27.27,0,0,1,.17.06.16.16,0,0,1,.08.14v1.19A.19.19,0,0,1,411.38,12.74Z"/><path class="cls-2" d="M422.12,13.28a.3.3,0,0,1-.15.09c-.54.1-1.12.19-1.75.27s-1.29.14-2,.19-1.34.08-2,.09-1.32,0-1.92,0a1.42,1.42,0,0,1-.9-.28,1.07,1.07,0,0,1-.23-.78V10a1,1,0,0,1,.22-.75,1.15,1.15,0,0,1,.78-.22h3.92a.5.5,0,0,0,.23,0,.45.45,0,0,0,0-.22V7.51c0-.13,0-.2,0-.22s-.1,0-.23,0H413.5a.21.21,0,0,1-.16-.07.19.19,0,0,1-.08-.15V5.92a.19.19,0,0,1,.08-.14.25.25,0,0,1,.16-.06h5.68a1.22,1.22,0,0,1,.9.26,1.28,1.28,0,0,1,.24.86V9.39a1.13,1.13,0,0,1-.27.87,1.14,1.14,0,0,1-.8.24h-3.88a.32.32,0,0,0-.19,0,.28.28,0,0,0-.05.2v1.34c0,.19.11.29.31.29,1,0,2.1,0,3.21-.08a28.75,28.75,0,0,0,3.06-.35.37.37,0,0,1,.18,0,.15.15,0,0,1,.11.13l.17,1A.17.17,0,0,1,422.12,13.28ZM424.78,21a.21.21,0,0,1-.16.07h-1.46A.24.24,0,0,1,423,21a.27.27,0,0,1-.08-.17v-3.5a.26.26,0,0,0-.07-.22.41.41,0,0,0-.23-.05h-7.69a.27.27,0,0,1-.17-.07.19.19,0,0,1-.08-.15V15.63a.16.16,0,0,1,.08-.15.3.3,0,0,1,.17-.05h8.83a1.18,1.18,0,0,1,.88.26,1.36,1.36,0,0,1,.24.91v4.23A.27.27,0,0,1,424.78,21Zm2.57-10.33a.28.28,0,0,1-.16.07h-2.32v3.62a.2.2,0,0,1-.22.22h-1.51c-.15,0-.22-.08-.22-.24V5.19a.2.2,0,0,1,.22-.22h1.51a.2.2,0,0,1,.22.22V9.1h2.32a.28.28,0,0,1,.16.07.21.21,0,0,1,.07.15v1.2A.21.21,0,0,1,427.35,10.67Z"/><path class="cls-2" d="M443.1,18.15a.29.29,0,0,1-.17.08H428.12a.23.23,0,0,1-.17-.08.34.34,0,0,1-.07-.17V16.86a.29.29,0,0,1,.07-.18.23.23,0,0,1,.17-.08h14.81a.26.26,0,0,1,.17.09.25.25,0,0,1,.08.17V18A.29.29,0,0,1,443.1,18.15Zm-7.57-4.35a8.21,8.21,0,0,1-2.21-.28,5.73,5.73,0,0,1-1.77-.78,4.11,4.11,0,0,1-1.17-1.22,3.26,3.26,0,0,1,0-3.2,4.11,4.11,0,0,1,1.17-1.22,5.73,5.73,0,0,1,1.77-.78,8.86,8.86,0,0,1,4.42,0,5.73,5.73,0,0,1,1.77.78,3.73,3.73,0,0,1,1.16,1.22,3.26,3.26,0,0,1,0,3.2,3.73,3.73,0,0,1-1.16,1.22,5.73,5.73,0,0,1-1.77.78A8.16,8.16,0,0,1,435.53,13.8Zm0-6.14a5.51,5.51,0,0,0-1.36.16,4.12,4.12,0,0,0-1.13.46,2.64,2.64,0,0,0-.77.71,1.64,1.64,0,0,0,0,1.86,2.45,2.45,0,0,0,.77.73,4.12,4.12,0,0,0,1.13.46,6,6,0,0,0,1.36.16,6,6,0,0,0,1.36-.16,4,4,0,0,0,1.13-.46,2.35,2.35,0,0,0,.77-.73,1.68,1.68,0,0,0,0-1.86,2.52,2.52,0,0,0-.77-.71,4,4,0,0,0-1.13-.46A5.45,5.45,0,0,0,435.53,7.66Z"/><path class="cls-2" d="M459.08,18.27a.29.29,0,0,1-.17.08H444.1a.23.23,0,0,1-.17-.08.27.27,0,0,1-.07-.17V17a.28.28,0,0,1,.07-.19.21.21,0,0,1,.17-.09h6.44V14.22h-3a3.32,3.32,0,0,1-.61-.05.72.72,0,0,1-.38-.19.65.65,0,0,1-.18-.35,2.1,2.1,0,0,1-.05-.55V10.34a2.15,2.15,0,0,1,.05-.55.66.66,0,0,1,.18-.34.79.79,0,0,1,.38-.17,3.44,3.44,0,0,1,.61,0h7.07c.12,0,.19,0,.21,0a.37.37,0,0,0,.05-.23V7.64c0-.12,0-.19-.05-.21a.4.4,0,0,0-.21,0h-8a.21.21,0,0,1-.16-.07.28.28,0,0,1-.07-.16V6a.26.26,0,0,1,.07-.16.25.25,0,0,1,.16-.06h8.94a1.46,1.46,0,0,1,1,.23,1.18,1.18,0,0,1,.25.89V9.68a1.18,1.18,0,0,1-.25.89,1.46,1.46,0,0,1-1,.23h-7.09a.39.39,0,0,0-.21,0,.38.38,0,0,0,0,.2v1.34c0,.13,0,.21,0,.23a.33.33,0,0,0,.22.05h8.43a.24.24,0,0,1,.15.06.16.16,0,0,1,.07.14V14a.19.19,0,0,1-.08.15.21.21,0,0,1-.14.07H452.5v2.53h6.41a.28.28,0,0,1,.17.1.29.29,0,0,1,.08.18V18.1A.29.29,0,0,1,459.08,18.27Z"/><path class="cls-2" d="M465.11,14.08c.65,0,1.32,0,2,.05l2.09,0v-.85a4,4,0,0,1-2-.75,1.74,1.74,0,0,1-.74-1.41,1.64,1.64,0,0,1,.26-.88,2.44,2.44,0,0,1,.75-.71A3.76,3.76,0,0,1,468.6,9a6.79,6.79,0,0,1,3,0,3.62,3.62,0,0,1,1.16.48,2.4,2.4,0,0,1,.74.71,1.64,1.64,0,0,1,.26.88,1.75,1.75,0,0,1-.71,1.37,3.91,3.91,0,0,1-1.94.77V14c.65,0,1.27,0,1.88-.1s1.19-.1,1.76-.17a.4.4,0,0,1,.18,0c.06,0,.09.07.11.15l.08,1a.23.23,0,0,1-.05.2.3.3,0,0,1-.15.09c-.78.09-1.61.17-2.48.23s-1.72.11-2.58.15l-2.51.06c-.81,0-1.57,0-2.26,0a.23.23,0,0,1-.17-.08.29.29,0,0,1-.07-.18v-1A.21.21,0,0,1,465.11,14.08Zm9.27-5.78a.22.22,0,0,1-.17.09h-8.49a.26.26,0,0,1-.17-.09.34.34,0,0,1-.08-.2V7.27a.22.22,0,0,1,.09-.17.26.26,0,0,1,.18-.09h8.47a.25.25,0,0,1,.17.08.22.22,0,0,1,.08.18v.85A.22.22,0,0,1,474.38,8.3Zm3.24,12.75a.25.25,0,0,1-.17.07H476a.24.24,0,0,1-.18-.07.23.23,0,0,1-.07-.17v-2.6a.3.3,0,0,0-.07-.22.51.51,0,0,0-.26,0h-8.24a.21.21,0,0,1-.16-.07.19.19,0,0,1-.08-.15V16.65a.16.16,0,0,1,.08-.15.24.24,0,0,1,.16-.05h9.4a1.18,1.18,0,0,1,.88.26,1.36,1.36,0,0,1,.24.91v3.26A.23.23,0,0,1,477.62,21.05ZM472.28,6.33a.27.27,0,0,1-.22.09h-4.18a.32.32,0,0,1-.17-.07.22.22,0,0,1-.1-.19V5.3a.21.21,0,0,1,.1-.19.32.32,0,0,1,.17-.07h4.18a.29.29,0,0,1,.21.09.23.23,0,0,1,.08.18v.84A.26.26,0,0,1,472.28,6.33Zm-2.17,3.84a2.56,2.56,0,0,0-1.28.28.75.75,0,0,0-.47.64c0,.24.15.45.47.64a3.07,3.07,0,0,0,2.56,0c.31-.19.47-.4.47-.64a.77.77,0,0,0-.47-.64A2.56,2.56,0,0,0,470.11,10.17Zm9.95,1.74a.26.26,0,0,1-.16.07h-2.23v3.46c0,.15-.07.23-.22.23h-1.51c-.15,0-.22-.08-.22-.23V5.19a.2.2,0,0,1,.22-.22h1.51a.2.2,0,0,1,.22.22v5.15h2.23a.25.25,0,0,1,.16.06.19.19,0,0,1,.08.15v1.21A.22.22,0,0,1,480.06,11.91Z"/><path class="cls-2" d="M488.89,16l-.18.1a11,11,0,0,1-1.34.26c-.51.07-1.05.13-1.61.18s-1.12.08-1.68.09a14.11,14.11,0,0,1-1.48,0,1.64,1.64,0,0,1-.92-.29,1,1,0,0,1-.32-.85v-8a1.17,1.17,0,0,1,.25-.84,1.32,1.32,0,0,1,.89-.23h4.93a.21.21,0,0,1,.24.23V7.73c0,.14-.08.22-.24.22h-3.79c-.21,0-.32.09-.32.29v6.2a.47.47,0,0,0,.09.35.86.86,0,0,0,.42.11,5.11,5.11,0,0,0,.93,0c.39,0,.8,0,1.24-.08l1.29-.15c.42-.05.79-.12,1.11-.18a.28.28,0,0,1,.22,0,.21.21,0,0,1,.14.17l.2,1A.2.2,0,0,1,488.89,16Zm4.19-10.77a.2.2,0,0,1,.23-.22h1.47a.2.2,0,0,1,.22.22V20.88a.2.2,0,0,1-.22.23H493.3c-.15,0-.22-.08-.22-.23v-8H491.5v7.4a.21.21,0,0,1-.23.24h-1.39a.21.21,0,0,1-.24-.24V5.5c0-.15.08-.22.24-.22h1.39c.15,0,.23.07.23.22v5.71h1.58Z"/><path class="cls-2" d="M511.45,19.15a1.34,1.34,0,0,1-.33,0,.36.36,0,0,1-.2-.13l-1-1a5.17,5.17,0,0,1-3.68,1.46,5.47,5.47,0,0,1-1.62-.23,4,4,0,0,1-1.37-.69,3.39,3.39,0,0,1-1-1.16,3.6,3.6,0,0,1-.36-1.66,3.61,3.61,0,0,1,.67-2.17A5.31,5.31,0,0,1,504.57,12a10.82,10.82,0,0,1-.91-1.29,2.91,2.91,0,0,1-.4-1.55,2.64,2.64,0,0,1,.32-1.3,3,3,0,0,1,.83-1,3.61,3.61,0,0,1,1.16-.58,4.45,4.45,0,0,1,1.29-.2,4.15,4.15,0,0,1,1.22.19,3.28,3.28,0,0,1,1,.55,2.74,2.74,0,0,1,.7.91A2.84,2.84,0,0,1,510.08,9a3.16,3.16,0,0,1-.63,1.87,5,5,0,0,1-2,1.53l2.49,2.81a3.89,3.89,0,0,0,.52-1.25,6.07,6.07,0,0,0,.19-1.51.58.58,0,0,1,0-.29.44.44,0,0,1,.26-.05h1.2a.38.38,0,0,1,.24.05.58.58,0,0,1,0,.29,6.72,6.72,0,0,1-.09,1.07,10.66,10.66,0,0,1-.25,1.12,8,8,0,0,1-.4,1,5.16,5.16,0,0,1-.51.85l2.05,2.26a.35.35,0,0,1,.12.24c0,.08-.09.12-.29.12ZM505,13.65a3.17,3.17,0,0,0-.57.53,2.81,2.81,0,0,0-.39.64,2.14,2.14,0,0,0-.14.76,2.06,2.06,0,0,0,.19.91,1.82,1.82,0,0,0,.53.66,2.21,2.21,0,0,0,.76.4,2.93,2.93,0,0,0,.9.14,3.17,3.17,0,0,0,1.28-.29,3.8,3.8,0,0,0,1.15-.77l-3-3.38A6.71,6.71,0,0,0,505,13.65Zm1.75-5.84a1.94,1.94,0,0,0-1.11.34,1.19,1.19,0,0,0-.48,1,1.82,1.82,0,0,0,.29.83,8.42,8.42,0,0,0,.78,1.16c.21-.1.43-.21.64-.33a3.63,3.63,0,0,0,.59-.41,1.9,1.9,0,0,0,.43-.54,1.39,1.39,0,0,0,.17-.73,1.46,1.46,0,0,0-.32-.95A1.19,1.19,0,0,0,506.79,7.81Z"/><path class="cls-2" d="M531.21,21.05a.21.21,0,0,1-.16.07h-1.46a.24.24,0,0,1-.18-.07.25.25,0,0,1-.08-.17V18q0-.2-.06-.24a.51.51,0,0,0-.26-.05h-8.24a.25.25,0,0,1-.16-.06.16.16,0,0,1-.08-.14V16.36a.17.17,0,0,1,.08-.16.25.25,0,0,1,.16-.06h4.33V14.82h-6.42a.21.21,0,0,1-.24-.24V13.51a.24.24,0,0,1,.07-.18.21.21,0,0,1,.17-.08h14.79a.26.26,0,0,1,.17.09.25.25,0,0,1,.08.17v1.07a.24.24,0,0,1-.08.16.29.29,0,0,1-.17.08h-6.41v1.32h3.11a1.14,1.14,0,0,1,.88.27,1.41,1.41,0,0,1,.24.92v3.55A.25.25,0,0,1,531.21,21.05Zm-10.49-8.58a.46.46,0,0,1-.26,0,.25.25,0,0,1-.17-.14l-.29-1a.21.21,0,0,1,0-.2.28.28,0,0,1,.18-.14c1.36-.26,2.63-.56,3.8-.89a21.09,21.09,0,0,0,3.19-1.17.67.67,0,0,0,.2-.11s0-.05,0-.06,0,0-.09,0h-6c-.16,0-.24-.07-.24-.22v-1q0-.21.24-.21h7.71a1.94,1.94,0,0,1,1.11.25.68.68,0,0,1,.36.55,1,1,0,0,1-.18.56,2.27,2.27,0,0,1-.44.49,6,6,0,0,1-1.59,1.06l1.8.36,1.87.3a.23.23,0,0,1,.18.15.26.26,0,0,1,0,.21l-.25.88a.38.38,0,0,1-.15.16.33.33,0,0,1-.26,0c-.82-.13-1.7-.3-2.65-.51s-1.87-.44-2.74-.7q-1.25.43-2.64.81C522.56,12.11,521.63,12.31,520.72,12.47Zm7.56-6a.3.3,0,0,1-.2.08h-4.35a.29.29,0,0,1-.17-.07.2.2,0,0,1-.09-.18V5.38a.23.23,0,0,1,.09-.19.35.35,0,0,1,.17-.06h4.35a.25.25,0,0,1,.19.08.28.28,0,0,1,.1.19v.9A.26.26,0,0,1,528.28,6.49Z"/><path class="cls-2" d="M549.63,18.27a.25.25,0,0,1-.17.08h-14.8a.21.21,0,0,1-.17-.07.26.26,0,0,1-.07-.18V17a.24.24,0,0,1,.07-.18.21.21,0,0,1,.17-.08h6.39V13.08a.21.21,0,0,1,.24-.24h1.47a.29.29,0,0,1,.18.07.23.23,0,0,1,.08.17v3.64h6.44a.25.25,0,0,1,.17.08.26.26,0,0,1,.09.18V18.1A.26.26,0,0,1,549.63,18.27Zm-13.22-4.58a.22.22,0,0,1-.18,0,.3.3,0,0,1-.2-.16l-.61-1a.28.28,0,0,1,0-.25.28.28,0,0,1,.18-.14,15.2,15.2,0,0,0,2.24-1,6.76,6.76,0,0,0,1.62-1.27,5.69,5.69,0,0,0,1-1.63A7.24,7.24,0,0,0,541,6a.7.7,0,0,1,.08-.23.19.19,0,0,1,.2-.11l1.47.07c.2,0,.29.14.28.38a4.38,4.38,0,0,1-.11.83,5,5,0,0,0,.72,1.56,6.72,6.72,0,0,0,1.25,1.37,9,9,0,0,0,1.64,1.1,9.74,9.74,0,0,0,1.87.75.19.19,0,0,1,.13.14.23.23,0,0,1,0,.2L548,13.18a.33.33,0,0,1-.41.19,9.07,9.07,0,0,1-1.57-.58,10.62,10.62,0,0,1-1.53-.88,9.59,9.59,0,0,1-1.34-1.12,7,7,0,0,1-1-1.34A7.92,7.92,0,0,1,539.77,12,12.29,12.29,0,0,1,536.41,13.69Z"/><path class="cls-2" d="M565,8.43a.25.25,0,0,1-.17.08h-9a.26.26,0,0,1-.19-.09.24.24,0,0,1-.08-.2V7.34a.22.22,0,0,1,.09-.17.28.28,0,0,1,.19-.09h8.95a.25.25,0,0,1,.17.08.22.22,0,0,1,.08.18v.9A.22.22,0,0,1,565,8.43ZM560.46,9a5.57,5.57,0,0,1,1.44.18,3.82,3.82,0,0,1,1.17.54,2.46,2.46,0,0,1,.78.83,2.06,2.06,0,0,1,.28,1.07,2,2,0,0,1-.29,1.1,2.6,2.6,0,0,1-.78.84,4,4,0,0,1-1.16.55,5.66,5.66,0,0,1-1.46.19,5.36,5.36,0,0,1-1.42-.19,3.9,3.9,0,0,1-1.16-.55,2.46,2.46,0,0,1-.77-.84,2.12,2.12,0,0,1-.28-1.1,2.06,2.06,0,0,1,.28-1.07,2.37,2.37,0,0,1,.78-.83A3.76,3.76,0,0,1,559,9.22,5.44,5.44,0,0,1,560.46,9Zm2.32-2.69a.26.26,0,0,1-.21.09h-4.4a.38.38,0,0,1-.17-.07.23.23,0,0,1-.09-.19v-.9a.23.23,0,0,1,.09-.19.38.38,0,0,1,.17-.07h4.4a.25.25,0,0,1,.2.09.26.26,0,0,1,.09.19v.86A.29.29,0,0,1,562.78,6.35ZM568.49,21a.23.23,0,0,1-.14.08h-9.06a1.25,1.25,0,0,1-.91-.26,1.07,1.07,0,0,1-.25-.79V18.4a1.07,1.07,0,0,1,.24-.78,1.28,1.28,0,0,1,.9-.24H566c.1,0,.16,0,.19,0a.38.38,0,0,0,0-.19v-.31c0-.13,0-.2,0-.22a.39.39,0,0,0-.21,0h-7.66a.29.29,0,0,1-.17-.06.16.16,0,0,1-.07-.14v-1a.24.24,0,0,1,.24-.24H567a1.37,1.37,0,0,1,.95.23,1.17,1.17,0,0,1,.22.82v1.58a1.2,1.2,0,0,1-.22.83,1.42,1.42,0,0,1-.95.23h-6.7c-.1,0-.16,0-.18,0a.26.26,0,0,0,0,.18v.39c0,.11,0,.18,0,.19a.38.38,0,0,0,.2,0h8a.25.25,0,0,1,.16.06.19.19,0,0,1,.08.16v1A.23.23,0,0,1,568.49,21Zm-8-10.53a2.36,2.36,0,0,0-1.32.34,1,1,0,0,0-.52.84,1.08,1.08,0,0,0,.52.9,2.68,2.68,0,0,0,2.65,0,1.07,1.07,0,0,0,.51-.9,1,1,0,0,0-.51-.84A2.35,2.35,0,0,0,560.46,10.48Zm10.16.12a.24.24,0,0,1-.18.07h-2.3v3.5a.25.25,0,0,1-.06.16.23.23,0,0,1-.16.08h-1.51a.19.19,0,0,1-.15-.08.24.24,0,0,1-.07-.18v-9a.2.2,0,0,1,.22-.22h1.51a.2.2,0,0,1,.22.22V9h2.3a.28.28,0,0,1,.18.06.23.23,0,0,1,.08.16v1.19A.22.22,0,0,1,570.62,10.6Z"/><path class="cls-2" d="M591.11,15.1a.24.24,0,0,1-.17.09H584.5v5.56a.21.21,0,0,1-.24.24h-1.48a.21.21,0,0,1-.24-.24V15.19h-6.41a.22.22,0,0,1-.17-.09.38.38,0,0,1-.06-.18V13.81a.32.32,0,0,1,.06-.18.23.23,0,0,1,.17-.07h14.81a.27.27,0,0,1,.17.08.26.26,0,0,1,.09.17v1.11A.3.3,0,0,1,591.11,15.1ZM578,12a.5.5,0,0,1-.24,0,.22.22,0,0,1-.17-.09L577,10.84a.3.3,0,0,1,0-.23.29.29,0,0,1,.19-.15,14.06,14.06,0,0,0,2.17-.79A6.88,6.88,0,0,0,581,8.57a4.88,4.88,0,0,0,1.11-1.46,5.48,5.48,0,0,0,.51-1.88.4.4,0,0,1,.09-.21.24.24,0,0,1,.21-.1l1.43,0c.16,0,.24.09.24.28s-.06.65-.1.93a4.26,4.26,0,0,0,.77,1.32,7.72,7.72,0,0,0,1.26,1.14,9.1,9.1,0,0,0,1.6.9,11.4,11.4,0,0,0,1.79.6.35.35,0,0,1,.19.12.18.18,0,0,1,0,.2l-.5,1.13a.3.3,0,0,1-.36.17,9.74,9.74,0,0,1-1.66-.49,9.81,9.81,0,0,1-1.59-.79,10.16,10.16,0,0,1-1.36-1,4.88,4.88,0,0,1-1-1.14,7.22,7.22,0,0,1-2.27,2.23A11.32,11.32,0,0,1,578,12Z"/><path class="cls-2" d="M458.13,43.48a4,4,0,0,1-.3,1.56,3.44,3.44,0,0,1-.85,1.23,4,4,0,0,1-1.31.79,4.47,4.47,0,0,1-1.67.29,4.37,4.37,0,0,1-1.65-.29,3.83,3.83,0,0,1-1.29-.79,3.49,3.49,0,0,1-.82-1.23,4.16,4.16,0,0,1-.29-1.56,4,4,0,0,1,.29-1.53,3.63,3.63,0,0,1,.82-1.24,4.11,4.11,0,0,1,1.29-.84,4.37,4.37,0,0,1,1.65-.3,4.47,4.47,0,0,1,1.67.3,4.33,4.33,0,0,1,1.31.84,3.56,3.56,0,0,1,.85,1.24A3.87,3.87,0,0,1,458.13,43.48ZM452,55.09a.81.81,0,0,1-.26.11c-.09,0-.17,0-.25-.13l-.65-.92a.26.26,0,0,1-.07-.2c0-.07.07-.14.19-.2a5.34,5.34,0,0,0,2.18-2,5.57,5.57,0,0,0,.68-2.72c0-.17.07-.26.22-.26l1.34,0c.16,0,.24.06.24.19s0,.37,0,.56a4.36,4.36,0,0,1,0,.52,3.83,3.83,0,0,0,.27.95,5.56,5.56,0,0,0,.44.84,4.19,4.19,0,0,0,.53.69,3.61,3.61,0,0,0,.58.5,1.22,1.22,0,0,0,.24.11c.07,0,.15,0,.25-.11a4.16,4.16,0,0,0,1.36-1.73,5.62,5.62,0,0,0,.45-2.28c0-.17.07-.26.22-.26l1.34,0a.34.34,0,0,1,.18,0,.16.16,0,0,1,.08.15,5.17,5.17,0,0,1,0,.57l-.06.55a4.43,4.43,0,0,0,.4,1.14,6.18,6.18,0,0,0,.66,1,6.49,6.49,0,0,0,.84.82,6.2,6.2,0,0,0,.92.59.34.34,0,0,1,.16.2.23.23,0,0,1-.06.19l-.68,1q-.09.15-.39,0a3.93,3.93,0,0,1-.71-.39,5.55,5.55,0,0,1-.73-.59,6.64,6.64,0,0,1-.68-.72,4.33,4.33,0,0,1-.54-.8,6.28,6.28,0,0,1-1.15,1.41,7.79,7.79,0,0,1-1.49,1,.69.69,0,0,1-.68,0,5,5,0,0,1-1.43-1,5.22,5.22,0,0,1-1.12-1.47A6.94,6.94,0,0,1,453.54,54,5.86,5.86,0,0,1,452,55.09Zm4.2-11.58a2.24,2.24,0,0,0-3.76-1.6,2.16,2.16,0,0,0-.59,1.6,2.18,2.18,0,0,0,.59,1.61,2.18,2.18,0,0,0,3.76-1.61Zm6.1,4.47h-1.51c-.15,0-.22-.08-.22-.23V39.19a.2.2,0,0,1,.22-.22h1.51a.2.2,0,0,1,.22.22v8.57A.19.19,0,0,1,462.29,48Z"/><path class="cls-2" d="M470.13,51.21a3.66,3.66,0,0,1-1.74-.41,3.83,3.83,0,0,1-1.31-1.16,5.53,5.53,0,0,1-.83-1.78,8.55,8.55,0,0,1-.29-2.27,8.82,8.82,0,0,1,.29-2.32,5.42,5.42,0,0,1,.83-1.76,3.55,3.55,0,0,1,1.31-1.13,3.66,3.66,0,0,1,1.74-.4,3.78,3.78,0,0,1,1.63.34,3.6,3.6,0,0,1,1.27,1,5,5,0,0,1,.86,1.5,7.4,7.4,0,0,1,.4,2h2.54V39.19a.2.2,0,0,1,.22-.22h1.51a.2.2,0,0,1,.22.22V54.88c0,.15-.07.23-.22.23h-1.51c-.15,0-.22-.08-.22-.23v-8.5h-2.54a7.46,7.46,0,0,1-.4,2A5.07,5.07,0,0,1,473,49.9a3.62,3.62,0,0,1-1.27,1A3.78,3.78,0,0,1,470.13,51.21Zm2.28-5.62a6.48,6.48,0,0,0-.16-1.49,4.56,4.56,0,0,0-.44-1.23,2.5,2.5,0,0,0-.71-.85,1.6,1.6,0,0,0-1-.31,1.55,1.55,0,0,0-.95.31,2.6,2.6,0,0,0-.7.85A4.56,4.56,0,0,0,468,44.1a6.92,6.92,0,0,0,0,3,4.76,4.76,0,0,0,.44,1.24,2.87,2.87,0,0,0,.7.86,1.55,1.55,0,0,0,.95.32,1.61,1.61,0,0,0,1-.32,2.75,2.75,0,0,0,.71-.86,4.76,4.76,0,0,0,.44-1.24A6.43,6.43,0,0,0,472.41,45.59Z"/><path class="cls-2" d="M496.17,52.27a.25.25,0,0,1-.17.08H481.19a.25.25,0,0,1-.17-.08.32.32,0,0,1-.06-.17V51c0-.18.08-.27.23-.27h3.4V48.07c0-.16.09-.24.26-.24h1.46c.17,0,.26.08.26.24v2.65h4.06V48.07c0-.16.08-.24.25-.24h1.47a.26.26,0,0,1,.18.07.21.21,0,0,1,.07.17v2.65H496a.25.25,0,0,1,.17.08.26.26,0,0,1,.09.19V52.1A.26.26,0,0,1,496.17,52.27Zm-7.58-5a9.15,9.15,0,0,1-2.13-.24,6.17,6.17,0,0,1-1.76-.7,3.67,3.67,0,0,1-1.21-1.17,3,3,0,0,1-.44-1.6,2.88,2.88,0,0,1,.44-1.57,3.64,3.64,0,0,1,1.21-1.16,5.92,5.92,0,0,1,1.76-.72,9.15,9.15,0,0,1,2.13-.24,9.26,9.26,0,0,1,2.15.24,5.87,5.87,0,0,1,1.77.72,3.81,3.81,0,0,1,1.2,1.16,2.88,2.88,0,0,1,.44,1.57,3,3,0,0,1-.44,1.6,3.84,3.84,0,0,1-1.2,1.17,6.12,6.12,0,0,1-1.77.7A9.26,9.26,0,0,1,488.59,47.27Zm0-5.78a6.28,6.28,0,0,0-1.32.14,4.83,4.83,0,0,0-1.13.41,2.46,2.46,0,0,0-.79.66,1.4,1.4,0,0,0-.3.88,1.44,1.44,0,0,0,.3.9,2.46,2.46,0,0,0,.79.66,4.42,4.42,0,0,0,1.13.4,5.8,5.8,0,0,0,2.62,0,4.56,4.56,0,0,0,1.13-.4,2.46,2.46,0,0,0,.79-.66,1.44,1.44,0,0,0,.3-.9,1.4,1.4,0,0,0-.3-.88A2.46,2.46,0,0,0,491,42a5,5,0,0,0-1.13-.41A6.31,6.31,0,0,0,488.61,41.49Z"/><path class="cls-2" d="M499.3,54.39a1.3,1.3,0,0,1-.93-.38,1.28,1.28,0,0,1-.38-.93,1.22,1.22,0,0,1,.38-.91,1.3,1.3,0,0,1,.93-.38,1.26,1.26,0,0,1,.92.38,1.21,1.21,0,0,1,.37.91,1.27,1.27,0,0,1-.37.93A1.26,1.26,0,0,1,499.3,54.39Z"/><path class="cls-2" d="M51.87,17.11a.54.54,0,0,1-.16.1,11.48,11.48,0,0,1-1.46.3c-.6.09-1.24.17-1.91.22s-1.33.08-2,.09-1.21,0-1.69-.05c-.82-.07-1.22-.48-1.22-1.23V8.2a1.17,1.17,0,0,1,.24-.84,1.35,1.35,0,0,1,.9-.23h5.62c.17,0,.26.07.26.22V8.54c0,.15-.09.22-.26.22h-4.5c-.21,0-.31.1-.31.29v2.39h2.3l1.11,0,1-.05a.31.31,0,0,1,.13,0,.13.13,0,0,1,.07.12l0,1.18a.41.41,0,0,1,0,.21s-.07.07-.11.07c-.31,0-.66,0-1,.06l-1.15.05H45.4v2.6a.53.53,0,0,0,.09.37.68.68,0,0,0,.4.11c.36,0,.75,0,1.19,0s.89,0,1.36-.07L49.92,16c.51-.07,1-.15,1.52-.25a.22.22,0,0,1,.3.19l.17.93A.26.26,0,0,1,51.87,17.11Zm2.34-11a.2.2,0,0,1,.22-.22h1.51a.2.2,0,0,1,.22.22V21.76a.19.19,0,0,1-.22.22H54.43a.19.19,0,0,1-.22-.22v-8.9H51.59a.31.31,0,0,1-.16-.07.27.27,0,0,1-.1-.21v-1.1a.24.24,0,0,1,.1-.19.31.31,0,0,1,.16-.07h2.62Z"/><path class="cls-2" d="M59.75,18.3a.71.71,0,0,1-.28.06.3.3,0,0,1-.23-.13l-.53-.82a.38.38,0,0,1-.06-.35.35.35,0,0,1,.18-.21,17.47,17.47,0,0,0,1.8-1.12,14.91,14.91,0,0,0,1.6-1.31A10.08,10.08,0,0,0,63.51,13a7.63,7.63,0,0,0,.88-1.56,1.43,1.43,0,0,0,.12-.35c0-.07-.12-.11-.39-.11H59.75a.21.21,0,0,1-.17-.08.28.28,0,0,1-.07-.19V9.56a.21.21,0,0,1,.08-.17.24.24,0,0,1,.18-.07h5.72a1.53,1.53,0,0,1,1,.27.8.8,0,0,1,.28.58,2.84,2.84,0,0,1-.15.87A13.15,13.15,0,0,1,66,12.41a10.24,10.24,0,0,1-.79,1.3c.22.23.45.47.71.72s.52.48.79.7.54.45.81.65.53.39.77.54a.22.22,0,0,1,.12.22.77.77,0,0,1-.1.26l-.65.9a.25.25,0,0,1-.2.12.45.45,0,0,1-.31-.1,8.11,8.11,0,0,1-.7-.5,9.56,9.56,0,0,1-.81-.67q-.41-.36-.81-.75a9.34,9.34,0,0,1-.7-.75A15.82,15.82,0,0,1,59.75,18.3ZM65.66,8.08a.24.24,0,0,1-.2.08H61a.32.32,0,0,1-.16-.06.23.23,0,0,1-.09-.19v-1a.2.2,0,0,1,.09-.18A.27.27,0,0,1,61,6.62h4.42a.34.34,0,0,1,.2.08.26.26,0,0,1,.09.19v1A.26.26,0,0,1,65.66,8.08Zm6.23,13.68c0,.15-.08.22-.24.22h-1.5a.33.33,0,0,1-.16-.05.21.21,0,0,1-.08-.17V6.07A.22.22,0,0,1,70,5.92a.23.23,0,0,1,.16-.07h1.5c.16,0,.24.08.24.22Z"/><path class="cls-2" d="M89.06,20l-.34,0a.34.34,0,0,1-.19-.13l-1-1a5.19,5.19,0,0,1-3.67,1.46,5.49,5.49,0,0,1-1.63-.23,4,4,0,0,1-1.36-.69,3.31,3.31,0,0,1-1-1.16,3.73,3.73,0,0,1-.35-1.66,3.54,3.54,0,0,1,.67-2.17,5.17,5.17,0,0,1,1.91-1.55,12.1,12.1,0,0,1-.91-1.29,3,3,0,0,1-.4-1.55,2.54,2.54,0,0,1,.33-1.3A2.93,2.93,0,0,1,82,7.75a3.56,3.56,0,0,1,1.15-.58,4.51,4.51,0,0,1,1.3-.2,4.08,4.08,0,0,1,1.21.19,3.18,3.18,0,0,1,1,.55,2.9,2.9,0,0,1,.71.91,3,3,0,0,1,.26,1.26,3.16,3.16,0,0,1-.63,1.87,5,5,0,0,1-2,1.53l2.48,2.81A3.89,3.89,0,0,0,88,14.84a6.56,6.56,0,0,0,.18-1.51.54.54,0,0,1,0-.29s.11,0,.26,0h1.19A.42.42,0,0,1,90,13a.73.73,0,0,1,0,.29,5.76,5.76,0,0,1-.1,1.07,8.62,8.62,0,0,1-.25,1.12,7.22,7.22,0,0,1-.4,1,5.16,5.16,0,0,1-.51.85l2.06,2.26a.35.35,0,0,1,.12.24c0,.08-.1.12-.29.12Zm-6.41-5.5a2.62,2.62,0,0,0-.57.53,2.25,2.25,0,0,0-.39.64,1.94,1.94,0,0,0-.15.76,2.06,2.06,0,0,0,.2.91,1.8,1.8,0,0,0,.52.66,2.41,2.41,0,0,0,.76.4,2.93,2.93,0,0,0,.9.14,3.25,3.25,0,0,0,1.29-.29,3.88,3.88,0,0,0,1.14-.77l-3-3.38A4.18,4.18,0,0,0,82.65,14.53ZM84.4,8.69A1.9,1.9,0,0,0,83.28,9a1.19,1.19,0,0,0-.48,1,2,2,0,0,0,.29.83,8.42,8.42,0,0,0,.78,1.16l.65-.33a3.54,3.54,0,0,0,.58-.41,2.09,2.09,0,0,0,.44-.54,1.51,1.51,0,0,0,.17-.73,1.46,1.46,0,0,0-.33-1A1.17,1.17,0,0,0,84.4,8.69Z"/><path class="cls-2" d="M111.26,17.56a.29.29,0,0,1,.08.17v1.13a.28.28,0,0,1-.25.25H96.28a.23.23,0,0,1-.17-.08.27.27,0,0,1-.07-.17V17.73a.23.23,0,0,1,.07-.17.23.23,0,0,1,.17-.08h14.81A.29.29,0,0,1,111.26,17.56Zm-2.14-3.32a.18.18,0,0,1-.14.06H99.56a1.24,1.24,0,0,1-1-.34,1.32,1.32,0,0,1-.31-.93V8.1a1.09,1.09,0,0,1,.29-.88A1.51,1.51,0,0,1,99.49,7h9.34c.15,0,.23.07.23.22V8.4c0,.15-.08.22-.23.22h-8.3c-.2,0-.31.1-.31.29v3.47a.37.37,0,0,0,.06.23.32.32,0,0,0,.25.08h8.38a.58.58,0,0,1,.21,0s.06.08.06.17v1.16A.25.25,0,0,1,109.12,14.24Z"/><path class="cls-2" d="M120.51,17.18a.42.42,0,0,1-.21.11,13.41,13.41,0,0,1-1.32.26q-.78.12-1.65.21c-.57.06-1.14.11-1.7.13s-1.07,0-1.5,0a1.84,1.84,0,0,1-1-.33,1.15,1.15,0,0,1-.28-.9V12.75a1.11,1.11,0,0,1,.31-.87,1.31,1.31,0,0,1,.9-.27h3.06a.19.19,0,0,0,.24-.25V9a.32.32,0,0,0,0-.19s-.09-.05-.2-.05h-4a.21.21,0,0,1-.16-.07.19.19,0,0,1-.08-.15V7.45A.19.19,0,0,1,113,7.3a.21.21,0,0,1,.16-.07H118a1.22,1.22,0,0,1,1,.27,1.49,1.49,0,0,1,.21.9v3.66a1.14,1.14,0,0,1-.26.87,1.41,1.41,0,0,1-.93.23h-3c-.17,0-.26.08-.26.24V16a.3.3,0,0,0,.07.24.69.69,0,0,0,.25.07c.41,0,.81,0,1.21,0s.8,0,1.21-.08.83-.09,1.26-.16l1.39-.24c.16,0,.25,0,.29.22l.19,1A.18.18,0,0,1,120.51,17.18Zm4-11.11a.2.2,0,0,1,.23-.22h1.47a.2.2,0,0,1,.22.22V21.76a.2.2,0,0,1-.22.22h-1.48a.19.19,0,0,1-.22-.22v-8h-1.46v7.4a.21.21,0,0,1-.23.24h-1.39a.21.21,0,0,1-.24-.24V6.38c0-.15.08-.22.24-.22h1.39c.15,0,.23.07.23.22v5.71h1.46Z"/><path class="cls-2" d="M143.22,19a.26.26,0,0,1-.17.09H128.24a.2.2,0,0,1-.17-.09.23.23,0,0,1-.07-.17V17.75a.24.24,0,0,1,.07-.18.21.21,0,0,1,.17-.07h10.25a36.08,36.08,0,0,0,.42-3.65c.09-1.41.14-2.92.14-4.53A.91.91,0,0,0,139,8.9c0-.08-.16-.12-.35-.12H130.4a.19.19,0,0,1-.15-.08.23.23,0,0,1-.07-.16V7.42a.25.25,0,0,1,.07-.17.18.18,0,0,1,.15-.07h9.47c.5,0,.82.13,1,.38a2.11,2.11,0,0,1,.21,1c0,1.52,0,3-.13,4.51a38.82,38.82,0,0,1-.5,4.42h2.64a.28.28,0,0,1,.25.25v1.12A.25.25,0,0,1,143.22,19Z"/><path class="cls-2" d="M159.2,19.15a.29.29,0,0,1-.17.08H144.22a.21.21,0,0,1-.17-.08A.27.27,0,0,1,144,19V17.9a.26.26,0,0,1,.07-.18.2.2,0,0,1,.17-.09h6.44V15.1h-3a3.32,3.32,0,0,1-.61,0,.8.8,0,0,1-.38-.19.65.65,0,0,1-.18-.35,2.1,2.1,0,0,1,0-.55V11.22a2.15,2.15,0,0,1,0-.55.66.66,0,0,1,.18-.34.79.79,0,0,1,.38-.17,3.44,3.44,0,0,1,.61,0h7.07a.42.42,0,0,0,.21,0,.37.37,0,0,0,0-.23V8.52c0-.12,0-.19,0-.21a.45.45,0,0,0-.21,0h-8a.21.21,0,0,1-.15-.07.23.23,0,0,1-.07-.17V6.91a.21.21,0,0,1,.07-.16.24.24,0,0,1,.15-.06h8.95a1.5,1.5,0,0,1,1,.22,1.17,1.17,0,0,1,.26.9v2.75a1.14,1.14,0,0,1-.26.89,1.43,1.43,0,0,1-1,.23h-7.09c-.12,0-.19,0-.21,0a.38.38,0,0,0,0,.2v1.34c0,.13,0,.21,0,.23a.32.32,0,0,0,.21,0H157a.24.24,0,0,1,.15.06.19.19,0,0,1,.07.14v1.14a.19.19,0,0,1-.08.15.21.21,0,0,1-.14.07h-4.37v2.53H159a.24.24,0,0,1,.17.1.29.29,0,0,1,.08.17V19A.29.29,0,0,1,159.2,19.15Z"/><path class="cls-2" d="M179.94,16.07a.24.24,0,0,1-.17.08h-6.41v5.48a.21.21,0,0,1-.24.24h-1.48a.21.21,0,0,1-.24-.24V16.15H165a.19.19,0,0,1-.17-.08.25.25,0,0,1-.07-.17V14.79a.23.23,0,0,1,.07-.17.19.19,0,0,1,.17-.08h14.81a.28.28,0,0,1,.25.25V15.9A.27.27,0,0,1,179.94,16.07Zm-13-3a.36.36,0,0,1-.27,0,.3.3,0,0,1-.15-.17l-.39-1a.21.21,0,0,1,.05-.22.42.42,0,0,1,.17-.16c.79-.19,1.57-.41,2.33-.65s1.46-.5,2.12-.78a17.42,17.42,0,0,0,1.78-.87,8.17,8.17,0,0,0,1.32-.91c.12-.1.19-.18.2-.24s-.08-.1-.27-.1h-6.22c-.15,0-.23-.07-.23-.22V6.51c0-.13.08-.2.23-.2h8a2.3,2.3,0,0,1,1.06.21.64.64,0,0,1,.4.56,1.3,1.3,0,0,1-.16.57,5.26,5.26,0,0,1-.3.48A8.36,8.36,0,0,1,174.43,10l1,.35,1.06.34c.36.12.71.22,1.06.31s.68.16,1,.22a.3.3,0,0,1,.18.13.23.23,0,0,1,0,.23l-.41,1a.31.31,0,0,1-.37.22c-.34-.07-.72-.17-1.15-.29s-.87-.27-1.32-.43l-1.4-.54c-.47-.19-.92-.38-1.35-.58a23.61,23.61,0,0,1-2.85,1.18A27.05,27.05,0,0,1,166.91,13Z"/><path class="cls-2" d="M189.28,14.67a1.4,1.4,0,0,1-1,.28h-4.91a1.51,1.51,0,0,1-1-.26,1.26,1.26,0,0,1-.27-.93V6.82a.18.18,0,0,1,.06-.14.25.25,0,0,1,.16-.06h1.48a.27.27,0,0,1,.16.06.16.16,0,0,1,.07.14V9.47h3.61V6.8a.21.21,0,0,1,.07-.15.21.21,0,0,1,.15-.07h1.5a.24.24,0,0,1,.22.22V8.44h2.89V6.07a.2.2,0,0,1,.22-.22h1.51a.2.2,0,0,1,.22.22V17.21a.19.19,0,0,1-.22.22h-1.51a.19.19,0,0,1-.22-.22V13.4h-2.89v.41A1.17,1.17,0,0,1,189.28,14.67Zm-1.66-3.62H184v2c0,.19.11.29.31.29h3c.21,0,.31-.1.31-.29Zm7.2,10.6a.33.33,0,0,1-.16.05h-8.84a1.49,1.49,0,0,1-1-.28,1.29,1.29,0,0,1-.27-.93V17a.25.25,0,0,1,.08-.17.26.26,0,0,1,.17-.09h1.45a.23.23,0,0,1,.19.09.25.25,0,0,1,.08.17v2.8c0,.11,0,.19.07.22s.12,0,.24,0h7.87a.28.28,0,0,1,.16.07.21.21,0,0,1,.07.15v1.21A.19.19,0,0,1,194.82,21.65Zm-2.37-9.78V10h-2.89v1.9Z"/><path class="cls-2" d="M196.68,13.86V12.77a.24.24,0,0,1,.07-.18.21.21,0,0,1,.17-.07h14.8a.21.21,0,0,1,.17.08.24.24,0,0,1,.09.17v1.09a.21.21,0,0,1-.09.16.25.25,0,0,1-.17.08h-14.8A.21.21,0,0,1,196.68,13.86Zm13-5.24a2.09,2.09,0,0,1-.34,1.15,3,3,0,0,1-1,.92,6.44,6.44,0,0,1-1.68.6,10.37,10.37,0,0,1-2.28.22,10.4,10.4,0,0,1-2.29-.22,6.36,6.36,0,0,1-1.67-.6,2.82,2.82,0,0,1-1-.92,2.06,2.06,0,0,1,0-2.3,2.78,2.78,0,0,1,1-.94,6,6,0,0,1,1.67-.62,11.47,11.47,0,0,1,4.57,0,6.08,6.08,0,0,1,1.68.62,3,3,0,0,1,1,.94A2.09,2.09,0,0,1,209.68,8.62Zm.18,13.08a.19.19,0,0,1-.14.08h-9.49a1.28,1.28,0,0,1-.9-.24,1.07,1.07,0,0,1-.24-.78v-2a1.12,1.12,0,0,1,.23-.78,1.26,1.26,0,0,1,.9-.24h7.2a.49.49,0,0,0,.17,0s0-.09,0-.2V17a.38.38,0,0,0,0-.23s-.08,0-.18,0H199.3a.25.25,0,0,1-.16-.06.17.17,0,0,1-.08-.15V15.41a.19.19,0,0,1,.08-.16.25.25,0,0,1,.16-.06h9.09a1.43,1.43,0,0,1,.93.21,1.06,1.06,0,0,1,.23.79v2a1.09,1.09,0,0,1-.23.8,1.51,1.51,0,0,1-.93.2h-7.17c-.09,0-.15,0-.17,0a.31.31,0,0,0,0,.2V20c0,.1,0,.16,0,.17a.31.31,0,0,0,.18,0h8.47a.26.26,0,0,1,.24.24v1.1A.23.23,0,0,1,209.86,21.7ZM204.35,7.16a8,8,0,0,0-1.36.11,4.67,4.67,0,0,0-1.07.32,1.94,1.94,0,0,0-.69.47.84.84,0,0,0-.25.58.78.78,0,0,0,.25.56,2.06,2.06,0,0,0,.69.45A4.71,4.71,0,0,0,203,10a8,8,0,0,0,1.36.1,8.23,8.23,0,0,0,1.35-.1,4.71,4.71,0,0,0,1.07-.3,2.08,2.08,0,0,0,.7-.46.81.81,0,0,0,.24-.57.85.85,0,0,0-.24-.57,2.24,2.24,0,0,0-.7-.46,4.67,4.67,0,0,0-1.07-.32A8.2,8.2,0,0,0,204.35,7.16Z"/><path class="cls-2" d="M100.12,50.88A.21.21,0,0,1,100,51H93.53v1.31h3.13a1.42,1.42,0,0,1,.92.21,1.08,1.08,0,0,1,.23.79v2a1.09,1.09,0,0,1-.23.8,1.5,1.5,0,0,1-.92.2H89.5a.27.27,0,0,0-.17,0,.34.34,0,0,0,0,.18V57c0,.1,0,.16,0,.17s.08,0,.19,0H98a.27.27,0,0,1,.17.06.2.2,0,0,1,.09.18v1.1a.21.21,0,0,1-.09.16.19.19,0,0,1-.15.08H88.51a1.28,1.28,0,0,1-.9-.24,1.07,1.07,0,0,1-.24-.78V55.82A1.12,1.12,0,0,1,87.6,55a1.26,1.26,0,0,1,.9-.24h7.2a.49.49,0,0,0,.17,0s0-.08,0-.2v-.47c0-.13,0-.21,0-.23s-.08-.05-.18-.05H87.56a.25.25,0,0,1-.16-.06.17.17,0,0,1-.08-.14V52.49a.19.19,0,0,1,.08-.15.21.21,0,0,1,.16-.07h4V51H85.15a.21.21,0,0,1-.24-.24v-1q0-.27.24-.27H100a.25.25,0,0,1,.17.08.26.26,0,0,1,.09.19v1A.21.21,0,0,1,100.12,50.88Zm-2.28-2.75a.2.2,0,0,1-.15.06H88.6a1.19,1.19,0,0,1-.95-.31,1.26,1.26,0,0,1-.28-.9v-2.9a1.09,1.09,0,0,1,.29-.88A1.54,1.54,0,0,1,88.6,43h8.94c.16,0,.24.07.24.22v1.12a.21.21,0,0,1-.24.24H89.67c-.22,0-.32.1-.32.29v1.48a.33.33,0,0,0,.06.21.35.35,0,0,0,.26.08h8a.55.55,0,0,1,.21,0,.2.2,0,0,1,.07.17v1.13A.25.25,0,0,1,97.84,48.13Z"/><path class="cls-2" d="M110.54,54.47a.41.41,0,0,1-.22.13,13.36,13.36,0,0,1-1.59.25c-.6.07-1.22.13-1.85.17s-1.24.08-1.84.09h-1.57a1.59,1.59,0,0,1-1-.31,1.26,1.26,0,0,1-.28-.92V49.77a1.13,1.13,0,0,1,.3-.88,1.3,1.3,0,0,1,.89-.28h3.4a.3.3,0,0,0,.19,0,.32.32,0,0,0,0-.21V45.93a.44.44,0,0,0,0-.19.3.3,0,0,0-.21-.05h-4.28a.21.21,0,0,1-.16-.07.19.19,0,0,1-.08-.15V44.3a.19.19,0,0,1,.08-.15.25.25,0,0,1,.16-.06h5.3a1.25,1.25,0,0,1,1,.27,1.49,1.49,0,0,1,.22.89v3.82a1.17,1.17,0,0,1-.28.89,1.4,1.4,0,0,1-.93.24h-3.38a.21.21,0,0,0-.24.23v2.74a.26.26,0,0,0,.3.29c.86,0,1.77,0,2.71-.09s1.94-.19,3-.35a.21.21,0,0,1,.19.06.42.42,0,0,1,.11.21l.17,1A.2.2,0,0,1,110.54,54.47ZM114.47,59H113a.19.19,0,0,1-.22-.22V50.3H110a.25.25,0,0,1-.16-.06.21.21,0,0,1-.07-.15v-1.2a.26.26,0,0,1,.07-.16.25.25,0,0,1,.16-.06h2.77v-5.6a.2.2,0,0,1,.22-.22h1.51a.2.2,0,0,1,.22.22V58.76A.19.19,0,0,1,114.47,59Z"/><path class="cls-2" d="M132.08,56.15a.25.25,0,0,1-.17.08H117.1a.21.21,0,0,1-.16-.08.27.27,0,0,1-.07-.17V54.87a.28.28,0,0,1,.07-.19.21.21,0,0,1,.16-.08h6.43V51.49h-3.11a1.51,1.51,0,0,1-1-.26,1.28,1.28,0,0,1-.27-.95V43.79a.18.18,0,0,1,.07-.15.2.2,0,0,1,.15-.06h1.5a.27.27,0,0,1,.16.06.18.18,0,0,1,.07.15v2.39h6.84V43.77a.24.24,0,0,1,.22-.22h1.51a.24.24,0,0,1,.22.22v6.58a1.2,1.2,0,0,1-.27.85,1.37,1.37,0,0,1-1,.29h-3.11V54.6h6.42a.22.22,0,0,1,.17.09.26.26,0,0,1,.09.18V56A.26.26,0,0,1,132.08,56.15Zm-4.16-8.39h-6.84V49.6c0,.19.11.29.31.29h6.22c.21,0,.31-.1.31-.29Z"/><path class="cls-2" d="M134.44,55.13a.34.34,0,0,1-.54,0l-.76-.75a.31.31,0,0,1,0-.51A8.4,8.4,0,0,0,134.68,52a10.25,10.25,0,0,0,1-2.26,13.91,13.91,0,0,0,.53-2.63,26.08,26.08,0,0,0,.17-3c0-.17.07-.25.22-.25l1.41.05a.26.26,0,0,1,.25.25c0,.85,0,1.64-.07,2.36a15.57,15.57,0,0,1-.27,2,9.44,9.44,0,0,0,.51,1.46,11.37,11.37,0,0,0,.77,1.42,12.14,12.14,0,0,0,.88,1.23,6.57,6.57,0,0,0,.89.92c.17.15.18.3,0,.44l-.78.8a.31.31,0,0,1-.51,0,5.26,5.26,0,0,1-.73-.65,10.29,10.29,0,0,1-.71-.85,9.64,9.64,0,0,1-.65-1,8.33,8.33,0,0,1-.5-1,10.54,10.54,0,0,1-1.12,2A13.72,13.72,0,0,1,134.44,55.13Zm9.3,3.31h-1.39c-.17,0-.25-.08-.25-.24V49.8h-2.55a.27.27,0,0,1-.17-.06.23.23,0,0,1-.07-.17V48.41a.16.16,0,0,1,.07-.14.27.27,0,0,1,.17-.06h2.55V43.34c0-.14.08-.22.25-.22h1.39a.2.2,0,0,1,.23.22V58.2A.21.21,0,0,1,143.74,58.44ZM147,59h-1.48a.2.2,0,0,1-.22-.22V43.07c0-.14.08-.22.24-.22H147a.2.2,0,0,1,.22.22V58.8A.2.2,0,0,1,147,59Z"/><path class="cls-2" d="M164,56.15a.27.27,0,0,1-.17.08H149.06a.25.25,0,0,1-.17-.08.32.32,0,0,1-.06-.17V54.87c0-.18.08-.27.23-.27h3.4V52c0-.16.09-.24.26-.24h1.46c.17,0,.26.08.26.24V54.6h4.06V52c0-.16.08-.24.25-.24h1.47a.27.27,0,0,1,.18.07.21.21,0,0,1,.07.17V54.6h3.4a.27.27,0,0,1,.17.08.26.26,0,0,1,.09.19V56A.26.26,0,0,1,164,56.15Zm-7.58-5a9.15,9.15,0,0,1-2.13-.24,5.9,5.9,0,0,1-1.76-.71A3.64,3.64,0,0,1,151.36,49a2.87,2.87,0,0,1-.44-1.6,2.8,2.8,0,0,1,.44-1.57,3.77,3.77,0,0,1,1.21-1.17,6.18,6.18,0,0,1,1.76-.71,9.15,9.15,0,0,1,2.13-.24,9.26,9.26,0,0,1,2.15.24,6.13,6.13,0,0,1,1.77.71,4,4,0,0,1,1.2,1.17,2.88,2.88,0,0,1,.44,1.57,3,3,0,0,1-.44,1.6,3.81,3.81,0,0,1-1.2,1.16,5.86,5.86,0,0,1-1.77.71A9.26,9.26,0,0,1,156.46,51.15Zm0-5.78a6.28,6.28,0,0,0-1.32.14,4.42,4.42,0,0,0-1.13.41,2.44,2.44,0,0,0-.79.65,1.49,1.49,0,0,0,0,1.79A2.32,2.32,0,0,0,154,49a4.07,4.07,0,0,0,1.13.41,5.8,5.8,0,0,0,2.62,0,4.19,4.19,0,0,0,1.13-.41,2.32,2.32,0,0,0,.79-.65,1.49,1.49,0,0,0,0-1.79,2.44,2.44,0,0,0-.79-.65,4.56,4.56,0,0,0-1.13-.41A6.31,6.31,0,0,0,156.48,45.37Z"/><path class="cls-2" d="M167.17,58.27A1.3,1.3,0,0,1,165.86,57a1.26,1.26,0,0,1,.38-.92,1.29,1.29,0,0,1,.93-.37A1.26,1.26,0,0,1,168.46,57a1.29,1.29,0,0,1-.37.93A1.26,1.26,0,0,1,167.17,58.27Z"/><rect class="cls-3" width="612" height="310"/></g></g></svg>