<svg xmlns="http://www.w3.org/2000/svg" viewBox="0 0 486.48 74.34"><defs><style>.cls-1,.cls-2{fill:none;stroke:#fff;stroke-miterlimit:10;}.cls-1{stroke-width:2px;}.cls-2{stroke-width:2.36px;}.cls-3{fill:#fff;}</style></defs><g id="Layer_2" data-name="Layer 2"><g id="Layer_2_copy_5" data-name="Layer 2 copy 5"><g id="Layer_2-2" data-name="Layer 2"><g id="Layer_2-2-2" data-name="Layer 2-2"><circle class="cls-1" cx="34.42" cy="34.48" r="8.77"/><circle class="cls-1" cx="34.42" cy="34.48" r="14.37"/><path class="cls-1" d="M52.5,37.72l12.78,9.43A33.4,33.4,0,1,0,52.5,62.48Z"/><g id="Layer_1-2-2" data-name="Layer 1-2-2"><polygon class="cls-2" points="75.7 54.87 52.52 37.73 52.52 72 75.7 54.87"/></g></g></g><path class="cls-3" d="M133.9,43.61a.27.27,0,0,1-.17.08H118.92a.25.25,0,0,1-.17-.08.32.32,0,0,1-.06-.17V42.33c0-.18.08-.27.23-.27h6.43V38.91a7,7,0,0,1-1.84-.41,5.12,5.12,0,0,1-1.46-.81,3.59,3.59,0,0,1-1-1.15,3.22,3.22,0,0,1,.09-3,3.87,3.87,0,0,1,1.17-1.22,6,6,0,0,1,1.77-.79,9.18,9.18,0,0,1,4.42,0,5.81,5.81,0,0,1,1.76.79,3.87,3.87,0,0,1,1.17,1.22,3.11,3.11,0,0,1,.42,1.6,3.16,3.16,0,0,1-.34,1.45,3.62,3.62,0,0,1-1,1.15,5.06,5.06,0,0,1-1.45.81,7.07,7.07,0,0,1-1.84.41v3.15h6.42a.27.27,0,0,1,.17.08.26.26,0,0,1,.09.19v1.11A.26.26,0,0,1,133.9,43.61Zm-7.56-10.78A5.45,5.45,0,0,0,125,33a4,4,0,0,0-1.13.46,2.56,2.56,0,0,0-.78.71,1.64,1.64,0,0,0,0,1.86,2.39,2.39,0,0,0,.78.73,4.31,4.31,0,0,0,1.13.46,6,6,0,0,0,1.36.16,6,6,0,0,0,1.36-.16,4.45,4.45,0,0,0,1.13-.46,2.42,2.42,0,0,0,.76-.73,1.68,1.68,0,0,0,0-1.86,2.6,2.6,0,0,0-.76-.71A4.12,4.12,0,0,0,127.7,33,5.51,5.51,0,0,0,126.34,32.83Z"/><path class="cls-3" d="M145.24,41.08l-.17.1a13.18,13.18,0,0,1-1.72.35c-.69.1-1.41.19-2.15.25s-1.46.1-2.16.13-1.29,0-1.76,0a1.57,1.57,0,0,1-.92-.28,1.07,1.07,0,0,1-.3-.86V32.66a1.13,1.13,0,0,1,.25-.84,1.32,1.32,0,0,1,.89-.23h6.34c.16,0,.24.07.24.22V33c0,.15-.08.22-.24.22h-5.2c-.22,0-.32.1-.32.29v6.22a.47.47,0,0,0,.09.35.86.86,0,0,0,.42.11,10.33,10.33,0,0,0,1.28,0c.5,0,1-.06,1.61-.11s1.14-.12,1.72-.2,1.13-.16,1.64-.25a.23.23,0,0,1,.31.2l.2,1C145.31,41,145.3,41,145.24,41.08Zm3.11,5.14a.19.19,0,0,1-.22.22h-1.51a.19.19,0,0,1-.22-.22V30.53a.2.2,0,0,1,.22-.22h1.51a.2.2,0,0,1,.22.22Z"/><path class="cls-3" d="M165.86,43.61a.27.27,0,0,1-.17.08H150.88a.25.25,0,0,1-.17-.08.32.32,0,0,1-.06-.17V42.33c0-.18.08-.27.23-.27h6.43V38.91a7,7,0,0,1-1.84-.41,5.12,5.12,0,0,1-1.46-.81,3.59,3.59,0,0,1-.95-1.15,3,3,0,0,1-.34-1.45,3.11,3.11,0,0,1,.42-1.6,4,4,0,0,1,1.18-1.22,6,6,0,0,1,1.77-.79,9.18,9.18,0,0,1,4.42,0,5.81,5.81,0,0,1,1.76.79,3.87,3.87,0,0,1,1.17,1.22,3.11,3.11,0,0,1,.42,1.6,3.16,3.16,0,0,1-.34,1.45,3.62,3.62,0,0,1-1,1.15,5.06,5.06,0,0,1-1.45.81,7.07,7.07,0,0,1-1.84.41v3.15h6.42a.27.27,0,0,1,.17.08.26.26,0,0,1,.09.19v1.11A.26.26,0,0,1,165.86,43.61ZM158.3,32.83a5.45,5.45,0,0,0-1.36.16,4,4,0,0,0-1.13.46,2.56,2.56,0,0,0-.78.71A1.64,1.64,0,0,0,155,36a2.39,2.39,0,0,0,.78.73,4.31,4.31,0,0,0,1.13.46,6,6,0,0,0,1.36.16,6,6,0,0,0,1.36-.16,4.45,4.45,0,0,0,1.13-.46,2.42,2.42,0,0,0,.76-.73,1.68,1.68,0,0,0,0-1.86,2.6,2.6,0,0,0-.76-.71,4.12,4.12,0,0,0-1.13-.46A5.51,5.51,0,0,0,158.3,32.83Z"/><path class="cls-3" d="M186.6,41.09a.24.24,0,0,1-.17.09H180v4.91a.21.21,0,0,1-.24.24h-1.48a.21.21,0,0,1-.24-.24V41.18h-6.46a.22.22,0,0,1-.17-.09.29.29,0,0,1-.06-.17v-1.1c0-.19.08-.28.23-.28h14.81a.24.24,0,0,1,.17.09.26.26,0,0,1,.09.19v1.1A.24.24,0,0,1,186.6,41.09ZM184.52,38a.18.18,0,0,1-.15.07h-9.58a1.23,1.23,0,0,1-1-.32,1.35,1.35,0,0,1-.27-.91V31.74a1.1,1.1,0,0,1,.29-.88,1.53,1.53,0,0,1,.94-.22h9.43c.16,0,.24.07.24.22V32a.21.21,0,0,1-.24.24h-8.4a.26.26,0,0,0-.3.29v1.1H184a.26.26,0,0,1,.16.07.23.23,0,0,1,.08.17v1a.19.19,0,0,1-.08.16.25.25,0,0,1-.16.06h-8.48v1.07c0,.25.1.37.3.37h8.49a.5.5,0,0,1,.2,0c.05,0,.07.08.07.17v1.09A.3.3,0,0,1,184.52,38Z"/><path class="cls-3" d="M192.52,42.55a3.73,3.73,0,0,1-1.75-.41,3.89,3.89,0,0,1-1.3-1.16,5.42,5.42,0,0,1-.83-1.78,8.55,8.55,0,0,1-.29-2.27,8.71,8.71,0,0,1,.29-2.32,5.22,5.22,0,0,1,.83-1.76,3.73,3.73,0,0,1,1.3-1.14,3.85,3.85,0,0,1,1.75-.39,3.92,3.92,0,0,1,1.63.33,3.75,3.75,0,0,1,1.27,1,4.74,4.74,0,0,1,.85,1.5,7.4,7.4,0,0,1,.41,2h2.53V30.53a.2.2,0,0,1,.23-.22H201a.2.2,0,0,1,.22.22V46.22a.19.19,0,0,1-.22.22h-1.51c-.15,0-.23-.07-.23-.22v-8.5h-2.53a7.46,7.46,0,0,1-.41,2,4.85,4.85,0,0,1-.85,1.52,3.62,3.62,0,0,1-1.27,1A3.78,3.78,0,0,1,192.52,42.55Zm2.27-5.62a7.1,7.1,0,0,0-.15-1.49,4.76,4.76,0,0,0-.44-1.24,2.56,2.56,0,0,0-.71-.84,1.6,1.6,0,0,0-1-.31,1.55,1.55,0,0,0-1,.31,2.66,2.66,0,0,0-.7.84,4.76,4.76,0,0,0-.44,1.24,6.92,6.92,0,0,0,0,3,4.76,4.76,0,0,0,.44,1.24,2.71,2.71,0,0,0,.7.85,1.5,1.5,0,0,0,1,.33,1.56,1.56,0,0,0,1-.33,2.6,2.6,0,0,0,.71-.85,4.76,4.76,0,0,0,.44-1.24A7,7,0,0,0,194.79,36.93Z"/><path class="cls-3" d="M213.07,42.47A3.69,3.69,0,0,1,210,40.94a5.34,5.34,0,0,1-.82-1.75,8,8,0,0,1-.29-2.26,8.32,8.32,0,0,1,.29-2.32,5.3,5.3,0,0,1,.82-1.76,4,4,0,0,1,4.83-1.13,3.91,3.91,0,0,1,1.32,1.12,5.17,5.17,0,0,1,.83,1.75,9.27,9.27,0,0,1,0,4.6,5.22,5.22,0,0,1-.83,1.76,3.65,3.65,0,0,1-3.08,1.52Zm2.28-5.58a6.46,6.46,0,0,0-.16-1.48,4.11,4.11,0,0,0-.44-1.21,2.52,2.52,0,0,0-.71-.83,1.64,1.64,0,0,0-1-.3,1.55,1.55,0,0,0-.94.3,2.52,2.52,0,0,0-.71.83,4.41,4.41,0,0,0-.44,1.21,7.07,7.07,0,0,0-.15,1.48,6.88,6.88,0,0,0,.15,1.46,4.56,4.56,0,0,0,.44,1.23,2.56,2.56,0,0,0,.71.84,1.5,1.5,0,0,0,.94.31,1.58,1.58,0,0,0,1-.31,2.56,2.56,0,0,0,.71-.84,4.24,4.24,0,0,0,.44-1.23A6.28,6.28,0,0,0,215.35,36.89Zm8.2,1.21a.26.26,0,0,1-.16.07h-2.3v8a.21.21,0,0,1-.07.17.25.25,0,0,1-.16,0h-1.5c-.16,0-.24-.07-.24-.22V30.53c0-.14.08-.22.24-.22h1.5a.23.23,0,0,1,.16.07.21.21,0,0,1,.07.15v6h2.3a.25.25,0,0,1,.16.06.19.19,0,0,1,.08.15v1.19A.23.23,0,0,1,223.55,38.1Z"/><path class="cls-3" d="M229.37,42.53a3.76,3.76,0,0,1-1.75-.4A3.82,3.82,0,0,1,226.3,41a5.62,5.62,0,0,1-.82-1.78,8.55,8.55,0,0,1-.29-2.27,8.71,8.71,0,0,1,.29-2.32,5.51,5.51,0,0,1,.82-1.76,3.84,3.84,0,0,1,1.32-1.12,3.88,3.88,0,0,1,1.75-.4,3.68,3.68,0,0,1,3.07,1.52,5.52,5.52,0,0,1,.83,1.76,9.71,9.71,0,0,1,0,4.63,5.58,5.58,0,0,1-.83,1.77,3.61,3.61,0,0,1-3.07,1.52Zm2.26-5.6a7.1,7.1,0,0,0-.15-1.49A4.76,4.76,0,0,0,231,34.2a2.52,2.52,0,0,0-.71-.83,1.57,1.57,0,0,0-1-.3,1.61,1.61,0,0,0-1,.3,2.5,2.5,0,0,0-.7.83,4.76,4.76,0,0,0-.45,1.24,7.38,7.38,0,0,0,0,3,4.76,4.76,0,0,0,.45,1.24,2.58,2.58,0,0,0,.7.85,1.55,1.55,0,0,0,1,.31,1.51,1.51,0,0,0,1-.31,2.6,2.6,0,0,0,.71-.85,4.76,4.76,0,0,0,.44-1.24A7,7,0,0,0,231.63,36.93Zm6.14,9.29a.19.19,0,0,1-.22.22H236a.19.19,0,0,1-.22-.22V30.53a.2.2,0,0,1,.22-.22h1.51a.2.2,0,0,1,.22.22Z"/><path class="cls-3" d="M255.26,40a.22.22,0,0,1-.17.09H240.3a.22.22,0,0,1-.17-.09.29.29,0,0,1-.06-.17V38.66a.28.28,0,0,1,.06-.18.25.25,0,0,1,.17-.08h5.9v-2a.29.29,0,0,1,.07-.18.26.26,0,0,1,.19-.08h1.46a.27.27,0,0,1,.26.26v2h6.91a.22.22,0,0,1,.17.09.24.24,0,0,1,.09.17v1.12A.24.24,0,0,1,255.26,40Zm-1.92,6a.34.34,0,0,1-.17.05h-9.4a1.46,1.46,0,0,1-1-.28,1.42,1.42,0,0,1-.26-1V41.41a.29.29,0,0,1,.08-.17.23.23,0,0,1,.16-.08h1.46a.24.24,0,0,1,.18.07.29.29,0,0,1,.08.18v2.67a.29.29,0,0,0,.06.22.42.42,0,0,0,.26.05h8.41a.27.27,0,0,1,.17.06.18.18,0,0,1,.09.15v1.22A.18.18,0,0,1,253.34,45.94ZM242.8,33.8H245l2.25,0,2.1,0,1.76-.07c0-.19,0-.38,0-.55v-.49c0-.16,0-.26-.11-.3a.74.74,0,0,0-.34-.06h-8a.29.29,0,0,1-.17-.06.15.15,0,0,1-.09-.14V30.92a.18.18,0,0,1,.09-.15.37.37,0,0,1,.17-.05H252a1.29,1.29,0,0,1,.79.26,1,1,0,0,1,.34.88c0,.15,0,.35,0,.62s0,.56,0,.88-.05.64-.08,1-.06.68-.09,1-.07.62-.11.89-.08.48-.11.63a.64.64,0,0,1-.13.26.23.23,0,0,1-.23.08L251,37.1c-.17,0-.24-.15-.2-.38s.06-.47.1-.72.07-.53.1-.81c-1.22.07-2.55.11-4,.13l-4.26,0a.21.21,0,0,1-.15-.08.28.28,0,0,1-.07-.19V34A.2.2,0,0,1,242.8,33.8Z"/><path class="cls-3" d="M256.05,38.32V37.23a.28.28,0,0,1,.06-.18.23.23,0,0,1,.17-.07h14.81a.22.22,0,0,1,.17.08.24.24,0,0,1,.09.17v1.09a.21.21,0,0,1-.09.16.27.27,0,0,1-.17.08H256.28A.21.21,0,0,1,256.05,38.32Zm13-5.24a2.1,2.1,0,0,1-.35,1.15,2.82,2.82,0,0,1-1,.92,6,6,0,0,1-1.67.6,12,12,0,0,1-4.57,0,6,6,0,0,1-1.68-.6,3,3,0,0,1-1-.92,2.1,2.1,0,0,1-.35-1.15,2.12,2.12,0,0,1,.35-1.15,3,3,0,0,1,1-.94,6,6,0,0,1,1.68-.62,11.47,11.47,0,0,1,4.57,0,6,6,0,0,1,1.67.62,2.87,2.87,0,0,1,1,.94A2.12,2.12,0,0,1,269.05,33.08Zm.18,13.08a.19.19,0,0,1-.15.08H259.6a1.28,1.28,0,0,1-.9-.24,1.07,1.07,0,0,1-.24-.78v-2a1.12,1.12,0,0,1,.23-.78,1.23,1.23,0,0,1,.89-.24h7.21a.49.49,0,0,0,.17,0,.38.38,0,0,0,0-.2v-.51a.53.53,0,0,0,0-.23s-.09,0-.19,0h-8.11a.27.27,0,0,1-.16-.06.17.17,0,0,1-.07-.14V39.87a.21.21,0,0,1,.07-.16.27.27,0,0,1,.16-.06h9.1a1.47,1.47,0,0,1,.93.21,1.07,1.07,0,0,1,.22.79v2a1.09,1.09,0,0,1-.22.8,1.56,1.56,0,0,1-.93.2h-7.18c-.09,0-.14,0-.17,0a.43.43,0,0,0,0,.2v.58c0,.1,0,.16,0,.17a.38.38,0,0,0,.19,0h8.47a.23.23,0,0,1,.16.07.21.21,0,0,1,.08.17V46A.23.23,0,0,1,269.23,46.16Zm-5.52-14.54a8.05,8.05,0,0,0-1.36.11,4.58,4.58,0,0,0-1.06.32,2.09,2.09,0,0,0-.7.47.87.87,0,0,0-.24.58.81.81,0,0,0,.24.56,2.23,2.23,0,0,0,.7.45,4.61,4.61,0,0,0,1.06.3,9.23,9.23,0,0,0,2.71,0,4.65,4.65,0,0,0,1.08-.3,1.93,1.93,0,0,0,.69-.46.78.78,0,0,0,.25-.57.82.82,0,0,0-.25-.57,2.07,2.07,0,0,0-.69-.46,4.61,4.61,0,0,0-1.08-.32A8,8,0,0,0,263.71,31.62Z"/><path class="cls-3" d="M292,38.36a.27.27,0,0,1-.17.08H285.4v1.29h3.13a1.43,1.43,0,0,1,.93.21,1.08,1.08,0,0,1,.23.79v2a1.09,1.09,0,0,1-.23.8,1.51,1.51,0,0,1-.93.2h-7.15a.25.25,0,0,0-.17,0,.31.31,0,0,0,0,.2v.53c0,.1,0,.16,0,.17a.31.31,0,0,0,.18,0h8.45a.25.25,0,0,1,.17.07.2.2,0,0,1,.09.17V46a.21.21,0,0,1-.09.16.22.22,0,0,1-.15.08h-9.47a1.28,1.28,0,0,1-.9-.24,1.07,1.07,0,0,1-.24-.78V43.28a1.12,1.12,0,0,1,.23-.78,1.23,1.23,0,0,1,.89-.24h7.21a.49.49,0,0,0,.17,0s0-.08,0-.2v-.47c0-.13,0-.2,0-.22s-.08,0-.19,0h-8.12a.21.21,0,0,1-.16-.07.19.19,0,0,1-.08-.15V40a.19.19,0,0,1,.08-.15.21.21,0,0,1,.16-.07h4V38.44H277c-.16,0-.23-.08-.23-.24V37.15a.33.33,0,0,1,.06-.19.22.22,0,0,1,.17-.09h14.81a.35.35,0,0,1,.26.28V38.2A.21.21,0,0,1,292,38.36Zm-2.12-2.69a.3.3,0,0,1-.16,0h-9.09a1.51,1.51,0,0,1-1.05-.27,1.37,1.37,0,0,1-.26-.94V30.45a.21.21,0,0,1,.07-.16.27.27,0,0,1,.17-.08H281a.25.25,0,0,1,.17.08.19.19,0,0,1,.08.16v3.4a.26.26,0,0,0,.07.22.47.47,0,0,0,.25,0h8.11a.21.21,0,0,1,.16.07.17.17,0,0,1,.08.15v1.17A.17.17,0,0,1,289.88,35.67Z"/><path class="cls-3" d="M302.42,41.93a.45.45,0,0,1-.22.13,13.36,13.36,0,0,1-1.59.25c-.61.07-1.22.13-1.85.17s-1.25.08-1.85.09h-1.56a1.59,1.59,0,0,1-1-.31,1.21,1.21,0,0,1-.28-.91V37.23a1.13,1.13,0,0,1,.3-.88,1.28,1.28,0,0,1,.89-.28h3.4a.19.19,0,0,0,.24-.25V33.39a.32.32,0,0,0,0-.19s-.09-.05-.2-.05h-4.28a.21.21,0,0,1-.16-.07.17.17,0,0,1-.08-.15V31.76a.17.17,0,0,1,.08-.15.25.25,0,0,1,.16-.06h5.3c.49,0,.81.09,1,.27a1.42,1.42,0,0,1,.22.89v3.82a1.15,1.15,0,0,1-.27.89,1.4,1.4,0,0,1-.93.24h-3.39a.2.2,0,0,0-.23.23v2.74a.26.26,0,0,0,.3.29q1.29,0,2.7-.09c.94-.08,1.95-.19,3-.35a.23.23,0,0,1,.2.06.42.42,0,0,1,.11.21l.17,1A.2.2,0,0,1,302.42,41.93Zm3.93,4.51h-1.51c-.15,0-.23-.07-.23-.22V37.76h-2.77a.24.24,0,0,1-.15-.06.18.18,0,0,1-.07-.15v-1.2a.21.21,0,0,1,.07-.16.24.24,0,0,1,.15-.06h2.77v-5.6a.2.2,0,0,1,.23-.22h1.51a.2.2,0,0,1,.22.22V46.22A.19.19,0,0,1,306.35,46.44Z"/><path class="cls-3" d="M321.84,35.25a.25.25,0,0,1-.17.08h-7.6a.26.26,0,0,1-.18-.09.26.26,0,0,1-.1-.18V34a.24.24,0,0,1,.1-.17.26.26,0,0,1,.18-.09h7.6a.25.25,0,0,1,.17.08.25.25,0,0,1,.08.18v1A.25.25,0,0,1,321.84,35.25Zm-3.78.94a3.56,3.56,0,0,1,2.5,1,3.08,3.08,0,0,1,.71,1.08,3.65,3.65,0,0,1,.24,1.33,3.71,3.71,0,0,1-.24,1.34,3.26,3.26,0,0,1-.71,1.1,3.21,3.21,0,0,1-1.1.73,3.76,3.76,0,0,1-2.8,0,3.08,3.08,0,0,1-1.09-.73,3.39,3.39,0,0,1-.7-1.1,3.71,3.71,0,0,1-.24-1.34,3.65,3.65,0,0,1,.24-1.33,3.23,3.23,0,0,1,1.79-1.81A3.37,3.37,0,0,1,318.06,36.19Zm2.1-3.49a.25.25,0,0,1-.19.09h-4.08a.29.29,0,0,1-.17-.07.25.25,0,0,1-.09-.2v-1a.21.21,0,0,1,.09-.18.29.29,0,0,1,.17-.07H320a.24.24,0,0,1,.18.09.23.23,0,0,1,.09.18v1A.31.31,0,0,1,320.16,32.7Zm-2.1,5a1.64,1.64,0,0,0-.71.15,1.52,1.52,0,0,0-.55.42,2,2,0,0,0-.34.61,2.18,2.18,0,0,0-.12.72,2.25,2.25,0,0,0,.12.74,2.19,2.19,0,0,0,.34.62,1.67,1.67,0,0,0,.55.43,1.64,1.64,0,0,0,.71.15,1.7,1.7,0,0,0,.73-.15,1.67,1.67,0,0,0,.55-.43,2.19,2.19,0,0,0,.34-.62,2.25,2.25,0,0,0,.12-.74,2.18,2.18,0,0,0-.12-.72,2,2,0,0,0-.34-.61,1.52,1.52,0,0,0-.55-.42A1.7,1.7,0,0,0,318.06,37.71ZM326,30.53c0-.14.08-.22.24-.22h1.46a.2.2,0,0,1,.22.22V46.22a.19.19,0,0,1-.22.22h-1.48a.19.19,0,0,1-.22-.22v-8h-1.44v7.38a.21.21,0,0,1-.23.24h-1.39a.21.21,0,0,1-.24-.24V30.84c0-.15.08-.22.24-.22h1.39c.15,0,.23.07.23.22v5.73H326Z"/><path class="cls-3" d="M330.79,38.76l-.68-.82a.48.48,0,0,1-.09-.27.29.29,0,0,1,.18-.22,7,7,0,0,0,2.91-2.74,8.06,8.06,0,0,0,.91-4,.24.24,0,0,1,.1-.19.27.27,0,0,1,.18-.07l1.46.07c.15,0,.22.09.22.26a10.16,10.16,0,0,1-.34,2.66,6,6,0,0,0,.68,1.13,9.06,9.06,0,0,0,.88,1,7.77,7.77,0,0,0,1,.77,6.3,6.3,0,0,0,1,.53c.19.08.23.23.1.43l-.58.92a.32.32,0,0,1-.44.13,6.73,6.73,0,0,1-1.89-1.2,9.79,9.79,0,0,1-1.49-1.72,8.32,8.32,0,0,1-3.52,3.35C331.09,38.93,330.91,38.92,330.79,38.76Zm12.75,7.57a.2.2,0,0,1-.15.08h-9.18a1.23,1.23,0,0,1-.9-.25,1.14,1.14,0,0,1-.24-.8v-2a1.13,1.13,0,0,1,.23-.79,1.29,1.29,0,0,1,.89-.23h6.87c.09,0,.15,0,.17,0a.37.37,0,0,0,0-.21v-.58a.37.37,0,0,0,0-.23.48.48,0,0,0-.21,0h-7.73a.29.29,0,0,1-.17-.06A.17.17,0,0,1,333,41V39.87a.24.24,0,0,1,.24-.24H342a1.3,1.3,0,0,1,.93.24,1.15,1.15,0,0,1,.23.81v2a1.15,1.15,0,0,1-.23.82,1.37,1.37,0,0,1-.93.22H335.2a.27.27,0,0,0-.17,0,.26.26,0,0,0,0,.18v.68c0,.1,0,.16.05.18a.51.51,0,0,0,.21,0h8.12a.29.29,0,0,1,.17.06.24.24,0,0,1,.07.18v1.08A.21.21,0,0,1,343.54,46.33ZM338,34.56V33.41a.18.18,0,0,1,.07-.15.32.32,0,0,1,.18-.06h3V30.53a.2.2,0,0,1,.22-.22H343a.2.2,0,0,1,.22.22v8.1a.28.28,0,0,1-.07.16.21.21,0,0,1-.15.07h-1.52a.21.21,0,0,1-.15-.07.28.28,0,0,1-.07-.16V34.77h-3a.32.32,0,0,1-.18-.06A.18.18,0,0,1,338,34.56Z"/><path class="cls-3" d="M345.79,41.48c.53,0,1.06,0,1.57,0l1.57,0V37c0-.16.08-.23.24-.23h1.45a.2.2,0,0,1,.23.23v4.44c.8,0,1.58-.1,2.35-.17s1.54-.16,2.31-.29a.41.41,0,0,1,.19,0,.16.16,0,0,1,.12.16l.1,1.07a.28.28,0,0,1-.05.22.3.3,0,0,1-.15.09,43,43,0,0,1-4.93.51c-1.7.08-3.37.1-5,.07a.21.21,0,0,1-.17-.08.24.24,0,0,1-.07-.18V41.72A.21.21,0,0,1,345.79,41.48Zm9.11-8.55c0,.93,0,1.89-.12,2.87s-.21,2-.39,3a.85.85,0,0,1-.11.26.19.19,0,0,1-.21.11L352.71,39c-.15,0-.21-.13-.17-.35.12-.82.23-1.64.31-2.48a23.36,23.36,0,0,0,.13-2.52.34.34,0,0,0-.12-.31.82.82,0,0,0-.36-.07h-5.62a.33.33,0,0,1-.19-.06.16.16,0,0,1-.09-.14V31.93a.18.18,0,0,1,.09-.17.32.32,0,0,1,.19-.05h6.9a1.14,1.14,0,0,1,.82.29A1.27,1.27,0,0,1,354.9,32.93Zm6,5.54a.23.23,0,0,1-.16.07h-2.23v7.68a.2.2,0,0,1-.22.22H356.8a.2.2,0,0,1-.22-.22V30.53a.2.2,0,0,1,.22-.22h1.52a.2.2,0,0,1,.22.22v6.38h2.23a.27.27,0,0,1,.16.06.19.19,0,0,1,.07.16v1.19A.18.18,0,0,1,360.93,38.47Z"/><path class="cls-3" d="M376.06,34a.24.24,0,0,1-.18.07h-9a.29.29,0,0,1-.19-.08.25.25,0,0,1-.08-.19v-.95a.24.24,0,0,1,.09-.17.28.28,0,0,1,.2-.09h9a.25.25,0,0,1,.18.08.24.24,0,0,1,.07.18v1A.24.24,0,0,1,376.06,34Zm-4.55.6a5.17,5.17,0,0,1,1.44.2,3.72,3.72,0,0,1,1.18.58,2.87,2.87,0,0,1,.78.89,2.37,2.37,0,0,1,.29,1.15,2.4,2.4,0,0,1-.29,1.16,2.82,2.82,0,0,1-.79.9,4.28,4.28,0,0,1-1.17.59,4.91,4.91,0,0,1-1.46.21,4.76,4.76,0,0,1-1.43-.21,4,4,0,0,1-1.15-.59,2.79,2.79,0,0,1-.78-.9,2.3,2.3,0,0,1-.29-1.16,2.26,2.26,0,0,1,.29-1.15,2.87,2.87,0,0,1,.78-.89,3.71,3.71,0,0,1,1.16-.58A5.17,5.17,0,0,1,371.51,34.63Zm2.35-2.74a.26.26,0,0,1-.21.09h-4.44a.27.27,0,0,1-.16-.07.24.24,0,0,1-.09-.2v-1a.23.23,0,0,1,.09-.19.27.27,0,0,1,.16-.07h4.44a.25.25,0,0,1,.2.09.24.24,0,0,1,.09.18v.94A.28.28,0,0,1,373.86,31.89Zm5.06,14a1.32,1.32,0,0,1-.93.27h-7.55a1.49,1.49,0,0,1-1-.27,1.3,1.3,0,0,1-.27-.94v-2.5a1,1,0,0,1,1.22-1.22h7.55a1.44,1.44,0,0,1,1,.28,1.38,1.38,0,0,1,.27,1V45A1.24,1.24,0,0,1,378.92,45.92Zm-7.41-9.79a2.28,2.28,0,0,0-1.32.36,1.15,1.15,0,0,0-.52,1,1.24,1.24,0,0,0,.52,1,2.39,2.39,0,0,0,2.65,0,1.23,1.23,0,0,0,.51-1,1.14,1.14,0,0,0-.51-1A2.29,2.29,0,0,0,371.51,36.13Zm5.76,6.93c0-.1,0-.16,0-.19a.29.29,0,0,0-.19,0h-5.72a.37.37,0,0,0-.2,0s0,.08,0,.19V44.4c0,.11,0,.17,0,.19a.37.37,0,0,0,.2,0H377a.37.37,0,0,0,.2,0s0-.08,0-.19Zm4.4-6.46a.24.24,0,0,1-.18.07h-2.3v3.67c0,.16-.07.24-.22.24h-1.51c-.15,0-.22-.09-.22-.26V30.53a.2.2,0,0,1,.22-.22H379a.2.2,0,0,1,.22.22V35h2.3a.28.28,0,0,1,.18.06.19.19,0,0,1,.07.16v1.19A.18.18,0,0,1,381.67,36.6Z"/><path class="cls-3" d="M386.59,32.86a15.53,15.53,0,0,1-.16,2.14,11.47,11.47,0,0,1-.54,2.15,11.27,11.27,0,0,1-1,2.08,9.75,9.75,0,0,1-1.49,1.89.49.49,0,0,1-.27.13.41.41,0,0,1-.31-.07l-.71-.67a.26.26,0,0,1-.1-.24.45.45,0,0,1,.11-.23,6.94,6.94,0,0,0,1.2-1.5,9.71,9.71,0,0,0,.82-1.69,11.17,11.17,0,0,0,.47-1.68,8.15,8.15,0,0,0,.15-1.48,1.14,1.14,0,0,0-.06-.45c0-.07-.16-.11-.37-.11h-1.56c-.15,0-.22-.07-.22-.23V31.84c0-.13.07-.2.22-.2h2.6a1.25,1.25,0,0,1,.94.29A1.32,1.32,0,0,1,386.59,32.86Zm3.93-.07a17.73,17.73,0,0,1-.26,3h1.65v-5c0-.14.08-.22.24-.22h1.31a.2.2,0,0,1,.22.22V45.66c0,.16-.08.24-.22.24h-1.31a.21.21,0,0,1-.24-.24V37.4h-2a15.31,15.31,0,0,1-1.19,3A11,11,0,0,1,386.79,43a.38.38,0,0,1-.24.1.45.45,0,0,1-.3-.07l-.85-.64a.25.25,0,0,1-.08-.27.54.54,0,0,1,.11-.24A10.14,10.14,0,0,0,386.82,40a12.91,12.91,0,0,0,1-2.09,12.3,12.3,0,0,0,.6-2.17,10.83,10.83,0,0,0,.21-2.06,1.14,1.14,0,0,0-.06-.45c0-.07-.16-.11-.35-.11h-1.05a.2.2,0,0,1-.23-.23V31.84c0-.13.08-.2.23-.2h2.15a1.31,1.31,0,0,1,.93.25A1.21,1.21,0,0,1,390.52,32.79Zm6,13.69H395.1a.2.2,0,0,1-.23-.22V30.53c0-.14.08-.22.25-.22h1.36a.2.2,0,0,1,.22.22V46.26A.2.2,0,0,1,396.48,46.48Z"/><path class="cls-3" d="M404.56,39.65c-.28.11-.46.06-.55-.16l-.44-.88a.37.37,0,0,1,0-.27.36.36,0,0,1,.21-.23,12.7,12.7,0,0,0,3.5-2.16,6.29,6.29,0,0,0,1.89-2.82.69.69,0,0,0,.05-.37c0-.07-.12-.1-.29-.1h-4.62a.18.18,0,0,1-.16-.09.3.3,0,0,1-.06-.18V31.26a.21.21,0,0,1,.23-.23h5.77a1.77,1.77,0,0,1,1,.23,1,1,0,0,1,.3.79.76.76,0,0,1,0,.19c0,.09,0,.17,0,.27s0,.17-.05.24,0,.13,0,.16a8.79,8.79,0,0,1-2.32,4A13.48,13.48,0,0,1,404.56,39.65Zm11.08,6.27a1.32,1.32,0,0,1-.93.27h-7.48a1.49,1.49,0,0,1-1.05-.27,1.31,1.31,0,0,1-.26-.94V41.41a1.24,1.24,0,0,1,.29-.93,1.28,1.28,0,0,1,.93-.29h7.48a1.44,1.44,0,0,1,1,.28,1.38,1.38,0,0,1,.27,1V45A1.24,1.24,0,0,1,415.64,45.92ZM414,42c0-.09,0-.15-.05-.17a.26.26,0,0,0-.18,0h-5.66c-.1,0-.16,0-.19,0s0,.08,0,.17V44.4c0,.11,0,.17,0,.19a.35.35,0,0,0,.19,0h5.66a.34.34,0,0,0,.18,0s.05-.08.05-.19Zm4.4-6.12a.27.27,0,0,1-.17.07h-2.3v3.2c0,.15-.08.22-.23.22h-1.5a.26.26,0,0,1-.24-.24V30.53a.22.22,0,0,1,.08-.15.21.21,0,0,1,.16-.07h1.5a.2.2,0,0,1,.23.22v3.76h2.3a.27.27,0,0,1,.17.07.19.19,0,0,1,.08.15V35.7A.19.19,0,0,1,418.38,35.85Z"/><path class="cls-3" d="M420.44,39.46a.5.5,0,0,1-.34.1.46.46,0,0,1-.23-.15l-.69-.8c-.12-.13-.16-.23-.13-.31a.48.48,0,0,1,.19-.22,11.75,11.75,0,0,0,1.67-1.33,6.55,6.55,0,0,0,1.18-1.52,7.26,7.26,0,0,0,.71-1.88,10.86,10.86,0,0,0,.24-2.41.24.24,0,0,1,.08-.2.24.24,0,0,1,.17-.09l1.5.07c.14,0,.22.09.22.26a12.13,12.13,0,0,1-.26,2.63,5.55,5.55,0,0,0,.71,1.22,9.64,9.64,0,0,0,.93,1.07,10.93,10.93,0,0,0,1,.85,6.45,6.45,0,0,0,1,.57c.19.08.23.21.1.4l-.59.94a.31.31,0,0,1-.46.14,7.68,7.68,0,0,1-1.93-1.25A8.7,8.7,0,0,1,424,35.79a8.75,8.75,0,0,1-1.46,2A14.8,14.8,0,0,1,420.44,39.46Zm11.62,3.76a2.35,2.35,0,0,1-.38,1.31,3.23,3.23,0,0,1-1.07,1,5.68,5.68,0,0,1-1.62.67,8.27,8.27,0,0,1-2,.24,8.53,8.53,0,0,1-2.1-.24,5.25,5.25,0,0,1-1.59-.67,3.13,3.13,0,0,1-1-1,2.52,2.52,0,0,1-.36-1.32,2.46,2.46,0,0,1,.36-1.31,3.13,3.13,0,0,1,1-1,5,5,0,0,1,1.59-.67A8.53,8.53,0,0,1,427,40a8.27,8.27,0,0,1,2,.24,5.67,5.67,0,0,1,1.62.66,3.18,3.18,0,0,1,1.07,1A2.37,2.37,0,0,1,432.06,43.22Zm-2,.05a1.16,1.16,0,0,0-.26-.75,2,2,0,0,0-.68-.55,4.17,4.17,0,0,0-1-.34,6.58,6.58,0,0,0-1.19-.11,4.72,4.72,0,0,0-2.21.45,1.41,1.41,0,0,0-.84,1.3,1.16,1.16,0,0,0,.23.71,1.93,1.93,0,0,0,.63.52,3.49,3.49,0,0,0,1,.32,5.92,5.92,0,0,0,1.23.11,5.79,5.79,0,0,0,1.19-.11,3.76,3.76,0,0,0,1-.32,2,2,0,0,0,.68-.52A1.07,1.07,0,0,0,430.06,43.27Zm4.31-7.21a.28.28,0,0,1-.17.07h-2.31v3.4a.27.27,0,0,1-.06.16.21.21,0,0,1-.16.07h-1.51a.18.18,0,0,1-.15-.07.24.24,0,0,1-.07-.18v-9a.2.2,0,0,1,.22-.22h1.51a.2.2,0,0,1,.22.22v4h2.31a.27.27,0,0,1,.17.06.18.18,0,0,1,.07.15V35.9A.21.21,0,0,1,434.37,36.06Z"/><path class="cls-3" d="M444.89,35.31a.23.23,0,0,1-.18.09H435.5a.3.3,0,0,1-.2-.1.28.28,0,0,1-.09-.19v-1a.24.24,0,0,1,.09-.17.28.28,0,0,1,.2-.09h9.21a.27.27,0,0,1,.26.26v1A.29.29,0,0,1,444.89,35.31Zm-4.67.92a4.63,4.63,0,0,1,1.53.24,3.5,3.5,0,0,1,1.19.7,3.25,3.25,0,0,1,.78,1.08,3.53,3.53,0,0,1,.28,1.4,3.66,3.66,0,0,1-.28,1.41,3.26,3.26,0,0,1-.79,1.11,3.69,3.69,0,0,1-1.19.74,4.24,4.24,0,0,1-1.53.27,4.38,4.38,0,0,1-1.53-.26,3.58,3.58,0,0,1-1.18-.74,3.32,3.32,0,0,1-.76-1.12,3.65,3.65,0,0,1-.27-1.41,3.47,3.47,0,0,1,.27-1.38,3.09,3.09,0,0,1,.77-1.08,3.73,3.73,0,0,1,1.19-.71A4.37,4.37,0,0,1,440.22,36.23Zm2.49-3.64a.23.23,0,0,1-.19.09h-4.78a.35.35,0,0,1-.16-.07.23.23,0,0,1-.09-.19V31.3a.23.23,0,0,1,.09-.19.35.35,0,0,1,.16-.07h4.78a.23.23,0,0,1,.18.09.26.26,0,0,1,.09.19V32.4A.29.29,0,0,1,442.71,32.59Zm-2.49,5.18a1.81,1.81,0,0,0-1.38.54,2.09,2.09,0,0,0,0,2.76,1.78,1.78,0,0,0,1.38.55,1.82,1.82,0,0,0,1.41-.55,2.12,2.12,0,0,0,0-2.76A1.85,1.85,0,0,0,440.22,37.77Zm10.13.51a.24.24,0,0,1-.18.07h-2.3v7.87a.19.19,0,0,1-.22.22h-1.51a.19.19,0,0,1-.22-.22V30.53a.2.2,0,0,1,.22-.22h1.51a.2.2,0,0,1,.22.22v6.19h2.3a.28.28,0,0,1,.18.06.18.18,0,0,1,.07.15v1.2A.18.18,0,0,1,450.35,38.28Z"/><path class="cls-3" d="M452.46,42.59a.34.34,0,0,1-.54,0l-.77-.75c-.17-.16-.16-.33,0-.51a8.68,8.68,0,0,0,1.53-1.91,10.25,10.25,0,0,0,1-2.26,14.75,14.75,0,0,0,.53-2.63,26.17,26.17,0,0,0,.16-3c0-.17.08-.25.22-.25l1.42.05a.26.26,0,0,1,.25.25c0,.85,0,1.64-.08,2.36a15.6,15.6,0,0,1-.26,2,7.72,7.72,0,0,0,.51,1.46,11.37,11.37,0,0,0,.77,1.42,10.75,10.75,0,0,0,.88,1.23A6.55,6.55,0,0,0,459,41c.17.15.19.3,0,.44l-.78.8a.31.31,0,0,1-.51,0,4.7,4.7,0,0,1-.72-.65,10.29,10.29,0,0,1-.71-.85,8.2,8.2,0,0,1-.65-1,7.14,7.14,0,0,1-.5-1,10.54,10.54,0,0,1-1.12,2A15.36,15.36,0,0,1,452.46,42.59Zm9.3,3.31h-1.39c-.17,0-.26-.08-.26-.24V37.27h-2.55a.28.28,0,0,1-.16-.07.23.23,0,0,1-.08-.17V35.87a.19.19,0,0,1,.08-.14.27.27,0,0,1,.16-.06h2.55V30.81c0-.15.09-.23.26-.23h1.39c.15,0,.22.08.22.23V45.66C462,45.82,461.91,45.9,461.76,45.9Zm3.3.58h-1.48a.2.2,0,0,1-.22-.22V30.53c0-.14.08-.22.24-.22h1.46a.2.2,0,0,1,.22.22V46.26A.2.2,0,0,1,465.06,46.48Z"/><path class="cls-3" d="M482.06,43.61a.27.27,0,0,1-.17.08H467.08a.23.23,0,0,1-.17-.08.34.34,0,0,1-.07-.17V42.33q0-.27.24-.27h3.4V39.41c0-.16.09-.24.26-.24h1.46c.17,0,.25.08.25.24v2.65h4.07V39.41c0-.16.08-.24.25-.24h1.46a.24.24,0,0,1,.18.07.21.21,0,0,1,.08.17v2.65h3.4a.27.27,0,0,1,.17.08.25.25,0,0,1,.08.19v1.11A.24.24,0,0,1,482.06,43.61Zm-7.58-5a9.15,9.15,0,0,1-2.13-.24,5.86,5.86,0,0,1-1.77-.71,3.51,3.51,0,0,1-1.2-1.16,2.87,2.87,0,0,1-.44-1.6,2.8,2.8,0,0,1,.44-1.57,3.73,3.73,0,0,1,1.2-1.17,6.13,6.13,0,0,1,1.77-.71,9.15,9.15,0,0,1,2.13-.24,9.32,9.32,0,0,1,2.15.24,6,6,0,0,1,1.76.71,3.73,3.73,0,0,1,1.2,1.17A2.8,2.8,0,0,1,480,34.9a2.88,2.88,0,0,1-.45,1.6,3.51,3.51,0,0,1-1.2,1.16,5.69,5.69,0,0,1-1.76.71A9.32,9.32,0,0,1,474.48,38.61Zm0-5.78a6.26,6.26,0,0,0-1.31.14,4.28,4.28,0,0,0-1.13.41,2.34,2.34,0,0,0-.79.65,1.49,1.49,0,0,0,0,1.79,2.23,2.23,0,0,0,.79.65,4,4,0,0,0,1.13.41,5.66,5.66,0,0,0,1.31.15,5.57,5.57,0,0,0,1.3-.15,4.14,4.14,0,0,0,1.14-.41,2.42,2.42,0,0,0,.79-.65,1.53,1.53,0,0,0,0-1.79,2.55,2.55,0,0,0-.79-.65,4.5,4.5,0,0,0-1.14-.41A6.16,6.16,0,0,0,474.49,32.83Z"/><path class="cls-3" d="M485.19,45.73a1.28,1.28,0,0,1-.93-.38,1.3,1.3,0,0,1-.38-.93,1.26,1.26,0,0,1,.38-.92,1.27,1.27,0,0,1,.93-.37,1.23,1.23,0,0,1,.91.37,1.26,1.26,0,0,1,.38.92,1.3,1.3,0,0,1-.38.93A1.24,1.24,0,0,1,485.19,45.73Z"/></g></g></svg>