<?xml version="1.0" encoding="utf-8"?>
<!-- Generator: Adobe Illustrator 24.1.0, SVG Export Plug-In . SVG Version: 6.00 Build 0)  -->
<svg version="1.1" id="Layer_1" xmlns="http://www.w3.org/2000/svg" xmlns:xlink="http://www.w3.org/1999/xlink" x="0px" y="0px"
	 viewBox="0 0 200.1 168.1" style="enable-background:new 0 0 200.1 168.1;" xml:space="preserve">
<style type="text/css">
	.st0{fill:none;stroke:#FFFFFF;stroke-width:4.5;stroke-miterlimit:10;}
	.st1{opacity:0.6;}
	.st2{fill:#FFFFFF;}
</style>
<g id="Layer_2_1_">
	<g id="Layer_11">
		<polyline class="st0" points="141.9,125.6 125.4,109 141.9,92.4 		"/>
		<path class="st0" d="M128.9,46.9c40,4.1,69,16.4,69,30.9S167,105.3,125.2,109"/>
		<path class="st0" d="M53.7,106.1c-30.6-5.3-51.4-16-51.4-28.3C2.2,63.3,31,51.1,70.7,47"/>
		<g id="Layer_1-2-2" class="st1">
			<polygon class="st2" points="141.9,56.8 71.2,4.5 71.2,109 			"/>
		</g>
		<g id="Layer_1-2-2-2">
			<polygon class="st0" points="141.9,56.8 71.2,4.5 71.2,109 			"/>
		</g>
		<path class="st2" d="M17.5,167.8h-3.1l-8.5-22.4h2.9l5.7,15.5l1.4,4.4l1.4-4.4l5.7-15.5h3L17.5,167.8z"/>
		<path class="st2" d="M30,146.9c-0.7-0.8-0.7-2.1,0.2-2.8c0.8-0.7,2.1-0.7,2.8,0.2c0.7,0.8,0.7,1.9,0,2.6
			C32.1,147.7,30.9,147.7,30,146.9z M32.8,167.8h-2.8v-17h2.7L32.8,167.8z"/>
		<path class="st2" d="M49,150.8l-0.5,2.6c-0.7-0.3-1.4-0.5-2.1-0.4c-0.8,0-1.5,0.2-2.1,0.6c-0.7,0.5-1.3,1.1-1.7,1.9
			c-0.5,1-0.7,2-0.7,3.1v9.2h-2.7v-17h2.2l0.4,2.8c0.9-2.1,2.8-3.1,5.4-3.1C47.8,150.4,48.4,150.5,49,150.8z"/>
		<path class="st2" d="M62.4,166.6c-1.2,1-2.8,1.6-4.4,1.5c-1.2,0.1-2.4-0.3-3.4-1.1c-0.9-0.9-1.4-2.2-1.3-3.4v-10.5h-3.4v-2.3h3.4
			v-4.1l2.7-0.8v4.8h6.3v2.3H56v10c-0.1,0.7,0.2,1.4,0.7,1.9c0.5,0.4,1.2,0.7,1.9,0.6c1.1,0,2.1-0.5,2.9-1.3L62.4,166.6z"/>
		<path class="st2" d="M80.9,150.8v17h-2.4l-0.2-2.6c-1.1,2-3.2,2.9-6.1,2.9c-1.6,0.1-3.2-0.5-4.5-1.5c-1.3-1.2-1.9-2.9-1.8-4.7
			v-11.1h2.7v10.4c-0.1,1.3,0.2,2.5,1,3.5c0.8,0.7,1.9,1.1,3,1c2.8,0.2,5.3-1.9,5.5-4.7c0-0.3,0-0.6,0-0.9v-9.2H80.9z"/>
		<path class="st2" d="M102.6,165.6l-0.2,2.1c-0.6,0.2-1.3,0.3-2,0.3c-0.7,0-1.5-0.2-2.1-0.6c-0.6-0.5-0.9-1.2-1-1.9
			c-0.6,0.8-1.4,1.5-2.3,1.9c-1,0.4-2.1,0.7-3.2,0.7c-1.5,0.1-2.9-0.4-4.2-1.2c-1.1-0.8-1.7-2-1.7-3.4c0-1.3,0.6-2.6,1.7-3.4
			c1.4-1.1,3.1-1.8,4.9-2l4.5-0.8v-0.9c0-1-0.3-2-1.1-2.7c-0.8-0.7-1.9-1.1-2.9-1c-1,0-2.1,0.3-2.9,0.8c-0.9,0.6-1.5,1.4-1.9,2.4
			l-2-1.5c0.5-1.3,1.4-2.3,2.5-3c1.3-0.8,2.8-1.2,4.3-1.1c1.7-0.1,3.5,0.4,4.9,1.5c1.3,1.1,1.9,2.7,1.8,4.3v8.4
			c0,0.3,0.1,0.7,0.3,0.9c0.3,0.2,0.6,0.3,1,0.3C101.7,165.8,102.1,165.7,102.6,165.6z M95.6,164.7c1-0.6,1.6-1.6,1.5-2.7v-2.4
			l-3.8,0.7c-1.2,0.2-2.4,0.6-3.4,1.2c-0.7,0.4-1.1,1.1-1.1,1.9c0,0.6,0.3,1.3,0.8,1.6c0.7,0.4,1.5,0.6,2.3,0.6
			C93.3,165.7,94.5,165.4,95.6,164.7z"/>
		<path class="st2" d="M109.1,163.2c-0.1,0.6,0.1,1.2,0.4,1.8c0.4,0.4,0.9,0.5,1.4,0.5c0.4,0,0.8,0,1.2-0.1c0.4-0.1,0.8-0.2,1.2-0.4
			l-0.4,2.6c-0.8,0.3-1.7,0.5-2.5,0.5c-1.1,0.1-2.3-0.3-3.1-1.1c-0.7-1-1.1-2.2-1-3.4v-20.6h2.7L109.1,163.2z"/>
		<path class="st2" d="M135.6,167.8h-3.1l-8.5-22.4h2.9l5.7,15.5l1.4,4.4l1.4-4.4l5.7-15.5h2.9L135.6,167.8z"/>
		<path class="st2" d="M148.1,146.9c-0.8-0.8-0.8-2.2,0-3s2.2-0.8,3,0c0.8,0.9,0.8,2.1,0,3c-0.4,0.4-0.9,0.6-1.5,0.6
			C149,147.5,148.5,147.3,148.1,146.9z M150.9,167.8h-2.7v-17h2.7V167.8z"/>
		<path class="st2" d="M158.6,167.1c-1.3-0.6-2.3-1.6-2.9-2.9l2.2-1.5c0.4,1,1.1,1.8,2,2.2c1,0.5,2.2,0.8,3.4,0.8
			c1.1,0.1,2.1-0.2,3.1-0.7c0.6-0.4,1-1.1,1-1.8c0-0.7-0.4-1.3-1-1.6c-1.1-0.5-2.3-0.9-3.5-1c-1.3-0.2-2.6-0.6-3.9-1.1
			c-0.8-0.3-1.5-0.9-2.1-1.6c-0.5-0.7-0.7-1.5-0.6-2.4c0-0.9,0.3-1.8,0.8-2.6c0.6-0.8,1.4-1.5,2.3-1.9c1.1-0.5,2.3-0.7,3.5-0.7
			c1.5-0.1,3,0.3,4.4,1c1.1,0.7,2,1.8,2.4,3.1l-2.3,1.4c-0.3-1-0.8-1.8-1.6-2.4c-1.7-1-3.9-1-5.6,0c-0.7,0.3-1.1,1-1.2,1.7
			c0,0.7,0.4,1.4,1,1.7c1.1,0.6,2.3,0.9,3.6,1.1c1.8,0.2,3.5,0.8,5,1.7c1,0.8,1.5,2,1.5,3.3c0,0.9-0.3,1.9-0.9,2.6
			c-0.7,0.8-1.5,1.4-2.5,1.8c-1.2,0.5-2.5,0.7-3.8,0.6C161.4,168.1,159.9,167.8,158.6,167.1z"/>
		<path class="st2" d="M175,146.9c-0.7-0.8-0.7-2.1,0.1-2.8s2.1-0.7,2.8,0.1c0.7,0.8,0.7,1.9,0,2.7
			C177.1,147.7,175.8,147.7,175,146.9z M177.8,167.8h-2.7v-17h2.7V167.8z"/>
		<path class="st2" d="M194.6,166.6c-1.2,1-2.8,1.6-4.4,1.5c-1.2,0.1-2.4-0.3-3.4-1.1c-0.9-0.9-1.4-2.2-1.3-3.4v-10.4h-3.4v-2.3h3.4
			v-4.1l2.7-0.8v4.8h6.3v2.3h-6.3v10c-0.1,0.7,0.2,1.4,0.7,1.9c0.5,0.4,1.2,0.7,1.9,0.6c1.1,0,2.1-0.5,2.9-1.3L194.6,166.6z"/>
	</g>
</g>
</svg>
