<?xml version="1.0" encoding="utf-8"?>
<!-- Generator: Adobe Illustrator 24.1.0, SVG Export Plug-In . SVG Version: 6.00 Build 0)  -->
<svg version="1.1" id="Layer_1" xmlns="http://www.w3.org/2000/svg" xmlns:xlink="http://www.w3.org/1999/xlink" x="0px" y="0px"
	 viewBox="0 0 134.7 65.1" style="enable-background:new 0 0 134.7 65.1;" xml:space="preserve">
<style type="text/css">
	.st0{fill:none;}
	.st1{enable-background:new    ;}
	.st2{fill:#FFFFFF;}
</style>
<g id="Layer_2_1_">
	<g id="tutorial_design_en">
		<rect class="st0" width="134.7" height="65.1"/>
		<g class="st1">
			<path class="st2" d="M39.9,39c-1.2-0.6-2.1-1.5-2.7-2.7l2.1-1.4c0.4,0.9,1,1.6,1.9,2.1c0.9,0.5,2,0.7,3.2,0.7
				c1.3,0,2.2-0.2,2.9-0.7s1-1,1-1.7c0-0.6-0.3-1.1-0.9-1.5c-0.6-0.4-1.7-0.7-3.3-1c-1.5-0.3-2.8-0.6-3.6-1s-1.5-0.9-2-1.5
				c-0.4-0.6-0.6-1.4-0.6-2.3c0-0.9,0.3-1.7,0.8-2.4c0.5-0.7,1.2-1.3,2.2-1.7c1-0.4,2.1-0.7,3.3-0.7c1.7,0,3.1,0.3,4.1,0.9
				c1,0.6,1.8,1.6,2.2,2.9l-2.2,1.3c-0.3-1-0.9-1.8-1.6-2.2c-0.7-0.4-1.6-0.7-2.6-0.7c-1,0-1.9,0.2-2.7,0.7c-0.7,0.5-1.1,1-1.1,1.6
				c0,0.7,0.3,1.2,0.9,1.6c0.6,0.4,1.8,0.7,3.4,1c2.2,0.4,3.8,0.9,4.7,1.6c0.9,0.7,1.4,1.8,1.4,3.1c0,0.9-0.3,1.7-0.8,2.4
				s-1.3,1.3-2.3,1.7c-1,0.4-2.2,0.6-3.5,0.6C42.5,39.9,41.1,39.6,39.9,39z"/>
			<path class="st2" d="M61.4,31.7L58,35.1v4.5h-2.6V16.2H58v15.6l8.3-8.3h3.2l-6.2,6.2l6.6,9.8h-3.1L61.4,31.7z"/>
			<path class="st2" d="M73.5,20c-0.4-0.4-0.5-0.8-0.5-1.4s0.2-1,0.5-1.4c0.4-0.4,0.8-0.5,1.4-0.5c0.6,0,1,0.2,1.4,0.5
				c0.4,0.4,0.5,0.8,0.5,1.4s-0.2,1-0.5,1.4c-0.4,0.4-0.8,0.5-1.4,0.5C74.3,20.5,73.8,20.4,73.5,20z M76.2,39.6h-2.6v-16h2.6V39.6z"
				/>
			<path class="st2" d="M95.3,25.5c1.3,1.5,2,3.5,2,6.1c0,2.6-0.7,4.6-2,6.1c-1.3,1.5-3.1,2.2-5.3,2.2c-1.2,0-2.2-0.3-3.2-0.8
				c-0.9-0.5-1.6-1.2-2.2-2v9.2h-2.6V23.6h2.2l0.2,2.8c0.5-0.9,1.2-1.7,2.2-2.3s2.1-0.8,3.3-0.8C92.2,23.3,94,24,95.3,25.5z
				 M93.4,36c0.9-1.1,1.3-2.6,1.3-4.4s-0.4-3.3-1.3-4.4c-0.9-1.1-2.1-1.6-3.7-1.6c-1.5,0-2.8,0.5-3.7,1.6c-0.9,1.1-1.4,2.5-1.4,4.3
				v0.4c0,1.8,0.5,3.2,1.4,4.3c0.9,1.1,2.1,1.6,3.7,1.6C91.2,37.7,92.5,37.1,93.4,36z"/>
		</g>
	</g>
</g>
</svg>
