<svg xmlns="http://www.w3.org/2000/svg" viewBox="0 0 134.68 65.1"><defs><style>.cls-1{fill:none;}.cls-2{isolation:isolate;}.cls-3{fill:#fff;}</style></defs><g id="Layer_2" data-name="Layer 2"><g id="Layer_1-2" data-name="Layer 1"><g id="Layer_2-2" data-name="Layer 2"><g id="tutorial_design_en" data-name="tutorial design en"><rect class="cls-1" width="134.68" height="65.1"/><g class="cls-2"><path class="cls-3" d="M34.65,39.85a5.77,5.77,0,0,1-2.72-2.71L34,35.7a3.87,3.87,0,0,0,1.89,2.11,6.74,6.74,0,0,0,3.17.71A5.19,5.19,0,0,0,42,37.85a2,2,0,0,0,1-1.7A1.69,1.69,0,0,0,42,34.66a10.28,10.28,0,0,0-3.26-1,17.1,17.1,0,0,1-3.65-1,4.36,4.36,0,0,1-2-1.51,3.92,3.92,0,0,1-.61-2.25,4.06,4.06,0,0,1,.77-2.4,5.31,5.31,0,0,1,2.21-1.75,8.06,8.06,0,0,1,3.32-.65,7.88,7.88,0,0,1,4.12.94A5.28,5.28,0,0,1,45.18,28L43,29.24A4,4,0,0,0,41.45,27a4.69,4.69,0,0,0-2.61-.67,4.76,4.76,0,0,0-2.65.7,2,2,0,0,0-1.09,1.63A1.84,1.84,0,0,0,36,30.33a10.7,10.7,0,0,0,3.38,1A10.57,10.57,0,0,1,44.12,33,3.69,3.69,0,0,1,45.5,36a3.89,3.89,0,0,1-.82,2.45,5.23,5.23,0,0,1-2.33,1.68,10.23,10.23,0,0,1-7.7-.3Z"/><path class="cls-3" d="M60,39.32a5.94,5.94,0,0,1-4.13,1.44,4.68,4.68,0,0,1-3.18-1.06,4.07,4.07,0,0,1-1.27-3.23V26.65h-3.2V24.44h3.2V20.6L54,19.89v4.55h5.92v2.21H54V36a2.24,2.24,0,0,0,.66,1.75,2.53,2.53,0,0,0,1.74.59,3.74,3.74,0,0,0,2.72-1.19Z"/><path class="cls-3" d="M78,38.42l-.16,2a5.69,5.69,0,0,1-1.92.32,3.13,3.13,0,0,1-2-.55,2.67,2.67,0,0,1-.92-1.82,4.73,4.73,0,0,1-2.16,1.74,7.29,7.29,0,0,1-3,.63A6.47,6.47,0,0,1,64,39.65a3.65,3.65,0,0,1-1.54-3.18,4,4,0,0,1,1.6-3.15,9.7,9.7,0,0,1,4.64-1.84L73,30.77v-.89a3.4,3.4,0,0,0-1-2.56,3.82,3.82,0,0,0-2.76-1,4.83,4.83,0,0,0-2.76.77,4.89,4.89,0,0,0-1.81,2.27L62.78,28a5.46,5.46,0,0,1,2.38-2.85,7.79,7.79,0,0,1,4.08-1.05,7.18,7.18,0,0,1,4.58,1.37,4.91,4.91,0,0,1,1.73,4.07v7.87a1.13,1.13,0,0,0,.29.86,1.23,1.23,0,0,0,.92.29A5,5,0,0,0,78,38.42Zm-6.51-.86A2.89,2.89,0,0,0,73,35.06V32.85l-3.59.68a8.39,8.39,0,0,0-3.2,1.1,2.15,2.15,0,0,0-1,1.84A1.72,1.72,0,0,0,65.92,38a3.74,3.74,0,0,0,2.14.53A6.16,6.16,0,0,0,71.53,37.56Z"/><path class="cls-3" d="M91.07,24.44l-.51,2.49a4.37,4.37,0,0,0-2-.41,3.86,3.86,0,0,0-2,.59,4.46,4.46,0,0,0-1.6,1.79,6.18,6.18,0,0,0-.62,2.9v8.64H81.76v-16h2.08l.35,2.62q1.34-2.94,5.12-2.94A3.92,3.92,0,0,1,91.07,24.44Z"/><path class="cls-3" d="M103.64,39.32a5.91,5.91,0,0,1-4.12,1.44,4.69,4.69,0,0,1-3.19-1.06,4.1,4.1,0,0,1-1.26-3.23V26.65h-3.2V24.44h3.2V20.6l2.56-.71v4.55h5.92v2.21H97.63V36a2.27,2.27,0,0,0,.65,1.75,2.54,2.54,0,0,0,1.75.59,3.75,3.75,0,0,0,2.72-1.19Z"/></g></g></g></g></g></svg>